<svg width="495" height="260" viewBox="0 0 495 260" fill="none" xmlns="http://www.w3.org/2000/svg">
<g clip-path="url(#clip0_2863_60114)">
<path d="M83.7699 106.749C86.6199 99.6292 89.3199 92.6892 91.8899 85.9292C94.4499 79.1692 96.7899 73.0792 98.9299 67.6692C101.01 62.2692 103.04 57.0992 105.02 52.1292C105.59 50.8192 106.11 49.4992 106.62 48.1792C110.38 49.4692 114.13 50.7692 117.88 52.0692C118.48 52.2792 118.87 51.6592 118.8 51.1492C117.74 44.0192 116.68 36.8992 115.63 29.7692C114.57 22.6492 113.51 15.5192 112.46 8.38921C112.4 7.92921 111.73 7.67921 111.36 7.94921C103.1 13.9292 94.8499 19.9092 86.5899 25.8892C88.8299 33.9592 87.2799 43.2192 81.9399 49.5992C81.5599 50.4992 81.1999 51.4092 80.7899 52.4092C78.2299 58.5992 75.3399 65.7492 72.1399 73.8692C68.9499 81.9792 65.5199 90.5292 61.8899 99.4892C58.2599 108.459 54.8099 116.999 51.5399 125.109C48.2599 133.219 45.3799 140.419 42.8899 146.679C42.6499 147.259 42.2199 148.349 41.6099 149.839C41.6099 149.839 41.5899 149.819 41.5699 149.819C39.8599 153.829 38.0199 158.199 36.0199 162.999C33.1299 169.949 30.0399 177.279 26.7699 184.969C23.4799 192.669 20.3799 199.999 17.4199 206.969C14.4499 213.919 11.8599 220.089 9.59989 225.469C7.34989 230.849 5.76989 234.629 4.87989 236.829C4.23989 238.049 3.67989 239.209 3.23989 240.309C2.78989 241.409 2.36989 242.449 1.98989 243.409C1.47989 244.519 1.02989 245.609 0.639893 246.709C4.49989 247.679 8.15989 247.999 11.6299 247.629C14.5899 247.379 17.5499 246.529 20.4999 245.069C23.4599 243.599 25.8199 240.919 27.6399 237.019C28.4099 235.299 31.6999 229.339 33.7599 224.329C41.8299 209.049 61.1799 163.959 62.8399 160.129C63.6999 158.129 65.2699 154.229 67.5499 148.389C69.8199 142.559 72.5199 135.729 75.6599 127.889L83.7799 106.749H83.7699Z" fill="#91C9B1"/>
<path d="M110.62 13.4396C113.97 6.08963 122.42 3.54963 129.95 3.78963C137.32 4.02963 146.68 8.48963 147 16.8296C147.1 19.2496 150.87 19.2596 150.77 16.8296C149.98 -3.88037 115.03 -5.30037 107.38 11.5296C106.38 13.7296 109.62 15.6496 110.63 13.4296L110.62 13.4396Z" fill="#1D754F"/>
<path d="M0.23999 242.28L0.66999 246.74L7.70999 247.78L9.44999 240.72L0.23999 242.28Z" fill="#91C9B1"/>
<path d="M108.25 248.21C108.25 250.36 108.26 252.09 108.3 253.36C108.33 254.65 108.39 255.67 108.46 256.44C108.53 257.27 108.59 257.89 108.67 258.32C104.44 258.32 101.15 257.43 98.8301 255.65C96.5101 253.88 95.3401 250.91 95.3401 246.75L95.5601 202.71C95.5601 199.37 96.1401 196.6 97.3201 194.39C98.5001 192.15 100.13 190.36 102.22 189.02C104.3 187.66 106.75 186.69 109.56 186.09C112.37 185.51 115.44 185.11 118.77 184.9C122.03 184.7 125.47 184.94 129.09 185.63C132.69 186.33 136.06 187.61 139.19 189.43C142.31 191.27 144.92 193.75 147.04 196.88C149.16 199.99 150.33 203.96 150.54 208.75C150.67 211.67 150.31 214.67 149.44 217.77C148.58 220.85 147.14 223.64 145.11 226.15C143.1 228.65 140.43 230.71 137.1 232.34C133.78 233.98 129.71 234.79 124.93 234.79C122.58 234.79 120.4 234.65 118.42 234.36C116.44 234.09 114.69 233.77 113.16 233.43C111.36 233.01 109.72 232.54 108.27 231.98V248.21H108.25ZM122.62 224.58C127.05 224.58 130.68 223.26 133.5 220.63C136.32 217.99 137.6 214.03 137.42 208.75C137.28 205.98 136.66 203.65 135.59 201.78C134.51 199.9 133.11 198.44 131.43 197.41C129.72 196.36 127.76 195.66 125.54 195.33C123.32 194.97 121.06 194.91 118.76 195.11C116.68 195.33 114.98 195.68 113.66 196.2C112.34 196.72 111.28 197.35 110.49 198.08C109.69 198.81 109.13 199.63 108.82 200.52C108.51 201.42 108.35 202.32 108.35 203.22V221.56C109.61 222.11 111 222.6 112.52 223.03C113.84 223.35 115.33 223.7 117.05 224.05C118.73 224.41 120.6 224.58 122.62 224.58Z" fill="#5A4E37"/>
<path d="M155.31 233.22C155.31 228.56 155.98 224.77 157.34 221.81C158.69 218.87 160.44 216.55 162.6 214.89C164.75 213.23 167.17 212.09 169.82 211.5C172.51 210.92 175.17 210.63 177.8 210.63H182.91C183.25 212.09 183.31 213.43 183.11 214.68C182.97 215.72 182.5 216.72 181.7 217.69C180.91 218.67 179.6 219.25 177.8 219.47C176.62 219.6 175.46 219.86 174.32 220.24C173.18 220.62 172.16 221.28 171.24 222.23C170.35 223.15 169.6 224.49 169.01 226.22C168.41 227.97 168.12 230.3 168.12 233.21V248.31C168.12 250.38 168.14 252.08 168.18 253.36C168.2 254.65 168.26 255.67 168.33 256.44C168.4 257.27 168.47 257.89 168.55 258.32C164.3 258.32 161.06 257.43 158.76 255.65C156.46 253.88 155.32 250.91 155.32 246.75V233.22H155.31Z" fill="#5A4E37"/>
<path d="M224.76 216.87C226.92 219.09 228.59 221.71 229.82 224.73C231.02 227.76 231.64 230.99 231.64 234.47C231.64 237.95 231.08 241.18 229.97 244.21C228.86 247.23 227.29 249.85 225.28 252.07C223.26 254.37 220.81 256.17 217.94 257.49C215.06 258.81 211.85 259.47 208.31 259.47C205.11 259.47 202.11 258.81 199.31 257.49C196.5 256.17 194.01 254.37 191.87 252.07C189.77 249.85 188.13 247.24 186.91 244.21C185.69 241.18 185.08 237.96 185.08 234.47C185.08 230.98 185.62 227.77 186.7 224.73C187.77 221.72 189.31 219.09 191.32 216.87C193.34 214.58 195.78 212.76 198.67 211.47C201.55 210.14 204.76 209.48 208.3 209.48C211.57 209.48 214.59 210.14 217.4 211.47C220.22 212.77 222.67 214.58 224.75 216.87H224.76ZM208.31 250.5C209.21 250.5 210.28 250.3 211.48 249.88C212.7 249.47 213.85 248.67 214.97 247.5C216.08 246.31 217.01 244.67 217.77 242.6C218.54 240.51 218.93 237.81 218.93 234.47C218.93 231.13 218.54 228.42 217.77 226.31C217.02 224.18 216.09 222.55 214.97 221.41C213.85 220.27 212.69 219.49 211.48 219.07C210.27 218.65 209.21 218.44 208.31 218.44C207.41 218.44 206.34 218.65 205.13 219.07C203.92 219.49 202.74 220.26 201.65 221.41C200.53 222.56 199.6 224.18 198.83 226.31C198.07 228.42 197.69 231.14 197.69 234.47C197.69 237.8 198.07 240.51 198.83 242.6C199.6 244.67 200.53 246.31 201.65 247.5C202.75 248.67 203.92 249.47 205.13 249.88C206.34 250.31 207.4 250.5 208.31 250.5Z" fill="#5A4E37"/>
<path d="M268.07 249.15C268.07 249.36 268.11 249.6 268.18 249.87C268.32 250.43 268.38 250.96 268.38 251.44C268.38 252.67 268.12 253.8 267.57 254.81C267 255.82 266.24 256.66 265.26 257.37C263.33 258.75 260.96 259.45 258.18 259.45C255.89 259.45 253.63 258.94 251.41 257.88C249.19 256.84 247.17 255.28 245.37 253.2C243.57 251.11 242.12 248.54 241.05 245.44C239.97 242.35 239.44 238.73 239.44 234.56L239.55 204.47C239.55 200.3 240.65 197.31 242.87 195.5C245.1 193.69 248.33 192.8 252.56 192.8C252.49 193.29 252.42 193.94 252.35 194.79C252.28 195.55 252.22 196.56 252.19 197.85C252.16 199.14 252.14 200.82 252.14 202.91L252.24 209.47H266.19C266.19 212.59 265.35 215.09 263.6 216.97C261.86 218.84 259.39 219.78 256.2 219.78H252.24L252.14 234.56C252.14 237.48 252.4 239.93 252.92 241.9C253.44 243.88 254.16 245.5 255.06 246.74C256.92 249.1 259.36 250.29 262.35 250.29C263.6 250.29 264.85 250.11 266.1 249.76C266.8 249.55 267.45 249.35 268.07 249.14V249.15Z" fill="#5A4E37"/>
<path d="M311.29 248.21C312.11 248.7 312.92 249.53 313.68 250.72L313.99 251.02L313.68 251.34C311.39 253.84 308.66 255.8 305.51 257.22C302.36 258.64 298.92 259.34 295.26 259.34C292.06 259.34 289.07 258.7 286.25 257.42C283.43 256.14 280.96 254.35 278.8 252.05C276.72 249.83 275.08 247.22 273.87 244.19C272.66 241.16 272.04 237.94 272.04 234.45C272.04 230.96 272.59 227.75 273.67 224.71C274.74 221.7 276.28 219.04 278.31 216.75C280.31 214.53 282.76 212.75 285.65 211.45C288.51 210.12 291.74 209.46 295.28 209.46C297.21 209.46 299.34 209.75 301.67 210.35C304.01 210.95 306.17 211.88 308.19 213.15C310.21 214.45 311.88 216.12 313.18 218.21C314.5 220.3 315.17 222.77 315.17 225.71C315.17 228.65 314.45 230.85 312.99 232.63C311.52 234.4 309.8 235.79 307.78 236.79C305.75 237.8 303.64 238.49 301.37 238.88C299.11 239.26 297.16 239.45 295.49 239.45C292.92 239.45 290.68 239.29 288.77 238.98C286.87 238.67 285.57 238.43 284.87 238.3C285.14 240.8 285.71 242.84 286.54 244.38C287.37 245.95 288.3 247.18 289.34 248.08C290.39 248.99 291.42 249.59 292.47 249.91C293.51 250.22 294.44 250.37 295.28 250.37C296.74 250.37 298.13 250.25 299.43 249.96C300.75 249.68 301.93 249.37 302.99 249.03C304.02 248.68 305.01 248.33 305.95 247.99C306.89 247.63 307.8 247.47 308.71 247.47C309.67 247.47 310.54 247.7 311.31 248.19L311.29 248.21ZM295.25 218.33C294.48 218.39 293.58 218.59 292.55 218.9C291.49 219.21 290.47 219.79 289.47 220.63C288.47 221.45 287.54 222.63 286.71 224.17C285.87 225.69 285.28 227.63 284.94 230C286.05 230.34 287.63 230.68 289.69 230.99C291.74 231.29 293.77 231.37 295.83 231.15C297.87 230.94 299.69 230.34 301.25 229.38C302.81 228.41 303.65 226.78 303.79 224.49C303.93 222.75 303.25 221.26 301.77 220C300.27 218.77 298.11 218.2 295.26 218.35L295.25 218.33Z" fill="#5A4E37"/>
<path d="M335.97 195.21C334.5 197.63 332.48 198.85 329.92 198.85C328.81 198.85 327.77 198.61 326.8 198.11C325.76 197.5 324.95 196.68 324.4 195.68C323.84 194.68 323.57 193.59 323.57 192.4C323.57 191.07 323.88 189.89 324.51 188.86C325.13 187.67 326 186.77 327.11 186.1C328.22 185.45 329.37 185.12 330.55 185.12C331.59 185.12 332.59 185.39 333.58 185.94C334.69 186.49 335.51 187.29 336.08 188.34C336.64 189.38 336.91 190.5 336.91 191.67C336.91 192.92 336.6 194.11 335.98 195.21H335.97ZM344.08 248.94C343.72 249.42 343.14 249.82 342.32 250.14C341.48 250.44 340.65 250.55 339.82 250.39C338.98 250.27 338.25 249.82 337.63 249.1C337 248.36 336.69 247.17 336.69 245.5V220.62C336.69 218.52 336.71 216.85 336.74 215.56C336.78 214.27 336.83 213.25 336.9 212.5C336.95 211.66 337.02 211 337.11 210.53C332.81 210.53 329.53 211.42 327.33 213.22C325.1 215.02 324 218.01 324 222.17L323.88 246.75C323.88 248.48 324.14 250.16 324.66 251.75C325.19 253.34 325.99 254.74 327.06 255.92C328.13 257.09 329.47 258.02 331.07 258.68C332.66 259.33 334.53 259.56 336.69 259.34C338.91 259.22 340.54 258.57 341.58 257.42C342.64 256.27 343.32 255.07 343.67 253.83C344.08 252.36 344.23 250.74 344.08 248.93V248.94Z" fill="#5A4E37"/>
<path d="M349.5 232.06C349.5 227.41 350.17 223.62 351.53 220.66C352.87 217.71 354.62 215.4 356.73 213.75C358.84 212.08 361.24 210.96 363.92 210.36C366.6 209.76 369.28 209.47 371.98 209.47C374.68 209.47 377.31 209.76 380 210.36C382.72 210.96 385.15 212.09 387.35 213.75C389.52 215.4 391.31 217.71 392.66 220.66C394.01 223.62 394.7 227.41 394.7 232.06L395.11 258.31C390.87 258.31 387.61 257.4 385.32 255.59C383.03 253.78 381.88 250.84 381.88 246.74L381.99 232.05C381.99 229.14 381.69 226.8 381.11 225.03C380.51 223.26 379.73 221.87 378.76 220.86C377.79 219.86 376.71 219.18 375.55 218.83C374.37 218.48 373.18 218.31 372 218.31C370.82 218.31 369.65 218.48 368.51 218.83C367.37 219.18 366.33 219.86 365.4 220.86C364.45 221.87 363.69 223.26 363.12 225.03C362.52 226.8 362.22 229.14 362.22 232.05V248.19C362.29 250.28 362.34 251.97 362.38 253.29C362.42 254.61 362.47 255.65 362.53 256.42C362.59 257.25 362.67 257.87 362.75 258.3C358.45 258.3 355.15 257.39 352.86 255.58C350.57 253.77 349.41 250.83 349.41 246.73L349.53 232.04L349.5 232.06Z" fill="#5A4E37"/>
<path d="M427.7 246.13C427.84 244.95 427.5 243.95 426.71 243.16C425.9 242.36 424.77 241.58 423.26 240.87C421.78 240.13 420.03 239.35 418.02 238.52C416 237.69 413.89 236.59 411.67 235.19C410 234.21 408.63 233.06 407.55 231.69C406.47 230.35 405.69 228.89 405.21 227.32C404.73 225.76 404.51 224.16 404.58 222.53C404.65 220.9 405.03 219.29 405.73 217.69C406.43 216.18 407.32 214.88 408.45 213.83C409.56 212.8 410.78 211.95 412.13 211.28C413.48 210.63 414.86 210.15 416.25 209.87C417.63 209.6 418.92 209.46 420.1 209.46H421.35C425.02 209.66 428.38 210.57 431.44 212.16C434.5 213.75 437.1 215.88 439.24 218.5L439.56 218.82L439.24 219.23C438.56 220.21 437.79 220.93 436.95 221.42C436.2 221.9 435.32 222.14 434.35 222.14C433.38 222.14 432.44 221.95 431.54 221.58C430.63 221.2 429.67 220.79 428.64 220.38C427.31 219.82 426.08 219.35 424.94 218.98C423.8 218.59 422.63 218.39 421.44 218.39C419.92 218.39 418.76 218.73 418.01 219.39C417.24 220.05 416.79 220.82 416.65 221.73C416.51 223.05 416.92 224.14 417.9 225.02C418.86 225.9 420.28 226.69 422.17 227.47C424.33 228.36 426.61 229.35 429.05 230.42C431.47 231.49 433.62 232.82 435.48 234.38C437.37 235.95 438.79 237.81 439.77 239.99C440.74 242.19 440.85 244.84 440.07 247.97C439.73 249.2 439.13 250.51 438.31 251.87C437.47 253.23 436.31 254.46 434.82 255.56C433.33 256.68 431.53 257.59 429.41 258.33C427.28 259.04 424.81 259.41 421.96 259.41C421.4 259.41 420.94 259.37 420.6 259.29C417.27 259.17 414 258.3 410.76 256.71C407.53 255.1 404.84 252.98 402.69 250.34L402.37 250.04L402.69 249.63C403.02 249.07 403.42 248.62 403.82 248.27C404.25 247.93 404.63 247.61 404.98 247.33C405.8 246.91 406.63 246.71 407.47 246.71C408.45 246.71 409.38 246.91 410.28 247.29C411.17 247.67 412.15 248.06 413.2 248.48C414.17 248.97 415.26 249.39 416.48 249.73C417.7 250.08 419.03 250.31 420.49 250.45C423 250.45 424.79 249.97 425.85 249C426.92 248.02 427.54 247.05 427.68 246.08L427.7 246.13Z" fill="#5A4E37"/>
<path d="M316.93 124.589C316.93 118.889 316.36 114.309 315.19 110.849C314.04 107.389 312.52 104.669 310.62 102.709C308.71 100.739 306.62 99.4192 304.31 98.7392C301.99 98.0692 299.69 97.7192 297.38 97.7192C295.07 97.7192 292.8 98.0592 290.56 98.7392C288.32 99.4192 286.28 100.749 284.46 102.709C282.61 104.669 281.13 107.389 279.97 110.849C278.81 114.309 278.23 118.889 278.23 124.589V156.159C278.23 160.229 278.3 163.569 278.45 166.139C278.58 168.719 278.72 170.759 278.86 172.249C278.98 173.869 279.13 175.099 279.25 175.909C270.84 175.909 264.39 174.149 259.91 170.619C255.43 167.089 253.19 161.309 253.19 153.309L253.39 124.589C253.39 118.889 252.81 114.309 251.66 110.849C250.51 107.389 248.99 104.669 247.08 102.709C245.17 100.739 243.07 99.4192 240.77 98.7392C238.45 98.0692 236.16 97.7192 233.85 97.7192C231.54 97.7192 229.27 98.0592 227.03 98.7392C224.79 99.4192 222.76 100.749 220.92 102.709C219.1 104.669 217.63 107.389 216.55 110.849C215.46 114.309 214.92 118.889 214.92 124.589V156.159C214.92 160.229 214.96 163.569 215.02 166.139C215.1 168.719 215.2 170.759 215.34 172.249C215.48 173.869 215.62 175.099 215.75 175.909C207.32 175.909 200.88 174.149 196.41 170.619C191.93 167.089 189.68 161.309 189.68 153.309L189.88 124.589C189.88 115.499 191.21 108.069 193.86 102.299C196.5 96.5292 199.93 92.0192 204.14 88.7592C208.34 85.4992 213.06 83.2992 218.29 82.1392C223.53 80.9892 228.71 80.4092 233.87 80.4092C239.57 80.4092 245.2 81.0892 250.77 82.4492C256.34 83.8092 261.29 86.3892 265.63 90.1792C269.97 86.3892 274.94 83.8092 280.49 82.4492C286.05 81.0892 291.69 80.4092 297.39 80.4092C302.55 80.4092 307.77 80.9892 313.07 82.1392C318.37 83.2992 323.15 85.4992 327.42 88.7592C331.7 92.0192 335.16 96.5292 337.81 102.299C340.45 108.069 341.77 115.499 341.77 124.589V156.159C341.77 160.229 341.81 163.569 341.88 166.139C341.95 168.719 342.06 170.759 342.18 172.249C342.31 173.869 342.45 175.099 342.59 175.909C334.16 175.909 327.75 174.149 323.34 170.619C318.93 167.089 316.72 161.309 316.72 153.309L316.93 124.589Z" fill="#1D754F"/>
<path d="M444.98 155.4C444.3 156.36 443.14 157.13 441.52 157.74C439.89 158.34 438.26 158.52 436.63 158.25C435 157.98 433.58 157.12 432.35 155.7C431.12 154.28 430.52 151.93 430.52 148.67L430.36 135.86C431.03 132.67 431.42 129.28 431.42 125.59V123.97C431.15 110.26 427.14 99.1896 419.41 90.7696C415.61 86.8396 411.12 83.7396 405.97 81.4996C400.8 79.2596 395.1 78.1396 388.86 78.1396H387.13C386.66 78.1396 386.08 78.2096 385.4 78.3496C378.89 78.7596 372.87 80.2897 367.38 82.9397C361.88 85.5797 357.11 89.0696 353.03 93.4196L352.63 94.0296L353.03 94.8396C354.25 97.0096 355.68 98.5796 357.31 99.5196C359.07 100.33 360.9 100.74 362.81 100.74C364.57 100.74 366.4 100.5 368.3 100.02C370.19 99.5596 372.1 98.9697 374 98.2896C375.9 97.6096 377.79 97.0296 379.69 96.5596C381.59 96.0896 383.49 95.7796 385.4 95.6497H387.64C389.68 95.6497 391.48 95.8197 393.04 96.1597C394.61 96.4997 396.06 97.0097 397.42 97.6897C400.95 99.5897 403.6 102.65 405.37 106.85C406.72 110.11 407.61 113.85 408.02 118.05C401.65 116.01 394.91 114.99 387.87 114.99C382.84 114.99 378.01 115.57 373.4 116.73C368.77 117.88 364.64 119.61 360.98 121.92C357.03 124.5 354.13 127.56 352.23 131.08C350.05 134.61 348.96 139.03 348.96 144.32V145.54C349.1 151.25 350.46 156.06 353.04 160C354.79 163.12 356.98 165.67 359.55 167.64C362.13 169.6 364.99 171.2 368.1 172.42C371.09 173.78 374.14 174.69 377.26 175.18C380.38 175.65 383.37 175.89 386.22 175.89H388.86C389.68 175.89 390.49 175.81 391.31 175.68C397.41 175 402.96 173.3 407.9 170.6C409.05 169.97 410.23 169.33 411.38 168.65C411.48 168.77 411.57 168.9 411.68 169.01C413.79 171.33 416.4 173.13 419.52 174.42C422.63 175.7 426.32 176.15 430.52 175.74C434.86 175.47 438.06 174.22 440.09 171.98C442.14 169.74 443.47 167.4 444.17 164.95C444.98 162.1 445.25 158.92 444.98 155.38V155.4ZM401.69 152.19C400.74 153.33 399.59 154.33 398.24 155.14C395.37 157.17 392.05 158.26 388.26 158.4C387.72 158.53 386.89 158.61 385.81 158.61C382.27 158.61 379.46 158.13 377.36 157.17C375.26 156.23 373.66 155.08 372.57 153.71C371.35 152.35 370.54 150.89 370.14 149.33C369.73 147.77 369.51 146.31 369.51 144.95C369.51 144.14 369.59 143.52 369.73 143.12C369.85 141.91 370.14 140.78 370.54 139.77C370.94 138.74 371.49 137.83 372.16 137.02C373.92 134.71 376.51 133.01 379.91 131.92C381.4 131.38 383.02 131 384.8 130.81C386.56 130.61 388.39 130.51 390.29 130.51C392.61 130.51 394.88 130.65 397.12 130.91C399.36 131.19 401.36 131.46 403.13 131.72C404.07 132 404.88 132.21 405.56 132.34C406.25 132.48 406.85 132.61 407.38 132.75C407.52 132.75 407.62 132.78 407.69 132.84C407.77 132.92 407.86 132.95 408 132.95C408 135.25 407.71 137.76 407.18 140.48C406.64 143.2 405.61 145.85 404.12 148.41C403.43 149.77 402.63 151.04 401.68 152.19H401.69Z" fill="#1D754F"/>
<path d="M478.18 49.3893C475.31 54.1693 471.34 56.5693 466.29 56.5693C464.09 56.5693 462.06 56.0993 460.13 55.1293C458.09 53.8893 456.51 52.2893 455.41 50.3093C454.31 48.3293 453.77 46.1793 453.77 43.8493C453.77 41.2493 454.38 38.9193 455.61 36.8693C456.85 34.5493 458.55 32.7393 460.74 31.4393C462.93 30.1393 465.18 29.4893 467.52 29.4893C469.57 29.4893 471.55 30.0393 473.46 31.1293C475.65 32.2293 477.29 33.7993 478.38 35.8493C479.47 37.8993 480.03 40.0893 480.03 42.4093C480.03 44.8693 479.4 47.1993 478.18 49.3893ZM494.19 155.239C493.49 156.199 492.34 156.979 490.7 157.599C489.05 158.209 487.41 158.379 485.77 158.099C484.13 157.829 482.69 156.969 481.46 155.539C480.23 154.109 479.63 151.749 479.63 148.469V99.4293C479.63 95.3293 479.65 92.0193 479.73 89.4793C479.79 86.9493 479.9 84.9393 480.04 83.4293C480.16 81.7893 480.31 80.4893 480.45 79.5393C471.97 79.5393 465.53 81.3193 461.17 84.8693C456.78 88.4193 454.59 94.2993 454.59 102.509L454.38 150.929C454.38 154.349 454.89 157.619 455.92 160.759C456.95 163.909 458.52 166.649 460.64 168.979C462.76 171.299 465.39 173.119 468.54 174.399C471.68 175.709 475.38 176.149 479.62 175.739C483.99 175.469 487.19 174.199 489.27 171.949C491.31 169.699 492.68 167.329 493.37 164.869C494.19 161.999 494.45 158.779 494.19 155.229V155.239Z" fill="#1D754F"/>
<path d="M383.47 15.4893C383.47 15.4893 384.47 18.9393 388.71 21.5293C392.93 24.1193 402.78 25.9193 410.14 32.7493C417.5 39.5693 415.58 47.6093 414.29 50.1093C413.02 52.6093 409.87 52.2993 409.87 52.2993C409.87 52.2993 409.74 57.0893 402.73 55.5693C378.91 46.5493 383.47 15.4993 383.47 15.4993V15.4893Z" fill="#1D754F"/>
<path d="M433.9 19.4893C433.9 19.4893 435.23 22.1093 433.84 26.0393C432.43 29.9693 426.71 36.6193 425.63 44.8593C424.56 53.0693 430.6 56.7493 432.95 57.5093C435.29 58.2693 437.29 56.2993 437.29 56.2993C437.29 56.2993 440.18 59.0693 444.13 54.1993C455.25 35.3393 433.9 19.4993 433.9 19.4993V19.4893Z" fill="#1D754F"/>
<path d="M437.2 44.6992C437.2 44.6992 437.12 53.0692 439.63 60.0492C442.14 67.0292 449.38 70.6692 449.38 70.6692C449.38 70.6692 439.72 67.9492 437.4 61.4892C435.07 55.0292 437.2 44.6992 437.2 44.6992Z" fill="#5A4E37"/>
<path d="M473.72 72.9001C478.05 72.4701 480.82 72.0701 480.82 72.0701C480.82 72.0701 451.87 72.1901 433.32 65.8901C414.76 59.5901 404.89 42.8301 404.89 42.8301C404.89 42.8301 406.82 48.5001 410.94 54.8901C415.95 59.8501 423.67 65.8401 433.72 68.7501C446.47 72.4301 463.84 72.9501 473.72 72.9001Z" fill="#5A4E37"/>
<path d="M153.98 103.979L82.07 104.329C84.87 97.3294 87.53 90.4894 90.05 83.8394C92.57 77.1794 94.89 71.1994 96.98 65.8694C99.03 60.5594 101.04 55.4694 102.98 50.5794C103.53 49.2994 104.04 47.9894 104.55 46.6994C108.24 47.9694 111.93 49.2594 115.63 50.5294C116.22 50.7294 116.61 50.1294 116.54 49.6194C115.49 42.6094 114.45 35.5894 113.41 28.5794C112.37 21.5594 111.33 14.5494 110.29 7.5394C110.22 7.0894 109.56 6.8394 109.21 7.0994C96.77 16.1094 84.34 25.1194 71.9 34.1294C71.38 34.5094 71.44 35.2494 72.08 35.4794C75.96 36.8194 79.86 38.1694 83.75 39.5094C82.72 42.1094 81.17 45.8694 79.12 50.8594C76.6 56.9494 73.77 63.9994 70.61 71.9894C67.46 79.9694 64.09 88.3794 60.52 97.2094C56.94 106.029 53.55 114.439 50.33 122.419C47.1 130.399 44.27 137.489 41.82 143.649C41.59 144.219 41.17 145.299 40.57 146.769C40.56 146.769 40.55 146.749 40.53 146.739C38.84 150.689 37.03 154.999 35.06 159.719C32.21 166.569 29.18 173.779 25.95 181.349C22.72 188.929 19.65 196.129 16.74 202.979C13.83 209.839 11.27 215.909 9.05999 221.199C6.84999 226.489 5.29999 230.209 4.40999 232.379C3.76999 233.589 3.23999 234.729 2.79999 235.809C2.34999 236.879 1.93999 237.909 1.56999 238.869C1.05999 239.959 0.60999 241.039 0.23999 242.119C4.02999 243.089 7.63999 243.379 11.06 243.019C13.96 242.779 16.87 241.939 19.79 240.499C22.69 239.059 25.03 236.409 26.81 232.559C27.57 230.879 30.81 225.019 32.84 220.089C40.79 205.029 59.83 160.669 61.47 156.899C62.31 154.929 63.85 151.079 66.1 145.339C68.34 139.599 71 132.869 74.09 125.169L161.57 124.809C159.28 117.969 155.8 111.029 153.99 104.009L153.98 103.979Z" fill="#1D754F"/>
<path d="M8.22999 243.32C5.65999 243.32 2.95999 242.96 0.18999 242.26L-0.0100098 242.21L0.0599902 242.02C0.43999 240.92 0.88999 239.83 1.39999 238.76C1.78999 237.76 2.19999 236.73 2.62999 235.7C3.05999 234.64 3.57999 233.51 4.24999 232.25C5.09999 230.19 6.60999 226.53 8.88999 221.09C11.5 214.85 14.02 208.89 16.58 202.88C19.49 196.02 22.55 188.81 25.78 181.24C29.14 173.36 32.12 166.29 34.89 159.61C36.8 155 38.65 150.63 40.35 146.64L40.44 146.43L40.47 146.46C41.02 145.11 41.42 144.11 41.64 143.55C44.39 136.65 47.25 129.5 50.15 122.33C53.37 114.34 56.76 105.94 60.34 97.11C64.37 87.13 67.58 79.12 70.43 71.9C73.67 63.69 76.46 56.78 78.94 50.77C81 45.77 82.5 42.11 83.49 39.6L72.01 35.64C71.66 35.51 71.42 35.24 71.37 34.9C71.32 34.55 71.47 34.19 71.78 33.97C84.23 24.96 96.66 15.95 109.09 6.94004C109.5 6.64004 110.36 6.87004 110.46 7.50004L116.7 49.59C116.75 49.89 116.65 50.23 116.46 50.46C116.22 50.72 115.89 50.81 115.56 50.7L104.66 46.93C104.19 48.09 103.69 49.4 103.13 50.66C101.04 55.93 99.08 60.93 97.13 65.95C95.1 71.14 92.82 77.02 90.21 83.92C87.75 90.39 85.1 97.2 82.32 104.16L154.09 103.82L154.13 103.95C155.21 108.13 156.91 112.35 158.56 116.43C159.66 119.16 160.8 121.98 161.72 124.74L161.8 124.98L74.19 125.34C71.19 132.8 68.53 139.54 66.25 145.4C63.96 151.25 62.44 155.03 61.61 156.96C61.46 157.3 61.17 157.98 60.76 158.93C43.77 198.22 36.28 213.91 32.98 220.16C31.58 223.55 29.59 227.43 28.26 230C27.66 231.18 27.19 232.09 26.95 232.62C25.16 236.5 22.77 239.2 19.84 240.65C16.93 242.09 13.97 242.95 11.04 243.2C10.11 243.29 9.15999 243.34 8.19999 243.34L8.22999 243.32ZM0.47999 241.96C3.13999 242.62 5.74999 242.96 8.22999 242.96C9.16999 242.96 10.12 242.9 11.04 242.81C13.93 242.56 16.84 241.71 19.71 240.3C22.56 238.9 24.9 236.26 26.64 232.46C26.89 231.93 27.36 230.99 27.96 229.82C29.28 227.25 31.27 223.39 32.67 220C35.97 213.74 43.46 198.05 60.44 158.77C60.85 157.81 61.15 157.14 61.29 156.8C62.11 154.87 63.63 151.09 65.93 145.26C68.22 139.37 70.9 132.58 73.9 125.07L73.96 124.96H74.08L161.31 124.6C160.4 121.92 159.3 119.2 158.23 116.55C156.6 112.51 154.91 108.33 153.82 104.17L81.78 104.51L81.88 104.26C84.7 97.21 87.38 90.31 89.86 83.77C92.48 76.87 94.75 70.99 96.79 65.8C98.74 60.78 100.69 55.78 102.79 50.51C103.36 49.18 103.9 47.83 104.37 46.63L104.43 46.47L115.67 50.35C115.91 50.43 116.09 50.32 116.18 50.22C116.3 50.07 116.37 49.84 116.34 49.64L110.09 7.56004C110.05 7.24004 109.51 7.08004 109.29 7.24004C96.86 16.26 84.43 25.26 71.99 34.27C71.78 34.41 71.69 34.63 71.72 34.85C71.75 35.06 71.9 35.22 72.12 35.3L83.97 39.4L83.9 39.57C82.89 42.09 81.38 45.8 79.27 50.92C76.78 56.92 74 63.84 70.75 72.04C67.91 79.26 64.71 87.28 60.67 97.25C57.1 106.08 53.7 114.49 50.48 122.47C47.58 129.64 44.72 136.79 41.97 143.7C41.74 144.27 41.31 145.35 40.71 146.81L40.62 147.06L40.58 147.02C38.9 150.94 37.1 155.23 35.21 159.76C32.44 166.43 29.46 173.51 26.1 181.39C22.87 188.96 19.8 196.17 16.9 203.03C14.34 209.05 11.83 215 9.20999 221.23C6.93999 226.68 5.40999 230.34 4.55999 232.42C3.90999 233.68 3.37999 234.79 2.94999 235.84C2.52999 236.87 2.10999 237.9 1.71999 238.9C1.23999 239.91 0.81999 240.92 0.45999 241.96H0.47999Z" fill="white"/>
<path d="M159.66 55.039C159.12 52.739 152.03 52.569 145.15 52.399C142.26 52.339 139.28 52.259 136.62 52.049C131.87 51.799 127.39 51.259 126.93 48.939L123.7 34.019L124.12 33.909L123.69 33.959L124.58 33.749V33.799C125.15 36.099 132.25 36.259 139.1 36.429C141.99 36.509 144.98 36.569 147.62 36.789C152.39 37.029 156.84 37.559 157.32 39.879L160.57 54.869L159.66 55.029V55.039ZM127.83 48.749C128.19 50.589 132.78 51.039 136.75 51.239C139.39 51.469 142.36 51.539 145.23 51.589C151.37 51.749 156.85 51.879 159.28 53.289L156.41 40.089C156.04 38.259 151.44 37.789 147.47 37.589C144.83 37.379 141.87 37.309 138.99 37.239C132.86 37.089 127.39 36.959 124.96 35.539L127.83 48.739V48.749Z" fill="white"/>
<path d="M136.68 51.6494C131.68 51.3894 127.76 50.7894 127.38 48.8394L124.13 33.8594C124.85 37.5194 138.06 36.4194 147.56 37.1994C152.56 37.4494 156.47 38.0494 156.86 39.9994L160.12 54.9894C159.38 51.3294 146.18 52.4294 136.68 51.6594V51.6494Z" fill="#1D754F"/>
<path d="M159.4 156.309C154.39 156.069 150.47 155.459 150.1 153.509L146.85 138.529C147.56 142.199 160.78 141.089 170.28 141.879C175.28 142.109 179.19 142.719 179.58 144.659L182.83 159.669C182.1 155.989 168.88 157.109 159.4 156.309Z" fill="#1D754F"/>
<path d="M182.38 159.719C181.84 157.409 174.74 157.249 167.87 157.079C164.98 157.009 162 156.939 159.33 156.709C154.58 156.479 150.11 155.929 149.65 153.609L146.41 138.689L146.83 138.579L146.39 138.619L146.43 138.599H146.38L147.28 138.399L147.3 138.449C147.85 140.739 154.95 140.909 161.79 141.089C164.67 141.159 167.66 141.229 170.33 141.449C175.08 141.679 179.56 142.219 180.01 144.529L183.26 159.549L182.36 159.709L182.38 159.719ZM150.55 153.399C150.91 155.229 155.5 155.699 159.47 155.889C162.11 156.119 165.08 156.189 167.95 156.259C174.09 156.399 179.57 156.529 182 157.959L179.13 144.759C178.76 142.929 174.17 142.459 170.19 142.269C167.54 142.049 164.57 141.979 161.71 141.899C155.58 141.759 150.11 141.629 147.68 140.209L150.55 153.389V153.399Z" fill="white"/>
<path d="M153.72 130.139C148.7 129.889 144.8 129.299 144.41 127.349L141.17 112.359C141.89 116.019 155.12 114.919 164.6 115.699C169.61 115.949 173.52 116.549 173.91 118.499L177.16 133.489C176.44 129.839 163.21 130.939 153.72 130.149V130.139Z" fill="#1D754F"/>
<path d="M176.7 133.549C176.15 131.249 169.05 131.079 162.19 130.909C159.31 130.839 156.33 130.759 153.66 130.539C148.9 130.299 144.43 129.779 143.97 127.449L140.73 112.519L141.16 112.419L140.73 112.459H140.77H140.72L141.62 112.249L141.64 112.299C142.19 114.589 149.29 114.759 156.15 114.919C159.04 114.979 162.01 115.049 164.66 115.289C169.42 115.519 173.89 116.069 174.35 118.379L177.6 133.369L176.7 133.539V133.549ZM144.87 127.249C145.23 129.079 149.82 129.539 153.8 129.739C156.45 129.949 159.42 130.029 162.31 130.099C168.42 130.239 173.9 130.379 176.33 131.789L173.45 118.599C173.08 116.779 168.49 116.299 164.51 116.109C161.87 115.889 158.92 115.819 156.06 115.749C149.91 115.609 144.44 115.489 142.01 114.059L144.87 127.259V127.249Z" fill="white"/>
<path d="M148.04 103.969C143.03 103.719 139.11 103.119 138.75 101.169L135.49 86.1787C136.22 89.8387 149.42 88.7387 158.93 89.5187C163.92 89.7787 167.83 90.3787 168.22 92.3287L171.48 107.309C170.75 103.639 157.54 104.749 148.04 103.969Z" fill="#1D754F"/>
<path d="M171.02 107.369C170.48 105.079 163.38 104.909 156.51 104.739C153.63 104.679 150.64 104.609 147.98 104.389C143.22 104.139 138.75 103.599 138.28 101.289L135.05 86.3589L135.47 86.2489L135.04 86.2889H135.08H135.03L135.92 86.0889V86.1389C136.49 88.4289 143.59 88.5989 150.44 88.7689C153.33 88.8389 156.3 88.9089 158.96 89.1189C163.73 89.3589 168.19 89.8989 168.66 92.2289L171.91 107.229L171 107.369H171.02ZM139.19 101.069C139.55 102.909 144.14 103.369 148.11 103.569C150.77 103.789 153.72 103.869 156.6 103.939C162.72 104.089 168.21 104.209 170.63 105.629L167.76 92.4389C167.39 90.6189 162.81 90.1489 158.83 89.9489C156.18 89.7289 153.21 89.6589 150.34 89.5889C144.23 89.4389 138.75 89.3089 136.32 87.8989L139.19 101.089V101.069Z" fill="white"/>
<path d="M142.36 77.8086C137.35 77.5586 133.44 76.9486 133.06 74.9986L129.82 60.0186C130.54 63.6786 143.75 62.5786 153.25 63.3586C158.25 63.6186 162.16 64.2186 162.55 66.1586L165.8 81.1486C165.07 77.4786 151.86 78.5886 142.36 77.8086Z" fill="#1D754F"/>
<path d="M165.34 81.2089C164.8 78.9089 157.69 78.7289 150.83 78.5689C147.94 78.4989 144.96 78.4389 142.31 78.2089C137.55 77.9789 133.08 77.4289 132.61 75.1189L129.39 60.1989L129.81 60.0889L129.37 60.1289L130.27 59.9189V59.9789C130.84 62.2589 137.94 62.4289 144.79 62.5889C147.68 62.6689 150.66 62.7389 153.33 62.9489C158.09 63.1989 162.55 63.7389 163.02 66.0589L166.27 81.049L165.37 81.2189L165.34 81.2089ZM133.5 74.909C133.87 76.739 138.46 77.199 142.44 77.409C145.08 77.6189 148.04 77.6989 150.92 77.7689C157.05 77.9189 162.54 78.0489 164.96 79.4589L162.1 66.2689C161.73 64.4389 157.14 63.9689 153.15 63.7689C150.51 63.5489 147.55 63.4689 144.67 63.4089C138.54 63.2689 133.07 63.1289 130.65 61.7089L133.5 74.8989V74.909Z" fill="white"/>
<path d="M158.58 87.9292C162.98 85.4092 166.24 83.0692 165.8 81.1492L162.55 66.1592C163.41 69.7892 151.05 74.8492 142.82 79.8992C138.41 82.4292 135.14 84.7492 135.6 86.6692L138.85 101.659C137.99 98.0392 150.36 92.9792 158.59 87.9292H158.58Z" fill="#91C9B1"/>
<path d="M138.37 101.699L135.13 86.7888C134.59 84.4988 138.4 81.9488 142.58 79.5688C144.9 78.1488 147.55 76.7188 150.12 75.3288C156.24 72.0388 162.57 68.6388 162.1 66.3188L162.91 66.1388L162.1 66.2788L162.17 66.2488L162.1 66.2688L163 66.0488L166.25 81.0288C166.79 83.3388 162.98 85.8788 158.83 88.2688C156.5 89.6888 153.86 91.1088 151.3 92.4888C145.18 95.7688 138.84 99.1788 139.29 101.509L139.31 101.559L138.86 101.669L138.39 101.709L138.37 101.699ZM150.54 76.0288C147.98 77.3988 145.34 78.8188 143.04 80.2388C139.55 82.2288 135.6 84.7588 136.04 86.5588L138.9 99.7588C140.51 97.3688 145.39 94.7388 150.85 91.7988C153.4 90.4388 156.04 89.0188 158.35 87.5888C161.85 85.5988 165.77 83.0888 165.35 81.2488L162.49 68.0688C160.88 70.4488 156 73.0788 150.54 76.0288Z" fill="white"/>
<path d="M152.89 61.769C157.3 59.249 160.57 56.909 160.12 54.989L156.86 39.999C157.73 43.629 145.35 48.689 137.13 53.739C132.71 56.269 129.45 58.589 129.9 60.509L133.16 75.509C132.3 71.879 144.66 66.819 152.88 61.779L152.89 61.769Z" fill="#91C9B1"/>
<path d="M132.7 75.5389L129.46 60.6189C128.93 58.3289 132.73 55.7889 136.92 53.3889C139.23 51.9689 141.88 50.5389 144.44 49.1589C150.56 45.8689 156.9 42.4589 156.43 40.1389L157.24 39.9489L156.43 40.0989L157.32 39.8789L160.57 54.8589C161.11 57.1589 157.3 59.6989 153.14 62.0789C150.83 63.5089 148.17 64.9389 145.61 66.3189C139.49 69.6089 133.17 73.0089 133.6 75.3189V75.3789L133.18 75.4889L132.7 75.5289V75.5389ZM144.87 49.8489C142.31 51.2189 139.67 52.6489 137.37 54.0589C133.88 56.0589 129.92 58.5789 130.36 60.3889L133.23 73.5789C134.84 71.1889 139.73 68.5589 145.19 65.6289C147.73 64.2489 150.37 62.8289 152.69 61.4089C156.17 59.4289 160.1 56.9089 159.68 55.0789L156.82 41.8989C155.22 44.2789 150.33 46.9089 144.87 49.8489Z" fill="white"/>
<path d="M164.25 114.089C168.66 111.579 171.92 109.239 171.48 107.319L168.22 92.3389C169.07 95.9689 156.71 101.019 148.49 106.069C144.07 108.589 140.8 110.929 141.27 112.849L144.51 127.839C143.65 124.189 156.02 119.149 164.24 114.089H164.25Z" fill="#91C9B1"/>
<path d="M144.07 127.879L140.82 112.959C140.27 110.669 144.09 108.129 148.27 105.739C150.59 104.309 153.25 102.889 155.82 101.499C161.94 98.219 168.26 94.809 167.8 92.489L168.59 92.299L167.79 92.439L167.86 92.419H167.79L168.67 92.209L171.93 107.199C172.47 109.509 168.67 112.029 164.5 114.409C162.16 115.849 159.51 117.279 156.93 118.669C150.82 121.949 144.52 125.339 144.96 127.659V127.719L144.52 127.819L144.06 127.869L144.07 127.879ZM156.24 102.179C153.68 103.559 151.03 104.989 148.73 106.399C145.23 108.399 141.29 110.909 141.72 112.749L144.57 125.929C146.18 123.539 151.05 120.929 156.5 117.999C159.06 116.609 161.72 115.189 164.02 113.769C167.5 111.789 171.45 109.259 171.02 107.429L168.17 94.249C166.56 96.639 161.69 99.259 156.24 102.189V102.179Z" fill="white"/>
<path d="M169.86 139.939C174.26 137.439 177.53 135.089 177.08 133.169L173.84 118.179C174.68 121.809 162.33 126.869 154.11 131.909C149.69 134.429 146.42 136.769 146.89 138.689L150.13 153.679C149.27 150.039 161.64 145.009 169.86 139.939Z" fill="#91C9B1"/>
<path d="M149.67 153.719L146.43 138.809C145.89 136.509 149.68 133.969 153.87 131.579C156.2 130.159 158.86 128.719 161.43 127.339C167.53 124.049 173.86 120.649 173.4 118.329L174.19 118.149L173.39 118.279L174.28 118.059L177.53 133.049C178.07 135.369 174.27 137.889 170.11 140.269C167.76 141.709 165.11 143.129 162.53 144.519C156.43 147.799 150.12 151.199 150.56 153.509V153.559L150.12 153.679L149.65 153.719H149.67ZM161.85 128.019C159.29 129.409 156.65 130.829 154.35 132.239C150.85 134.229 146.89 136.759 147.33 138.589L150.19 151.759C151.8 149.379 156.67 146.759 162.11 143.819C164.66 142.439 167.32 141.029 169.64 139.599C173.13 137.619 177.07 135.099 176.64 133.269L173.77 120.089C172.18 122.459 167.3 125.089 161.85 128.019Z" fill="white"/>
<path d="M175.46 165.718C179.86 163.208 183.14 160.858 182.69 158.928L179.45 143.948C180.3 147.578 167.94 152.638 159.71 157.688C155.3 160.208 152.03 162.548 152.49 164.458L155.74 179.458C154.89 175.818 167.24 170.778 175.47 165.718H175.46Z" fill="#91C9B1"/>
<path d="M155.26 179.499L152.03 164.579C151.49 162.279 155.28 159.749 159.46 157.359C161.79 155.949 164.44 154.509 167.02 153.119C173.13 149.839 179.46 146.429 179 144.099L179.79 143.919L178.98 144.069L179.05 144.039L178.98 144.059L179.87 143.849L183.13 158.829C183.66 161.139 179.86 163.659 175.69 166.039C173.36 167.489 170.69 168.919 168.12 170.289C162.02 173.579 155.72 176.969 156.16 179.289L156.18 179.349L155.73 179.459L155.26 179.499ZM167.45 153.799C164.88 155.199 162.24 156.629 159.93 158.019C156.44 160.019 152.49 162.539 152.92 164.359L155.78 177.549C157.39 175.159 162.25 172.539 167.7 169.609C170.27 168.219 172.91 166.809 175.23 165.389C178.72 163.389 182.64 160.889 182.23 159.039L179.36 145.859C177.76 148.249 172.88 150.879 167.44 153.799H167.45Z" fill="white"/>
<path d="M147.02 34.7292C151.42 32.2092 154.7 29.8692 154.26 27.9392L151 12.9492C151.86 16.5792 139.5 21.6392 131.27 26.6892C126.86 29.2192 123.59 31.5392 124.05 33.4692L127.3 48.4592C126.44 44.8292 138.81 39.7692 147.02 34.7292Z" fill="#91C9B1"/>
<path d="M126.83 48.4994L123.59 33.5894C123.04 31.2994 126.86 28.7594 131.03 26.3694C133.34 24.9394 136 23.5094 138.57 22.1294C144.69 18.8494 151.02 15.4394 150.55 13.1194L151.36 12.9394L150.54 13.0894L150.61 13.0594L150.54 13.0794L151.43 12.8594L154.68 27.8394C155.23 30.1494 151.43 32.6894 147.26 35.0694C144.94 36.4994 142.29 37.9094 139.73 39.2994C133.61 42.5894 127.28 45.9894 127.72 48.3194V48.3694L127.29 48.4794L126.82 48.5194L126.83 48.4994ZM138.99 22.8294C136.43 24.1994 133.79 25.6194 131.49 27.0394C128 29.0294 124.06 31.5494 124.49 33.3594L127.35 46.5494C128.95 44.1594 133.84 41.5294 139.29 38.5894C141.84 37.2294 144.48 35.8094 146.79 34.3794C150.28 32.3894 154.21 29.8794 153.79 28.0494L150.93 14.8694C149.33 17.2594 144.44 19.8794 138.98 22.8294H138.99Z" fill="white"/>
</g>
<defs>
<clipPath id="clip0_2863_60114">
<rect width="494.28" height="259.45" fill="white"/>
</clipPath>
</defs>
</svg>
