<svg width="1336" height="275" viewBox="0 0 1336 275" fill="none" xmlns="http://www.w3.org/2000/svg">
<g clip-path="url(#clip0_679_8291)">
<path d="M1293.65 32.9473C1294.64 32.9473 1295.52 33.3569 1296.4 34.1762C1297.28 34.9954 1297.69 35.9317 1297.69 37.1021C1297.69 38.7991 1296.98 40.028 1295.58 40.7302C1294.59 41.1984 1293.3 41.4325 1291.6 41.4325H1288.62V65.5421C1288.62 67.2392 1288.27 68.7022 1287.51 69.931C1286.69 71.277 1285.64 71.9792 1284.29 71.9792C1282.95 71.9792 1281.83 71.394 1280.96 70.1651C1280.08 68.9362 1279.67 67.4733 1279.67 65.7177V41.3739H1276.86C1275.05 41.3739 1273.7 41.1984 1272.83 40.7302C1271.48 39.9695 1270.84 38.6821 1270.84 36.8095C1270.84 35.6976 1271.19 34.8199 1271.95 34.1176C1272.65 33.4154 1273.53 33.0643 1274.52 33.0643H1293.65V32.9473Z" fill="#138758"/>
<path d="M1298.97 38.2724C1298.97 36.6924 1299.38 35.405 1300.14 34.4102C1300.9 33.4153 1301.96 32.8887 1303.24 32.8887H1308.45C1310.26 32.8887 1311.55 33.6494 1312.43 35.1124C1313.01 36.1072 1313.54 37.9213 1314.06 40.6131C1314.59 43.2465 1315.23 46.6406 1315.94 50.7954C1316.52 54.3065 1317.16 57.8176 1317.75 61.3287L1318.98 54.8917C1320.09 49.0983 1321.2 43.305 1322.31 37.5116C1322.72 35.8731 1323.25 34.7028 1324.01 34.0005C1324.71 33.2983 1325.82 32.9472 1327.23 32.9472H1332.02C1333.43 32.9472 1334.48 33.5324 1335.18 34.7027C1335.77 35.7561 1336.06 37.1605 1336.06 38.9746V65.9517C1336.06 67.7073 1335.71 69.1117 1335.06 70.165C1334.3 71.3939 1333.25 71.9791 1331.85 71.9791C1330.62 71.9791 1329.62 71.4525 1328.86 70.4576C1328.1 69.4628 1327.75 68.1169 1327.75 66.5369V41.5494L1325.88 51.7317C1324.83 57.2324 1324.18 60.685 1323.89 62.031C1322.72 67.1221 1321.67 70.1065 1320.73 70.9843C1320.26 71.4525 1319.74 71.6865 1319.27 71.8621C1318.74 71.9791 1318.16 72.0376 1317.4 72.0376C1315.59 72.0376 1314.18 70.7502 1313.19 68.1169C1312.72 66.8295 1312.13 64.6058 1311.49 61.3287C1310.61 56.8813 1309.97 53.5458 1309.56 51.322C1308.74 47.1672 1308.1 43.8317 1307.69 41.2568V66.3613C1307.69 67.9999 1307.22 69.3458 1306.4 70.3991C1305.58 71.4525 1304.53 71.9791 1303.18 71.9791C1301.96 71.9791 1300.96 71.3354 1300.2 69.9895C1299.5 68.7021 1299.15 67.2391 1299.15 65.6006V38.2139L1298.97 38.2724Z" fill="#138758"/>
<path d="M5.25889 123.478C5.25889 103.874 13.8575 88.835 31.1718 78.4187C45.5613 69.6994 63.3435 65.3105 84.3429 65.3105C99.0249 65.3105 113.064 68.295 126.576 74.2054C143.831 81.7543 152.489 91.9365 152.489 104.694C152.489 110.604 150.383 115.929 146.113 120.669C141.843 125.409 136.637 127.75 130.495 127.75C123.183 127.75 116.047 123.712 109.203 115.695C102.359 107.678 92.8831 103.64 80.8333 103.64C72.2931 103.64 65.9758 105.045 61.8812 107.912C57.7281 110.78 55.6808 114.408 55.6808 118.914C55.6808 126.697 64.5719 133.134 82.2956 138.049C109.729 145.598 126.4 151.04 132.308 154.376C150.266 164.324 159.274 179.363 159.274 199.435C159.274 219.507 151.143 234.546 134.823 245.197C120.843 254.209 103.354 258.656 82.3541 258.656C65.0984 258.656 48.1936 255.204 31.6397 248.357C10.2309 239.638 -0.415039 227.934 -0.415039 213.246C-0.415039 207.101 1.63225 201.6 5.78534 196.743C9.93842 191.886 15.0859 189.487 21.2278 189.487C30.7038 189.487 39.127 194.52 46.6142 204.585C54.043 214.65 65.9173 219.683 82.2371 219.683C88.847 219.683 94.1699 218.629 98.206 216.464C103.88 213.597 106.746 209.149 106.746 203.005C106.746 195.222 97.9721 188.785 80.4823 183.869C54.2185 176.554 37.8986 171.112 31.5227 167.543C14.033 157.829 5.25889 143.199 5.25889 123.537V123.478Z" fill="#138758"/>
<path d="M606.871 177.433C607.105 178.135 607.222 179.422 607.222 181.354C607.222 183.285 607.339 184.923 607.573 186.328C608.743 195.105 613.305 202.479 621.202 208.506C629.099 214.534 637.58 217.577 646.588 217.577C655.597 217.577 665.716 213.071 676.362 204.117C681.568 199.611 686.657 197.388 691.629 197.388C698.473 197.388 704.264 199.494 709.002 203.766C713.74 208.038 716.079 213.597 716.079 220.444C716.079 232.733 707.188 242.564 689.465 249.879C675.251 255.789 660.978 258.774 646.53 258.774C617.692 258.774 594.763 250.171 577.741 232.85C560.719 215.587 552.179 192.531 552.179 163.681C552.179 134.831 560.719 111.892 577.741 93.4C594.763 74.9667 617.458 65.7207 645.828 65.7207C670.864 65.7207 691.161 73.7963 706.662 90.0059C722.163 106.216 729.884 126.99 729.884 152.27C729.884 160.814 728.246 167.134 724.912 171.23C721.578 175.385 715.787 177.433 707.539 177.433H606.812H606.871ZM680.632 138.752C677.532 116.749 665.248 105.747 643.722 105.747C634.246 105.747 626.116 108.849 619.272 114.993C612.428 121.138 608.275 129.096 606.871 138.752H680.632Z" fill="#138758"/>
<path d="M792.356 177.433C792.59 178.135 792.707 179.422 792.707 181.354C792.707 183.285 792.824 184.923 793.058 186.328C794.228 195.105 798.79 202.479 806.687 208.506C814.584 214.534 823.065 217.577 832.073 217.577C841.081 217.577 851.201 213.071 861.847 204.117C867.053 199.611 872.142 197.388 877.114 197.388C883.958 197.388 889.749 199.494 894.487 203.766C899.225 208.038 901.564 213.597 901.564 220.444C901.564 232.733 892.673 242.564 874.95 249.879C860.735 255.789 846.463 258.774 832.015 258.774C803.177 258.774 780.248 250.171 763.226 232.85C746.204 215.587 737.664 192.531 737.664 163.681C737.664 134.831 746.204 111.892 763.226 93.4C780.248 74.9667 802.943 65.7207 831.313 65.7207C856.348 65.7207 876.646 73.7963 892.147 90.0059C907.648 106.216 915.369 126.99 915.369 152.27C915.369 160.814 913.731 167.134 910.397 171.23C907.063 175.385 901.272 177.433 893.024 177.433H792.297H792.356ZM866.117 138.752C863.017 116.749 850.733 105.747 829.207 105.747C819.731 105.747 811.6 108.849 804.757 114.993C797.913 121.138 793.76 129.096 792.356 138.752H866.117Z" fill="#138758"/>
<path d="M939.585 30.9006C939.585 22.6495 941.808 15.7443 946.312 10.3021C950.816 4.85983 957.192 2.16797 965.44 2.16797C973.687 2.16797 979.654 4.91834 984.041 10.3021C988.428 15.7443 990.592 22.591 990.592 30.9006V226.411C990.592 234.721 988.135 241.743 983.339 247.537C978.484 253.33 972.049 256.256 964.036 256.256C955.262 256.256 948.769 252.569 944.557 245.254C941.223 239.578 939.585 231.912 939.585 222.198V30.9006Z" fill="#138758"/>
<path d="M1049.85 0.00383115C1056.92 0.00383115 1063.01 2.57865 1068.1 7.61126C1073.19 12.7024 1075.7 18.7883 1075.7 25.8691C1075.7 32.4817 1073.24 38.275 1068.27 43.2491C1063.3 48.2232 1057.39 50.681 1050.55 50.681C1042.01 50.681 1035.57 48.1062 1031.25 42.898C1026.86 37.6898 1024.69 30.7261 1024.69 21.9483C1024.69 16.5061 1027.44 11.4735 1033.06 6.85051C1038.62 2.22754 1044.23 -0.0546875 1049.91 -0.0546875L1049.85 0.00383115ZM1024.64 95.7989C1024.64 88.484 1027.03 82.164 1031.89 76.8388C1036.74 71.5136 1042.83 68.8803 1050.14 68.8803C1056.75 68.8803 1062.66 71.104 1067.86 75.6099C1073.07 80.1159 1075.64 85.6751 1075.64 92.2877V228.87C1075.64 235.951 1073.07 242.271 1068.04 247.83C1062.95 253.39 1056.98 256.198 1050.14 256.198C1042.36 256.198 1036.1 253.273 1031.54 247.304C1026.92 241.393 1024.64 234.43 1024.64 226.354V95.7989Z" fill="#138758"/>
<path d="M1128.11 68.8211C1134.43 68.8211 1139.99 70.7522 1144.67 74.6729C1149.35 78.5937 1152.62 83.7433 1154.55 90.1218C1162.16 81.8707 1169.64 75.7848 1177.13 72.0396C1184.62 68.2359 1193.68 66.3633 1204.33 66.3633C1224.04 66.3633 1239.54 72.9759 1250.95 86.2596C1261.6 98.7826 1266.98 115.109 1266.98 135.24V225.007C1266.98 234.019 1264.87 241.334 1260.6 247.01C1255.63 253.623 1248.9 256.958 1240.36 256.958C1230.89 256.958 1223.93 252.57 1219.42 243.85C1216.09 237.238 1214.45 228.577 1214.45 217.927V141.969C1214.45 132.489 1211.82 124.94 1206.67 119.264C1201.46 113.588 1194.15 110.72 1184.68 110.72C1181.11 110.72 1177.71 111.598 1174.38 113.354C1171.05 115.109 1168 117.45 1165.14 120.259C1160.87 124.297 1158.06 130.266 1156.6 138.166C1155.19 146.066 1154.49 154.317 1154.49 162.802C1154.49 168.01 1154.79 175.793 1155.37 186.209C1155.95 196.626 1156.25 204.526 1156.25 209.968C1156.25 223.193 1155.08 233.258 1152.68 240.105C1148.88 251.224 1141.57 256.783 1130.69 256.783C1121.21 256.783 1114.13 253.096 1109.39 245.781C1105.59 239.871 1103.72 231.737 1103.72 221.321V97.1441C1103.72 89.5952 1105.94 82.9241 1110.39 77.2477C1114.83 71.5714 1120.74 68.704 1127.99 68.704L1128.11 68.8211Z" fill="#138758"/>
<path d="M329.433 68.5884C328.263 68.9395 321.946 71.6314 315.57 82.6914C309.954 92.347 305.86 102.997 302.058 113.706C291.178 144.253 282.228 175.678 275.384 207.804C273.63 215.938 272.05 224.072 270.529 232.265C269.769 236.478 264.446 253.039 266.727 256.726C269.009 260.413 285.504 259.301 289.189 259.125C296.969 258.774 304.69 256.843 310.715 251.81C318.846 245.022 322.355 233.845 325.514 223.253C335.809 188.961 346.104 154.669 356.399 120.377C356.691 119.441 356.984 118.505 356.984 117.452C356.984 115.813 356.223 114.233 355.521 112.711C348.97 99.1937 344.583 80.3507 338.032 66.8914C335.224 65.2529 336.745 66.3062 329.55 68.5299L329.433 68.5884Z" fill="url(#paint0_linear_679_8291)"/>
<path d="M127.453 60.9804C147.399 68.5878 162.783 87.0797 173.663 106.683C185.07 127.165 192.557 149.519 200.103 171.639C209.111 198.09 219.815 233.493 236.544 247.713C245.494 255.321 257.076 258.715 267.429 259.827C279.362 261.114 289.95 260.47 303.169 256.316C294.337 251.81 287.317 245.373 281.819 236.653C276.32 227.934 272.343 218.396 268.541 208.857C252.279 168.304 237.714 127.048 218.236 87.899C214.083 79.5308 209.169 70.6945 201.214 66.4226C195.482 63.3211 188.989 63.0285 182.73 62.7945C164.363 62.1508 145.937 61.5656 127.57 60.9219L127.453 60.9804Z" fill="url(#paint1_linear_679_8291)"/>
<path d="M587.626 60.9805C567.68 68.5879 552.296 87.0798 541.416 106.684C530.009 127.165 522.522 149.519 514.976 171.639C505.968 198.09 495.673 233.493 472.1 254.385C463.326 262.226 456.19 260.763 445.778 261.875C435.483 262.987 427.469 261.114 416.999 257.954C415.127 257.369 414.717 254.853 416.355 253.799C423.141 249.528 428.698 243.851 433.26 236.712C438.817 228.051 442.736 218.454 446.538 208.916C462.8 168.362 477.365 127.107 496.843 87.9576C500.996 79.5894 505.91 70.7531 513.865 66.4812C519.597 63.3797 526.09 63.0871 532.349 62.8531C550.716 62.2094 569.142 61.6242 587.509 60.9805H587.626Z" fill="url(#paint2_linear_679_8291)"/>
<path d="M327.21 70.2847C327.21 70.2847 327.561 70.8699 327.912 71.338C339.085 85.7921 347.566 101.885 354.469 118.738C358.505 128.628 362.014 138.752 365.29 148.934C374.298 176.906 381.61 205.58 394.069 232.264C397.462 239.521 401.322 246.777 407.347 252.102C414.717 258.598 424.661 261.582 434.488 262.167C444.315 262.752 452.212 263.221 463.794 259.593C454.201 252.044 449.112 244.027 445.719 233.61C436.594 205.521 427.411 177.374 418.286 149.285C412.027 129.974 405.651 110.487 395.707 92.7559C390.208 82.9832 383.365 73.5617 373.596 68.061C366.284 63.9062 357.686 62.4432 349.38 63.0869C345.168 63.3795 340.956 64.2573 336.92 65.5447C334.873 66.1884 332.884 66.9491 330.954 67.8269C330.018 68.2365 329.082 68.6462 328.205 69.1728C327.386 69.641 327.093 69.8751 327.21 70.2847Z" fill="url(#paint3_linear_679_8291)"/>
</g>
<defs>
<linearGradient id="paint0_linear_679_8291" x1="238.152" y1="168.901" x2="251.387" y2="-26.8936" gradientUnits="userSpaceOnUse">
<stop offset="0.12" stop-color="#128858"/>
<stop offset="0.25" stop-color="#1E9F66"/>
<stop offset="0.37" stop-color="#26AD6E"/>
<stop offset="0.46" stop-color="#29B372"/>
<stop offset="0.62" stop-color="#21A469"/>
<stop offset="0.85" stop-color="#128858"/>
</linearGradient>
<linearGradient id="paint1_linear_679_8291" x1="142.815" y1="163.587" x2="155.544" y2="-26.6036" gradientUnits="userSpaceOnUse">
<stop stop-color="#29B372"/>
<stop offset="1" stop-color="#128858"/>
</linearGradient>
<linearGradient id="paint2_linear_679_8291" x1="547.485" y1="159.572" x2="534.6" y2="-32.4524" gradientUnits="userSpaceOnUse">
<stop stop-color="#29B372"/>
<stop offset="1" stop-color="#128858"/>
</linearGradient>
<linearGradient id="paint3_linear_679_8291" x1="353.517" y1="132.202" x2="465.725" y2="335.801" gradientUnits="userSpaceOnUse">
<stop stop-color="#29B372"/>
<stop offset="0.1" stop-color="#24AA6D"/>
<stop offset="0.39" stop-color="#1A9761"/>
<stop offset="0.69" stop-color="#148B5A"/>
<stop offset="1" stop-color="#128858"/>
</linearGradient>
<clipPath id="clip0_679_8291">
<rect width="1335.9" height="274.921" fill="white" transform="translate(0.104248)"/>
</clipPath>
</defs>
</svg>
