<svg width="189" height="189" viewBox="0 0 189 189" fill="none" xmlns="http://www.w3.org/2000/svg">
<path d="M99.2106 182.99C148.322 180.15 185.831 138.034 182.99 88.9233C180.15 39.8123 138.034 2.30281 88.9234 5.14353C39.8124 7.98425 2.30286 50.0994 5.14358 99.2105C7.9843 148.322 50.0995 185.831 99.2106 182.99Z" fill="#DD5390"/>
<path d="M57.4875 54.8301C62.6543 54.8301 67.4077 56.8968 71.1278 60.4102L86.008 75.2905L93.8615 83.1439L101.715 75.2905L116.595 60.4102C120.315 56.6902 125.069 54.8301 130.235 54.8301C135.402 54.8301 140.156 56.8968 143.876 60.4102C147.596 64.1303 149.456 68.8837 149.456 74.0505C149.456 79.2172 147.389 83.9706 143.876 87.6907L93.8615 137.705L43.8473 87.6907C36.4072 80.2506 36.4072 68.057 43.8473 60.6169C47.5674 56.8968 52.3208 54.8301 57.4875 54.8301ZM57.4875 43.6699C49.6341 43.6699 41.9873 46.5633 35.9938 52.5568C24.2136 64.337 24.2136 83.5573 35.9938 95.3375L93.8615 153.205L151.729 95.3375C163.509 83.5573 163.509 64.337 151.729 52.5568C145.736 46.5633 138.089 43.6699 130.235 43.6699C122.382 43.6699 114.735 46.5633 108.742 52.5568L93.8615 67.437L78.9813 52.5568C72.9878 46.77 65.341 43.6699 57.4875 43.6699Z" fill="white"/>
</svg>
