<svg width="178" height="179" viewBox="0 0 178 179" fill="none" xmlns="http://www.w3.org/2000/svg">
<path d="M177.736 89.3854C177.736 100.339 175.67 110.879 172.156 120.593C169.263 128.446 165.129 135.886 160.169 142.5C143.842 164.2 118.009 178.46 88.8682 178.46C59.7277 178.46 33.6872 164.407 17.567 142.5C12.6069 135.886 8.4735 128.446 5.58012 120.593C1.86006 110.879 0 100.339 0 89.3854C0 40.4046 39.8874 0.310547 89.0749 0.310547C137.849 0.517217 177.736 40.4046 177.736 89.3854Z" fill="#F4D850"/>
<path d="M88.6612 134.02C73.3676 134.02 60.7607 124.099 60.7607 111.699C60.7607 108.599 63.2408 106.119 66.3409 106.119C69.4409 106.119 71.9209 108.599 71.9209 111.699C71.9209 117.693 79.5677 122.859 88.6612 122.859C97.7547 122.859 105.402 117.693 105.402 111.699C105.402 108.599 107.882 106.119 110.982 106.119C114.082 106.119 116.562 108.599 116.562 111.699C116.562 123.893 104.161 134.02 88.6612 134.02Z" fill="#2E1A02"/>
<path d="M60.9679 94.9591C57.8678 94.9591 55.3878 92.479 55.3878 89.3789C55.3878 83.1788 50.4277 78.2188 44.2276 78.2188C38.0275 78.2188 33.0674 83.1788 33.0674 89.3789C33.0674 92.479 30.5873 94.9591 27.4873 94.9591C24.3872 94.9591 21.9072 92.479 21.9072 89.3789C21.9072 77.1854 31.8274 67.0586 44.2276 67.0586C56.6278 67.0586 66.548 76.9787 66.548 89.3789C66.548 92.479 64.0679 94.9591 60.9679 94.9591Z" fill="#2E1A02"/>
<path d="M149.836 94.9591C146.736 94.9591 144.256 92.479 144.256 89.3789C144.256 83.1788 139.296 78.2188 133.096 78.2188C126.896 78.2188 121.936 83.1788 121.936 89.3789C121.936 92.479 119.456 94.9591 116.355 94.9591C113.255 94.9591 110.775 92.479 110.775 89.3789C110.775 77.1854 120.696 67.0586 133.096 67.0586C145.496 67.0586 155.416 76.9787 155.416 89.3789C155.416 92.479 152.936 94.9591 149.836 94.9591Z" fill="#2E1A02"/>
<path opacity="0.6" d="M49.8076 122.859C49.8076 135.053 39.8874 145.179 27.4872 145.179C23.7671 145.179 20.4604 144.353 17.3604 142.699C12.4003 136.086 8.26692 128.646 5.37354 120.792C6.40689 109.426 15.9137 100.745 27.4872 100.745C39.8874 100.539 49.8076 110.459 49.8076 122.859Z" fill="#DD5390"/>
<path opacity="0.6" d="M172.156 120.586C169.263 128.439 165.129 135.879 160.169 142.493C157.069 144.146 153.763 144.973 150.043 144.973C137.849 144.973 127.722 135.053 127.722 122.652C127.722 110.459 137.642 100.332 150.043 100.332C161.409 100.539 170.916 109.426 172.156 120.586Z" fill="#DD5390"/>
</svg>
