<svg width="189" height="189" viewBox="0 0 189 189" fill="none" xmlns="http://www.w3.org/2000/svg">
<path d="M99.2106 182.99C148.322 180.15 185.831 138.034 182.99 88.9233C180.15 39.8123 138.034 2.30281 88.9234 5.14353C39.8124 7.98425 2.30285 50.0994 5.14357 99.2105C7.98429 148.322 50.0995 185.831 99.2106 182.99Z" fill="#F4D850"/>
<path d="M47.7886 137.689C46.3419 137.689 44.8952 137.069 43.8618 136.036C42.8285 135.002 42.2085 133.556 42.2085 132.109V75.4814C42.2085 72.3814 44.6886 69.9014 47.7886 69.9014H67.2156C68.6623 66.1813 71.1423 62.4612 72.7957 60.8079C90.776 38.9008 103.176 27.9473 109.79 27.9473C117.023 27.9473 120.743 31.4607 122.603 34.3541C127.15 42.0009 123.637 54.1944 120.33 62.6679H133.557C151.124 62.6679 157.324 76.9281 157.324 86.435V101.109C157.324 124.876 128.803 137.689 117.023 137.689H47.7886ZM53.162 81.0615V126.529H65.9756L65.7689 81.0615H53.162ZM77.1357 75.6881L77.3424 126.529H117.23C124.257 126.529 146.37 117.229 146.37 101.109V86.435C146.37 84.3683 145.544 73.8281 133.763 73.8281H111.856C109.996 73.8281 108.136 72.7947 107.103 71.1414C106.07 69.488 106.07 67.4213 106.896 65.7679C111.856 56.4678 115.576 44.0675 113.303 40.3475C113.096 40.1408 112.683 39.3141 110.41 39.3141C106.07 40.7608 92.2227 55.4344 81.4758 68.248C81.2692 68.4546 81.2691 68.6613 81.0625 68.6613C79.6158 69.6947 77.3424 74.0347 77.1357 75.6881Z" fill="black"/>
</svg>
