<svg width="189" height="189" viewBox="0 0 189 189" fill="none" xmlns="http://www.w3.org/2000/svg">
<path d="M99.3498 183.836C148.461 180.995 185.97 138.88 183.13 89.7691C180.289 40.658 138.174 3.14851 89.0626 5.98923C39.9515 8.82995 2.44202 50.9452 5.28274 100.056C8.12346 149.167 50.2387 186.677 99.3498 183.836Z" fill="#F4D850"/>
<path d="M155.405 100.502C155.405 115.589 150.032 129.229 140.939 139.976C129.778 153.409 113.038 161.676 94.231 161.676C75.424 161.676 58.6837 153.203 47.5236 139.976C38.4301 129.229 33.0566 115.589 33.0566 100.502H155.405Z" fill="#2E1A02"/>
<path d="M141.145 139.975C129.985 153.409 113.245 161.676 94.4379 161.676C75.631 161.676 58.8907 153.202 47.7305 139.975C58.8907 126.542 75.631 118.068 94.4379 118.068C113.245 118.068 129.985 126.542 141.145 139.975Z" fill="#DD5390"/>
<path d="M33.2634 89.5471C30.7834 89.5471 28.7167 87.8937 27.89 85.4136C27.0633 82.5203 28.7166 79.4202 31.61 78.5936L51.8637 72.8068L31.61 67.02C28.7166 66.1933 26.8566 63.0933 27.89 60.1999C28.7167 57.3065 31.8167 55.4465 34.7101 56.4798L73.5641 67.64C76.0442 68.26 77.6975 70.5334 77.6975 73.0134C77.6975 75.4935 76.0442 77.7669 73.5641 78.3869L34.7101 89.5471C34.0901 89.3404 33.6768 89.5471 33.2634 89.5471Z" fill="#2E1A02"/>
<path d="M155.612 89.5473C155.198 89.5473 154.579 89.5473 154.165 89.3406L115.311 78.1804C112.831 77.5604 111.178 75.287 111.178 72.807C111.178 70.3269 112.831 68.0536 115.311 67.4336L154.165 56.2733C157.059 55.4467 160.159 57.1001 160.985 59.9934C161.812 62.8868 160.159 65.9869 157.265 66.8135L137.012 72.6003L157.265 78.3871C160.159 79.2138 162.019 82.3138 160.985 85.2072C160.159 87.8939 157.885 89.5473 155.612 89.5473Z" fill="#2E1A02"/>
</svg>
