<svg width="189" height="189" viewBox="0 0 189 189" fill="none" xmlns="http://www.w3.org/2000/svg">
<path d="M99.3497 183.049C148.461 180.208 185.97 138.093 183.13 88.982C180.289 39.8709 138.174 2.36141 89.0626 5.20213C39.9515 8.04285 2.44202 50.1581 5.28274 99.2691C8.12346 148.38 50.2387 185.89 99.3497 183.049Z" fill="#F4D850"/>
<g opacity="0.15">
<path d="M94.2237 16.4434C137.211 16.4434 172.138 51.3706 172.138 94.358C172.138 137.345 137.211 172.273 94.2237 172.273C51.2363 172.273 16.3091 137.345 16.3091 94.358" fill="white"/>
</g>
<path d="M71.9028 116.475C71.9028 116.475 77.4829 127.635 94.2232 127.635C110.963 127.635 116.544 116.475 116.544 116.475C116.544 116.475 116.544 149.749 94.2232 149.749C71.9028 149.749 71.9028 116.475 71.9028 116.475Z" fill="#DD5390"/>
<path d="M94.2232 133.215C78.9296 133.215 66.3228 123.295 66.3228 110.895C66.3228 107.795 68.8028 105.314 71.9029 105.314C75.0029 105.314 77.483 107.795 77.483 110.895C77.483 116.888 85.1297 122.055 94.2232 122.055C103.317 122.055 110.964 116.888 110.964 110.895C110.964 107.795 113.444 105.314 116.544 105.314C119.644 105.314 122.124 107.795 122.124 110.895C121.917 123.088 109.517 133.215 94.2232 133.215Z" fill="#2E1A02"/>
<path d="M66.3229 94.1524C63.2228 94.1524 60.7428 91.6724 60.7428 88.5723C60.7428 82.3722 55.7827 77.4121 49.5826 77.4121C43.3825 77.4121 38.4224 82.3722 38.4224 88.5723C38.4224 91.6724 35.9423 94.1524 32.8423 94.1524C29.7422 94.1524 27.2622 91.6724 27.2622 88.5723C27.2622 76.3788 37.1824 66.252 49.5826 66.252C61.9828 66.252 71.903 76.1721 71.903 88.5723C71.903 91.6724 69.4229 94.1524 66.3229 94.1524Z" fill="#2E1A02"/>
<path d="M139.615 99.8886C148.845 99.3547 155.894 91.4399 155.361 82.2102C154.827 72.9805 146.912 65.9311 137.682 66.465C128.452 66.9989 121.403 74.9138 121.937 84.1435C122.471 93.3732 130.386 100.422 139.615 99.8886Z" fill="#2E1A02"/>
<path d="M133.077 85.8852C137.643 85.8852 141.344 82.184 141.344 77.6184C141.344 73.0527 137.643 69.3516 133.077 69.3516C128.512 69.3516 124.811 73.0527 124.811 77.6184C124.811 82.184 128.512 85.8852 133.077 85.8852Z" fill="white"/>
</svg>
