<svg width="189" height="189" viewBox="0 0 189 189" fill="none" xmlns="http://www.w3.org/2000/svg">
<path d="M99.5128 183.369C148.624 180.529 186.133 138.413 183.293 89.3023C180.452 40.1912 138.337 2.68172 89.2257 5.52244C40.1146 8.36316 2.60511 50.4784 5.44583 99.5895C8.28655 148.701 50.4018 186.21 99.5128 183.369Z" fill="#F4D850"/>
<path d="M94.5973 138.881C79.3037 138.881 66.6968 128.961 66.6968 116.561C66.6968 113.461 69.1768 110.98 72.2768 110.98C75.3769 110.98 77.857 113.461 77.857 116.561C77.857 122.554 85.5038 127.721 94.5973 127.721C103.691 127.721 111.337 122.554 111.337 116.561C111.337 113.461 113.818 110.98 116.918 110.98C120.018 110.98 122.498 113.461 122.498 116.561C122.291 128.961 109.891 138.881 94.5973 138.881Z" fill="#2E1A02"/>
<path d="M50.9005 99.9922C60.1302 99.4583 67.1796 91.5433 66.6457 82.3137C66.1118 73.084 58.1969 66.0346 48.9672 66.5685C39.7375 67.1024 32.6882 75.0173 33.222 84.247C33.7559 93.4767 41.6708 100.526 50.9005 99.9922Z" fill="#2E1A02"/>
<path d="M155.565 94.4493C152.465 94.4493 149.985 91.9693 149.985 88.8692C149.985 82.6691 145.024 77.709 138.824 77.709C132.624 77.709 127.664 82.6691 127.664 88.8692C127.664 91.9693 125.184 94.4493 122.084 94.4493C118.984 94.4493 116.504 91.9693 116.504 88.8692C116.504 76.6757 126.424 66.5488 138.824 66.5488C151.225 66.5488 161.145 76.469 161.145 88.8692C161.145 91.9693 158.665 94.4493 155.565 94.4493Z" fill="#2E1A02"/>
<path d="M44.3762 85.975C48.9418 85.975 52.643 82.2738 52.643 77.7082C52.643 73.1426 48.9418 69.4414 44.3762 69.4414C39.8106 69.4414 36.1094 73.1426 36.1094 77.7082C36.1094 82.2738 39.8106 85.975 44.3762 85.975Z" fill="white"/>
</svg>
