<svg width="189" height="189" viewBox="0 0 189 189" fill="none" xmlns="http://www.w3.org/2000/svg">
<path d="M99.5124 183.686C148.623 180.845 186.133 138.73 183.292 89.6187C180.451 40.5076 138.336 2.99812 89.2252 5.83884C40.1141 8.67956 2.60462 50.7948 5.44534 99.9058C8.28606 149.017 50.4013 186.526 99.5124 183.686Z" fill="#F4D850"/>
<path d="M49.9605 103.649L25.7801 79.4683C20.82 74.5082 20.82 66.4481 25.7801 61.6947C30.7402 56.7346 38.8003 56.7346 43.5537 61.6947L49.7538 67.8948L55.9539 61.6947C60.914 56.7346 68.9742 56.7346 73.7276 61.6947C78.481 66.6548 78.6877 74.7149 73.7276 79.4683L49.9605 103.649Z" fill="#DD518F"/>
<path d="M139.035 103.649L114.855 79.4683C109.895 74.5082 109.895 66.4481 114.855 61.6947C119.815 56.7346 127.875 56.7346 132.628 61.6947L138.829 67.8948L145.029 61.6947C149.989 56.7346 158.049 56.7346 162.802 61.6947C167.556 66.6548 167.762 74.7149 162.802 79.4683L139.035 103.649Z" fill="#DD518F"/>
<path d="M105.555 133.613C103.695 133.613 102.041 132.787 101.008 131.133L94.6013 121.42L88.1945 131.133C87.1611 132.58 85.5078 133.613 83.6478 133.613C81.7878 133.613 80.1344 132.787 79.101 131.133L67.9408 114.393C66.2875 111.913 66.9075 108.4 69.3875 106.746C71.8675 105.093 75.381 105.713 77.0343 108.193L83.4411 117.906L89.8479 108.193C90.8812 106.746 92.5346 105.713 94.3946 105.713C96.2546 105.713 97.908 106.54 98.9414 108.193L105.348 117.906L111.755 108.193C113.408 105.713 116.922 104.886 119.402 106.746C121.882 108.4 122.708 111.913 120.848 114.393L109.688 131.133C109.275 132.787 107.415 133.613 105.555 133.613Z" fill="#2E1A02"/>
</svg>
