<svg width="189" height="189" viewBox="0 0 189 189" fill="none" xmlns="http://www.w3.org/2000/svg">
<path d="M99.5128 183.002C148.624 180.161 186.133 138.046 183.293 88.9351C180.452 39.824 138.337 2.31453 89.2256 5.15525C40.1146 7.99597 2.60511 50.1112 5.44583 99.2223C8.28655 148.333 50.4018 185.843 99.5128 183.002Z" fill="#F4D850"/>
<path d="M50.6945 99.6425C59.9242 99.1087 66.9735 91.1937 66.4396 81.9641C65.9058 72.7344 57.9908 65.685 48.7612 66.2189C39.5315 66.7528 32.4821 74.6677 33.016 83.8974C33.5498 93.1271 41.4648 100.176 50.6945 99.6425Z" fill="#2E1A02"/>
<path d="M139.766 99.6367C148.996 99.1028 156.045 91.1879 155.511 81.9582C154.978 72.7285 147.063 65.6792 137.833 66.213C128.603 66.7469 121.554 74.6618 122.088 83.8915C122.622 93.1212 130.537 100.171 139.766 99.6367Z" fill="#2E1A02"/>
<path d="M44.1604 85.6176C48.726 85.6176 52.4272 81.9164 52.4272 77.3508C52.4272 72.7852 48.726 69.084 44.1604 69.084C39.5947 69.084 35.8936 72.7852 35.8936 77.3508C35.8936 81.9164 39.5947 85.6176 44.1604 85.6176Z" fill="white"/>
<path d="M133.235 85.6176C137.801 85.6176 141.502 81.9164 141.502 77.3508C141.502 72.7852 137.801 69.084 133.235 69.084C128.669 69.084 124.968 72.7852 124.968 77.3508C124.968 81.9164 128.669 85.6176 133.235 85.6176Z" fill="white"/>
<path d="M133.235 110.832C133.235 120.546 129.722 129.226 124.142 135.839C117.115 144.313 106.368 149.686 94.3813 149.686C82.3944 149.686 71.6476 144.313 64.6208 135.839C58.8341 129.019 55.5273 120.339 55.5273 110.832H133.235Z" fill="#2E1A02"/>
<path d="M123.935 135.839C116.908 144.313 106.161 149.686 94.1746 149.686C82.1877 149.686 71.4408 144.313 64.4141 135.839C71.4408 127.366 82.1877 121.992 94.1746 121.992C106.368 121.992 116.908 127.366 123.935 135.839Z" fill="#DD5390"/>
</svg>
