<svg width="189" height="189" viewBox="0 0 189 189" fill="none" xmlns="http://www.w3.org/2000/svg">
<path d="M99.5602 182.99C148.671 180.15 186.181 138.034 183.34 88.9234C180.499 39.8123 138.384 2.30282 89.273 5.14353C40.162 7.98425 2.65247 50.0995 5.49319 99.2105C8.3339 148.322 50.4491 185.831 99.5602 182.99Z" fill="#F4D850"/>
<path d="M94.4215 138.51C79.1279 138.51 66.521 128.59 66.521 116.189C66.521 113.089 69.001 110.609 72.1011 110.609C75.2012 110.609 77.6812 113.089 77.6812 116.189C77.6812 122.183 85.328 127.35 94.4215 127.35C103.515 127.35 111.162 122.183 111.162 116.189C111.162 113.089 113.642 110.609 116.742 110.609C119.842 110.609 122.322 113.089 122.322 116.189C122.115 128.59 109.715 138.51 94.4215 138.51Z" fill="#2E1A02"/>
<path d="M50.7418 99.6269C59.9715 99.0931 67.0209 91.1781 66.487 81.9484C65.9531 72.7187 58.0382 65.6694 48.8085 66.2033C39.5788 66.7371 32.5295 74.6521 33.0633 83.8818C33.5972 93.1114 41.5121 100.161 50.7418 99.6269Z" fill="#2E1A02"/>
<path d="M139.814 99.6211C149.043 99.0872 156.093 91.1723 155.559 81.9426C155.025 72.7129 147.11 65.6635 137.88 66.1974C128.651 66.7313 121.601 74.6462 122.135 83.8759C122.669 93.1056 130.584 100.155 139.814 99.6211Z" fill="#2E1A02"/>
<path d="M44.2004 85.602C48.766 85.602 52.4672 81.9008 52.4672 77.3352C52.4672 72.7695 48.766 69.0684 44.2004 69.0684C39.6348 69.0684 35.9336 72.7695 35.9336 77.3352C35.9336 81.9008 39.6348 85.602 44.2004 85.602Z" fill="white"/>
<path d="M133.275 85.602C137.841 85.602 141.542 81.9008 141.542 77.3352C141.542 72.7695 137.841 69.0684 133.275 69.0684C128.709 69.0684 125.008 72.7695 125.008 77.3352C125.008 81.9008 128.709 85.602 133.275 85.602Z" fill="white"/>
</svg>
