<svg width="1342" height="351" viewBox="0 0 1342 351" fill="none" xmlns="http://www.w3.org/2000/svg">
<path d="M1298.52 33.0977C1299.52 33.0977 1300.4 33.5085 1301.28 34.3301C1302.16 35.1517 1302.57 36.0906 1302.57 37.2644C1302.57 38.9662 1301.87 40.1986 1300.46 40.9029C1299.46 41.3724 1298.17 41.6071 1296.47 41.6071H1293.48V65.7857C1293.48 67.4876 1293.12 68.9547 1292.36 70.1871C1291.54 71.5369 1290.48 72.2411 1289.13 72.2411C1287.79 72.2411 1286.67 71.6542 1285.79 70.4218C1284.91 69.1894 1284.5 67.7223 1284.5 65.9617V41.5484H1281.68C1279.86 41.5484 1278.52 41.3724 1277.64 40.9029C1276.29 40.14 1275.64 38.8489 1275.64 36.9709C1275.64 35.8559 1275.99 34.9756 1276.76 34.2714C1277.46 33.5671 1278.34 33.215 1279.34 33.215H1298.52V33.0977Z" fill="#6BE5A8"/>
<path d="M1303.86 38.4382C1303.86 36.8536 1304.27 35.5626 1305.03 34.5649C1305.8 33.5672 1306.85 33.0391 1308.14 33.0391H1313.37C1315.18 33.0391 1316.47 33.802 1317.35 35.2691C1317.94 36.2668 1318.47 38.086 1319 40.7856C1319.53 43.4265 1320.17 46.8302 1320.87 50.9969C1321.46 54.5181 1322.11 58.0392 1322.69 61.5604L1323.93 55.1049C1325.04 49.295 1326.16 43.4851 1327.27 37.6752C1327.68 36.032 1328.21 34.8583 1328.97 34.1541C1329.68 33.4499 1330.79 33.0977 1332.2 33.0977H1337.01C1338.42 33.0977 1339.47 33.6846 1340.18 34.8583C1340.76 35.9147 1341.06 37.3231 1341.06 39.1424V66.1966C1341.06 67.9571 1340.7 69.3656 1340.06 70.4219C1339.3 71.6543 1338.24 72.2412 1336.83 72.2412C1335.6 72.2412 1334.6 71.713 1333.84 70.7154C1333.08 69.7177 1332.73 68.3679 1332.73 66.7834V41.7246L1330.85 51.9359C1329.79 57.4524 1329.15 60.9148 1328.85 62.2646C1327.68 67.3703 1326.62 70.3633 1325.69 71.2435C1325.22 71.713 1324.69 71.9478 1324.22 72.1238C1323.69 72.2412 1323.1 72.2999 1322.34 72.2999C1320.52 72.2999 1319.11 71.0088 1318.12 68.3679C1317.65 67.0769 1317.06 64.8468 1316.42 61.5604C1315.54 57.1003 1314.89 53.7552 1314.48 51.5251C1313.66 47.3584 1313.01 44.0133 1312.6 41.4311V66.6074C1312.6 68.2506 1312.13 69.6003 1311.31 70.6567C1310.49 71.713 1309.43 72.2412 1308.09 72.2412C1306.85 72.2412 1305.86 71.5957 1305.09 70.2459C1304.39 68.9548 1304.04 67.4877 1304.04 65.8444V38.3795L1303.86 38.4382Z" fill="#6BE5A8"/>
<path d="M16.0149 287.678C17.071 287.678 17.8337 287.854 18.3617 288.206C18.8897 288.558 19.1244 289.262 19.1244 290.319V334.274C19.1244 335.272 18.8311 336.035 18.2444 336.563C17.6577 337.091 16.8363 337.326 15.7803 337.326C14.7242 337.326 13.9615 337.033 13.3748 336.504C12.7295 335.917 12.4361 335.155 12.4361 334.157V302.525H2.69705C1.99302 302.525 1.465 302.291 1.11298 301.762C0.760968 301.234 0.584961 300.647 0.584961 299.943C0.584961 298.828 1.52367 298.006 3.45975 297.537C8.38795 296.305 11.4387 294.603 12.5535 292.373C12.9641 291.492 13.3162 290.553 13.7855 289.614C14.4309 288.441 15.1349 287.854 16.0149 287.854V287.678Z" fill="#6BE5A8"/>
<path d="M52.1551 287.383C58.2566 287.383 62.8328 289.848 65.7076 294.836C68.0544 298.827 69.2278 304.05 69.2278 310.564C69.2278 320.775 67.409 327.993 63.7715 332.278C60.7794 335.799 56.5552 337.559 50.9817 337.559C44.4694 337.559 39.7172 334.86 36.7837 329.519C34.4956 325.353 33.3223 319.777 33.3223 312.676C33.3223 305.576 34.5543 299.59 37.0771 295.364C40.2452 290.024 45.2908 287.324 52.1551 287.324V287.383ZM51.1577 332.102C55.8512 332.102 59.078 329.578 60.7794 324.59C61.8355 321.538 62.3635 317.078 62.3635 311.268C62.3635 306.28 61.7768 302.348 60.6621 299.472C58.9607 295.129 55.9685 292.958 51.7444 292.958C47.1095 292.958 43.8827 295.305 42.064 300C40.8906 303.052 40.2452 307.395 40.2452 312.97C40.2452 318.193 40.8319 322.242 41.9466 325.235C43.7067 329.813 46.8162 332.102 51.1577 332.102Z" fill="#6BE5A8"/>
<path d="M91.2288 287.383C97.3304 287.383 101.907 289.848 104.781 294.836C107.128 298.827 108.301 304.05 108.301 310.564C108.301 320.775 106.483 327.993 102.845 332.278C99.8531 335.799 95.629 337.559 90.0554 337.559C83.5431 337.559 78.7909 334.86 75.8575 329.519C73.5694 325.353 72.396 319.777 72.396 312.676C72.396 305.576 73.628 299.59 76.1508 295.364C79.3189 290.024 84.3645 287.324 91.2288 287.324V287.383ZM90.2314 332.102C94.9249 332.102 98.1517 329.578 99.8531 324.59C100.909 321.538 101.437 317.078 101.437 311.268C101.437 306.28 100.851 302.348 99.7358 299.472C98.0344 295.129 95.0423 292.958 90.8181 292.958C86.1832 292.958 82.9564 295.305 81.1377 300C79.9643 303.052 79.319 307.395 79.319 312.97C79.319 318.193 79.9056 322.242 81.0204 325.235C82.7804 329.813 85.8899 332.102 90.2314 332.102Z" fill="#6BE5A8"/>
<path d="M121.444 287.619C125.55 287.619 128.543 289.204 130.42 292.431C131.887 295.014 132.649 298.476 132.649 302.877C132.649 307.631 131.945 311.328 130.596 314.086C128.719 317.784 125.609 319.603 121.326 319.603C117.043 319.603 113.817 318.018 111.822 314.791C110.238 312.209 109.475 308.687 109.475 304.051C109.475 299.415 110.238 295.542 111.763 292.842C113.758 289.321 116.985 287.619 121.444 287.619ZM121.209 315.201C123.673 315.201 125.433 313.676 126.43 310.565C127.076 308.57 127.428 305.988 127.428 302.819C127.428 300.002 127.076 297.713 126.43 295.953C125.374 293.194 123.673 291.845 121.326 291.845C118.745 291.845 116.867 293.253 115.811 296.129C115.049 298.124 114.638 300.647 114.638 303.816C114.638 306.985 114.99 309.392 115.635 311.152C116.691 313.91 118.51 315.26 121.15 315.26L121.209 315.201ZM147.023 287.619C147.669 287.619 148.197 287.795 148.607 288.206C149.018 288.617 149.194 289.145 149.194 289.908L144.97 300.706L135.114 325.354L132.004 333.159C131.828 333.688 131.652 334.157 131.476 334.626C131.3 335.096 131.065 335.624 130.713 336.387C130.361 337.15 129.892 337.502 129.247 337.502C127.604 337.502 126.782 336.857 126.782 335.507C126.782 335.272 127.545 333.218 129.071 329.286C130.303 326.293 131.183 324.063 131.769 322.596L140.804 299.826L143.855 292.079L145.087 288.969C145.498 288.089 146.143 287.678 146.965 287.678L147.023 287.619ZM155.413 305.342C159.696 305.342 162.747 307.044 164.565 310.507C165.973 313.147 166.619 316.786 166.619 321.363C166.619 325.941 165.856 329.345 164.331 332.162C162.395 335.683 159.403 337.385 155.354 337.385C151.013 337.385 147.845 335.8 145.85 332.572C144.207 329.932 143.386 326.352 143.386 321.774C143.386 317.021 144.149 313.265 145.674 310.565C147.61 307.044 150.895 305.342 155.354 305.342H155.413ZM155.002 332.925C157.466 332.925 159.285 331.457 160.341 328.464C161.045 326.41 161.397 323.887 161.397 320.894C161.397 318.077 161.045 315.73 160.4 313.852C159.403 311.035 157.76 309.568 155.53 309.568C152.832 309.568 150.954 310.976 149.839 313.852C149.077 315.788 148.666 318.312 148.666 321.422C148.666 324.533 149.018 326.88 149.663 328.641C150.719 331.457 152.48 332.925 155.002 332.925Z" fill="#6BE5A8"/>
<path d="M205.281 332.571C207.218 332.571 208.919 332.16 210.327 331.28C211.97 330.282 212.791 328.874 212.791 326.996C212.791 324.766 211.031 323.064 207.57 321.949C204.049 320.834 200.647 319.66 197.302 318.545C193.665 316.726 191.846 313.909 191.846 310.094C191.846 307.219 192.961 304.754 195.132 302.759C197.361 300.763 199.943 299.766 202.935 299.766H206.748C209.33 299.766 211.911 300.705 214.493 302.524C217.309 304.578 218.717 306.808 218.717 309.214C218.717 310.153 218.423 310.857 217.719 311.327C217.074 311.796 216.253 312.031 215.255 312.031C214.786 312.031 213.671 310.799 211.97 308.392C210.268 305.928 207.746 304.754 204.46 304.754C202.817 304.754 201.468 305.106 200.295 305.81C198.828 306.691 198.124 307.923 198.124 309.449C198.124 311.503 199.943 313.146 203.58 314.32C209.916 316.374 213.26 317.489 213.73 317.724C217.367 319.719 219.186 322.712 219.186 326.761C219.186 330.458 217.719 333.275 214.727 335.212C212.204 336.855 208.978 337.677 205.047 337.677C201.409 337.677 198.182 336.855 195.366 335.095C192.022 333.041 190.321 330.341 190.321 326.996C190.321 325.94 190.673 325.177 191.377 324.59C192.081 324.003 192.961 323.768 194.017 323.768C195.073 323.768 196.188 325.235 197.478 328.111C198.769 331.045 201.409 332.454 205.281 332.454V332.571Z" fill="#6BE5A8"/>
<path d="M234.147 328.874C234.733 326.057 235.437 323.005 236.259 319.777C236.493 318.838 237.315 315.845 238.723 310.74L240.424 304.871C240.542 304.46 240.6 304.05 240.718 303.639C240.835 303.287 240.952 302.758 241.246 302.054C241.48 301.409 241.891 300.88 242.536 300.47C243.182 300.118 243.886 299.883 244.707 299.883C245.646 299.883 246.409 300.059 247.054 300.411C247.699 300.763 248.11 301.409 248.286 302.289L253.918 323.064C254.446 325.235 254.798 326.702 254.974 327.524C255.15 328.345 255.209 328.932 255.15 329.284C255.561 327.113 256.148 324.59 256.852 321.831C257.556 319.073 258.612 315.317 260.02 310.681L261.839 304.578L262.601 301.996C263.129 300.587 264.127 299.883 265.593 299.883C267.94 299.883 269.113 300.998 269.113 303.228C269.113 303.521 268.292 306.104 266.708 310.974C264.948 316.491 262.953 322.418 260.841 328.756L259.492 332.864L258.788 335.094C258.142 336.503 256.852 337.207 255.033 337.207C254.094 337.207 253.331 337.031 252.686 336.679C252.041 336.327 251.571 335.74 251.337 334.977L245.528 315.435C245.294 314.613 245.059 313.674 244.883 312.559C244.707 311.444 244.531 310.388 244.414 309.331C244.179 311.737 243.827 313.909 243.416 315.904C243.006 317.841 241.95 321.773 240.248 327.583C239.486 330.047 238.723 332.453 238.019 334.918C237.491 336.503 236.259 337.266 234.381 337.266C233.325 337.266 232.445 337.09 231.8 336.796C231.155 336.444 230.685 335.857 230.392 334.977L220.301 303.404V302.758C220.301 301.878 220.653 301.174 221.416 300.704C222.178 300.235 223.058 300 224.114 300C224.818 300 225.405 300.235 225.933 300.704C226.402 301.174 226.813 301.878 227.165 302.876C227.517 303.873 227.928 305.106 228.338 306.632C228.749 308.158 229.16 309.566 229.571 311.033C230.744 314.965 231.565 317.958 232.093 319.953C232.797 322.712 233.501 325.705 234.147 328.991V328.874Z" fill="#6BE5A8"/>
<path d="M278.735 320.482C278.735 323.885 279.615 326.644 281.317 328.698C283.253 330.986 285.893 332.16 289.296 332.16C293.344 332.16 296.394 330.458 298.507 327.113C299.504 325.529 300.56 324.707 301.616 324.707C302.672 324.707 303.493 325 304.197 325.587C304.902 326.174 305.254 326.937 305.254 327.935C305.254 328.346 305.136 328.874 304.843 329.402C304.55 329.93 304.197 330.517 303.845 331.045C302.32 333.216 300.267 334.86 297.744 335.916C295.221 337.031 292.522 337.559 289.648 337.559C284.015 337.559 279.674 335.857 276.623 332.512C273.572 329.167 272.105 324.648 272.105 319.014C272.105 313.087 273.69 308.392 276.858 304.989C280.026 301.526 284.602 299.824 290.586 299.824C295.104 299.824 298.8 301.526 301.733 305.047C304.491 308.334 305.84 312.266 305.84 316.784C305.84 317.665 305.84 318.252 305.723 318.545C305.43 319.425 304.667 320.071 303.493 320.482H278.852H278.735ZM299.093 315.083C298.741 312.09 297.861 309.801 296.512 308.158C294.869 306.28 292.581 305.341 289.706 305.341C286.831 305.341 284.191 306.221 282.197 308.04C280.143 309.859 279.028 312.207 278.794 315.141H299.152L299.093 315.083Z" fill="#6BE5A8"/>
<path d="M317.868 320.482C317.868 323.885 318.748 326.644 320.449 328.698C322.385 330.986 325.026 332.16 328.428 332.16C332.477 332.16 335.527 330.458 337.639 327.113C338.637 325.529 339.693 324.707 340.749 324.707C341.805 324.707 342.626 325 343.33 325.587C344.034 326.174 344.386 326.937 344.386 327.935C344.386 328.346 344.269 328.874 343.976 329.402C343.682 329.93 343.33 330.517 342.978 331.045C341.453 333.216 339.399 334.86 336.877 335.916C334.354 337.031 331.655 337.559 328.78 337.559C323.148 337.559 318.807 335.857 315.756 332.512C312.705 329.167 311.238 324.648 311.238 319.014C311.238 313.087 312.822 308.392 315.99 304.989C319.159 301.526 323.735 299.824 329.719 299.824C334.237 299.824 337.933 301.526 340.866 305.047C343.624 308.334 344.973 312.266 344.973 316.784C344.973 317.665 344.973 318.252 344.856 318.545C344.562 319.425 343.8 320.071 342.626 320.482H317.985H317.868ZM338.226 315.083C337.874 312.09 336.994 309.801 335.645 308.158C334.002 306.28 331.714 305.341 328.839 305.341C325.964 305.341 323.324 306.221 321.329 308.04C319.276 309.859 318.161 312.207 317.927 315.141H338.285L338.226 315.083Z" fill="#6BE5A8"/>
<path d="M352.775 300.529V292.079C352.775 291.198 353.069 290.494 353.655 289.966C354.242 289.497 355.005 289.203 355.944 289.203C356.941 289.203 357.704 289.438 358.349 289.966C358.994 290.494 359.288 291.257 359.288 292.255V300.471H362.339C363.571 300.471 364.509 300.647 365.272 300.999C365.976 301.351 366.387 302.055 366.387 303.17C366.387 304.285 366.035 304.931 365.272 305.342C364.509 305.753 363.571 305.929 362.397 305.929H359.112V325.823C359.112 329.579 360.402 331.633 362.925 331.868C365.448 332.102 366.739 332.983 366.739 334.567C366.739 335.682 366.211 336.387 365.155 336.856C364.451 337.149 363.395 337.267 362.104 337.267C358.29 337.267 355.768 336.387 354.477 334.626C353.362 333.159 352.834 330.459 352.834 326.527V305.929H350.018C348.786 305.929 347.847 305.753 347.202 305.4C346.557 305.048 346.263 304.285 346.263 303.17C346.263 302.055 346.557 301.41 347.261 300.999C347.906 300.647 348.845 300.471 350.018 300.471H352.834L352.775 300.529Z" fill="#6BE5A8"/>
<path d="M392.612 303.112C392.612 302.232 392.964 301.469 393.61 300.941C394.255 300.413 395.076 300.119 396.074 300.119C397.423 300.119 398.362 300.589 398.831 301.469C399.183 302.115 399.359 303.171 399.359 304.638C401.061 302.936 402.703 301.704 404.287 301C405.872 300.295 407.866 299.943 410.213 299.943C415.376 299.943 419.365 301.88 422.24 305.695C424.763 309.098 426.054 313.5 426.054 318.84C426.054 324.181 424.88 328.641 422.534 331.986C419.835 335.8 415.787 337.737 410.565 337.737C408.336 337.737 406.341 337.268 404.463 336.387C402.997 335.683 401.295 334.451 399.359 332.749V347.655C399.359 348.477 399.007 349.239 398.362 349.768C397.658 350.355 396.895 350.648 396.074 350.648C395.076 350.648 394.255 350.355 393.61 349.768C392.964 349.181 392.671 348.418 392.671 347.42V303.23L392.612 303.112ZM409.744 332.455C413.088 332.455 415.611 330.988 417.312 328.054C418.661 325.706 419.307 322.655 419.307 319.016C419.307 314.85 418.661 311.681 417.429 309.509C415.787 306.692 413.029 305.225 409.04 305.225C405.52 305.225 402.938 306.634 401.178 309.392C399.711 311.739 399.007 314.732 399.007 318.371C399.007 322.361 399.77 325.589 401.237 327.995C403.055 330.988 405.872 332.455 409.685 332.455H409.744Z" fill="#6BE5A8"/>
<path d="M433.856 302.525C433.856 301.821 434.15 301.234 434.795 300.765C435.441 300.295 436.086 300.061 436.907 300.061C438.139 300.061 439.019 300.413 439.43 301.117C439.899 301.821 440.134 302.819 440.134 304.11V306.751C440.955 304.697 442.188 303.054 443.889 301.88C445.59 300.706 447.526 300.119 449.814 300.119C450.929 300.119 451.868 300.413 452.572 300.941C453.276 301.469 453.628 302.349 453.628 303.464C453.628 304.697 452.924 305.577 451.516 306.047C451.399 306.047 450.049 306.34 447.585 306.809C445.121 307.279 443.244 308.746 441.953 311.152C440.897 313.147 440.369 315.612 440.369 318.605V334.333C440.369 336.328 439.371 337.326 437.377 337.326C436.497 337.326 435.734 337.15 435.03 336.739C434.326 336.328 433.974 335.683 433.974 334.861V302.584L433.856 302.525Z" fill="#6BE5A8"/>
<path d="M473.341 299.824C479.09 299.824 483.49 301.585 486.483 305.047C489.357 308.334 490.824 312.911 490.824 318.662C490.824 324.12 489.357 328.522 486.424 331.984C483.314 335.681 479.032 337.501 473.634 337.501C467.708 337.501 463.191 335.857 460.14 332.571C457.089 329.285 455.564 324.648 455.564 318.721C455.564 312.794 457.031 308.392 459.964 305.106C463.074 301.526 467.532 299.766 473.341 299.766V299.824ZM472.989 332.395C476.861 332.395 479.736 331.045 481.613 328.404C483.314 326.057 484.136 322.888 484.136 318.956C484.136 314.731 483.432 311.503 481.965 309.331C480.205 306.515 477.272 305.165 473.282 305.165C469.293 305.165 466.594 306.514 464.716 309.214C463.074 311.561 462.252 314.672 462.252 318.662C462.252 322.653 463.015 325.881 464.482 328.17C466.3 330.986 469.117 332.454 472.989 332.454V332.395Z" fill="#6BE5A8"/>
<path d="M498.744 300.529V292.079C498.744 291.198 499.038 290.494 499.624 289.966C500.211 289.497 500.974 289.203 501.912 289.203C502.91 289.203 503.672 289.438 504.318 289.966C504.963 290.494 505.256 291.257 505.256 292.255V300.471H508.307C509.539 300.471 510.478 300.647 511.241 300.999C511.945 301.351 512.355 302.055 512.355 303.17C512.355 304.285 512.003 304.931 511.241 305.342C510.478 305.753 509.539 305.929 508.366 305.929H505.08V325.823C505.08 329.579 506.371 331.633 508.894 331.868C511.417 332.102 512.707 332.983 512.707 334.567C512.707 335.682 512.179 336.387 511.123 336.856C510.419 337.149 509.363 337.267 508.073 337.267C504.259 337.267 501.736 336.387 500.446 334.626C499.331 333.159 498.803 330.459 498.803 326.527V305.929H495.987C494.755 305.929 493.816 305.753 493.171 305.4C492.525 305.048 492.232 304.285 492.232 303.17C492.232 302.055 492.525 301.41 493.229 300.999C493.875 300.647 494.813 300.471 495.987 300.471H498.803L498.744 300.529Z" fill="#6BE5A8"/>
<path d="M523.151 320.482C523.151 323.885 524.031 326.644 525.732 328.698C527.668 330.986 530.308 332.16 533.711 332.16C537.759 332.16 540.81 330.458 542.922 327.113C543.919 325.529 544.976 324.707 546.032 324.707C547.088 324.707 547.909 325 548.613 325.587C549.317 326.174 549.669 326.937 549.669 327.935C549.669 328.346 549.552 328.874 549.258 329.402C548.965 329.93 548.613 330.517 548.261 331.045C546.736 333.216 544.682 334.86 542.159 335.916C539.637 337.031 536.938 337.559 534.063 337.559C528.431 337.559 524.089 335.857 521.039 332.512C517.988 329.167 516.521 324.648 516.521 319.014C516.521 313.087 518.105 308.392 521.273 304.989C524.441 301.526 529.018 299.824 535.002 299.824C539.519 299.824 543.215 301.526 546.149 305.047C548.906 308.334 550.256 312.266 550.256 316.784C550.256 317.665 550.256 318.252 550.138 318.545C549.845 319.425 549.082 320.071 547.909 320.482H523.268H523.151ZM543.509 315.083C543.157 312.09 542.277 309.801 540.927 308.158C539.285 306.28 536.997 305.341 534.122 305.341C531.247 305.341 528.607 306.221 526.612 308.04C524.559 309.859 523.444 312.207 523.209 315.141H543.567L543.509 315.083Z" fill="#6BE5A8"/>
<path d="M561.696 286.914C562.87 286.914 563.809 287.266 564.571 288.029C565.334 288.792 565.745 289.731 565.745 290.846C565.745 291.961 565.393 292.959 564.689 293.663C563.985 294.367 562.987 294.719 561.814 294.719C560.64 294.719 559.643 294.367 558.88 293.663C558.118 292.959 557.766 292.02 557.766 290.846C557.766 289.672 558.118 288.734 558.88 287.971C559.643 287.208 560.582 286.797 561.696 286.797V286.914ZM558.47 303.053C558.47 302.173 558.763 301.527 559.467 300.94C560.171 300.353 560.875 300.119 561.814 300.119C562.752 300.119 563.515 300.412 564.102 300.999C564.747 301.586 565.041 302.349 565.041 303.288V334.45C565.041 335.271 564.689 335.976 564.043 336.562C563.398 337.091 562.635 337.384 561.696 337.384C560.875 337.384 560.112 337.149 559.467 336.621C558.822 336.093 558.47 335.447 558.47 334.684V303.112V303.053Z" fill="#6BE5A8"/>
<path d="M573.43 302.993C573.43 302.172 573.724 301.526 574.369 300.939C575.014 300.352 575.718 300.059 576.54 300.059C578.065 300.059 579.004 300.587 579.532 301.644C579.825 302.289 579.943 303.463 579.943 305.106C581.116 303.052 582.993 301.644 585.458 300.763C587.394 300.118 589.858 299.766 592.674 299.766C596.077 299.766 598.775 300.998 600.77 303.522C602.589 305.81 603.469 308.686 603.469 312.207V334.273C603.469 335.153 603.176 335.916 602.589 336.444C602.002 336.972 601.24 337.266 600.301 337.266C599.303 337.266 598.482 336.972 597.837 336.444C597.191 335.857 596.898 335.094 596.898 334.097V317.078C596.898 313.146 596.605 310.505 596.077 309.155C595.138 306.632 592.967 305.399 589.564 305.399C585.868 305.399 583.228 306.808 581.644 309.684C580.412 311.855 579.825 314.965 579.825 318.956V334.918C579.415 335.564 579.063 336.151 578.652 336.679C578.241 337.09 577.596 337.325 576.657 337.325C575.719 337.325 574.897 337.031 574.252 336.444C573.606 335.857 573.254 335.094 573.254 334.214V303.052L573.43 302.993Z" fill="#6BE5A8"/>
<path d="M632.745 289.907C632.745 289.027 633.038 288.323 633.683 287.794C634.27 287.207 635.033 286.914 635.971 286.914C636.91 286.914 637.673 287.207 638.26 287.794C638.846 288.381 639.14 289.144 639.14 290.083V305.107C640.43 303.346 642.132 302.055 644.244 301.116C646.356 300.177 648.644 299.766 650.991 299.766C655.978 299.766 659.85 301.644 662.607 305.459C665.013 308.745 666.186 313.029 666.186 318.194C666.186 323.651 665.013 328.053 662.666 331.515C659.85 335.565 655.802 337.619 650.521 337.619C648.233 337.619 646.121 337.267 644.185 336.504C642.249 335.741 640.548 334.567 639.14 332.924C639.14 334.391 638.964 335.447 638.67 336.034C638.201 336.914 637.262 337.325 635.913 337.325C635.091 337.325 634.329 337.032 633.742 336.504C633.155 335.917 632.803 335.213 632.803 334.274V289.907H632.745ZM649.524 332.337C653.279 332.337 655.978 330.87 657.62 327.935C658.852 325.705 659.498 322.595 659.498 318.546C659.498 314.496 658.852 311.562 657.562 309.391C655.86 306.574 653.161 305.107 649.465 305.107C645.769 305.107 642.894 306.632 641.193 309.743C639.785 312.208 639.081 315.435 639.081 319.485C639.081 323.123 639.844 326.057 641.486 328.346C643.305 330.987 646.004 332.337 649.583 332.337H649.524Z" fill="#6BE5A8"/>
<path d="M684.315 329.11C685.137 325.941 686.017 322.889 686.897 319.896C687.542 317.842 688.481 314.849 689.83 310.8L691.825 304.697C692.118 303.875 692.412 302.995 692.705 302.115C693.292 300.765 694.23 300.061 695.638 300.061C696.636 300.061 697.457 300.354 698.102 301C698.748 301.645 699.1 302.467 699.1 303.464C699.1 303.758 698.102 306.809 696.108 312.619C694.113 318.429 692.177 323.887 690.358 328.993C689.419 331.575 688.129 335.213 686.31 340.084C685.137 343.371 683.787 345.659 682.262 346.951C680.443 348.535 677.92 349.357 674.635 349.357C672.464 349.357 671.056 349.063 670.411 348.535C669.707 348.007 669.413 347.127 669.413 345.953C669.413 345.249 669.531 344.603 669.765 344.134C670 343.605 670.411 343.371 671.056 343.371C671.467 343.371 672.112 343.429 672.875 343.547C673.637 343.664 674.165 343.723 674.4 343.723C676.336 343.723 677.92 343.019 679.094 341.61C680.032 340.495 680.678 338.852 681.147 336.798C679.974 333.864 678.507 330.225 676.688 325.882C674.635 320.894 673.168 317.197 672.229 314.967C670.528 310.565 669.12 306.927 668.064 303.993V303.112C668.005 302.291 668.357 301.528 669.12 301C669.883 300.413 670.704 300.119 671.584 300.119C672.992 300.119 673.989 300.823 674.693 302.232L675.632 304.873L677.92 310.917C679.739 315.788 680.854 318.781 681.206 319.955C682.203 322.772 683.201 325.882 684.198 329.169L684.315 329.11Z" fill="#6BE5A8"/>
<path d="M744.626 311.268C744.626 308.921 743.922 307.277 742.573 306.397C741.224 305.517 739.229 305.106 736.706 305.106C733.421 305.106 731.191 306.28 730.018 308.627C728.844 310.975 727.671 312.207 726.439 312.207C725.5 312.207 724.679 312.031 724.034 311.62C723.388 311.268 723.036 310.622 723.036 309.683C723.036 306.573 724.62 304.05 727.847 302.23C730.605 300.646 733.714 299.824 737.117 299.824C740.989 299.824 744.098 300.528 746.387 301.937C749.203 303.697 750.611 306.338 750.611 309.977V334.449C750.611 336.327 749.672 337.266 747.853 337.266C746.68 337.266 745.858 336.972 745.506 336.327C745.154 335.681 744.978 334.742 744.978 333.51V332.395C743.101 334.508 741.224 335.916 739.346 336.562C737.469 337.207 735.005 337.559 731.895 337.559C728.786 337.559 726.322 336.444 724.386 334.214C722.45 331.984 721.452 329.343 721.452 326.292C721.452 322.066 723.447 319.073 727.436 317.371C728.903 316.726 732.541 315.904 738.525 314.789C742.573 314.085 744.568 312.911 744.568 311.268H744.626ZM728.258 326.585C728.258 328.404 728.844 329.813 730.077 330.81C731.309 331.808 732.834 332.336 734.711 332.336C738.349 332.336 740.989 331.104 742.632 328.639C743.981 326.585 744.626 323.651 744.626 319.836V318.017C743.981 318.31 741.576 318.897 737.351 319.719C731.25 320.951 728.199 323.24 728.199 326.585H728.258Z" fill="#6BE5A8"/>
<path d="M759.001 302.993C759.001 302.113 759.294 301.409 759.881 300.88C760.467 300.352 761.23 300.118 762.227 300.118C763.694 300.118 764.691 300.587 765.161 301.467C765.513 302.054 765.689 303.169 765.689 304.754C766.862 302.934 768.388 301.643 770.206 300.939C772.025 300.235 774.137 299.883 776.601 299.883C780.943 299.883 784.111 301.761 786.164 305.517C788.1 303.463 789.802 302.113 791.269 301.35C793.029 300.411 795.199 299.941 797.722 299.941C802.005 299.941 805.173 301.115 807.109 303.404C808.928 305.575 809.867 308.862 809.867 313.205V334.331C809.867 335.212 809.573 335.975 808.928 336.561C808.283 337.148 807.52 337.383 806.581 337.383C805.584 337.383 804.762 337.09 804.117 336.561C803.472 335.975 803.178 335.212 803.178 334.214V316.197C803.178 312.911 802.885 310.505 802.298 309.096C801.36 306.749 799.482 305.575 796.666 305.575C793.85 305.575 791.855 306.456 790.213 308.216C788.57 309.977 787.748 312.148 787.748 314.789V334.214C787.748 335.212 787.455 335.975 786.868 336.561C786.282 337.148 785.519 337.383 784.522 337.383C783.524 337.383 782.762 337.09 782.175 336.561C781.53 335.975 781.236 335.212 781.236 334.214V315.258C781.236 311.268 780.649 308.686 779.535 307.395C778.42 306.162 776.719 305.517 774.489 305.517C771.028 305.517 768.622 306.866 767.214 309.507C766.158 311.561 765.63 314.437 765.63 318.251V334.449C765.63 335.388 765.337 336.151 764.691 336.679C764.046 337.207 763.283 337.442 762.286 337.442C761.406 337.442 760.643 337.207 759.939 336.679C759.235 336.209 758.942 335.505 758.942 334.684V303.169L759.001 302.993Z" fill="#6BE5A8"/>
<path d="M840.14 311.268C840.14 308.921 839.436 307.277 838.087 306.397C836.737 305.517 834.743 305.106 832.22 305.106C828.934 305.106 826.705 306.28 825.532 308.627C824.358 310.975 823.185 312.207 821.953 312.207C821.014 312.207 820.193 312.031 819.547 311.62C818.902 311.268 818.55 310.622 818.55 309.683C818.55 306.573 820.134 304.05 823.361 302.23C826.118 300.646 829.228 299.824 832.63 299.824C836.503 299.824 839.612 300.528 841.9 301.937C844.716 303.697 846.124 306.338 846.124 309.977V334.449C846.124 336.327 845.186 337.266 843.367 337.266C842.194 337.266 841.372 336.972 841.02 336.327C840.668 335.681 840.492 334.742 840.492 333.51V332.395C838.615 334.508 836.737 335.916 834.86 336.562C832.983 337.207 830.518 337.559 827.409 337.559C824.299 337.559 821.835 336.444 819.899 334.214C817.963 331.984 816.966 329.343 816.966 326.292C816.966 322.066 818.961 319.073 822.95 317.371C824.417 316.726 828.054 315.904 834.039 314.789C838.087 314.085 840.081 312.911 840.081 311.268H840.14ZM823.771 326.585C823.771 328.404 824.358 329.813 825.59 330.81C826.822 331.808 828.348 332.336 830.225 332.336C833.862 332.336 836.503 331.104 838.145 328.639C839.495 326.585 840.14 323.651 840.14 319.836V318.017C839.495 318.31 837.089 318.897 832.865 319.719C826.764 320.951 823.713 323.24 823.713 326.585H823.771Z" fill="#6BE5A8"/>
<path d="M859.677 286.914C860.85 286.914 861.789 287.266 862.552 288.029C863.314 288.792 863.725 289.731 863.725 290.846C863.725 291.961 863.373 292.959 862.669 293.663C861.965 294.367 860.968 294.719 859.794 294.719C858.621 294.719 857.624 294.367 856.861 293.663C856.098 292.959 855.746 292.02 855.746 290.846C855.746 289.672 856.098 288.734 856.861 287.971C857.624 287.208 858.562 286.797 859.677 286.797V286.914ZM856.45 303.053C856.45 302.173 856.743 301.527 857.447 300.94C858.151 300.353 858.856 300.119 859.794 300.119C860.733 300.119 861.496 300.412 862.082 300.999C862.728 301.586 863.021 302.349 863.021 303.288V334.45C863.021 335.271 862.669 335.976 862.024 336.562C861.378 337.091 860.616 337.384 859.677 337.384C858.856 337.384 858.093 337.149 857.447 336.621C856.802 336.093 856.45 335.447 856.45 334.684V303.112V303.053Z" fill="#6BE5A8"/>
<path d="M871.411 303.112C871.411 302.232 871.763 301.469 872.408 300.941C873.053 300.413 873.875 300.119 874.872 300.119C876.221 300.119 877.16 300.589 877.63 301.469C877.982 302.115 878.158 303.171 878.158 304.638C879.859 302.936 881.502 301.704 883.086 301C884.67 300.295 886.665 299.943 889.011 299.943C894.174 299.943 898.164 301.88 901.039 305.695C903.561 309.098 904.852 313.5 904.852 318.84C904.852 324.181 903.679 328.641 901.332 331.986C898.633 335.8 894.585 337.737 889.363 337.737C887.134 337.737 885.139 337.268 883.262 336.387C881.795 335.683 880.094 334.451 878.158 332.749V347.655C878.158 348.477 877.806 349.239 877.16 349.768C876.456 350.355 875.693 350.648 874.872 350.648C873.875 350.648 873.053 350.355 872.408 349.768C871.763 349.181 871.469 348.418 871.469 347.42V303.23L871.411 303.112ZM888.542 332.455C891.886 332.455 894.409 330.988 896.11 328.054C897.46 325.706 898.105 322.655 898.105 319.016C898.105 314.85 897.46 311.681 896.228 309.509C894.585 306.692 891.828 305.225 887.838 305.225C884.318 305.225 881.736 306.634 879.976 309.392C878.51 311.739 877.806 314.732 877.806 318.371C877.806 322.361 878.568 325.589 880.035 327.995C881.854 330.988 884.67 332.455 888.483 332.455H888.542Z" fill="#6BE5A8"/>
<path d="M912.596 302.525C912.596 301.821 912.89 301.234 913.535 300.765C914.18 300.295 914.826 300.061 915.647 300.061C916.879 300.061 917.759 300.413 918.17 301.117C918.639 301.821 918.874 302.819 918.874 304.11V306.751C919.695 304.697 920.927 303.054 922.629 301.88C924.33 300.706 926.266 300.119 928.554 300.119C929.669 300.119 930.608 300.413 931.312 300.941C932.016 301.469 932.368 302.349 932.368 303.464C932.368 304.697 931.664 305.577 930.256 306.047C930.138 306.047 928.789 306.34 926.325 306.809C923.861 307.279 921.983 308.746 920.692 311.152C919.636 313.147 919.108 315.612 919.108 318.605V334.333C919.108 336.328 918.111 337.326 916.116 337.326C915.236 337.326 914.474 337.15 913.77 336.739C913.066 336.328 912.714 335.683 912.714 334.861V302.584L912.596 302.525Z" fill="#6BE5A8"/>
<path d="M952.08 299.824C957.83 299.824 962.23 301.585 965.222 305.047C968.097 308.334 969.564 312.911 969.564 318.662C969.564 324.12 968.097 328.522 965.164 331.984C962.054 335.681 957.771 337.501 952.374 337.501C946.448 337.501 941.931 335.857 938.88 332.571C935.829 329.285 934.304 324.648 934.304 318.721C934.304 312.794 935.77 308.392 938.704 305.106C941.813 301.526 946.272 299.766 952.08 299.766V299.824ZM951.728 332.395C955.601 332.395 958.475 331.045 960.353 328.404C962.054 326.057 962.876 322.888 962.876 318.956C962.876 314.731 962.172 311.503 960.705 309.331C958.945 306.515 956.011 305.165 952.022 305.165C948.032 305.165 945.333 306.514 943.456 309.214C941.813 311.561 940.992 314.672 940.992 318.662C940.992 322.653 941.755 325.881 943.221 328.17C945.04 330.986 947.856 332.454 951.728 332.454V332.395Z" fill="#6BE5A8"/>
<path d="M977.484 300.529V292.079C977.484 291.198 977.778 290.494 978.364 289.966C978.951 289.497 979.714 289.203 980.653 289.203C981.65 289.203 982.413 289.438 983.058 289.966C983.703 290.494 983.997 291.257 983.997 292.255V300.471H987.048C988.28 300.471 989.218 300.647 989.981 300.999C990.685 301.351 991.096 302.055 991.096 303.17C991.096 304.285 990.744 304.931 989.981 305.342C989.218 305.753 988.28 305.929 987.106 305.929H983.821V325.823C983.821 329.579 985.111 331.633 987.634 331.868C990.157 332.102 991.448 332.983 991.448 334.567C991.448 335.682 990.92 336.387 989.864 336.856C989.16 337.149 988.104 337.267 986.813 337.267C982.999 337.267 980.477 336.387 979.186 334.626C978.071 333.159 977.543 330.459 977.543 326.527V305.929H974.727C973.495 305.929 972.556 305.753 971.911 305.4C971.266 305.048 970.972 304.285 970.972 303.17C970.972 302.055 971.266 301.41 971.97 300.999C972.615 300.647 973.554 300.471 974.727 300.471H977.543L977.484 300.529Z" fill="#6BE5A8"/>
<path d="M1001.89 320.482C1001.89 323.885 1002.77 326.644 1004.47 328.698C1006.41 330.986 1009.05 332.16 1012.45 332.16C1016.5 332.16 1019.55 330.458 1021.66 327.113C1022.66 325.529 1023.72 324.707 1024.77 324.707C1025.83 324.707 1026.65 325 1027.35 325.587C1028.06 326.174 1028.41 326.937 1028.41 327.935C1028.41 328.346 1028.29 328.874 1028 329.402C1027.71 329.93 1027.35 330.517 1027 331.045C1025.48 333.216 1023.42 334.86 1020.9 335.916C1018.38 337.031 1015.68 337.559 1012.8 337.559C1007.17 337.559 1002.83 335.857 999.779 332.512C996.728 329.167 995.261 324.648 995.261 319.014C995.261 313.087 996.845 308.392 1000.01 304.989C1003.18 301.526 1007.76 299.824 1013.74 299.824C1018.26 299.824 1021.96 301.526 1024.89 305.047C1027.65 308.334 1029 312.266 1029 316.784C1029 317.665 1029 318.252 1028.88 318.545C1028.59 319.425 1027.82 320.071 1026.65 320.482H1002.01H1001.89ZM1022.25 315.083C1021.9 312.09 1021.02 309.801 1019.67 308.158C1018.02 306.28 1015.74 305.341 1012.86 305.341C1009.99 305.341 1007.35 306.221 1005.35 308.04C1003.3 309.859 1002.18 312.207 1001.95 315.141H1022.31L1022.25 315.083Z" fill="#6BE5A8"/>
<path d="M1040.44 286.914C1041.61 286.914 1042.55 287.266 1043.31 288.029C1044.07 288.792 1044.48 289.731 1044.48 290.846C1044.48 291.961 1044.13 292.959 1043.43 293.663C1042.72 294.367 1041.73 294.719 1040.55 294.719C1039.38 294.719 1038.38 294.367 1037.62 293.663C1036.86 292.959 1036.51 292.02 1036.51 290.846C1036.51 289.672 1036.86 288.734 1037.62 287.971C1038.38 287.208 1039.32 286.797 1040.44 286.797V286.914ZM1037.21 303.053C1037.21 302.173 1037.5 301.527 1038.21 300.94C1038.91 300.353 1039.62 300.119 1040.55 300.119C1041.49 300.119 1042.26 300.412 1042.84 300.999C1043.49 301.586 1043.78 302.349 1043.78 303.288V334.45C1043.78 335.271 1043.43 335.976 1042.78 336.562C1042.14 337.091 1041.38 337.384 1040.44 337.384C1039.62 337.384 1038.85 337.149 1038.21 336.621C1037.56 336.093 1037.21 335.447 1037.21 334.684V303.112V303.053Z" fill="#6BE5A8"/>
<path d="M1052.23 302.993C1052.23 302.172 1052.52 301.526 1053.17 300.939C1053.81 300.352 1054.52 300.059 1055.34 300.059C1056.86 300.059 1057.8 300.587 1058.33 301.644C1058.62 302.289 1058.74 303.463 1058.74 305.106C1059.91 303.052 1061.79 301.644 1064.26 300.763C1066.19 300.118 1068.66 299.766 1071.47 299.766C1074.87 299.766 1077.57 300.998 1079.57 303.522C1081.39 305.81 1082.27 308.686 1082.27 312.207V334.273C1082.27 335.153 1081.97 335.916 1081.39 336.444C1080.8 336.972 1080.04 337.266 1079.1 337.266C1078.1 337.266 1077.28 336.972 1076.63 336.444C1075.99 335.857 1075.7 335.094 1075.7 334.097V317.078C1075.7 313.146 1075.4 310.505 1074.87 309.155C1073.94 306.632 1071.77 305.399 1068.36 305.399C1064.67 305.399 1062.03 306.808 1060.44 309.684C1059.21 311.855 1058.62 314.965 1058.62 318.956V334.918C1058.21 335.564 1057.86 336.151 1057.45 336.679C1057.04 337.09 1056.39 337.325 1055.46 337.325C1054.52 337.325 1053.7 337.031 1053.05 336.444C1052.4 335.857 1052.05 335.094 1052.05 334.214V303.052L1052.23 302.993Z" fill="#6BE5A8"/>
<path d="M1103.51 332.571C1105.44 332.571 1107.14 332.16 1108.55 331.28C1110.19 330.282 1111.02 328.874 1111.02 326.996C1111.02 324.766 1109.26 323.064 1105.79 321.949C1102.27 320.834 1098.87 319.66 1095.53 318.545C1091.89 316.726 1090.07 313.909 1090.07 310.094C1090.07 307.219 1091.19 304.754 1093.36 302.759C1095.59 300.763 1098.17 299.766 1101.16 299.766H1104.97C1107.55 299.766 1110.14 300.705 1112.72 302.524C1115.53 304.578 1116.94 306.808 1116.94 309.214C1116.94 310.153 1116.65 310.857 1115.94 311.327C1115.3 311.796 1114.48 312.031 1113.48 312.031C1113.01 312.031 1111.9 310.799 1110.19 308.392C1108.49 305.928 1105.97 304.754 1102.68 304.754C1101.04 304.754 1099.69 305.106 1098.52 305.81C1097.05 306.691 1096.35 307.923 1096.35 309.449C1096.35 311.503 1098.17 313.146 1101.8 314.32C1108.14 316.374 1111.48 317.489 1111.95 317.724C1115.59 319.719 1117.41 322.712 1117.41 326.761C1117.41 330.458 1115.94 333.275 1112.95 335.212C1110.43 336.855 1107.2 337.677 1103.27 337.677C1099.63 337.677 1096.41 336.855 1093.59 335.095C1090.25 333.041 1088.54 330.341 1088.54 326.996C1088.54 325.94 1088.9 325.177 1089.6 324.59C1090.31 324.003 1091.19 323.768 1092.24 323.768C1093.3 323.768 1094.41 325.235 1095.7 328.111C1096.99 331.045 1099.63 332.454 1103.51 332.454V332.571Z" fill="#6BE5A8"/>
<path d="M1127.85 329.344C1129.14 329.344 1130.14 329.696 1130.9 330.4C1131.67 331.104 1132.02 332.043 1132.02 333.334C1132.02 334.449 1131.67 335.388 1130.96 336.151C1130.26 336.914 1129.26 337.266 1128.09 337.266C1126.91 337.266 1125.92 336.914 1125.15 336.21C1124.39 335.506 1123.98 334.508 1123.98 333.276C1123.98 332.161 1124.33 331.222 1125.04 330.459C1125.74 329.696 1126.68 329.344 1127.85 329.344Z" fill="#6BE5A8"/>
<path d="M1154.14 305.165C1150.62 305.165 1147.98 306.573 1146.16 309.331C1144.63 311.679 1143.87 314.731 1143.87 318.428C1143.87 322.125 1144.57 325.118 1145.98 327.583C1147.68 330.634 1150.26 332.219 1153.67 332.219C1157.89 332.219 1160.88 330.693 1162.64 327.583C1164.4 324.472 1165.75 322.947 1166.69 322.947C1167.63 322.947 1168.39 323.181 1169.16 323.71C1169.92 324.238 1170.21 324.942 1170.21 325.764C1170.21 326.82 1169.86 327.994 1169.16 329.402C1168.45 330.752 1167.63 331.926 1166.81 332.864C1165.34 334.566 1163.52 335.799 1161.41 336.503C1159.3 337.207 1156.89 337.559 1154.25 337.559C1148.74 337.559 1144.46 335.799 1141.46 332.219C1138.65 328.933 1137.24 324.472 1137.24 318.897C1137.24 313.322 1138.65 308.51 1141.52 305.106C1144.57 301.526 1149.03 299.707 1154.9 299.707C1157.66 299.707 1160 300.118 1162 300.939C1163.99 301.761 1165.75 303.169 1167.34 305.165C1167.98 306.045 1168.57 306.867 1168.98 307.63C1169.39 308.393 1169.57 309.214 1169.57 310.036C1169.57 310.857 1169.21 311.62 1168.51 312.148C1167.81 312.735 1166.99 312.97 1166.05 312.97C1165.05 312.97 1163.7 311.62 1162 308.979C1160.3 306.339 1157.72 304.989 1154.2 304.989L1154.14 305.165Z" fill="#6BE5A8"/>
<path d="M1190.75 299.824C1196.5 299.824 1200.9 301.585 1203.89 305.047C1206.76 308.334 1208.23 312.911 1208.23 318.662C1208.23 324.12 1206.76 328.522 1203.83 331.984C1200.72 335.681 1196.44 337.501 1191.04 337.501C1185.11 337.501 1180.6 335.857 1177.55 332.571C1174.5 329.285 1172.97 324.648 1172.97 318.721C1172.97 312.794 1174.44 308.392 1177.37 305.106C1180.48 301.526 1184.94 299.766 1190.75 299.766V299.824ZM1190.39 332.395C1194.27 332.395 1197.14 331.045 1199.02 328.404C1200.72 326.057 1201.54 322.888 1201.54 318.956C1201.54 314.731 1200.84 311.503 1199.37 309.331C1197.61 306.515 1194.68 305.165 1190.69 305.165C1186.7 305.165 1184 306.514 1182.12 309.214C1180.48 311.561 1179.66 314.672 1179.66 318.662C1179.66 322.653 1180.42 325.881 1181.89 328.17C1183.71 330.986 1186.52 332.454 1190.39 332.454V332.395Z" fill="#6BE5A8"/>
<path d="M1214.57 302.993C1214.57 302.113 1214.86 301.409 1215.45 300.88C1216.03 300.352 1216.8 300.118 1217.79 300.118C1219.26 300.118 1220.26 300.587 1220.73 301.467C1221.08 302.054 1221.25 303.169 1221.25 304.754C1222.43 302.934 1223.95 301.643 1225.77 300.939C1227.59 300.235 1229.7 299.883 1232.17 299.883C1236.51 299.883 1239.68 301.761 1241.73 305.517C1243.67 303.463 1245.37 302.113 1246.83 301.35C1248.59 300.411 1250.77 299.941 1253.29 299.941C1257.57 299.941 1260.74 301.115 1262.68 303.404C1264.49 305.575 1265.43 308.862 1265.43 313.205V334.331C1265.43 335.212 1265.14 335.975 1264.49 336.561C1263.85 337.148 1263.09 337.383 1262.15 337.383C1261.15 337.383 1260.33 337.09 1259.68 336.561C1259.04 335.975 1258.74 335.212 1258.74 334.214V316.197C1258.74 312.911 1258.45 310.505 1257.86 309.096C1256.93 306.749 1255.05 305.575 1252.23 305.575C1249.42 305.575 1247.42 306.456 1245.78 308.216C1244.14 309.977 1243.31 312.148 1243.31 314.789V334.214C1243.31 335.212 1243.02 335.975 1242.43 336.561C1241.85 337.148 1241.08 337.383 1240.09 337.383C1239.09 337.383 1238.33 337.09 1237.74 336.561C1237.1 335.975 1236.8 335.212 1236.8 334.214V315.258C1236.8 311.268 1236.22 308.686 1235.1 307.395C1233.99 306.162 1232.28 305.517 1230.06 305.517C1226.59 305.517 1224.19 306.866 1222.78 309.507C1221.72 311.561 1221.2 314.437 1221.2 318.251V334.449C1221.2 335.388 1220.9 336.151 1220.26 336.679C1219.61 337.207 1218.85 337.442 1217.85 337.442C1216.97 337.442 1216.21 337.207 1215.51 336.679C1214.8 336.209 1214.51 335.505 1214.51 334.684V303.169L1214.57 302.993Z" fill="#6BE5A8"/>
<path d="M6.27587 123.886C6.27587 104.227 14.9002 89.1444 32.2663 78.6984C46.6989 69.9542 64.5343 65.5527 85.5965 65.5527C100.322 65.5527 114.403 68.5457 127.956 74.473C145.263 82.0435 153.946 92.2548 153.946 105.048C153.946 110.976 151.834 116.316 147.551 121.07C143.268 125.823 138.047 128.171 131.886 128.171C124.553 128.171 117.395 124.121 110.531 116.081C103.667 108.041 94.1622 103.992 82.0764 103.992C73.5107 103.992 67.1744 105.4 63.0676 108.276C58.9021 111.152 56.8486 114.79 56.8486 119.309C56.8486 127.114 65.7664 133.57 83.5431 138.499C111.059 146.07 127.78 151.527 133.705 154.873C151.717 164.849 160.752 179.931 160.752 200.061C160.752 220.19 152.597 235.272 136.228 245.953C122.206 254.991 104.664 259.451 83.6018 259.451C66.2944 259.451 49.339 255.988 32.7356 249.122C11.2627 240.378 0.584961 228.641 0.584961 213.911C0.584961 207.749 2.63838 202.232 6.80389 197.361C10.9694 192.49 16.1323 190.084 22.2925 190.084C31.7969 190.084 40.2453 195.131 47.7549 205.225C55.2059 215.319 67.1157 220.366 83.4844 220.366C90.114 220.366 95.4529 219.31 99.5011 217.138C105.192 214.263 108.067 209.803 108.067 203.641C108.067 195.835 99.2664 189.38 81.7244 184.45C55.3819 177.115 39.0132 171.657 32.6183 168.077C15.0762 158.335 6.27587 143.664 6.27587 123.945V123.886Z" fill="#6BE5A8"/>
<path d="M609.688 177.994C609.922 178.698 610.04 179.989 610.04 181.926C610.04 183.863 610.157 185.506 610.392 186.914C611.565 195.717 616.141 203.112 624.062 209.156C631.982 215.201 640.489 218.253 649.524 218.253C658.559 218.253 668.709 213.734 679.387 204.755C684.608 200.236 689.712 198.006 694.699 198.006C701.563 198.006 707.372 200.119 712.124 204.403C716.876 208.687 719.223 214.262 719.223 221.128C719.223 233.452 710.305 243.311 692.528 250.647C678.272 256.574 663.957 259.567 649.465 259.567C620.541 259.567 597.543 250.941 580.47 233.57C563.398 216.257 554.832 193.135 554.832 164.203C554.832 135.271 563.398 112.266 580.47 93.7213C597.543 75.2353 620.307 65.9629 648.761 65.9629C673.872 65.9629 694.23 74.0615 709.777 90.3175C725.324 106.573 733.069 127.407 733.069 152.759C733.069 161.327 731.426 167.665 728.082 171.773C724.738 175.94 718.93 177.994 710.657 177.994H609.629H609.688ZM683.669 139.203C680.56 117.137 668.239 106.104 646.649 106.104C637.145 106.104 628.99 109.214 622.126 115.376C615.261 121.538 611.096 129.52 609.688 139.203H683.669Z" fill="#6BE5A8"/>
<path d="M795.728 177.994C795.962 178.698 796.08 179.989 796.08 181.926C796.08 183.863 796.197 185.506 796.432 186.914C797.605 195.717 802.181 203.112 810.102 209.156C818.022 215.201 826.529 218.253 835.564 218.253C844.599 218.253 854.749 213.734 865.427 204.755C870.648 200.236 875.752 198.006 880.739 198.006C887.604 198.006 893.412 200.119 898.164 204.403C902.916 208.687 905.263 214.262 905.263 221.128C905.263 233.452 896.345 243.311 878.568 250.647C864.312 256.574 849.997 259.567 835.505 259.567C806.582 259.567 783.583 250.941 766.51 233.57C749.438 216.257 740.872 193.135 740.872 164.203C740.872 135.271 749.438 112.266 766.51 93.7213C783.583 75.2353 806.347 65.9629 834.801 65.9629C859.912 65.9629 880.27 74.0615 895.817 90.3175C911.365 106.573 919.109 127.407 919.109 152.759C919.109 161.327 917.466 167.665 914.122 171.773C910.778 175.94 904.97 177.994 896.697 177.994H795.669H795.728ZM869.709 139.203C866.6 117.137 854.279 106.104 832.689 106.104C823.185 106.104 815.03 109.214 808.166 115.376C801.301 121.538 797.136 129.52 795.728 139.203H869.709Z" fill="#6BE5A8"/>
<path d="M943.397 31.0452C943.397 22.7705 945.627 15.8456 950.144 10.3878C954.662 4.93002 961.057 2.23047 969.329 2.23047C977.602 2.23047 983.586 4.9887 987.986 10.3878C992.386 15.8456 994.557 22.7118 994.557 31.0452V227.115C994.557 235.448 992.093 242.49 987.282 248.3C982.412 254.11 975.959 257.044 967.921 257.044C959.121 257.044 952.608 253.347 948.384 246.011C945.04 240.319 943.397 232.631 943.397 222.889V31.0452Z" fill="#6BE5A8"/>
<path d="M1053.99 0.0586858C1061.09 0.0586858 1067.19 2.64086 1072.29 7.68784C1077.4 12.7935 1079.92 18.8968 1079.92 25.9978C1079.92 32.6293 1077.46 38.4392 1072.47 43.4275C1067.48 48.4158 1061.56 50.8806 1054.69 50.8806C1046.13 50.8806 1039.67 48.2984 1035.33 43.0754C1030.93 37.8524 1028.76 30.8688 1028.76 22.0659C1028.76 16.6081 1031.52 11.5611 1037.15 6.92493C1042.72 2.28875 1048.36 0 1054.05 0L1053.99 0.0586858ZM1028.7 96.1274C1028.7 88.7917 1031.11 82.4536 1035.98 77.1132C1040.85 71.7728 1046.95 69.1319 1054.28 69.1319C1060.91 69.1319 1066.84 71.362 1072.06 75.8808C1077.28 80.3996 1079.86 85.9748 1079.86 92.6063V229.579C1079.86 236.68 1077.28 243.018 1072.24 248.593C1067.13 254.168 1061.15 256.985 1054.28 256.985C1046.48 256.985 1040.2 254.051 1035.63 248.065C1030.99 242.138 1028.7 235.154 1028.7 227.055V96.1274Z" fill="#6BE5A8"/>
<path d="M1132.49 69.0742C1138.82 69.0742 1144.4 71.0108 1149.09 74.9428C1153.78 78.8747 1157.07 84.0391 1159.01 90.4358C1166.63 82.1611 1174.14 76.0578 1181.65 72.3019C1189.16 68.4873 1198.26 66.6094 1208.93 66.6094C1228.71 66.6094 1244.25 73.2409 1255.69 86.5626C1266.37 99.1213 1271.77 115.495 1271.77 135.683V225.707C1271.77 234.744 1269.66 242.08 1265.37 247.773C1260.39 254.404 1253.64 257.749 1245.07 257.749C1235.57 257.749 1228.59 253.348 1224.07 244.604C1220.73 237.972 1219.08 229.287 1219.08 218.606V142.431C1219.08 132.924 1216.44 125.354 1211.28 119.661C1206.06 113.969 1198.73 111.093 1189.22 111.093C1185.64 111.093 1182.24 111.974 1178.9 113.734C1175.55 115.495 1172.5 117.842 1169.63 120.659C1165.34 124.708 1162.53 130.694 1161.06 138.617C1159.65 146.539 1158.95 154.814 1158.95 163.324C1158.95 168.547 1159.24 176.352 1159.83 186.798C1160.41 197.244 1160.71 205.167 1160.71 210.624C1160.71 223.887 1159.53 233.981 1157.13 240.848C1153.32 251.998 1145.98 257.573 1135.07 257.573C1125.57 257.573 1118.47 253.876 1113.71 246.54C1109.9 240.613 1108.02 232.456 1108.02 222.009V97.4781C1108.02 89.9077 1110.25 83.2175 1114.71 77.5249C1119.17 71.8324 1125.1 68.9568 1132.37 68.9568L1132.49 69.0742Z" fill="#6BE5A8"/>
<path d="M331.42 68.8358C330.247 69.1879 323.911 71.8875 317.516 82.9791C311.883 92.6622 307.777 103.343 303.963 114.083C293.051 144.717 284.074 176.231 277.21 208.449C275.45 216.607 273.866 224.764 272.34 232.98C271.578 237.205 266.239 253.814 268.527 257.511C270.815 261.208 287.36 260.093 291.056 259.917C298.859 259.565 306.603 257.628 312.646 252.581C320.801 245.774 324.321 234.565 327.489 223.942C337.815 189.553 348.141 155.163 358.467 120.773C358.76 119.834 359.053 118.895 359.053 117.838C359.053 116.195 358.291 114.611 357.587 113.085C351.016 99.5285 346.615 80.6317 340.045 67.1339C337.228 65.4907 338.754 66.547 331.537 68.7771L331.42 68.8358Z" fill="#6BE5A8"/>
<path d="M128.835 61.2071C148.842 68.8363 164.272 87.381 175.184 107.041C186.625 127.581 194.134 149.999 201.703 172.182C210.738 198.708 221.474 234.213 238.253 248.474C247.23 256.103 258.846 259.507 269.231 260.622C281.199 261.913 291.818 261.267 305.077 257.1C296.218 252.582 289.178 246.126 283.663 237.382C278.148 228.638 274.159 219.072 270.345 209.506C254.035 168.837 239.427 127.463 219.89 88.2026C215.724 79.8105 210.796 70.949 202.817 66.6649C197.068 63.5546 190.555 63.2611 184.278 63.0264C165.856 62.3808 147.375 61.794 128.953 61.1484L128.835 61.2071Z" fill="#6BE5A8"/>
<path d="M590.386 61.207C570.38 68.8362 554.95 87.3809 544.037 107.041C532.597 127.581 525.087 149.999 517.519 172.182C508.484 198.708 498.158 234.213 474.514 255.164C465.714 263.028 458.556 261.56 448.113 262.676C437.787 263.791 429.75 261.913 419.248 258.744C417.37 258.157 416.96 255.633 418.603 254.577C425.408 250.293 430.982 244.6 435.558 237.441C441.131 228.755 445.062 219.131 448.876 209.565C465.186 168.896 479.794 127.522 499.331 88.2612C503.497 79.8691 508.425 71.0076 516.404 66.7235C522.154 63.6131 528.666 63.3197 534.943 63.085C553.366 62.4394 571.846 61.8526 590.268 61.207H590.386Z" fill="#6BE5A8"/>
<path d="M329.19 70.5401C329.19 70.5401 329.542 71.1269 329.894 71.5964C341.1 86.0918 349.607 102.23 356.53 119.132C360.578 129.05 364.098 139.202 367.384 149.414C376.419 177.466 383.753 206.222 396.249 232.982C399.652 240.259 403.524 247.537 409.567 252.877C416.959 259.391 426.933 262.384 436.789 262.971C446.646 263.558 454.566 264.027 466.183 260.389C456.561 252.818 451.457 244.778 448.054 234.332C438.902 206.163 429.691 177.935 420.538 149.766C414.261 130.4 407.866 110.857 397.892 93.0754C392.377 83.2749 385.513 73.8265 375.715 68.31C368.381 64.1433 359.757 62.6761 351.426 63.3217C347.202 63.6151 342.978 64.4954 338.929 65.7865C336.876 66.432 334.881 67.195 332.945 68.0752C332.006 68.486 331.068 68.8968 330.188 69.425C329.366 69.8945 329.073 70.1292 329.19 70.5401Z" fill="#6BE5A8"/>
</svg>
