<?xml version="1.0" encoding="utf-8"?>
<!-- Generator: Adobe Illustrator 27.7.0, SVG Export Plug-In . SVG Version: 6.00 Build 0)  -->
<svg version="1.1" id="Слой_1" xmlns="http://www.w3.org/2000/svg" xmlns:xlink="http://www.w3.org/1999/xlink" x="0px" y="0px"
	 viewBox="0 0 419 209.3" style="enable-background:new 0 0 419 209.3;" xml:space="preserve">
<style type="text/css">
	.st0{fill-rule:evenodd;clip-rule:evenodd;fill:#B6FDBA;}
	.st1{clip-path:url(#SVGID_00000152264416198287019750000007436096119830345880_);}
	.st2{clip-path:url(#SVGID_00000176007406347628773900000007264851348134385554_);}
	.st3{clip-path:url(#SVGID_00000109745056879321081070000005640509822514540933_);}
	.st4{fill:#138758;}
	.st5{fill:url(#SVGID_00000000942631776033088460000008002291403338154914_);}
	.st6{fill:url(#SVGID_00000060025420871286452020000007246917024560357049_);}
	.st7{fill:url(#SVGID_00000062884537212812488780000014046850589052918435_);}
	.st8{fill:url(#SVGID_00000030468868495536052920000002828629599997457844_);}
</style>
<path class="st0" d="M131.8,193.3c24-6.4,31.9-54.7,17.6-107.9C135.2,32.2,104.2-5.7,80.2,0.8c-10.6,2.8-18,13.8-21.8,29.7
	c-11.2-12-23.1-17.7-33.7-14.9C0.7,22-7.2,70.3,7.1,123.5c14.2,53.2,45.2,91.1,69.2,84.7c10.6-2.8,18-13.8,21.8-29.7
	C109.4,190.4,121.3,196.1,131.8,193.3z"/>
<path class="st0" d="M263,193.2c24-6.4,31.9-54.7,17.6-107.9c-14.2-53.2-45.2-91.1-69.2-84.6c-10.6,2.8-18,13.8-21.8,29.7
	c-11.2-11.9-23.1-17.7-33.7-14.9c-24,6.4-31.9,54.7-17.6,107.9c14.2,53.2,45.2,91.1,69.2,84.6c10.6-2.8,18-13.8,21.8-29.7
	C240.5,190.3,252.5,196.1,263,193.2z"/>
<path class="st0" d="M394.2,193.2c24-6.4,31.9-54.7,17.6-107.9c-14.2-53.2-45.2-91.1-69.2-84.6c-10.6,2.8-18,13.8-21.8,29.7
	c-11.2-11.9-23.2-17.6-33.7-14.8c-24,6.4-31.9,54.7-17.6,107.9c14.2,53.2,45.2,91.1,69.2,84.6c10.6-2.8,18-13.8,21.8-29.7
	C371.7,190.2,383.6,196,394.2,193.2z"/>
<g>
	<g>
		<defs>
			<rect id="SVGID_1_" x="44.3" y="66.7" width="334" height="62.8"/>
		</defs>
		<clipPath id="SVGID_00000070838439840103471280000015686375238683953040_">
			<use xlink:href="#SVGID_1_"  style="overflow:visible;"/>
		</clipPath>
		<g style="clip-path:url(#SVGID_00000070838439840103471280000015686375238683953040_);">
			<g>
				<g>
					<defs>
						<rect id="SVGID_00000179639947385861415200000011930862753472747141_" x="44.3" y="66.7" width="334" height="87.6"/>
					</defs>
					<clipPath id="SVGID_00000150071509467034563170000015065494328217125561_">
						<use xlink:href="#SVGID_00000179639947385861415200000011930862753472747141_"  style="overflow:visible;"/>
					</clipPath>
					<g style="clip-path:url(#SVGID_00000150071509467034563170000015065494328217125561_);">
						<g>
							<g>
								<defs>
									<rect id="SVGID_00000149362003543042878520000000632206526799492535_" x="46" y="66.2" width="331.2" height="85.7"/>
								</defs>
								<clipPath id="SVGID_00000145025670024354393130000008533804351471321787_">
									<use xlink:href="#SVGID_00000149362003543042878520000000632206526799492535_"  style="overflow:visible;"/>
								</clipPath>
								<g style="clip-path:url(#SVGID_00000145025670024354393130000008533804351471321787_);">
									<path class="st4" d="M362.1,94.1c-1.3-0.6-2.5-1.3-3.5-2.3s-1.8-2.1-2.3-3.4c-0.6-1.3-0.9-2.7-0.9-4.2s0.3-2.9,0.9-4.2
										s1.3-2.5,2.3-3.5s2.1-1.8,3.5-2.3c1.3-0.6,2.7-0.9,4.2-0.9s2.9,0.3,4.2,0.9c1.3,0.6,2.5,1.3,3.5,2.3s1.8,2.1,2.3,3.5
										c0.6,1.3,0.9,2.7,0.9,4.2s-0.3,2.9-0.9,4.2s-1.3,2.4-2.3,3.4s-2.1,1.8-3.5,2.3c-1.3,0.6-2.7,0.9-4.2,0.9
										C364.8,94.9,363.4,94.6,362.1,94.1z M358.2,87.5c0.5,1.1,1.1,2,1.9,2.8s1.7,1.4,2.8,1.9c1.1,0.5,2.2,0.7,3.4,0.7
										c1.2,0,2.3-0.2,3.4-0.7s2-1.1,2.8-1.9c0.8-0.8,1.4-1.7,1.9-2.8s0.7-2.2,0.7-3.4s-0.2-2.4-0.7-3.4c-0.5-1.1-1.1-2-1.9-2.8
										s-1.7-1.4-2.8-1.9c-1.1-0.5-2.2-0.7-3.4-0.7c-1.2,0-2.4,0.2-3.4,0.7c-1.1,0.5-2,1.1-2.8,1.9c-0.8,0.8-1.4,1.7-1.9,2.8
										s-0.7,2.2-0.7,3.4S357.7,86.4,358.2,87.5z M365.3,86.5v2.1c0,0.4-0.1,0.7-0.4,1s-0.6,0.4-1,0.4s-0.7-0.1-1-0.4
										s-0.4-0.6-0.4-1v-9.3c0-0.4,0.1-0.7,0.4-1s0.6-0.4,1-0.4h3.1c0.6,0,1.2,0.1,1.7,0.3s1,0.5,1.4,0.9s0.7,0.9,1,1.4
										c0.2,0.5,0.3,1.1,0.3,1.7c0,0.6-0.1,1.1-0.3,1.5c-0.2,0.4-0.5,0.8-0.8,1c-0.3,0.3-0.6,0.5-0.9,0.6s-0.5,0.3-0.7,0.3
										l2.3,1.8c0.3,0.3,0.5,0.6,0.5,1.1c0,0.3-0.1,0.6-0.3,0.9c-0.2,0.3-0.6,0.4-1.1,0.4c-0.3,0-0.6-0.1-0.9-0.3l-3.7-3.2
										L365.3,86.5L365.3,86.5z M365.3,80.4v3.4h1.7c0.5,0,0.9-0.2,1.2-0.5c0.4-0.3,0.5-0.8,0.5-1.2c0-0.5-0.2-0.9-0.5-1.2
										c-0.4-0.3-0.8-0.5-1.2-0.5H365.3L365.3,80.4z"/>
									<path class="st4" d="M47.3,96.2c0-4.8,2.1-8.4,6.3-10.9c3.5-2.1,7.8-3.2,12.9-3.2c3.6,0,7,0.7,10.3,2.2
										c4.2,1.8,6.3,4.3,6.3,7.4c0,1.4-0.5,2.7-1.6,3.9c-1,1.2-2.3,1.7-3.8,1.7c-1.8,0-3.5-1-5.2-2.9s-4-2.9-6.9-2.9
										c-2.1,0-3.6,0.3-4.6,1s-1.5,1.6-1.5,2.7c0,1.9,2.2,3.5,6.5,4.6c6.7,1.8,10.7,3.2,12.2,4c4.4,2.4,6.6,6.1,6.6,10.9
										c0,4.8-2,8.5-5.9,11.1c-3.4,2.2-7.7,3.3-12.8,3.3c-4.2,0-8.3-0.8-12.3-2.5c-5.2-2.1-7.8-5-7.8-8.5c0-1.5,0.5-2.8,1.5-4
										s2.3-1.8,3.8-1.8c2.3,0,4.4,1.2,6.2,3.7c1.8,2.4,4.7,3.7,8.7,3.7c1.6,0,2.9-0.3,3.9-0.8c1.4-0.7,2.1-1.8,2.1-3.3
										c0-1.9-2.1-3.5-6.4-4.6c-6.4-1.8-10.4-3.1-11.9-4C49.5,104.5,47.3,100.9,47.3,96.2z"/>
									<path class="st4" d="M193.6,109.3c0.1,0.2,0.1,0.5,0.1,1s0,0.9,0.1,1.2c0.3,2.1,1.4,3.9,3.3,5.4c1.9,1.5,4,2.2,6.2,2.2
										s4.7-1.1,7.2-3.3c1.3-1.1,2.5-1.6,3.7-1.6c1.7,0,3.1,0.5,4.2,1.5c1.2,1,1.7,2.4,1.7,4.1c0,3-2.2,5.4-6.5,7.1
										c-3.5,1.4-6.9,2.2-10.4,2.2c-7,0-12.6-2.1-16.7-6.3c-4.1-4.2-6.2-9.8-6.2-16.8c0-6.9,2.1-12.6,6.2-17.1
										c4.1-4.5,9.7-6.7,16.6-6.7c6.1,0,11,2,14.8,5.9s5.6,9,5.6,15.1c0,2.1-0.4,3.6-1.2,4.6s-2.2,1.5-4.2,1.5L193.6,109.3
										L193.6,109.3z M211.6,99.9c-0.8-5.3-3.7-8-9-8c-2.3,0-4.3,0.8-5.9,2.2c-1.7,1.5-2.7,3.4-3,5.8H211.6z"/>
									<path class="st4" d="M238.7,109.3c0.1,0.2,0.1,0.5,0.1,1s0,0.9,0.1,1.2c0.3,2.1,1.4,3.9,3.3,5.4s4,2.2,6.2,2.2
										s4.7-1.1,7.2-3.3c1.3-1.1,2.5-1.6,3.7-1.6c1.7,0,3.1,0.5,4.2,1.5c1.2,1,1.7,2.4,1.7,4.1c0,3-2.2,5.4-6.5,7.1
										c-3.5,1.4-6.9,2.2-10.4,2.2c-7,0-12.6-2.1-16.7-6.3c-4.1-4.2-6.2-9.8-6.2-16.8c0-6.9,2.1-12.6,6.2-17.1
										c4.1-4.5,9.7-6.7,16.6-6.7c6.1,0,11,2,14.8,5.9s5.6,9,5.6,15.1c0,2.1-0.4,3.6-1.2,4.6c-0.8,1-2.2,1.5-4.2,1.5L238.7,109.3
										L238.7,109.3z M256.7,99.9c-0.8-5.3-3.7-8-9-8c-2.3,0-4.3,0.8-5.9,2.2c-1.7,1.5-2.7,3.4-3,5.8H256.7z"/>
									<path class="st4" d="M274.5,73.7c0-2,0.5-3.7,1.6-5s2.6-2,4.7-2c1.9,0,3.5,0.7,4.5,2c1.1,1.3,1.6,3,1.6,5v47.5
										c0,2-0.6,3.7-1.8,5.1c-1.2,1.4-2.7,2.1-4.7,2.1c-2.1,0-3.7-0.9-4.7-2.7c-0.8-1.4-1.2-3.2-1.2-5.6V73.7z"/>
									<path class="st4" d="M301.4,66.2c1.7,0,3.2,0.6,4.4,1.8c1.2,1.2,1.8,2.7,1.8,4.4c0,1.6-0.6,3-1.8,4.2
										c-1.2,1.2-2.6,1.8-4.3,1.8c-2.1,0-3.6-0.6-4.7-1.9c-1.1-1.3-1.6-3-1.6-5.1c0-1.3,0.7-2.5,2-3.7
										C298.6,66.7,300,66.2,301.4,66.2z M295.2,89.4c0-1.8,0.6-3.3,1.8-4.6c1.2-1.3,2.7-1.9,4.4-1.9c1.6,0,3,0.5,4.3,1.6
										s1.9,2.4,1.9,4.1v33.2c0,1.7-0.6,3.3-1.8,4.6c-1.2,1.3-2.7,2-4.4,2c-1.9,0-3.4-0.7-4.5-2.2c-1.1-1.4-1.7-3.1-1.7-5.1
										L295.2,89.4L295.2,89.4z"/>
									<path class="st4" d="M320.4,82.9c1.5,0,2.9,0.5,4,1.4c1.1,1,1.9,2.2,2.4,3.8c1.8-2,3.7-3.5,5.5-4.4s4-1.4,6.6-1.4
										c4.8,0,8.6,1.6,11.3,4.8c2.6,3,3.9,7,3.9,11.9v21.8c0,2.2-0.5,4-1.5,5.3c-1.2,1.6-2.8,2.4-4.9,2.4c-2.3,0-4-1.1-5.1-3.2
										c-0.8-1.6-1.2-3.7-1.2-6.3v-18.5c0-2.3-0.6-4.1-1.9-5.5s-3-2.1-5.3-2.1c-0.9,0-1.7,0.2-2.5,0.6c-0.8,0.4-1.6,1-2.2,1.7
										c-1,1-1.7,2.4-2.1,4.3c-0.3,1.9-0.5,3.9-0.5,6c0,1.3,0.1,3.2,0.2,5.7s0.2,4.4,0.2,5.8c0,3.2-0.3,5.7-0.9,7.3
										c-0.9,2.7-2.7,4.1-5.3,4.1c-2.3,0-4-0.9-5.2-2.7c-0.9-1.4-1.4-3.4-1.4-5.9V89.7c0-1.8,0.5-3.5,1.6-4.8
										C317.2,83.6,318.6,82.9,320.4,82.9z"/>
									
										<linearGradient id="SVGID_00000155117807508972030240000011230603904333524145_" gradientUnits="userSpaceOnUse" x1="121.9815" y1="4865.4585" x2="125.1514" y2="4817.7876" gradientTransform="matrix(1 0 0 1 0 -4736)">
										<stop  offset="0.1207" style="stop-color:#128858"/>
										<stop  offset="0.1701" style="stop-color:#19905D"/>
										<stop  offset="0.279" style="stop-color:#22A268"/>
										<stop  offset="0.38" style="stop-color:#28AD6F"/>
										<stop  offset="0.4648" style="stop-color:#29B372"/>
										<stop  offset="0.5883" style="stop-color:#24A56A"/>
										<stop  offset="0.8231" style="stop-color:#158A59"/>
										<stop  offset="0.848" style="stop-color:#128858"/>
									</linearGradient>
									<path style="fill:url(#SVGID_00000155117807508972030240000011230603904333524145_);" d="M127.6,82.8
										c-0.3,0.1-1.8,0.7-3.4,3.4c-1.4,2.3-2.4,4.9-3.3,7.5c-2.6,7.4-4.8,15-6.5,22.9c-0.4,2-0.8,4-1.2,5.9c-0.2,1-1.5,5-0.9,5.9
										c0.5,0.9,4.6,0.6,5.5,0.6c1.9-0.1,3.8-0.6,5.2-1.8c2-1.6,2.8-4.4,3.6-6.9c2.5-8.3,5-16.7,7.5-25c0.1-0.2,0.1-0.5,0.1-0.7
										c0-0.4-0.2-0.8-0.4-1.2c-1.6-3.3-2.7-7.9-4.3-11.1C129,82,129.3,82.3,127.6,82.8z"/>
									
										<linearGradient id="SVGID_00000051362220561005135680000018213515405577032615_" gradientUnits="userSpaceOnUse" x1="98.3192" y1="4864.1597" x2="101.3985" y2="4817.8394" gradientTransform="matrix(1 0 0 1 0 -4736)">
										<stop  offset="0" style="stop-color:#29B372"/>
										<stop  offset="1" style="stop-color:#128858"/>
									</linearGradient>
									<path style="fill:url(#SVGID_00000051362220561005135680000018213515405577032615_);" d="M78.5,81
										c4.8,1.8,8.6,6.3,11.2,11.1c2.8,5,4.6,10.4,6.4,15.8c2.2,6.4,4.8,15,8.9,18.5c2.2,1.8,5,2.7,7.5,2.9
										c2.9,0.3,5.5,0.2,8.7-0.9c-2.1-1.1-3.9-2.7-5.2-4.8s-2.3-4.4-3.2-6.8c-4-9.8-7.5-19.9-12.2-29.4c-1-2-2.2-4.2-4.1-5.2
										c-1.4-0.8-3-0.8-4.5-0.9C87.4,81.3,82.9,81.1,78.5,81z"/>
									
										<linearGradient id="SVGID_00000098912709324648479860000003704266502047986840_" gradientUnits="userSpaceOnUse" x1="171.0918" y1="4864.5327" x2="167.9823" y2="4817.7729" gradientTransform="matrix(1 0 0 1 0 -4736)">
										<stop  offset="0" style="stop-color:#29B372"/>
										<stop  offset="1" style="stop-color:#128858"/>
									</linearGradient>
									<path style="fill:url(#SVGID_00000098912709324648479860000003704266502047986840_);" d="M190.4,81
										c-4.8,1.8-8.6,6.3-11.2,11.1c-2.8,5-4.6,10.4-6.4,15.8c-2.2,6.4-4.7,15-10.4,20.1c-2.1,1.9-3.9,1.5-6.4,1.8s-4.5-0.2-7-1
										c-0.5-0.1-0.6-0.8-0.2-1c1.6-1,3-2.4,4.1-4.2c1.4-2.1,2.3-4.4,3.2-6.8c4-9.8,7.5-19.9,12.2-29.4c1-2,2.2-4.2,4.1-5.2
										c1.4-0.8,3-0.8,4.5-0.9C181.4,81.3,185.9,81.1,190.4,81z"/>
									
										<linearGradient id="SVGID_00000000908762948213478460000008922585684962094003_" gradientUnits="userSpaceOnUse" x1="130.3495" y1="4817.8096" x2="157.5627" y2="4867.2495" gradientTransform="matrix(1 0 0 1 0 -4736)">
										<stop  offset="0" style="stop-color:#29B372"/>
										<stop  offset="0.2114" style="stop-color:#21A067"/>
										<stop  offset="0.4679" style="stop-color:#1A925E"/>
										<stop  offset="0.7292" style="stop-color:#158A59"/>
										<stop  offset="1" style="stop-color:#128858"/>
									</linearGradient>
									<path style="fill:url(#SVGID_00000000908762948213478460000008922585684962094003_);" d="M127,83.2c0,0.1,0.1,0.1,0.2,0.3
										c2.7,3.5,4.8,7.4,6.5,11.5c1,2.4,1.8,4.9,2.6,7.3c2.2,6.8,4,13.8,7,20.2c0.8,1.8,1.8,3.5,3.2,4.8c1.8,1.6,4.2,2.3,6.6,2.4
										c2.4,0.1,4.3,0.3,7.1-0.6c-2.3-1.8-3.6-3.8-4.4-6.3c-2.2-6.8-4.5-13.7-6.7-20.5c-1.5-4.7-3.1-9.4-5.5-13.7
										c-1.3-2.4-3-4.7-5.4-6c-1.8-1-3.9-1.4-5.9-1.2c-1,0.1-2,0.3-3,0.6c-0.5,0.2-1,0.3-1.5,0.6c-0.2,0.1-0.5,0.2-0.7,0.3
										C127.1,83.1,127,83.2,127,83.2z"/>
								</g>
							</g>
						</g>
					</g>
				</g>
			</g>
		</g>
	</g>
</g>
</svg>
