<?xml version="1.0" encoding="utf-8"?>
<!-- Generator: Adobe Illustrator 27.7.0, SVG Export Plug-In . SVG Version: 6.00 Build 0)  -->
<svg version="1.1" id="Слой_1" xmlns="http://www.w3.org/2000/svg" xmlns:xlink="http://www.w3.org/1999/xlink" x="0px" y="0px"
	 viewBox="0 0 457 362" style="enable-background:new 0 0 457 362;" xml:space="preserve">
<style type="text/css">
	.st0{fill-rule:evenodd;clip-rule:evenodd;fill:#B6FDBA;}
	.st1{clip-path:url(#SVGID_00000069395265199847021410000009392616620141138081_);}
	.st2{clip-path:url(#SVGID_00000156548786288268984780000002209840595677207687_);}
	.st3{fill:#138758;}
	.st4{fill:url(#SVGID_00000044174462429762824460000007215527048378219194_);}
	.st5{fill:url(#SVGID_00000177447681566326724700000012915871080538588821_);}
	.st6{fill:url(#SVGID_00000093894586131893983350000010400889074485844156_);}
	.st7{fill:url(#SVGID_00000170984678048685915610000016380251238604174727_);}
</style>
<path class="st0" d="M150.5,269.8c24-6.4,31.9-54.7,17.6-107.9c-14.2-53.2-45.2-91.1-69.2-84.6c-10.6,2.8-18,13.8-21.8,29.7
	C65.9,95,54,89.3,43.4,92.1c-24,6.4-31.9,54.7-17.6,107.9C40,253.2,71,291.1,95,284.7c10.6-2.8,18-13.8,21.8-29.7
	C128.1,266.9,140,272.6,150.5,269.8z"/>
<path class="st0" d="M281.7,269.7c24-6.4,31.9-54.7,17.6-107.9c-14.2-53.2-45.2-91.1-69.2-84.6c-10.6,2.8-18,13.8-21.8,29.7
	C197.1,95,185.2,89.2,174.6,92c-24,6.4-31.9,54.7-17.6,107.9c14.2,53.2,45.2,91.1,69.2,84.6c10.6-2.8,18-13.8,21.8-29.7
	C259.2,266.8,271.2,272.6,281.7,269.7z"/>
<path class="st0" d="M412.9,269.7c24-6.4,31.9-54.7,17.6-107.9c-14.2-53.2-45.2-91.1-69.2-84.6c-10.6,2.8-18,13.8-21.8,29.7
	c-11.2-11.9-23.2-17.6-33.7-14.8c-24,6.4-31.9,54.7-17.6,107.9c14.2,53.2,45.2,91.1,69.2,84.6c10.6-2.8,18-13.8,21.8-29.7
	C390.4,266.7,402.3,272.5,412.9,269.7z"/>
<g>
	<defs>
		<rect id="SVGID_1_" x="63" y="141" width="314" height="59"/>
	</defs>
	<clipPath id="SVGID_00000027573029516432395970000002880020657467730584_">
		<use xlink:href="#SVGID_1_"  style="overflow:visible;"/>
	</clipPath>
	<g style="clip-path:url(#SVGID_00000027573029516432395970000002880020657467730584_);">
		<g>
			<defs>
				<rect id="SVGID_00000125596702647898097110000014246022916378399118_" x="64.6" y="142.8" width="311.4" height="78.4"/>
			</defs>
			<clipPath id="SVGID_00000119838269590141912260000016470110533604506763_">
				<use xlink:href="#SVGID_00000125596702647898097110000014246022916378399118_"  style="overflow:visible;"/>
			</clipPath>
			<g style="clip-path:url(#SVGID_00000119838269590141912260000016470110533604506763_);">
				<path class="st3" d="M361.8,168.2c-1.2-0.5-2.3-1.2-3.2-2.1c-0.9-0.9-1.7-1.9-2.2-3.1c-0.5-1.2-0.8-2.5-0.8-3.9s0.3-2.7,0.8-3.9
					c0.5-1.2,1.3-2.3,2.2-3.2c0.9-0.9,2-1.6,3.2-2.1c1.2-0.5,2.6-0.8,4-0.8c1.4,0,2.7,0.3,4,0.8c1.2,0.5,2.3,1.2,3.2,2.1
					c0.9,0.9,1.7,1.9,2.2,3.2c0.5,1.2,0.8,2.5,0.8,3.9s-0.3,2.7-0.8,3.9c-0.5,1.2-1.3,2.2-2.2,3.1c-0.9,0.9-2,1.6-3.2,2.1
					c-1.2,0.5-2.6,0.8-4,0.8C364.4,169,363,168.8,361.8,168.2z M358.1,162.2c0.4,1,1,1.8,1.8,2.6c0.8,0.7,1.6,1.3,2.7,1.7
					c1,0.4,2.1,0.6,3.2,0.6c1.1,0,2.2-0.2,3.2-0.6s1.9-1,2.6-1.7s1.4-1.6,1.8-2.6c0.4-1,0.6-2,0.6-3.1c0-1.1-0.2-2.2-0.6-3.1
					c-0.4-1-1-1.8-1.8-2.6c-0.8-0.7-1.6-1.3-2.6-1.7c-1-0.4-2.1-0.6-3.2-0.6c-1.1,0-2.2,0.2-3.2,0.6c-1,0.4-1.9,1-2.7,1.7
					c-0.8,0.7-1.4,1.6-1.8,2.6c-0.4,1-0.6,2-0.6,3.1C357.5,160.2,357.7,161.3,358.1,162.2z M364.8,161.3v1.9c0,0.4-0.1,0.7-0.4,0.9
					c-0.3,0.3-0.6,0.4-0.9,0.4c-0.4,0-0.7-0.1-0.9-0.4c-0.3-0.3-0.4-0.6-0.4-0.9v-8.5c0-0.4,0.1-0.6,0.4-0.9
					c0.3-0.3,0.6-0.4,0.9-0.4h2.9c0.6,0,1.1,0.1,1.6,0.3c0.5,0.2,0.9,0.5,1.3,0.8c0.4,0.3,0.7,0.8,0.9,1.3c0.2,0.5,0.3,1,0.3,1.5
					c0,0.6-0.1,1-0.3,1.4c-0.2,0.4-0.4,0.7-0.7,0.9c-0.3,0.2-0.6,0.4-0.8,0.6c-0.3,0.1-0.5,0.2-0.7,0.3l2.1,1.7
					c0.3,0.3,0.5,0.6,0.5,1c0,0.3-0.1,0.6-0.3,0.8c-0.2,0.3-0.5,0.4-1,0.4c-0.3,0-0.6-0.1-0.8-0.3l-3.5-2.9L364.8,161.3L364.8,161.3
					z M364.8,155.8v3.1h1.6c0.4,0,0.8-0.2,1.1-0.5c0.3-0.3,0.5-0.7,0.5-1.1c0-0.4-0.2-0.8-0.5-1.1c-0.3-0.3-0.7-0.5-1.1-0.5
					L364.8,155.8L364.8,155.8z"/>
				<path class="st3" d="M65.9,170.2c0-4.4,2-7.7,5.9-10c3.3-1.9,7.4-2.9,12.2-2.9c3.4,0,6.6,0.7,9.7,2c3.9,1.7,5.9,3.9,5.9,6.8
					c0,1.3-0.5,2.5-1.5,3.5c-1,1.1-2.2,1.6-3.6,1.6c-1.7,0-3.3-0.9-4.9-2.7s-3.7-2.7-6.5-2.7c-2,0-3.4,0.3-4.3,0.9
					c-0.9,0.6-1.4,1.4-1.4,2.4c0,1.7,2,3.2,6.1,4.2c6.3,1.7,10.1,2.9,11.4,3.6c4.1,2.2,6.2,5.5,6.2,10c0,4.4-1.9,7.8-5.6,10.2
					c-3.2,2-7.2,3-12,3c-3.9,0-7.8-0.8-11.6-2.3c-4.9-1.9-7.3-4.5-7.3-7.8c0-1.4,0.5-2.6,1.4-3.7c0.9-1.1,2.1-1.6,3.5-1.6
					c2.2,0,4.1,1.1,5.8,3.4c1.7,2.2,4.4,3.4,8.1,3.4c1.5,0,2.7-0.2,3.7-0.7c1.3-0.6,2-1.6,2-3c0-1.7-2-3.2-6-4.2
					c-6-1.6-9.7-2.8-11.2-3.6C67.8,177.8,65.9,174.5,65.9,170.2z"/>
				<path class="st3" d="M203.4,182.1c0.1,0.2,0.1,0.4,0.1,0.9c0,0.4,0,0.8,0.1,1.1c0.3,1.9,1.3,3.6,3.1,4.9c1.8,1.3,3.7,2,5.8,2
					c2.1,0,4.4-1,6.8-3c1.2-1,2.4-1.5,3.5-1.5c1.6,0,2.9,0.5,4,1.4c1.1,0.9,1.6,2.2,1.6,3.7c0,2.7-2,4.9-6.1,6.5
					c-3.2,1.3-6.5,2-9.8,2c-6.6,0-11.8-1.9-15.7-5.8c-3.9-3.8-5.8-9-5.8-15.4c0-6.3,2-11.5,5.8-15.6c3.9-4.1,9.1-6.1,15.6-6.1
					c5.7,0,10.4,1.8,13.9,5.4c3.5,3.6,5.3,8.2,5.3,13.8c0,1.9-0.4,3.3-1.1,4.2c-0.8,0.9-2.1,1.4-4,1.4H203.4z M220.3,173.6
					c-0.7-4.9-3.5-7.3-8.4-7.3c-2.2,0-4,0.7-5.6,2.1c-1.6,1.4-2.5,3.1-2.8,5.3H220.3z"/>
				<path class="st3" d="M245.8,182.1c0.1,0.2,0.1,0.4,0.1,0.9c0,0.4,0,0.8,0.1,1.1c0.3,1.9,1.3,3.6,3.1,4.9c1.8,1.3,3.7,2,5.8,2
					c2.1,0,4.4-1,6.8-3c1.2-1,2.4-1.5,3.5-1.5c1.6,0,2.9,0.5,4,1.4c1.1,0.9,1.6,2.2,1.6,3.7c0,2.7-2,4.9-6.1,6.5
					c-3.2,1.3-6.5,2-9.8,2c-6.6,0-11.8-1.9-15.7-5.8c-3.9-3.8-5.8-9-5.8-15.4c0-6.3,2-11.5,5.8-15.6c3.9-4.1,9.1-6.1,15.6-6.1
					c5.7,0,10.4,1.8,13.9,5.4c3.5,3.6,5.3,8.2,5.3,13.8c0,1.9-0.4,3.3-1.1,4.2c-0.8,0.9-2.1,1.4-4,1.4H245.8z M262.7,173.6
					c-0.7-4.9-3.5-7.3-8.4-7.3c-2.2,0-4,0.7-5.6,2.1c-1.6,1.4-2.5,3.1-2.8,5.3H262.7z"/>
				<path class="st3" d="M279.5,149.6c0-1.8,0.5-3.4,1.5-4.6c1-1.2,2.5-1.8,4.4-1.8c1.8,0,3.2,0.6,4.3,1.8c1,1.2,1.5,2.7,1.5,4.6
					V193c0,1.8-0.6,3.4-1.7,4.7c-1.1,1.3-2.6,1.9-4.4,1.9c-2,0-3.5-0.8-4.5-2.4c-0.8-1.3-1.1-3-1.1-5.1V149.6z"/>
				<path class="st3" d="M304.7,142.8c1.6,0,3,0.6,4.2,1.7c1.2,1.1,1.7,2.5,1.7,4.1c0,1.5-0.6,2.8-1.7,3.9c-1.1,1.1-2.5,1.6-4.1,1.6
					c-2,0-3.4-0.6-4.4-1.7c-1-1.2-1.5-2.7-1.5-4.7c0-1.2,0.6-2.3,1.9-3.4C302.1,143.3,303.4,142.8,304.7,142.8z M298.9,164
					c0-1.6,0.5-3,1.7-4.2c1.1-1.2,2.5-1.8,4.2-1.8c1.5,0,2.9,0.5,4.1,1.5c1.2,1,1.8,2.2,1.8,3.7v30.3c0,1.6-0.6,3-1.7,4.2
					c-1.2,1.2-2.5,1.9-4.1,1.9c-1.8,0-3.2-0.6-4.3-2c-1.1-1.3-1.6-2.9-1.6-4.7V164z"/>
				<path class="st3" d="M322.6,158c1.4,0,2.7,0.4,3.8,1.3c1.1,0.9,1.8,2,2.3,3.4c1.7-1.8,3.4-3.2,5.2-4c1.7-0.8,3.8-1.3,6.2-1.3
					c4.5,0,8,1.5,10.7,4.4c2.4,2.8,3.7,6.4,3.7,10.9v19.9c0,2-0.5,3.6-1.5,4.9c-1.1,1.5-2.7,2.2-4.6,2.2c-2.2,0-3.8-1-4.8-2.9
					c-0.8-1.5-1.1-3.4-1.1-5.8v-16.9c0-2.1-0.6-3.8-1.8-5c-1.2-1.3-2.9-1.9-5-1.9c-0.8,0-1.6,0.2-2.4,0.6c-0.8,0.4-1.5,0.9-2.1,1.5
					c-1,0.9-1.6,2.2-2,4c-0.3,1.8-0.5,3.6-0.5,5.5c0,1.2,0.1,2.9,0.2,5.2c0.1,2.3,0.2,4.1,0.2,5.3c0,2.9-0.3,5.2-0.8,6.7
					c-0.9,2.5-2.5,3.7-5,3.7c-2.2,0-3.8-0.8-4.9-2.4c-0.9-1.3-1.3-3.1-1.3-5.4v-27.5c0-1.7,0.5-3.2,1.5-4.4
					C319.5,158.7,320.9,158,322.6,158z"/>
				
					<linearGradient id="SVGID_00000117636542343736241880000005100766096976424626_" gradientUnits="userSpaceOnUse" x1="136.1405" y1="163.407" x2="138.9585" y2="206.996" gradientTransform="matrix(1 0 0 -1 0 364)">
					<stop  offset="0.1207" style="stop-color:#128858"/>
					<stop  offset="0.1701" style="stop-color:#19905D"/>
					<stop  offset="0.279" style="stop-color:#22A268"/>
					<stop  offset="0.38" style="stop-color:#28AD6F"/>
					<stop  offset="0.4648" style="stop-color:#29B372"/>
					<stop  offset="0.5883" style="stop-color:#24A56A"/>
					<stop  offset="0.8231" style="stop-color:#158A59"/>
					<stop  offset="0.848" style="stop-color:#128858"/>
				</linearGradient>
				<path style="fill:url(#SVGID_00000117636542343736241880000005100766096976424626_);" d="M141.3,158c-0.3,0.1-1.7,0.7-3.2,3.1
					c-1.3,2.1-2.2,4.5-3.1,6.9c-2.5,6.8-4.5,13.8-6.1,20.9c-0.4,1.8-0.8,3.6-1.1,5.4c-0.2,0.9-1.4,4.6-0.9,5.4
					c0.5,0.8,4.3,0.6,5.1,0.5c1.8-0.1,3.5-0.5,4.9-1.6c1.9-1.5,2.7-4,3.4-6.3c2.4-7.6,4.7-15.2,7.1-22.8c0.1-0.2,0.1-0.4,0.1-0.7
					c0-0.4-0.2-0.7-0.3-1.1c-1.5-3-2.5-7.2-4-10.2C142.6,157.3,142.9,157.5,141.3,158z"/>
				
					<linearGradient id="SVGID_00000167390119584738407630000009346015460430040454_" gradientUnits="userSpaceOnUse" x1="113.8193" y1="164.5994" x2="116.5572" y2="206.9537" gradientTransform="matrix(1 0 0 -1 0 364)">
					<stop  offset="0" style="stop-color:#29B372"/>
					<stop  offset="1" style="stop-color:#128858"/>
				</linearGradient>
				<path style="fill:url(#SVGID_00000167390119584738407630000009346015460430040454_);" d="M95.1,156.3c4.5,1.7,8.1,5.8,10.6,10.1
					c2.6,4.5,4.3,9.5,6,14.4c2.1,5.9,4.5,13.7,8.3,16.9c2,1.7,4.7,2.4,7.1,2.7c2.7,0.3,5.1,0.1,8.2-0.8c-2-1-3.6-2.4-4.9-4.4
					c-1.3-1.9-2.2-4.1-3-6.2c-3.7-9-7-18.2-11.5-26.9c-0.9-1.9-2.1-3.8-3.9-4.8c-1.3-0.7-2.8-0.8-4.2-0.8
					C103.5,156.6,99.3,156.4,95.1,156.3z"/>
				
					<linearGradient id="SVGID_00000162354670055920822170000008588257245699410098_" gradientUnits="userSpaceOnUse" x1="182.0509" y1="164.2536" x2="179.2866" y2="207.01" gradientTransform="matrix(1 0 0 -1 0 364)">
					<stop  offset="0" style="stop-color:#29B372"/>
					<stop  offset="1" style="stop-color:#128858"/>
				</linearGradient>
				<path style="fill:url(#SVGID_00000162354670055920822170000008588257245699410098_);" d="M200.3,156.3
					c-4.5,1.7-8.1,5.8-10.6,10.1c-2.6,4.5-4.3,9.5-6,14.4c-2.1,5.9-4.4,13.7-9.8,18.4c-2,1.7-3.6,1.4-6,1.7
					c-2.4,0.2-4.2-0.2-6.6-0.9c-0.4-0.1-0.5-0.7-0.1-0.9c1.6-0.9,2.8-2.2,3.9-3.8c1.3-1.9,2.2-4.1,3-6.2c3.7-9,7-18.2,11.5-26.9
					c0.9-1.9,2.1-3.8,3.9-4.8c1.3-0.7,2.8-0.8,4.2-0.8C191.9,156.6,196.1,156.4,200.3,156.3z"/>
				
					<linearGradient id="SVGID_00000134946657633989692450000015595907778187060124_" gradientUnits="userSpaceOnUse" x1="144.4261" y1="207.2722" x2="168.9182" y2="161.5128" gradientTransform="matrix(1 0 0 -1 0 364)">
					<stop  offset="0" style="stop-color:#29B372"/>
					<stop  offset="0.2114" style="stop-color:#21A067"/>
					<stop  offset="0.4679" style="stop-color:#1A925E"/>
					<stop  offset="0.7292" style="stop-color:#158A59"/>
					<stop  offset="1" style="stop-color:#128858"/>
				</linearGradient>
				<path style="fill:url(#SVGID_00000134946657633989692450000015595907778187060124_);" d="M140.8,158.4c0,0.1,0.1,0.1,0.2,0.2
					c2.6,3.2,4.5,6.8,6.1,10.5c0.9,2.2,1.7,4.4,2.5,6.7c2.1,6.2,3.7,12.6,6.6,18.5c0.8,1.6,1.7,3.2,3,4.4c1.7,1.4,4,2.1,6.2,2.2
					c2.2,0.1,4.1,0.2,6.7-0.6c-2.2-1.7-3.4-3.5-4.1-5.8c-2.1-6.2-4.2-12.5-6.3-18.7c-1.4-4.3-2.9-8.6-5.2-12.6
					c-1.3-2.2-2.8-4.3-5.1-5.5c-1.7-0.9-3.6-1.2-5.5-1.1c-1,0.1-1.9,0.3-2.8,0.5c-0.5,0.1-0.9,0.3-1.4,0.5c-0.2,0.1-0.4,0.2-0.6,0.3
					C140.8,158.2,140.8,158.3,140.8,158.4z"/>
			</g>
		</g>
	</g>
</g>
<path class="st3" d="M338.9,238.8c0.2,0.5,0.2,0.9,0,1.4c-0.2,0.4-0.5,0.7-1,0.9c-0.5,0.2-0.9,0.2-1.4,0c-0.4-0.2-0.8-0.6-0.9-1
	l-4.4-11.4c-0.2-0.5-0.2-0.9,0-1.4c0.2-0.5,0.5-0.8,1-1c0.5-0.2,0.9-0.2,1.4,0c0.4,0.2,0.7,0.5,0.9,1L338.9,238.8z M331.5,224.6
	c-0.6,0.2-1.1,0.3-1.4,0.2c-0.3-0.1-0.6-0.4-0.8-0.9l-0.2-0.5c-0.2-0.5-0.2-0.9,0-1.2c0.2-0.3,0.6-0.6,1.2-0.8
	c0.6-0.2,1.1-0.3,1.5-0.2c0.3,0.1,0.6,0.4,0.8,0.9l0.2,0.5c0.2,0.5,0.2,1,0,1.3C332.5,224,332.1,224.3,331.5,224.6z M345,221.1
	c1.4-0.5,2.5-0.6,3.4-0.3c0.9,0.3,1.7,0.9,2.3,1.7c0.6,0.8,1.2,1.8,1.6,3l2.7,7.1c0.2,0.5,0.2,0.9,0,1.4c-0.2,0.4-0.5,0.7-1,0.9
	c-0.5,0.2-0.9,0.2-1.4,0c-0.4-0.2-0.8-0.6-0.9-1l-2.7-7.1c-0.2-0.6-0.5-1.1-0.9-1.5c-0.3-0.4-0.8-0.7-1.3-0.9s-1.2-0.1-1.9,0.2
	c-0.7,0.3-1.3,0.7-1.7,1.2c-0.4,0.5-0.6,1-0.7,1.6c-0.1,0.6,0,1.2,0.2,1.8l2.7,7.1c0.2,0.5,0.2,0.9,0,1.4c-0.2,0.4-0.5,0.7-1,0.9
	c-0.5,0.2-0.9,0.2-1.4,0c-0.4-0.2-0.8-0.6-0.9-1l-4.4-11.4c-0.2-0.5-0.2-0.9,0-1.4c0.2-0.5,0.5-0.8,1-1c0.5-0.2,0.9-0.2,1.4,0
	c0.4,0.2,0.7,0.5,0.9,1l0.5,1.2l-0.4,0.1c0-0.4,0.2-0.8,0.3-1.3c0.2-0.5,0.4-1,0.7-1.4c0.3-0.5,0.7-0.9,1.1-1.3
	C343.8,221.6,344.4,221.3,345,221.1z M357.6,230.9c-0.3-0.2-0.5-0.5-0.6-0.9c-0.1-0.4,0-0.9,0.3-1.3c0.2-0.3,0.5-0.5,0.9-0.6
	c0.3-0.1,0.7-0.1,1.2,0.1c0.7,0.3,1.5,0.5,2.2,0.6c0.7,0.1,1.5-0.1,2.4-0.4c0.3-0.1,0.6-0.3,0.9-0.5c0.3-0.2,0.5-0.5,0.7-0.8
	c0.2-0.3,0.2-0.7,0-1.2c-0.2-0.4-0.4-0.7-0.8-0.8c-0.4-0.1-0.8-0.2-1.3-0.2c-0.5,0-1.1,0-1.7,0.1c-0.6,0.1-1.3,0.1-2,0.1
	c-0.7,0-1.3,0-1.9-0.1c-0.6-0.1-1.2-0.4-1.7-0.8c-0.5-0.4-0.9-1-1.2-1.8c-0.4-0.9-0.4-1.8-0.1-2.6c0.3-0.8,0.7-1.6,1.4-2.3
	c0.7-0.7,1.5-1.2,2.4-1.5c0.6-0.2,1.2-0.4,1.9-0.5c0.7-0.1,1.4-0.1,2,0c0.7,0.1,1.3,0.3,1.9,0.6c0.3,0.2,0.6,0.5,0.7,0.9
	c0.2,0.4,0.1,0.8-0.1,1.2c-0.2,0.3-0.5,0.6-0.8,0.7c-0.4,0.1-0.7,0.1-1.1,0c-0.5-0.3-1-0.4-1.6-0.5c-0.6,0-1.2,0.1-1.9,0.3
	c-0.3,0.1-0.6,0.3-0.9,0.5c-0.3,0.2-0.5,0.4-0.7,0.7c-0.2,0.3-0.2,0.7,0,1.1c0.2,0.4,0.4,0.7,0.8,0.9c0.4,0.1,0.8,0.2,1.3,0.2
	c0.5,0,1.1-0.1,1.7-0.1c0.6-0.1,1.2-0.1,1.9-0.1c0.6,0,1.3,0,1.9,0.2c0.6,0.1,1.2,0.4,1.7,0.8c0.5,0.4,0.9,1,1.2,1.8
	c0.4,0.9,0.4,1.8,0.1,2.7c-0.3,0.9-0.8,1.6-1.5,2.3c-0.7,0.6-1.5,1.1-2.3,1.5c-1.1,0.4-2.2,0.6-3.5,0.7
	C359.8,231.9,358.7,231.5,357.6,230.9z M375.1,224.8c0.2,0.5,0.2,0.9,0,1.4c-0.2,0.4-0.5,0.7-1,0.9c-0.5,0.2-0.9,0.2-1.4,0
	c-0.4-0.2-0.8-0.6-0.9-1l-4.4-11.4c-0.2-0.5-0.2-0.9,0-1.4c0.2-0.5,0.5-0.8,1-1c0.5-0.2,0.9-0.2,1.4,0c0.4,0.2,0.7,0.5,0.9,1
	L375.1,224.8z M367.7,210.6c-0.6,0.2-1.1,0.3-1.4,0.2c-0.3-0.1-0.6-0.4-0.8-0.9l-0.2-0.5c-0.2-0.5-0.2-0.9,0-1.2
	c0.2-0.3,0.6-0.6,1.2-0.8c0.6-0.2,1.1-0.3,1.5-0.2c0.3,0.1,0.6,0.4,0.8,0.9l0.2,0.5c0.2,0.5,0.2,1,0,1.3
	C368.7,210.1,368.3,210.4,367.7,210.6z M383.3,200.2c0.5-0.2,0.9-0.2,1.4,0c0.4,0.2,0.7,0.5,0.9,1l6.6,17c0.2,0.5,0.2,0.9,0,1.4
	c-0.2,0.4-0.5,0.7-1,0.9s-0.9,0.2-1.4,0c-0.4-0.2-0.8-0.6-0.9-1l-0.5-1.3l0.7,0c0.1,0.2,0.1,0.6,0,1c-0.1,0.4-0.4,0.9-0.7,1.4
	c-0.3,0.5-0.7,1-1.2,1.5c-0.5,0.4-1.1,0.8-1.8,1.1c-1.3,0.5-2.5,0.6-3.8,0.4c-1.3-0.3-2.4-0.9-3.5-1.8c-1-0.9-1.8-2.1-2.4-3.6
	c-0.6-1.5-0.8-2.9-0.6-4.3c0.2-1.4,0.6-2.6,1.4-3.6c0.8-1.1,1.7-1.8,3-2.3c0.8-0.3,1.6-0.5,2.3-0.5c0.8,0,1.4,0.1,2.1,0.3
	c0.6,0.2,1.2,0.4,1.6,0.7c0.4,0.3,0.7,0.5,0.8,0.8l-0.9,0.7l-2.8-7.4c-0.2-0.5-0.2-0.9,0-1.4C382.5,200.7,382.9,200.3,383.3,200.2z
	 M384.6,219.9c0.8-0.3,1.4-0.8,1.9-1.4c0.4-0.6,0.7-1.4,0.8-2.2c0.1-0.8,0-1.7-0.4-2.5c-0.3-0.9-0.8-1.6-1.4-2.2
	c-0.6-0.6-1.3-0.9-2-1.1c-0.8-0.2-1.5-0.1-2.4,0.2c-0.8,0.3-1.4,0.8-1.9,1.4c-0.5,0.6-0.7,1.4-0.8,2.2c-0.1,0.8,0.1,1.7,0.4,2.6
	c0.3,0.9,0.8,1.6,1.4,2.2c0.6,0.6,1.3,0.9,2.1,1.1C383,220.3,383.8,220.2,384.6,219.9z M403.5,216.1c-1.6,0.6-3,0.8-4.4,0.6
	c-1.4-0.2-2.6-0.8-3.7-1.7c-1-0.9-1.8-2-2.4-3.5c-0.6-1.7-0.8-3.2-0.6-4.6c0.2-1.4,0.8-2.7,1.6-3.7c0.8-1,1.9-1.8,3.1-2.3
	c0.9-0.4,1.9-0.5,2.9-0.4c1,0.1,1.9,0.3,2.8,0.7c0.9,0.4,1.7,1,2.4,1.7c0.7,0.7,1.3,1.6,1.7,2.6c0.2,0.4,0.1,0.9-0.1,1.3
	c-0.2,0.4-0.6,0.7-1,0.9l-10.5,4.1l-1.9-2.4l10.1-3.9l-0.4,0.8l-0.3-0.7c-0.2-0.5-0.6-0.9-1.1-1.2c-0.5-0.3-1-0.5-1.6-0.5
	c-0.6-0.1-1.2,0-1.7,0.2c-0.6,0.2-1,0.5-1.5,0.8c-0.4,0.3-0.7,0.7-1,1.2c-0.2,0.5-0.3,1.1-0.3,1.7c0,0.7,0.2,1.4,0.6,2.3
	c0.4,1,0.9,1.8,1.6,2.3c0.7,0.5,1.4,0.8,2.2,1c0.8,0.1,1.6,0,2.3-0.3c0.7-0.3,1.2-0.5,1.6-0.8c0.4-0.3,0.6-0.5,0.8-0.8
	c0.2-0.3,0.4-0.5,0.5-0.7c0.3-0.3,0.5-0.5,0.8-0.6c0.4-0.2,0.8-0.1,1.2,0c0.4,0.2,0.6,0.4,0.8,0.8c0.2,0.5,0.1,1-0.3,1.6
	c-0.3,0.6-0.9,1.2-1.6,1.8C405.2,215.3,404.4,215.8,403.5,216.1z M412.2,205.5c-0.6,0.2-1.1,0-1.4-0.7l-4.7-9.8
	c-0.3-0.6-0.3-1.1-0.1-1.6c0.2-0.5,0.6-0.9,1.1-1.1c0.6-0.2,1.1-0.2,1.6,0.1c0.5,0.3,0.8,0.7,1,1.3l3.1,10.4
	C413,204.7,412.8,205.2,412.2,205.5z M414.4,211.6c-0.5,0.2-1,0.2-1.4,0.1c-0.4-0.2-0.7-0.5-0.9-1.1l-0.2-0.5
	c-0.2-0.5-0.2-1-0.1-1.4c0.2-0.4,0.5-0.7,1.1-0.9l0.4-0.1c0.5-0.2,1-0.2,1.4,0c0.4,0.2,0.7,0.5,0.9,1l0.2,0.5c0.2,0.5,0.2,1,0,1.4
	c-0.2,0.4-0.5,0.7-1.1,0.9L414.4,211.6z"/>
</svg>
