<?xml version="1.0" encoding="UTF-8"?>
<svg id="_Слой_1" data-name="Слой 1" xmlns="http://www.w3.org/2000/svg" xmlns:xlink="http://www.w3.org/1999/xlink" viewBox="0 0 345.1 172.15">
  <defs>
    <style>
      .cls-1, .cls-2, .cls-3 {
        fill: none;
      }

      .cls-2 {
        clip-path: url(#clippath-1);
      }

      .cls-4 {
        fill: #138758;
      }

      .cls-5 {
        fill: url(#_Безымянный_градиент_3-2);
      }

      .cls-6 {
        fill: #b6fdba;
        fill-rule: evenodd;
      }

      .cls-7 {
        fill: url(#_Безымянный_градиент_2);
      }

      .cls-8 {
        fill: url(#_Безымянный_градиент_3);
      }

      .cls-9 {
        fill: url(#_Безымянный_градиент_4);
      }

      .cls-3 {
        clip-path: url(#clippath);
      }
    </style>
    <clipPath id="clippath">
      <rect class="cls-1" x="25.39" y="47.9" width="295" height="55"/>
    </clipPath>
    <clipPath id="clippath-1">
      <rect class="cls-1" x="27.12" y="49.26" width="292.56" height="73.22"/>
    </clipPath>
    <linearGradient id="_Безымянный_градиент_2" data-name="Безымянный градиент 2" x1="94.38" y1="69.07" x2="97" y2="109.81" gradientTransform="translate(0 172.38) scale(1 -1)" gradientUnits="userSpaceOnUse">
      <stop offset=".12" stop-color="#128858"/>
      <stop offset=".17" stop-color="#19905d"/>
      <stop offset=".28" stop-color="#22a268"/>
      <stop offset=".38" stop-color="#28ad6f"/>
      <stop offset=".46" stop-color="#29b372"/>
      <stop offset=".59" stop-color="#24a56a"/>
      <stop offset=".82" stop-color="#158a59"/>
      <stop offset=".85" stop-color="#128858"/>
    </linearGradient>
    <linearGradient id="_Безымянный_градиент_3" data-name="Безымянный градиент 3" x1="73.41" y1="70.19" x2="75.96" y2="109.77" gradientTransform="translate(0 172.38) scale(1 -1)" gradientUnits="userSpaceOnUse">
      <stop offset="0" stop-color="#29b372"/>
      <stop offset="1" stop-color="#128858"/>
    </linearGradient>
    <linearGradient id="_Безымянный_градиент_3-2" data-name="Безымянный градиент 3" x1="137.49" y1="69.86" x2="134.92" y2="109.82" xlink:href="#_Безымянный_градиент_3"/>
    <linearGradient id="_Безымянный_градиент_4" data-name="Безымянный градиент 4" x1="102.25" y1="110.11" x2="125.07" y2="67.25" gradientTransform="translate(0 172.38) scale(1 -1)" gradientUnits="userSpaceOnUse">
      <stop offset="0" stop-color="#29b372"/>
      <stop offset=".21" stop-color="#21a067"/>
      <stop offset=".47" stop-color="#1a925e"/>
      <stop offset=".73" stop-color="#158a59"/>
      <stop offset="1" stop-color="#128858"/>
    </linearGradient>
  </defs>
  <path class="cls-6" d="m108.6,159.31c19.75-5.29,26.25-45.09,14.52-88.89C111.38,26.61,85.85-4.61,66.1.69c-8.7,2.33-14.83,11.35-17.96,24.45-9.27-9.78-19.08-14.53-27.78-12.2C.61,18.24-5.89,58.04,5.84,101.84c11.74,43.8,37.27,75.02,57.02,69.73,8.7-2.33,14.83-11.35,17.96-24.46,9.27,9.78,19.08,14.53,27.78,12.2Z"/>
  <path class="cls-6" d="m188.89,147.06c-3.13,13.1-9.26,22.12-17.96,24.46-19.75,5.29-45.28-25.93-57.02-69.73-11.74-43.8-5.24-83.6,14.52-88.89,8.7-2.33,18.51,2.42,27.78,12.2,3.13-13.1,9.26-22.12,17.96-24.45,19.75-5.29,45.28,25.92,57.02,69.73,11.74,43.8,5.24,83.6-14.52,88.9-8.7,2.33-18.51-2.42-27.78-12.2Z"/>
  <path class="cls-6" d="m296.96,147.01c-3.13,13.11-9.26,22.12-17.96,24.46-19.75,5.29-45.28-25.92-57.02-69.73-11.74-43.8-5.24-83.6,14.52-88.89,8.7-2.33,18.51,2.42,27.78,12.2,3.13-13.11,9.26-22.12,17.96-24.45,19.75-5.29,45.28,25.92,57.02,69.73,11.74,43.8,5.24,83.6-14.52,88.9-8.7,2.33-18.51-2.42-27.78-12.2Z"/>
  <g class="cls-3">
    <g class="cls-2">
      <g>
        <path class="cls-4" d="m306.36,73.08c-1.17-.49-2.19-1.14-3.05-1.98-.87-.84-1.56-1.82-2.05-2.94-.5-1.12-.75-2.32-.75-3.61s.25-2.5.75-3.62c.5-1.13,1.18-2.11,2.05-2.95.87-.84,1.89-1.51,3.05-1.98,1.17-.49,2.41-.73,3.74-.73s2.55.24,3.72.73c1.17.49,2.19,1.14,3.05,1.98.87.84,1.56,1.82,2.05,2.95.5,1.13.75,2.33.75,3.62s-.25,2.49-.75,3.61c-.5,1.12-1.18,2.09-2.05,2.94-.87.84-1.89,1.51-3.05,1.98-1.17.49-2.4.73-3.72.73-1.33-.01-2.58-.24-3.74-.73Zm-3.47-5.61c.4.91.97,1.71,1.68,2.4.72.69,1.55,1.23,2.5,1.63.96.39,1.96.58,3.04.58s2.07-.19,3.01-.58c.94-.39,1.77-.93,2.49-1.63.72-.69,1.27-1.49,1.68-2.4.4-.91.6-1.88.6-2.91s-.2-2.02-.6-2.94-.97-1.72-1.68-2.42c-.72-.69-1.55-1.23-2.49-1.63-.94-.39-1.95-.58-3.01-.58s-2.09.19-3.04.58c-.95.39-1.78.93-2.5,1.63-.72.69-1.27,1.49-1.68,2.42-.4.92-.6,1.89-.6,2.94s.2,2,.6,2.91Zm6.26-.89v1.76c0,.33-.12.61-.38.85-.25.24-.54.36-.88.36s-.65-.12-.89-.36c-.24-.24-.35-.52-.35-.85v-7.93c0-.33.13-.61.38-.85.25-.24.54-.36.88-.36h2.75c.53,0,1.02.1,1.48.29.46.19.88.46,1.23.79.35.33.64.73.84,1.18.2.45.3.92.3,1.43s-.1.97-.29,1.32c-.19.35-.42.66-.68.87-.26.23-.53.41-.78.53-.26.12-.48.22-.64.29l2,1.55c.29.26.43.55.43.9,0,.28-.1.55-.29.79-.19.25-.5.38-.93.38-.29,0-.55-.1-.79-.28l-3.25-2.7h-.14v.02Zm0-5.14v2.94h1.47c.4,0,.77-.15,1.07-.44.31-.29.46-.64.46-1.06,0-.39-.15-.73-.46-1.02-.31-.29-.67-.44-1.07-.44h-1.47Z"/>
        <path class="cls-4" d="m28.34,74.87c0-4.07,1.85-7.19,5.57-9.35,3.09-1.81,6.91-2.72,11.42-2.72,3.15,0,6.17.62,9.07,1.85,3.71,1.57,5.57,3.68,5.57,6.33,0,1.23-.45,2.33-1.37,3.31-.92.98-2.04,1.47-3.35,1.47-1.57,0-3.1-.84-4.57-2.5-1.47-1.66-3.51-2.5-6.09-2.5-1.83,0-3.19.29-4.07.89-.89.59-1.33,1.35-1.33,2.28,0,1.61,1.91,2.95,5.72,3.97,5.89,1.57,9.47,2.7,10.74,3.39,3.86,2.06,5.79,5.18,5.79,9.35s-1.75,7.28-5.25,9.49c-3,1.87-6.76,2.79-11.27,2.79-3.71,0-7.34-.72-10.89-2.14-4.57-1.81-6.86-4.25-6.86-7.28,0-1.27.44-2.42,1.33-3.42.89-1.01,2-1.51,3.32-1.51,2.04,0,3.84,1.04,5.45,3.13,1.6,2.09,4.15,3.13,7.65,3.13,1.42,0,2.56-.22,3.43-.67,1.22-.59,1.83-1.52,1.83-2.79,0-1.61-1.88-2.95-5.64-3.97-5.64-1.52-9.15-2.65-10.52-3.39-3.79-2.03-5.67-5.06-5.67-9.14Z"/>
        <path class="cls-4" d="m157.55,86.07c.05.15.08.41.08.81s.02.74.07,1.03c.25,1.82,1.23,3.35,2.93,4.6,1.7,1.25,3.52,1.88,5.45,1.88s4.11-.93,6.4-2.79c1.12-.93,2.21-1.4,3.28-1.4,1.47,0,2.71.44,3.73,1.32,1.02.89,1.52,2.04,1.52,3.46,0,2.55-1.91,4.59-5.72,6.11-3.05,1.23-6.12,1.85-9.22,1.85-6.19,0-11.12-1.78-14.77-5.38-3.66-3.58-5.49-8.37-5.49-14.35s1.83-10.74,5.49-14.58c3.66-3.82,8.53-5.74,14.62-5.74,5.38,0,9.74,1.68,13.07,5.04,3.33,3.36,4.99,7.67,4.99,12.92,0,1.77-.35,3.08-1.07,3.93-.72.86-1.96,1.29-3.73,1.29h-21.62Zm15.85-8.03c-.66-4.56-3.3-6.85-7.93-6.85-2.04,0-3.78.64-5.25,1.92-1.47,1.27-2.36,2.93-2.66,4.93h15.84Z"/>
        <path class="cls-4" d="m197.39,86.07c.05.15.07.41.07.81s.02.74.07,1.03c.25,1.82,1.23,3.35,2.93,4.6s3.52,1.88,5.45,1.88,4.11-.93,6.39-2.79c1.12-.93,2.21-1.4,3.28-1.4,1.47,0,2.71.44,3.73,1.32,1.02.89,1.52,2.04,1.52,3.46,0,2.55-1.91,4.59-5.72,6.11-3.05,1.23-6.12,1.85-9.22,1.85-6.19,0-11.12-1.78-14.77-5.38-3.66-3.58-5.49-8.37-5.49-14.35s1.83-10.74,5.49-14.58c3.66-3.82,8.53-5.74,14.62-5.74,5.38,0,9.74,1.68,13.07,5.04,3.33,3.36,4.99,7.67,4.99,12.92,0,1.77-.35,3.08-1.07,3.93-.72.86-1.96,1.29-3.73,1.29h-21.62Zm15.85-8.03c-.67-4.56-3.31-6.85-7.93-6.85-2.03,0-3.78.64-5.25,1.92-1.47,1.27-2.36,2.93-2.66,4.93h15.84Z"/>
        <path class="cls-4" d="m229.01,55.67c0-1.71.48-3.14,1.44-4.27.97-1.13,2.34-1.69,4.11-1.69s3.05.57,4,1.69c.94,1.13,1.41,2.55,1.41,4.27v40.56c0,1.72-.53,3.18-1.56,4.38-1.04,1.2-2.43,1.81-4.15,1.81-1.88,0-3.28-.76-4.18-2.28-.72-1.18-1.07-2.77-1.07-4.78v-39.69Z"/>
        <path class="cls-4" d="m252.69,49.26c1.52,0,2.83.53,3.92,1.58,1.09,1.06,1.63,2.32,1.63,3.79,0,1.37-.53,2.57-1.6,3.61-1.07,1.03-2.34,1.54-3.81,1.54-1.83,0-3.22-.53-4.15-1.61-.94-1.08-1.41-2.53-1.41-4.35,0-1.13.59-2.17,1.8-3.13,1.18-.95,2.39-1.42,3.61-1.42Zm-5.4,19.87c0-1.52.51-2.83,1.56-3.93,1.04-1.1,2.35-1.65,3.92-1.65,1.42,0,2.69.46,3.81,1.4,1.12.93,1.67,2.09,1.67,3.46v28.34c0,1.47-.55,2.78-1.63,3.93-1.09,1.15-2.38,1.74-3.85,1.74-1.67,0-3.01-.61-4-1.85-.99-1.23-1.48-2.67-1.48-4.35v-27.09Z"/>
        <path class="cls-4" d="m269.5,63.53c1.36,0,2.55.4,3.55,1.21s1.71,1.88,2.12,3.21c1.63-1.71,3.24-2.97,4.85-3.75,1.61-.79,3.55-1.18,5.84-1.18,4.23,0,7.56,1.37,10.01,4.13,2.29,2.6,3.44,5.99,3.44,10.16v18.62c0,1.87-.45,3.39-1.37,4.56-1.07,1.37-2.51,2.06-4.35,2.06-2.04,0-3.53-.91-4.5-2.72-.72-1.37-1.07-3.17-1.07-5.38v-15.77c0-1.97-.57-3.53-1.67-4.71-1.12-1.18-2.69-1.77-4.72-1.77-.77,0-1.5.18-2.21.55-.72.36-1.37.85-1.99,1.43-.92.84-1.52,2.08-1.83,3.72-.3,1.64-.45,3.35-.45,5.11,0,1.08.06,2.7.19,4.86.13,2.16.19,3.8.19,4.93,0,2.74-.25,4.83-.77,6.25-.82,2.31-2.39,3.46-4.72,3.46-2.04,0-3.56-.76-4.57-2.28-.82-1.23-1.22-2.91-1.22-5.07v-25.74c0-1.57.48-2.95,1.43-4.13.98-1.17,2.24-1.76,3.81-1.76Z"/>
        <path class="cls-7" d="m99.22,63.49c-.25.07-1.61.63-2.98,2.93-1.21,2-2.09,4.21-2.9,6.43-2.34,6.34-4.26,12.86-5.73,19.52-.38,1.69-.72,3.38-1.04,5.07-.16.87-1.31,4.31-.82,5.07.48.76,4.03.53,4.82.5,1.67-.07,3.33-.47,4.62-1.52,1.75-1.41,2.5-3.73,3.18-5.92,2.21-7.11,4.42-14.23,6.63-21.34.06-.19.13-.39.13-.61,0-.34-.16-.67-.31-.98-1.41-2.8-2.35-6.71-3.76-9.51-.63-.32-.31-.11-1.85.35Z"/>
        <path class="cls-8" d="m55.84,61.91c4.27,1.58,7.58,5.41,9.91,9.48,2.45,4.25,4.06,8.89,5.68,13.48,1.93,5.49,4.23,12.83,7.83,15.78,1.92,1.58,4.41,2.28,6.63,2.51,2.56.27,4.84.13,7.68-.73-1.9-.93-3.4-2.27-4.59-4.08-1.18-1.81-2.04-3.79-2.85-5.77-3.49-8.41-6.62-16.97-10.8-25.09-.89-1.74-1.95-3.57-3.66-4.46-1.23-.64-2.63-.7-3.97-.75-3.96-.12-7.92-.26-11.86-.38Z"/>
        <path class="cls-5" d="m154.67,61.91c-4.27,1.58-7.58,5.41-9.91,9.48-2.45,4.25-4.06,8.89-5.68,13.48-1.93,5.49-4.15,12.83-9.21,17.17-1.89,1.63-3.42,1.32-5.65,1.55-2.21.23-3.93-.16-6.18-.81-.4-.12-.49-.64-.14-.86,1.46-.89,2.65-2.06,3.63-3.55,1.19-1.8,2.04-3.79,2.85-5.77,3.49-8.41,6.62-16.97,10.8-25.09.89-1.74,1.95-3.57,3.66-4.46,1.23-.64,2.63-.7,3.97-.75,3.96-.13,7.9-.27,11.86-.39Z"/>
        <path class="cls-9" d="m98.74,63.84s.08.12.15.22c2.4,3,4.22,6.34,5.7,9.83.87,2.05,1.62,4.15,2.32,6.26,1.93,5.8,3.51,11.75,6.18,17.29.73,1.51,1.56,3.01,2.85,4.12,1.58,1.35,3.72,1.97,5.83,2.09,2.11.12,3.81.22,6.29-.53-2.06-1.57-3.15-3.23-3.88-5.39-1.96-5.83-3.93-11.67-5.89-17.49-1.34-4.01-2.71-8.05-4.85-11.73-1.18-2.03-2.65-3.98-4.75-5.12-1.57-.86-3.42-1.17-5.2-1.03-.9.06-1.81.24-2.68.51-.44.13-.87.29-1.28.47-.2.09-.4.17-.59.28-.18.1-.24.16-.21.23Z"/>
      </g>
    </g>
  </g>
</svg>