<svg width="457" height="362" viewBox="0 0 457 362" fill="none" xmlns="http://www.w3.org/2000/svg">
<path fill-rule="evenodd" clip-rule="evenodd" d="M150.534 269.785C174.513 263.36 182.402 215.047 168.155 161.876C153.908 108.704 122.919 70.8092 98.94 77.2344C88.3823 80.0633 80.9437 91.012 77.1402 106.92C65.8921 95.0451 53.9758 89.2827 43.4183 92.1116C19.439 98.5368 11.5497 146.849 25.7969 200.021C40.0441 253.192 71.0327 291.087 95.012 284.662C105.57 281.833 113.008 270.884 116.812 254.976C128.06 266.851 139.976 272.614 150.534 269.785Z" fill="#B6FDBA"/>
<path fill-rule="evenodd" clip-rule="evenodd" d="M281.718 269.723C305.697 263.297 313.587 214.985 299.339 161.814C285.092 108.642 254.104 70.747 230.124 77.1722C219.567 80.0011 212.128 90.9498 208.325 106.858C197.077 94.9829 185.16 89.2205 174.603 92.0494C150.623 98.4746 142.734 146.787 156.981 199.958C171.228 253.13 202.217 291.025 226.196 284.6C236.754 281.771 244.193 270.822 247.996 254.914C259.244 266.789 271.16 272.551 281.718 269.723Z" fill="#B6FDBA"/>
<path fill-rule="evenodd" clip-rule="evenodd" d="M412.902 269.66C436.882 263.235 444.771 214.922 430.524 161.751C416.277 108.58 385.288 70.6843 361.309 77.1095C350.751 79.9384 343.313 90.8871 339.509 106.795C328.261 94.9202 316.345 89.1578 305.787 91.9867C281.808 98.4119 273.918 146.724 288.166 199.896C302.413 253.067 333.402 290.962 357.381 284.537C367.938 281.708 375.377 270.759 379.181 254.851C390.429 266.726 402.345 272.489 412.902 269.66Z" fill="#B6FDBA"/>
<g clip-path="url(#clip0_2486_48673)">
<g clip-path="url(#clip1_2486_48673)">
<g clip-path="url(#clip2_2486_48673)">
<path d="M361.788 166.679C360.544 166.145 359.461 165.424 358.538 164.502C357.616 163.58 356.88 162.498 356.359 161.268C355.824 160.039 355.556 158.717 355.556 157.3C355.556 155.884 355.824 154.548 356.359 153.319C356.894 152.076 357.616 150.994 358.538 150.072C359.461 149.15 360.544 148.416 361.788 147.894C363.032 147.36 364.355 147.093 365.773 147.093C367.164 147.093 368.488 147.36 369.731 147.894C370.975 148.429 372.058 149.15 372.981 150.072C373.903 150.994 374.639 152.076 375.16 153.319C375.695 154.561 375.963 155.884 375.963 157.3C375.963 158.717 375.695 160.039 375.16 161.268C374.626 162.498 373.903 163.566 372.981 164.502C372.058 165.424 370.975 166.158 369.731 166.679C368.488 167.214 367.177 167.481 365.773 167.481C364.355 167.468 363.032 167.214 361.788 166.679ZM358.097 160.507C358.525 161.509 359.127 162.391 359.889 163.152C360.651 163.914 361.534 164.502 362.55 164.943C363.566 165.37 364.636 165.584 365.786 165.584C366.923 165.584 367.993 165.37 368.996 164.943C369.999 164.515 370.881 163.914 371.643 163.152C372.406 162.391 372.994 161.509 373.435 160.507C373.863 159.505 374.077 158.436 374.077 157.3C374.077 156.165 373.863 155.082 373.435 154.067C373.007 153.052 372.406 152.17 371.643 151.408C370.881 150.647 369.999 150.059 368.996 149.618C367.993 149.19 366.923 148.977 365.786 148.977C364.65 148.977 363.566 149.19 362.55 149.618C361.534 150.045 360.651 150.647 359.889 151.408C359.127 152.17 358.538 153.052 358.097 154.067C357.669 155.082 357.455 156.151 357.455 157.3C357.455 158.449 357.669 159.505 358.097 160.507ZM364.757 159.532V161.469C364.757 161.83 364.623 162.137 364.355 162.404C364.088 162.671 363.78 162.805 363.419 162.805C363.045 162.805 362.724 162.671 362.47 162.404C362.216 162.137 362.095 161.83 362.095 161.469V152.744C362.095 152.384 362.229 152.076 362.497 151.809C362.764 151.542 363.072 151.408 363.433 151.408H366.361C366.923 151.408 367.444 151.515 367.939 151.729C368.434 151.943 368.875 152.237 369.25 152.597C369.624 152.958 369.932 153.399 370.146 153.893C370.36 154.388 370.467 154.909 370.467 155.47C370.467 156.058 370.36 156.539 370.159 156.926C369.959 157.314 369.718 157.648 369.437 157.888C369.156 158.142 368.875 158.342 368.608 158.476C368.327 158.61 368.1 158.717 367.926 158.797L370.052 160.507C370.36 160.787 370.507 161.108 370.507 161.496C370.507 161.803 370.4 162.097 370.199 162.364C369.999 162.645 369.664 162.778 369.21 162.778C368.902 162.778 368.621 162.671 368.367 162.471L364.904 159.505H364.757V159.532ZM364.757 153.88V157.113H366.321C366.749 157.113 367.137 156.953 367.458 156.632C367.792 156.312 367.953 155.924 367.953 155.47C367.953 155.042 367.792 154.668 367.458 154.348C367.124 154.027 366.749 153.867 366.321 153.867H364.757V153.88Z" fill="#138758"/>
<path d="M65.8529 168.657C65.8529 164.181 67.8187 160.747 71.777 158.369C75.0666 156.378 79.1319 155.376 83.9326 155.376C87.2891 155.376 90.4986 156.058 93.5876 157.407C97.5325 159.131 99.5117 161.455 99.5117 164.368C99.5117 165.717 99.0303 166.933 98.0541 168.015C97.0779 169.098 95.8877 169.632 94.4836 169.632C92.812 169.632 91.1806 168.71 89.616 166.88C88.0514 165.049 85.885 164.128 83.1303 164.128C81.1779 164.128 79.7336 164.448 78.7976 165.103C77.8481 165.758 77.3801 166.586 77.3801 167.615C77.3801 169.392 79.4127 170.861 83.4646 171.984C89.7363 173.707 93.5475 174.95 94.8981 175.711C99.0035 177.982 101.063 181.416 101.063 185.999C101.063 190.541 99.2041 194.015 95.4732 196.447C92.2771 198.504 88.2787 199.52 83.478 199.52C79.5331 199.52 75.6684 198.731 71.8839 197.168C67.0163 195.178 64.5825 192.492 64.5825 189.152C64.5825 187.749 65.0506 186.493 66 185.384C66.9495 184.275 68.1263 183.727 69.5304 183.727C71.6967 183.727 73.6224 184.877 75.3341 187.175C77.0324 189.473 79.747 190.622 83.478 190.622C84.9891 190.622 86.206 190.381 87.1287 189.887C88.4258 189.232 89.0811 188.217 89.0811 186.814C89.0811 185.037 87.0752 183.567 83.0768 182.445C77.0725 180.775 73.3416 179.532 71.8839 178.717C67.8454 176.486 65.8529 173.146 65.8529 168.657Z" fill="#138758"/>
<path d="M203.39 180.975C203.443 181.136 203.47 181.429 203.47 181.87C203.47 182.298 203.497 182.685 203.55 183.006C203.818 185.01 204.861 186.694 206.666 188.07C208.471 189.446 210.41 190.141 212.47 190.141C214.583 190.141 216.843 189.112 219.276 187.068C220.467 186.039 221.63 185.531 222.767 185.531C224.331 185.531 225.655 186.012 226.738 186.987C227.822 187.963 228.356 189.232 228.356 190.795C228.356 193.601 226.324 195.846 222.272 197.516C219.022 198.865 215.759 199.546 212.456 199.546C205.864 199.546 200.622 197.582 196.73 193.628C192.839 189.686 190.886 184.422 190.886 177.835C190.886 171.356 192.839 166.011 196.73 161.789C200.622 157.581 205.81 155.47 212.296 155.47C218.019 155.47 222.66 157.314 226.203 161.015C229.747 164.715 231.512 169.458 231.512 175.23C231.512 177.181 231.138 178.624 230.376 179.559C229.613 180.508 228.29 180.975 226.404 180.975H203.39ZM220.266 172.144C219.557 167.12 216.749 164.609 211.828 164.609C209.662 164.609 207.803 165.317 206.238 166.719C204.674 168.122 203.724 169.939 203.403 172.144H220.266Z" fill="#138758"/>
<path d="M245.794 180.975C245.848 181.136 245.874 181.429 245.874 181.87C245.874 182.298 245.901 182.685 245.955 183.006C246.222 185.01 247.265 186.694 249.071 188.07C250.876 189.446 252.815 190.141 254.874 190.141C256.987 190.141 259.247 189.112 261.681 187.068C262.871 186.039 264.034 185.531 265.171 185.531C266.736 185.531 268.06 186.012 269.143 186.987C270.226 187.963 270.761 189.232 270.761 190.795C270.761 193.601 268.728 195.846 264.676 197.516C261.427 198.865 258.164 199.546 254.861 199.546C248.268 199.546 243.026 197.582 239.135 193.628C235.243 189.686 233.291 184.422 233.291 177.835C233.291 171.356 235.243 166.011 239.135 161.789C243.026 157.581 248.215 155.47 254.7 155.47C260.424 155.47 265.064 157.314 268.608 161.015C272.152 164.715 273.917 169.458 273.917 175.23C273.917 177.181 273.542 178.624 272.78 179.559C272.018 180.508 270.694 180.975 268.808 180.975H245.794ZM262.67 172.144C261.962 167.12 259.153 164.609 254.232 164.609C252.066 164.609 250.207 165.317 248.643 166.719C247.078 168.122 246.129 169.939 245.808 172.144H262.67Z" fill="#138758"/>
<path d="M279.453 147.52C279.453 145.637 279.961 144.06 280.991 142.817C282.021 141.575 283.478 140.96 285.364 140.96C287.196 140.96 288.613 141.588 289.616 142.817C290.619 144.06 291.114 145.623 291.114 147.52V192.158C291.114 194.055 290.552 195.659 289.456 196.981C288.346 198.304 286.875 198.972 285.043 198.972C283.037 198.972 281.553 198.13 280.59 196.46C279.827 195.164 279.453 193.414 279.453 191.196V147.52Z" fill="#138758"/>
<path d="M304.66 140.466C306.278 140.466 307.669 141.054 308.832 142.203C309.996 143.365 310.571 144.755 310.571 146.371C310.571 147.881 310.009 149.204 308.873 150.339C307.736 151.475 306.385 152.036 304.821 152.036C302.868 152.036 301.397 151.448 300.408 150.259C299.405 149.07 298.91 147.48 298.91 145.476C298.91 144.234 299.539 143.085 300.822 142.029C302.079 140.987 303.363 140.466 304.66 140.466ZM298.91 162.337C298.91 160.667 299.458 159.224 300.568 158.008C301.678 156.793 303.069 156.191 304.74 156.191C306.252 156.191 307.602 156.699 308.792 157.728C309.983 158.757 310.571 160.026 310.571 161.536V192.719C310.571 194.336 309.983 195.779 308.832 197.048C307.669 198.317 306.305 198.959 304.74 198.959C302.962 198.959 301.531 198.291 300.488 196.928C299.432 195.578 298.91 193.988 298.91 192.145V162.337Z" fill="#138758"/>
<path d="M322.553 156.178C323.997 156.178 325.267 156.619 326.337 157.514C327.407 158.409 328.156 159.585 328.597 161.041C330.336 159.157 332.047 157.768 333.759 156.913C335.471 156.044 337.543 155.617 339.977 155.617C344.484 155.617 348.028 157.127 350.635 160.159C353.069 163.019 354.299 166.746 354.299 171.342V191.837C354.299 193.895 353.818 195.565 352.842 196.861C351.705 198.371 350.167 199.132 348.215 199.132C346.048 199.132 344.457 198.13 343.427 196.139C342.665 194.63 342.291 192.652 342.291 190.221V172.865C342.291 170.701 341.689 168.977 340.512 167.681C339.322 166.385 337.65 165.731 335.484 165.731C334.668 165.731 333.893 165.931 333.131 166.332C332.368 166.733 331.673 167.267 331.018 167.909C330.041 168.83 329.4 170.193 329.065 171.997C328.744 173.801 328.584 175.684 328.584 177.622C328.584 178.811 328.651 180.588 328.784 182.966C328.918 185.344 328.985 187.148 328.985 188.39C328.985 191.41 328.718 193.708 328.169 195.271C327.3 197.81 325.628 199.079 323.141 199.079C320.975 199.079 319.357 198.237 318.274 196.567C317.404 195.218 316.976 193.36 316.976 190.982V162.658C316.976 160.934 317.485 159.411 318.501 158.115C319.544 156.833 320.881 156.178 322.553 156.178Z" fill="#138758"/>
<path d="M141.301 156.125C141.033 156.205 139.589 156.819 138.132 159.344C136.848 161.549 135.912 163.981 135.043 166.426C132.555 173.4 130.509 180.574 128.945 187.909C128.544 189.766 128.182 191.624 127.835 193.494C127.661 194.456 126.444 198.237 126.966 199.079C127.474 199.921 131.258 199.667 132.101 199.627C133.879 199.546 135.644 199.106 137.022 197.957C138.881 196.407 139.683 193.855 140.405 191.437C142.759 183.607 145.112 175.778 147.466 167.949C147.533 167.735 147.599 167.521 147.599 167.281C147.599 166.907 147.426 166.546 147.265 166.198C145.767 163.112 144.764 158.81 143.267 155.737C142.598 155.39 142.932 155.617 141.301 156.125Z" fill="url(#paint0_linear_2486_48673)"/>
<path d="M95.1255 154.388C99.6721 156.125 103.189 160.346 105.676 164.822C108.284 169.498 109.996 174.602 111.721 179.653C113.78 185.692 116.227 193.775 120.052 197.021C122.098 198.758 124.746 199.533 127.113 199.787C129.841 200.081 132.261 199.934 135.283 198.985C133.264 197.957 131.659 196.487 130.402 194.496C129.145 192.505 128.236 190.328 127.367 188.15C123.649 178.891 120.319 169.472 115.866 160.534C114.917 158.623 113.794 156.606 111.975 155.63C110.664 154.922 109.18 154.855 107.749 154.802C103.537 154.668 99.3244 154.521 95.1255 154.388Z" fill="url(#paint1_linear_2486_48673)"/>
<path d="M200.327 154.388C195.781 156.125 192.264 160.346 189.777 164.822C187.169 169.498 185.457 174.602 183.732 179.653C181.673 185.692 179.319 193.775 173.93 198.544C171.924 200.335 170.293 200.001 167.912 200.255C165.559 200.508 163.727 200.081 161.333 199.359C160.905 199.226 160.812 198.651 161.186 198.411C162.737 197.435 164.008 196.139 165.051 194.509C166.321 192.532 167.217 190.341 168.086 188.163C171.804 178.904 175.134 169.485 179.587 160.547C180.536 158.636 181.659 156.619 183.478 155.644C184.789 154.935 186.273 154.869 187.704 154.815C191.916 154.668 196.115 154.521 200.327 154.388Z" fill="url(#paint2_linear_2486_48673)"/>
<path d="M140.793 156.512C140.806 156.565 140.873 156.646 140.953 156.753C143.507 160.053 145.446 163.727 147.024 167.575C147.947 169.833 148.749 172.144 149.498 174.469C151.558 180.855 153.229 187.402 156.078 193.494C156.853 195.151 157.736 196.808 159.113 198.023C160.798 199.506 163.071 200.188 165.318 200.321C167.565 200.455 169.37 200.562 172.018 199.733C169.825 198.01 168.661 196.18 167.886 193.801C165.799 187.388 163.7 180.962 161.614 174.549C160.183 170.14 158.725 165.691 156.452 161.642C155.195 159.411 153.63 157.26 151.397 156.004C149.726 155.056 147.76 154.722 145.861 154.869C144.898 154.935 143.935 155.136 143.013 155.43C142.545 155.577 142.09 155.75 141.649 155.951C141.435 156.044 141.221 156.138 141.02 156.258C140.833 156.365 140.766 156.432 140.793 156.512Z" fill="url(#paint3_linear_2486_48673)"/>
</g>
</g>
</g>
<path d="M338.858 238.758C339.042 239.236 339.042 239.7 338.857 240.151C338.665 240.583 338.33 240.892 337.852 241.075C337.375 241.259 336.92 241.255 336.487 241.063C336.048 240.853 335.736 240.509 335.552 240.031L331.172 228.652C330.988 228.174 330.992 227.719 331.184 227.287C331.369 226.836 331.7 226.519 332.178 226.335C332.655 226.151 333.114 226.164 333.553 226.375C333.986 226.567 334.294 226.901 334.478 227.379L338.858 238.758ZM331.461 224.554C330.836 224.795 330.356 224.864 330.022 224.76C329.687 224.657 329.42 224.349 329.222 223.834L329.021 223.311C328.816 222.778 328.815 222.367 329.02 222.077C329.236 221.762 329.638 221.491 330.226 221.265C330.869 221.018 331.358 220.945 331.693 221.048C332.028 221.151 332.294 221.46 332.492 221.974L332.694 222.498C332.899 223.031 332.902 223.451 332.705 223.759C332.5 224.049 332.085 224.314 331.461 224.554ZM345.003 221.081C346.362 220.558 347.5 220.447 348.418 220.747C349.353 221.041 350.133 221.616 350.758 222.472C351.394 223.303 351.935 224.297 352.381 225.454L355.096 232.507C355.28 232.985 355.279 233.449 355.094 233.9C354.902 234.333 354.567 234.641 354.09 234.825C353.612 235.008 353.157 235.004 352.725 234.812C352.285 234.602 351.973 234.258 351.79 233.78L349.074 226.727C348.841 226.121 348.55 225.611 348.201 225.197C347.863 224.757 347.435 224.468 346.918 224.33C346.401 224.192 345.765 224.268 345.012 224.557C344.278 224.84 343.71 225.228 343.308 225.72C342.926 226.204 342.692 226.748 342.607 227.35C342.534 227.926 342.614 228.518 342.847 229.124L345.563 236.177C345.747 236.655 345.746 237.119 345.561 237.57C345.369 238.002 345.034 238.311 344.557 238.494C344.079 238.678 343.624 238.674 343.191 238.482C342.752 238.272 342.44 237.928 342.256 237.45L337.876 226.071C337.692 225.593 337.696 225.138 337.888 224.706C338.073 224.255 338.404 223.938 338.882 223.754C339.36 223.57 339.818 223.583 340.258 223.794C340.69 223.986 340.998 224.321 341.182 224.798L341.638 225.983L341.193 226.059C341.238 225.683 341.35 225.261 341.528 224.792C341.699 224.304 341.935 223.823 342.237 223.348C342.54 222.873 342.922 222.441 343.384 222.053C343.839 221.645 344.378 221.322 345.003 221.081ZM357.582 230.854C357.299 230.668 357.089 230.369 356.952 229.958C356.815 229.547 356.92 229.106 357.266 228.635C357.489 228.338 357.773 228.145 358.118 228.054C358.455 227.945 358.84 227.987 359.273 228.179C360.011 228.506 360.73 228.704 361.431 228.772C362.132 228.839 362.923 228.703 363.805 228.364C364.073 228.24 364.362 228.086 364.672 227.904C364.974 227.703 365.202 227.447 365.356 227.134C365.521 226.796 365.512 226.389 365.328 225.911C365.172 225.507 364.911 225.239 364.543 225.106C364.176 224.973 363.731 224.913 363.208 224.924C362.704 224.928 362.148 224.963 361.54 225.028C360.907 225.082 360.248 225.125 359.564 225.156C358.899 225.18 358.258 225.132 357.642 225.01C357.019 224.871 356.448 224.595 355.931 224.182C355.414 223.77 354.999 223.159 354.688 222.351C354.335 221.433 354.291 220.553 354.558 219.712C354.825 218.871 355.295 218.121 355.969 217.461C356.661 216.793 357.458 216.287 358.358 215.94C358.927 215.721 359.552 215.565 360.233 215.471C360.907 215.359 361.589 215.35 362.279 215.443C362.961 215.518 363.591 215.729 364.168 216.076C364.476 216.274 364.723 216.559 364.908 216.93C365.093 217.302 365.053 217.718 364.787 218.179C364.597 218.505 364.314 218.73 363.94 218.853C363.558 218.958 363.206 218.946 362.882 218.817C362.414 218.533 361.868 218.375 361.243 218.341C360.637 218.3 359.994 218.41 359.314 218.672C359.039 218.778 358.75 218.932 358.448 219.132C358.157 219.308 357.934 219.551 357.78 219.864C357.619 220.158 357.627 220.534 357.804 220.994C357.966 221.416 358.235 221.703 358.61 221.854C358.977 221.987 359.422 222.047 359.945 222.036C360.479 221.999 361.041 221.951 361.63 221.893C362.238 221.828 362.865 221.787 363.512 221.77C364.16 221.753 364.786 221.817 365.39 221.964C365.995 222.111 366.547 222.394 367.046 222.814C367.538 223.215 367.94 223.82 368.251 224.628C368.611 225.565 368.643 226.47 368.347 227.343C368.05 228.217 367.556 228.987 366.864 229.654C366.164 230.303 365.383 230.793 364.52 231.126C363.436 231.543 362.282 231.776 361.057 231.826C359.824 231.858 358.666 231.534 357.582 230.854ZM375.075 224.816C375.259 225.294 375.258 225.758 375.073 226.209C374.881 226.641 374.546 226.95 374.069 227.133C373.591 227.317 373.136 227.313 372.704 227.121C372.264 226.911 371.952 226.567 371.769 226.089L367.388 214.71C367.204 214.232 367.208 213.777 367.4 213.345C367.585 212.894 367.917 212.577 368.394 212.393C368.872 212.209 369.33 212.222 369.77 212.433C370.202 212.625 370.511 212.96 370.694 213.437L375.075 224.816ZM367.677 210.613C367.053 210.853 366.573 210.922 366.238 210.819C365.903 210.715 365.637 210.407 365.439 209.892L365.237 209.369C365.032 208.836 365.032 208.425 365.237 208.135C365.453 207.82 365.855 207.549 366.443 207.323C367.086 207.076 367.574 207.003 367.909 207.107C368.244 207.21 368.511 207.518 368.709 208.033L368.91 208.556C369.115 209.089 369.119 209.509 368.921 209.817C368.716 210.107 368.302 210.372 367.677 210.613ZM383.339 200.154C383.817 199.97 384.272 199.975 384.704 200.167C385.137 200.359 385.448 200.703 385.639 201.199L392.194 218.226C392.378 218.704 392.377 219.168 392.192 219.619C392 220.051 391.666 220.359 391.188 220.543C390.71 220.727 390.255 220.723 389.823 220.531C389.383 220.321 389.072 219.977 388.888 219.499L388.368 218.149L389.07 218.163C389.162 218.402 389.146 218.746 389.023 219.194C388.894 219.623 388.672 220.088 388.358 220.589C388.045 221.089 387.631 221.575 387.117 222.047C386.614 222.494 386.013 222.852 385.315 223.12C384.048 223.608 382.776 223.729 381.5 223.482C380.217 223.217 379.053 222.631 378.008 221.726C376.975 220.795 376.172 219.585 375.599 218.098C375.019 216.591 374.804 215.156 374.954 213.791C375.114 212.4 375.576 211.189 376.339 210.157C377.094 209.107 378.088 208.345 379.318 207.871C380.108 207.567 380.88 207.407 381.633 207.391C382.386 207.376 383.072 207.46 383.691 207.643C384.328 207.819 384.85 208.051 385.256 208.338C385.673 208.599 385.931 208.858 386.03 209.116L385.176 209.856L382.333 202.471C382.149 201.994 382.153 201.539 382.345 201.106C382.53 200.656 382.862 200.338 383.339 200.154ZM384.562 219.931C385.37 219.619 385.999 219.145 386.45 218.508C386.9 217.87 387.157 217.139 387.219 216.314C387.299 215.481 387.173 214.633 386.841 213.77C386.501 212.888 386.023 212.166 385.405 211.602C384.806 211.031 384.125 210.661 383.363 210.49C382.602 210.319 381.817 210.389 381.008 210.7C380.219 211.004 379.598 211.475 379.148 212.113C378.697 212.75 378.432 213.485 378.352 214.317C378.29 215.143 378.428 215.996 378.768 216.878C379.1 217.741 379.566 218.458 380.165 219.029C380.783 219.593 381.473 219.96 382.234 220.13C382.996 220.301 383.772 220.235 384.562 219.931ZM403.47 216.131C401.909 216.732 400.426 216.934 399.021 216.737C397.628 216.514 396.403 215.963 395.347 215.082C394.31 214.195 393.519 213.045 392.974 211.63C392.338 209.977 392.128 208.445 392.344 207.033C392.571 205.596 393.106 204.356 393.949 203.314C394.792 202.273 395.82 201.519 397.033 201.052C397.969 200.691 398.925 200.545 399.9 200.612C400.894 200.673 401.843 200.919 402.747 201.351C403.645 201.765 404.447 202.342 405.154 203.082C405.879 203.815 406.432 204.678 406.814 205.67C406.966 206.118 406.929 206.543 406.704 206.946C406.48 207.349 406.147 207.635 405.706 207.805L395.181 211.856L393.294 209.419L403.406 205.527L403.012 206.311L402.725 205.567C402.483 205.049 402.107 204.645 401.595 204.357C401.102 204.062 400.552 203.894 399.946 203.853C399.351 203.787 398.769 203.863 398.199 204.083C397.648 204.295 397.162 204.566 396.741 204.897C396.32 205.228 396.002 205.635 395.788 206.118C395.573 206.602 395.478 207.176 395.502 207.842C395.526 208.507 395.712 209.29 396.058 210.19C396.44 211.182 396.967 211.949 397.64 212.492C398.324 213.009 399.058 213.327 399.843 213.447C400.638 213.541 401.404 213.447 402.138 213.164C402.818 212.903 403.339 212.639 403.7 212.373C404.062 212.107 404.334 211.855 404.516 211.616C404.71 211.352 404.886 211.126 405.046 210.938C405.313 210.645 405.593 210.442 405.887 210.329C406.291 210.174 406.675 210.184 407.038 210.361C407.42 210.53 407.681 210.798 407.823 211.166C408.014 211.662 407.93 212.211 407.571 212.813C407.249 213.401 406.716 214.017 405.973 214.662C405.223 215.288 404.389 215.778 403.47 216.131ZM412.23 205.451C411.605 205.692 411.131 205.474 410.807 204.797L406.105 194.965C405.849 194.41 405.812 193.876 405.994 193.363C406.195 192.843 406.571 192.477 407.122 192.264C407.673 192.052 408.197 192.072 408.694 192.323C409.192 192.575 409.523 192.996 409.687 193.586L412.819 204.023C413.032 204.742 412.836 205.218 412.23 205.451ZM414.381 211.615C413.848 211.82 413.382 211.841 412.982 211.679C412.593 211.491 412.297 211.131 412.091 210.598L411.911 210.13C411.706 209.597 411.688 209.14 411.858 208.758C412.038 208.351 412.395 208.045 412.928 207.84L413.286 207.702C413.819 207.497 414.279 207.489 414.668 207.676C415.068 207.839 415.371 208.186 415.576 208.719L415.756 209.187C415.961 209.72 415.973 210.19 415.792 210.597C415.623 210.979 415.272 211.272 414.739 211.477L414.381 211.615Z" fill="#138758"/>
<defs>
<linearGradient id="paint0_linear_2486_48673" x1="137.657" y1="200.047" x2="140.637" y2="155.231" gradientUnits="userSpaceOnUse">
<stop offset="0.1207" stop-color="#128858"/>
<stop offset="0.1701" stop-color="#19905D"/>
<stop offset="0.279" stop-color="#22A268"/>
<stop offset="0.38" stop-color="#28AD6F"/>
<stop offset="0.4648" stop-color="#29B372"/>
<stop offset="0.5883" stop-color="#24A56A"/>
<stop offset="0.8231" stop-color="#158A59"/>
<stop offset="0.848" stop-color="#128858"/>
</linearGradient>
<linearGradient id="paint1_linear_2486_48673" x1="115.774" y1="198.85" x2="118.668" y2="155.317" gradientUnits="userSpaceOnUse">
<stop stop-color="#29B372"/>
<stop offset="1" stop-color="#128858"/>
</linearGradient>
<linearGradient id="paint2_linear_2486_48673" x1="180.093" y1="199.205" x2="177.17" y2="155.25" gradientUnits="userSpaceOnUse">
<stop stop-color="#29B372"/>
<stop offset="1" stop-color="#128858"/>
</linearGradient>
<linearGradient id="paint3_linear_2486_48673" x1="143.601" y1="155.29" x2="169.176" y2="201.754" gradientUnits="userSpaceOnUse">
<stop stop-color="#29B372"/>
<stop offset="0.2114" stop-color="#21A067"/>
<stop offset="0.4679" stop-color="#1A925E"/>
<stop offset="0.7292" stop-color="#158A59"/>
<stop offset="1" stop-color="#128858"/>
</linearGradient>
<clipPath id="clip0_2486_48673">
<rect width="314" height="59.0142" fill="white" transform="translate(63 140.986)"/>
</clipPath>
<clipPath id="clip1_2486_48673">
<rect width="314" height="82.3972" fill="white" transform="translate(63 140.986)"/>
</clipPath>
<clipPath id="clip2_2486_48673">
<rect width="311.407" height="80.5777" fill="white" transform="translate(64.5558 140.466)"/>
</clipPath>
</defs>
</svg>
