<svg width="277" height="142" viewBox="0 0 277 142" fill="none" xmlns="http://www.w3.org/2000/svg">
<path d="M205.605 0.644531C195.389 0.644531 185.677 2.81838 176.906 6.71631C152.255 17.6926 124.177 16.9752 99.2581 6.61993C57.4838 -10.7173 0.556848 14.1267 0 71.3213C0.556848 128.527 57.4945 153.36 99.2581 136.012C124.22 125.646 152.052 125.635 177.013 136.012C218.788 153.371 275.725 128.516 276.282 71.3213C276.282 32.2885 244.638 0.644531 205.605 0.644531Z" fill="#B6FDBA"/>
<g clip-path="url(#clip0_531_7693)">
<g clip-path="url(#clip1_531_7693)">
<path d="M250.715 49.6699C250.886 49.6699 251.037 49.7404 251.188 49.8814C251.339 50.0224 251.409 50.1836 251.409 50.385C251.409 50.6771 251.288 50.8886 251.047 51.0094C250.876 51.09 250.655 51.1303 250.363 51.1303H249.85V55.2798C249.85 55.5719 249.789 55.8237 249.658 56.0352C249.517 56.2668 249.336 56.3877 249.105 56.3877C248.873 56.3877 248.682 56.2869 248.531 56.0754C248.38 55.8639 248.31 55.6122 248.31 55.31V51.1202H247.827C247.515 51.1202 247.284 51.09 247.133 51.0094C246.901 50.8785 246.791 50.6569 246.791 50.3346C246.791 50.1433 246.851 49.9922 246.982 49.8714C247.102 49.7505 247.253 49.6901 247.424 49.6901H250.715V49.6699Z" fill="#138758"/>
<path d="M251.631 50.5867C251.631 50.3148 251.701 50.0932 251.832 49.922C251.963 49.7508 252.144 49.6602 252.365 49.6602H253.261C253.573 49.6602 253.794 49.7911 253.945 50.0429C254.046 50.2141 254.136 50.5263 254.227 50.9896C254.317 51.4428 254.428 52.027 254.549 52.7421C254.649 53.3464 254.76 53.9506 254.861 54.5549L255.072 53.4471C255.263 52.45 255.454 51.4529 255.646 50.4558C255.716 50.1738 255.807 49.9724 255.937 49.8515C256.058 49.7307 256.249 49.6702 256.491 49.6702H257.316C257.557 49.6702 257.739 49.7709 257.859 49.9724C257.96 50.1537 258.01 50.3954 258.01 50.7076V55.3506C258.01 55.6527 257.95 55.8945 257.839 56.0757C257.708 56.2873 257.527 56.388 257.286 56.388C257.074 56.388 256.903 56.2973 256.773 56.1261C256.642 55.9549 256.581 55.7232 256.581 55.4513V51.1507L256.259 52.9032C256.078 53.8499 255.968 54.4442 255.917 54.6758C255.716 55.552 255.535 56.0657 255.374 56.2168C255.293 56.2973 255.203 56.3376 255.122 56.3678C255.032 56.388 254.931 56.398 254.8 56.398C254.488 56.398 254.247 56.1765 254.076 55.7232C253.995 55.5017 253.895 55.1189 253.784 54.5549C253.633 53.7895 253.522 53.2154 253.452 52.8327C253.311 52.1176 253.2 51.5435 253.13 51.1004V55.4211C253.13 55.7031 253.049 55.9347 252.909 56.116C252.768 56.2973 252.587 56.388 252.355 56.388C252.144 56.388 251.973 56.2772 251.842 56.0455C251.721 55.824 251.661 55.5722 251.661 55.2902V50.5767L251.631 50.5867Z" fill="#138758"/>
<path d="M29.0769 65.2494C29.0769 61.8755 30.5561 59.2871 33.5346 57.4943C36.01 55.9936 39.069 55.2383 42.6815 55.2383C45.2072 55.2383 47.6222 55.7519 49.9467 56.7692C52.9151 58.0684 54.4044 59.8208 54.4044 62.0165C54.4044 63.0337 54.0421 63.9502 53.3076 64.766C52.573 65.5818 51.6774 65.9847 50.6208 65.9847C49.363 65.9847 48.1354 65.2897 46.9581 63.9099C45.7808 62.5301 44.1506 61.8352 42.0777 61.8352C40.6086 61.8352 39.5218 62.0769 38.8175 62.5704C38.103 63.0639 37.7508 63.6883 37.7508 64.4638C37.7508 65.8034 39.2803 66.9112 42.3293 67.7573C47.0486 69.0565 49.9165 69.9931 50.9328 70.5672C54.022 72.2794 55.5716 74.8678 55.5716 78.3223C55.5716 81.7769 54.1729 84.3653 51.3655 86.1983C48.9605 87.7493 45.9518 88.5148 42.3394 88.5148C39.3709 88.5148 36.4628 87.9205 33.6151 86.7422C29.9322 85.2415 28.1008 83.2272 28.1008 80.6992C28.1008 79.6417 28.453 78.695 29.1675 77.859C29.8819 77.0231 30.7674 76.6102 31.824 76.6102C33.4541 76.6102 34.9031 77.4763 36.1911 79.2086C37.4691 80.9409 39.5118 81.8071 42.3192 81.8071C43.4563 81.8071 44.372 81.6258 45.0663 81.2532C46.0424 80.7597 46.5354 79.9942 46.5354 78.9367C46.5354 77.5972 45.0261 76.4893 42.0174 75.6433C37.4993 74.3843 34.6918 73.4477 33.595 72.8333C30.5863 71.1614 29.0769 68.6435 29.0769 65.2595V65.2494Z" fill="#138758"/>
<path d="M132.57 74.5352C132.611 74.6561 132.631 74.8777 132.631 75.21C132.631 75.5424 132.651 75.8244 132.691 76.0661C132.892 77.5768 133.677 78.8459 135.036 79.8832C136.394 80.9206 137.853 81.4443 139.403 81.4443C140.952 81.4443 142.693 80.6688 144.525 79.1279C145.42 78.3524 146.296 77.9696 147.151 77.9696C148.328 77.9696 149.325 78.3322 150.14 79.0674C150.955 79.8027 151.357 80.7595 151.357 81.9378C151.357 84.0529 149.828 85.7449 146.779 87.0038C144.333 88.0211 141.878 88.5347 139.393 88.5347C134.432 88.5347 130.487 87.0542 127.559 84.073C124.631 81.1019 123.162 77.1337 123.162 72.1684C123.162 67.2031 124.631 63.2551 127.559 60.0724C130.487 56.8999 134.392 55.3086 139.272 55.3086C143.579 55.3086 147.071 56.6985 149.737 59.4883C152.404 62.2781 153.732 65.8535 153.732 70.2045C153.732 71.6749 153.45 72.7626 152.877 73.4676C152.303 74.1827 151.307 74.5352 149.888 74.5352H132.56H132.57ZM145.259 67.8779C144.726 64.091 142.613 62.1976 138.91 62.1976C137.28 62.1976 135.881 62.7313 134.704 63.7889C133.526 64.8464 132.812 66.2161 132.57 67.8779H145.259Z" fill="#138758"/>
<path d="M164.479 74.5352C164.519 74.6561 164.539 74.8777 164.539 75.21C164.539 75.5424 164.559 75.8244 164.6 76.0661C164.801 77.5768 165.586 78.8459 166.944 79.8832C168.303 80.9206 169.762 81.4443 171.311 81.4443C172.861 81.4443 174.602 80.6688 176.433 79.1279C177.329 78.3524 178.204 77.9696 179.059 77.9696C180.237 77.9696 181.233 78.3322 182.048 79.0674C182.863 79.8027 183.266 80.7595 183.266 81.9378C183.266 84.0529 181.736 85.7449 178.687 87.0038C176.242 88.0211 173.787 88.5347 171.301 88.5347C166.34 88.5347 162.396 87.0542 159.468 84.073C156.539 81.1019 155.07 77.1337 155.07 72.1684C155.07 67.2031 156.539 63.2551 159.468 60.0724C162.396 56.8999 166.3 55.3086 171.18 55.3086C175.487 55.3086 178.979 56.6985 181.646 59.4883C184.312 62.2781 185.64 65.8535 185.64 70.2045C185.64 71.6749 185.359 72.7626 184.785 73.4676C184.211 74.1827 183.215 74.5352 181.796 74.5352H164.469H164.479ZM177.168 67.8779C176.634 64.091 174.521 62.1976 170.818 62.1976C169.188 62.1976 167.789 62.7313 166.612 63.7889C165.435 64.8464 164.72 66.2161 164.479 67.8779H177.168Z" fill="#138758"/>
<path d="M189.806 49.3162C189.806 47.8961 190.189 46.7077 190.963 45.771C191.738 44.8344 192.835 44.3711 194.254 44.3711C195.673 44.3711 196.699 44.8445 197.454 45.771C198.208 46.7077 198.581 47.8861 198.581 49.3162V82.9654C198.581 84.3955 198.158 85.6041 197.333 86.6012C196.498 87.5983 195.391 88.1019 194.012 88.1019C192.503 88.1019 191.386 87.4674 190.661 86.2084C190.088 85.2315 189.806 83.9121 189.806 82.2402V49.3162Z" fill="#138758"/>
<path d="M208.774 43.9984C209.992 43.9984 211.038 44.4415 211.914 45.3077C212.789 46.1839 213.222 47.2313 213.222 48.45C213.222 49.5881 212.799 50.5852 211.944 51.4412C211.089 52.2973 210.072 52.7203 208.895 52.7203C207.426 52.7203 206.319 52.2772 205.574 51.3808C204.82 50.4844 204.447 49.2859 204.447 47.7752C204.447 46.8385 204.92 45.9724 205.886 45.1767C206.842 44.3811 207.808 43.9883 208.784 43.9883L208.774 43.9984ZM204.437 60.4855C204.437 59.2266 204.85 58.1388 205.685 57.2223C206.52 56.3058 207.567 55.8526 208.825 55.8526C209.962 55.8526 210.978 56.2353 211.873 57.0108C212.769 57.7863 213.212 58.7431 213.212 59.8812V83.3883C213.212 84.6069 212.769 85.6947 211.904 86.6515C211.028 87.6083 210.002 88.0917 208.825 88.0917C207.486 88.0917 206.41 87.5881 205.625 86.5608C204.83 85.5436 204.437 84.3451 204.437 82.9552V60.4855Z" fill="#138758"/>
<path d="M222.238 55.8429C223.325 55.8429 224.281 56.1753 225.086 56.8501C225.891 57.5249 226.454 58.4112 226.786 59.509C228.094 58.0889 229.382 57.0414 230.67 56.3969C231.958 55.7422 233.518 55.4199 235.349 55.4199C238.74 55.4199 241.407 56.558 243.369 58.8443C245.201 60.9996 246.126 63.8095 246.126 67.2742V82.724C246.126 84.275 245.764 85.5339 245.03 86.5109C244.174 87.649 243.017 88.223 241.548 88.223C239.918 88.223 238.72 87.4677 237.945 85.967C237.372 84.8289 237.09 83.3383 237.09 81.5053V68.4324C237.09 66.8008 236.637 65.5016 235.752 64.5246C234.856 63.5477 233.598 63.0542 231.968 63.0542C231.355 63.0542 230.771 63.2053 230.197 63.5074C229.624 63.8095 229.101 64.2124 228.607 64.6958C227.873 65.3908 227.39 66.4181 227.138 67.7777C226.897 69.1374 226.776 70.5575 226.776 72.0179C226.776 72.9142 226.826 74.2538 226.927 76.0465C227.028 77.8392 227.078 79.1989 227.078 80.1356C227.078 82.4117 226.877 84.1441 226.464 85.3224C225.81 87.236 224.552 88.1928 222.681 88.1928C221.05 88.1928 219.833 87.5583 219.018 86.2994C218.364 85.2821 218.042 83.8822 218.042 82.0895V60.7176C218.042 59.4183 218.424 58.2702 219.189 57.2932C219.954 56.3163 220.97 55.8228 222.218 55.8228L222.238 55.8429Z" fill="#138758"/>
<path d="M84.8434 55.8024C84.6421 55.8628 83.5553 56.3261 82.4585 58.2297C81.4925 59.8915 80.7881 61.7245 80.1341 63.5676C78.2624 68.825 76.7229 74.2334 75.5456 79.7627C75.2437 81.1626 74.972 82.5626 74.7104 83.9726C74.5795 84.6978 73.6639 87.548 74.0563 88.1825C74.4487 88.817 77.2864 88.6257 77.9203 88.5955C79.2586 88.535 80.5869 88.2027 81.6233 87.3365C83.022 86.1682 83.6258 84.2445 84.1692 82.4216C85.9402 76.5196 87.7112 70.6177 89.4822 64.7157C89.5325 64.5546 89.5828 64.3935 89.5828 64.2122C89.5828 63.9302 89.452 63.6582 89.3313 63.3964C88.2043 61.0698 87.4496 57.8268 86.3226 55.5103C85.8396 55.2283 86.1012 55.4096 84.8635 55.7923L84.8434 55.8024Z" fill="url(#paint0_linear_531_7693)"/>
<path d="M50.0974 54.4925C53.5287 55.8018 56.1752 58.9844 58.0468 62.3584C60.009 65.8834 61.297 69.7308 62.5951 73.5378C64.1448 78.0902 65.9862 84.1835 68.8641 86.6309C70.4037 87.9402 72.3961 88.5243 74.1771 88.7157C76.2299 88.9373 78.0512 88.8265 80.3253 88.1114C78.8059 87.3359 77.5984 86.228 76.6525 84.7274C75.7066 83.2267 75.0224 81.585 74.3683 79.9434C71.5709 72.9638 69.0653 65.8633 65.7145 59.1254C65.0001 57.6852 64.1548 56.1644 62.7863 55.4292C61.8002 54.8954 60.6832 54.845 59.6065 54.8047C56.4469 54.6939 53.2772 54.5932 50.1175 54.4824L50.0974 54.4925Z" fill="url(#paint1_linear_531_7693)"/>
<path d="M129.259 54.4922C125.828 55.8015 123.182 58.9841 121.31 62.3581C119.348 65.8831 118.06 69.7305 116.762 73.5375C115.212 78.0899 113.441 84.1832 109.386 87.7787C107.876 89.1283 106.649 88.8765 104.858 89.0679C103.087 89.2593 101.708 88.937 99.9069 88.3931C99.5849 88.2924 99.5145 87.8593 99.7962 87.678C100.963 86.9428 101.919 85.9659 102.704 84.7371C103.66 83.2465 104.334 81.5948 104.989 79.9531C107.786 72.9735 110.291 65.8731 113.642 59.1352C114.357 57.6949 115.202 56.1741 116.571 55.4389C117.557 54.9051 118.674 54.8548 119.75 54.8145C122.91 54.7037 126.08 54.603 129.239 54.4922H129.259Z" fill="url(#paint2_linear_531_7693)"/>
<path d="M84.461 56.0939C84.461 56.0939 84.5214 56.1946 84.5818 56.2752C86.5037 58.7629 87.9628 61.5326 89.1502 64.4332C89.8445 66.1353 90.4483 67.8777 91.0118 69.6301C92.5614 74.4443 93.8192 79.3794 95.9626 83.972C96.5462 85.2209 97.2103 86.4698 98.2468 87.3863C99.5146 88.5043 101.225 89.0179 102.916 89.1186C104.606 89.2193 105.965 89.2999 107.957 88.6755C106.307 87.3762 105.431 85.9964 104.848 84.2037C103.278 79.3693 101.698 74.5249 100.128 69.6905C99.0518 66.3669 97.9549 63.0131 96.2443 59.9614C95.2984 58.2795 94.1211 56.6579 92.4407 55.7112C91.1828 54.9961 89.7036 54.7443 88.2748 54.8551C87.5503 54.9055 86.8257 55.0566 86.1314 55.2781C85.7792 55.3889 85.4371 55.5198 85.105 55.6709C84.944 55.7414 84.783 55.8119 84.6321 55.9026C84.4912 55.9831 84.4409 56.0234 84.461 56.0939Z" fill="url(#paint3_linear_531_7693)"/>
</g>
</g>
<defs>
<linearGradient id="paint0_linear_531_7693" x1="69.1405" y1="73.0671" x2="71.4195" y2="39.3693" gradientUnits="userSpaceOnUse">
<stop offset="0.12" stop-color="#128858"/>
<stop offset="0.25" stop-color="#1E9F66"/>
<stop offset="0.37" stop-color="#26AD6E"/>
<stop offset="0.46" stop-color="#29B372"/>
<stop offset="0.62" stop-color="#21A469"/>
<stop offset="0.85" stop-color="#128858"/>
</linearGradient>
<linearGradient id="paint1_linear_531_7693" x1="52.7401" y1="72.1519" x2="54.932" y2="39.4186" gradientUnits="userSpaceOnUse">
<stop stop-color="#29B372"/>
<stop offset="1" stop-color="#128858"/>
</linearGradient>
<linearGradient id="paint2_linear_531_7693" x1="122.354" y1="71.4606" x2="120.135" y2="38.4117" gradientUnits="userSpaceOnUse">
<stop stop-color="#29B372"/>
<stop offset="1" stop-color="#128858"/>
</linearGradient>
<linearGradient id="paint3_linear_531_7693" x1="88.9865" y1="66.7504" x2="108.303" y2="101.784" gradientUnits="userSpaceOnUse">
<stop stop-color="#29B372"/>
<stop offset="0.1" stop-color="#24AA6D"/>
<stop offset="0.39" stop-color="#1A9761"/>
<stop offset="0.69" stop-color="#148B5A"/>
<stop offset="1" stop-color="#128858"/>
</linearGradient>
<clipPath id="clip0_531_7693">
<rect width="230" height="60.2381" fill="white" transform="translate(28 44)"/>
</clipPath>
<clipPath id="clip1_531_7693">
<rect width="229.81" height="47.3164" fill="white" transform="translate(28.1899 44)"/>
</clipPath>
</defs>
</svg>
