<?xml version="1.0" encoding="utf-8"?>
<!-- Generator: Adobe Illustrator 27.6.1, SVG Export Plug-In . SVG Version: 6.00 Build 0)  -->
<svg version="1.1" id="Слой_1" xmlns="http://www.w3.org/2000/svg" xmlns:xlink="http://www.w3.org/1999/xlink" x="0px" y="0px"
	 viewBox="0 0 457 362" style="enable-background:new 0 0 457 362;" xml:space="preserve">
<style type="text/css">
	.st0{fill-rule:evenodd;clip-rule:evenodd;fill:#B6FDBA;}
	.st1{clip-path:url(#SVGID_00000152263073073285546540000016288392795017734323_);}
	.st2{clip-path:url(#SVGID_00000173131005431800028960000012131346223036544407_);}
	.st3{clip-path:url(#SVGID_00000098201010712376812470000012669183472904177328_);}
	.st4{fill:#138758;}
	.st5{fill:url(#SVGID_00000037671852684173080080000017351627028156663938_);}
	.st6{fill:url(#SVGID_00000094589042131634560670000017586087137971491761_);}
	.st7{fill:url(#SVGID_00000013900592168203781030000007601764643469094829_);}
	.st8{fill:url(#SVGID_00000175306971946543383520000015301643088914143896_);}
</style>
<path class="st0" d="M150.5,269.8c24-6.4,31.9-54.7,17.6-107.9c-14.2-53.2-45.2-91.1-69.2-84.6c-10.6,2.8-18,13.8-21.8,29.7
	C65.9,95,54,89.3,43.4,92.1c-24,6.4-31.9,54.7-17.6,107.9C40,253.2,71,291.1,95,284.7c10.6-2.8,18-13.8,21.8-29.7
	C128.1,266.9,140,272.6,150.5,269.8z"/>
<path class="st0" d="M281.7,269.7c24-6.4,31.9-54.7,17.6-107.9c-14.2-53.2-45.2-91.1-69.2-84.6c-10.6,2.8-18,13.8-21.8,29.7
	C197.1,95,185.2,89.2,174.6,92c-24,6.4-31.9,54.7-17.6,107.9c14.2,53.2,45.2,91.1,69.2,84.6c10.6-2.8,18-13.8,21.8-29.7
	C259.2,266.8,271.2,272.6,281.7,269.7z"/>
<path class="st0" d="M412.9,269.7c24-6.4,31.9-54.7,17.6-107.9c-14.2-53.2-45.2-91.1-69.2-84.6c-10.6,2.8-18,13.8-21.8,29.7
	c-11.2-11.9-23.2-17.6-33.7-14.8c-24,6.4-31.9,54.7-17.6,107.9c14.2,53.2,45.2,91.1,69.2,84.6c10.6-2.8,18-13.8,21.8-29.7
	C390.4,266.7,402.3,272.5,412.9,269.7z"/>
<g>
	<defs>
		<rect id="SVGID_1_" x="63" y="143.2" width="334" height="62.8"/>
	</defs>
	<clipPath id="SVGID_00000140710001072900397520000004997829677489654412_">
		<use xlink:href="#SVGID_1_"  style="overflow:visible;"/>
	</clipPath>
	<g style="clip-path:url(#SVGID_00000140710001072900397520000004997829677489654412_);">
		<g>
			<defs>
				<rect id="SVGID_00000111912787912143933610000003624521793069951157_" x="63" y="143.2" width="334" height="87.6"/>
			</defs>
			<clipPath id="SVGID_00000053527552872150993470000003786721386605102008_">
				<use xlink:href="#SVGID_00000111912787912143933610000003624521793069951157_"  style="overflow:visible;"/>
			</clipPath>
			<g style="clip-path:url(#SVGID_00000053527552872150993470000003786721386605102008_);">
				<g>
					<defs>
						<rect id="SVGID_00000040565531528091557250000002081948627530367111_" x="64.7" y="142.7" width="331.2" height="85.7"/>
					</defs>
					<clipPath id="SVGID_00000050643024053139371220000007274258735381317024_">
						<use xlink:href="#SVGID_00000040565531528091557250000002081948627530367111_"  style="overflow:visible;"/>
					</clipPath>
					<g style="clip-path:url(#SVGID_00000050643024053139371220000007274258735381317024_);">
						<path class="st4" d="M380.8,170.6c-1.3-0.6-2.5-1.3-3.5-2.3c-1-1-1.8-2.1-2.3-3.4c-0.6-1.3-0.9-2.7-0.9-4.2
							c0-1.5,0.3-2.9,0.9-4.2c0.6-1.3,1.3-2.5,2.3-3.5c1-1,2.1-1.8,3.5-2.3c1.3-0.6,2.7-0.9,4.2-0.9c1.5,0,2.9,0.3,4.2,0.9
							c1.3,0.6,2.5,1.3,3.5,2.3c1,1,1.8,2.1,2.3,3.5c0.6,1.3,0.9,2.7,0.9,4.2c0,1.5-0.3,2.9-0.9,4.2c-0.6,1.3-1.3,2.4-2.3,3.4
							c-1,1-2.1,1.8-3.5,2.3c-1.3,0.6-2.7,0.9-4.2,0.9C383.5,171.4,382.1,171.1,380.8,170.6z M376.9,164c0.5,1.1,1.1,2,1.9,2.8
							c0.8,0.8,1.7,1.4,2.8,1.9c1.1,0.5,2.2,0.7,3.4,0.7c1.2,0,2.3-0.2,3.4-0.7c1.1-0.5,2-1.1,2.8-1.9c0.8-0.8,1.4-1.7,1.9-2.8
							c0.5-1.1,0.7-2.2,0.7-3.4c0-1.2-0.2-2.4-0.7-3.4c-0.5-1.1-1.1-2-1.9-2.8c-0.8-0.8-1.7-1.4-2.8-1.9c-1.1-0.5-2.2-0.7-3.4-0.7
							c-1.2,0-2.4,0.2-3.4,0.7c-1.1,0.5-2,1.1-2.8,1.9c-0.8,0.8-1.4,1.7-1.9,2.8c-0.5,1.1-0.7,2.2-0.7,3.4S376.4,162.9,376.9,164z
							 M384,163v2.1c0,0.4-0.1,0.7-0.4,1c-0.3,0.3-0.6,0.4-1,0.4c-0.4,0-0.7-0.1-1-0.4s-0.4-0.6-0.4-1v-9.3c0-0.4,0.1-0.7,0.4-1
							c0.3-0.3,0.6-0.4,1-0.4h3.1c0.6,0,1.2,0.1,1.7,0.3c0.5,0.2,1,0.5,1.4,0.9c0.4,0.4,0.7,0.9,1,1.4c0.2,0.5,0.3,1.1,0.3,1.7
							c0,0.6-0.1,1.1-0.3,1.5c-0.2,0.4-0.5,0.8-0.8,1c-0.3,0.3-0.6,0.5-0.9,0.6c-0.3,0.1-0.5,0.3-0.7,0.3l2.3,1.8
							c0.3,0.3,0.5,0.6,0.5,1.1c0,0.3-0.1,0.6-0.3,0.9c-0.2,0.3-0.6,0.4-1.1,0.4c-0.3,0-0.6-0.1-0.9-0.3l-3.7-3.2L384,163L384,163z
							 M384,156.9v3.4h1.7c0.5,0,0.9-0.2,1.2-0.5c0.4-0.3,0.5-0.8,0.5-1.2c0-0.5-0.2-0.9-0.5-1.2c-0.4-0.3-0.8-0.5-1.2-0.5
							L384,156.9L384,156.9z"/>
						<path class="st4" d="M66,172.7c0-4.8,2.1-8.4,6.3-10.9c3.5-2.1,7.8-3.2,12.9-3.2c3.6,0,7,0.7,10.3,2.2
							c4.2,1.8,6.3,4.3,6.3,7.4c0,1.4-0.5,2.7-1.6,3.9c-1,1.2-2.3,1.7-3.8,1.7c-1.8,0-3.5-1-5.2-2.9c-1.7-1.9-4-2.9-6.9-2.9
							c-2.1,0-3.6,0.3-4.6,1c-1,0.7-1.5,1.6-1.5,2.7c0,1.9,2.2,3.5,6.5,4.6c6.7,1.8,10.7,3.2,12.2,4c4.4,2.4,6.6,6.1,6.6,10.9
							c0,4.8-2,8.5-5.9,11.1c-3.4,2.2-7.7,3.3-12.8,3.3c-4.2,0-8.3-0.8-12.3-2.5c-5.2-2.1-7.8-5-7.8-8.5c0-1.5,0.5-2.8,1.5-4
							c1-1.2,2.3-1.8,3.8-1.8c2.3,0,4.4,1.2,6.2,3.7c1.8,2.4,4.7,3.7,8.7,3.7c1.6,0,2.9-0.3,3.9-0.8c1.4-0.7,2.1-1.8,2.1-3.3
							c0-1.9-2.1-3.5-6.4-4.6c-6.4-1.8-10.4-3.1-11.9-4C68.2,181,66,177.4,66,172.7z"/>
						<path class="st4" d="M212.3,185.8c0.1,0.2,0.1,0.5,0.1,1c0,0.5,0,0.9,0.1,1.2c0.3,2.1,1.4,3.9,3.3,5.4c1.9,1.5,4,2.2,6.2,2.2
							c2.2,0,4.7-1.1,7.2-3.3c1.3-1.1,2.5-1.6,3.7-1.6c1.7,0,3.1,0.5,4.2,1.5c1.2,1,1.7,2.4,1.7,4.1c0,3-2.2,5.4-6.5,7.1
							c-3.5,1.4-6.9,2.2-10.4,2.2c-7,0-12.6-2.1-16.7-6.3c-4.1-4.2-6.2-9.8-6.2-16.8c0-6.9,2.1-12.6,6.2-17.1
							c4.1-4.5,9.7-6.7,16.6-6.7c6.1,0,11,2,14.8,5.9c3.8,3.9,5.6,9,5.6,15.1c0,2.1-0.4,3.6-1.2,4.6c-0.8,1-2.2,1.5-4.2,1.5H212.3z
							 M230.3,176.4c-0.8-5.3-3.7-8-9-8c-2.3,0-4.3,0.8-5.9,2.2c-1.7,1.5-2.7,3.4-3,5.8H230.3z"/>
						<path class="st4" d="M257.4,185.8c0.1,0.2,0.1,0.5,0.1,1c0,0.5,0,0.9,0.1,1.2c0.3,2.1,1.4,3.9,3.3,5.4c1.9,1.5,4,2.2,6.2,2.2
							c2.2,0,4.7-1.1,7.2-3.3c1.3-1.1,2.5-1.6,3.7-1.6c1.7,0,3.1,0.5,4.2,1.5c1.2,1,1.7,2.4,1.7,4.1c0,3-2.2,5.4-6.5,7.1
							c-3.5,1.4-6.9,2.2-10.4,2.2c-7,0-12.6-2.1-16.7-6.3c-4.1-4.2-6.2-9.8-6.2-16.8c0-6.9,2.1-12.6,6.2-17.1
							c4.1-4.5,9.7-6.7,16.6-6.7c6.1,0,11,2,14.8,5.9c3.8,3.9,5.6,9,5.6,15.1c0,2.1-0.4,3.6-1.2,4.6c-0.8,1-2.2,1.5-4.2,1.5H257.4z
							 M275.4,176.4c-0.8-5.3-3.7-8-9-8c-2.3,0-4.3,0.8-5.9,2.2c-1.7,1.5-2.7,3.4-3,5.8H275.4z"/>
						<path class="st4" d="M293.2,150.2c0-2,0.5-3.7,1.6-5c1.1-1.3,2.6-2,4.7-2c1.9,0,3.5,0.7,4.5,2c1.1,1.3,1.6,3,1.6,5v47.5
							c0,2-0.6,3.7-1.8,5.1c-1.2,1.4-2.7,2.1-4.7,2.1c-2.1,0-3.7-0.9-4.7-2.7c-0.8-1.4-1.2-3.2-1.2-5.6V150.2z"/>
						<path class="st4" d="M320.1,142.7c1.7,0,3.2,0.6,4.4,1.8c1.2,1.2,1.8,2.7,1.8,4.4c0,1.6-0.6,3-1.8,4.2
							c-1.2,1.2-2.6,1.8-4.3,1.8c-2.1,0-3.6-0.6-4.7-1.9c-1.1-1.3-1.6-3-1.6-5.1c0-1.3,0.7-2.5,2-3.7
							C317.3,143.2,318.7,142.7,320.1,142.7z M313.9,165.9c0-1.8,0.6-3.3,1.8-4.6c1.2-1.3,2.7-1.9,4.4-1.9c1.6,0,3,0.5,4.3,1.6
							c1.3,1.1,1.9,2.4,1.9,4.1v33.2c0,1.7-0.6,3.3-1.8,4.6c-1.2,1.3-2.7,2-4.4,2c-1.9,0-3.4-0.7-4.5-2.2c-1.1-1.4-1.7-3.1-1.7-5.1
							V165.9z"/>
						<path class="st4" d="M339.1,159.4c1.5,0,2.9,0.5,4,1.4c1.1,1,1.9,2.2,2.4,3.8c1.8-2,3.7-3.5,5.5-4.4c1.8-0.9,4-1.4,6.6-1.4
							c4.8,0,8.6,1.6,11.3,4.8c2.6,3,3.9,7,3.9,11.9v21.8c0,2.2-0.5,4-1.5,5.3c-1.2,1.6-2.8,2.4-4.9,2.4c-2.3,0-4-1.1-5.1-3.2
							c-0.8-1.6-1.2-3.7-1.2-6.3v-18.5c0-2.3-0.6-4.1-1.9-5.5c-1.3-1.4-3-2.1-5.3-2.1c-0.9,0-1.7,0.2-2.5,0.6
							c-0.8,0.4-1.6,1-2.2,1.7c-1,1-1.7,2.4-2.1,4.3c-0.3,1.9-0.5,3.9-0.5,6c0,1.3,0.1,3.2,0.2,5.7c0.1,2.5,0.2,4.4,0.2,5.8
							c0,3.2-0.3,5.7-0.9,7.3c-0.9,2.7-2.7,4.1-5.3,4.1c-2.3,0-4-0.9-5.2-2.7c-0.9-1.4-1.4-3.4-1.4-5.9v-30.1c0-1.8,0.5-3.5,1.6-4.8
							C335.9,160.1,337.3,159.4,339.1,159.4z"/>
						
							<linearGradient id="SVGID_00000148628885404960301640000007116520684551152289_" gradientUnits="userSpaceOnUse" x1="140.7325" y1="158.0617" x2="143.9024" y2="205.7328" gradientTransform="matrix(1 0 0 -1 0 364)">
							<stop  offset="0.1207" style="stop-color:#128858"/>
							<stop  offset="0.1701" style="stop-color:#19905D"/>
							<stop  offset="0.279" style="stop-color:#22A268"/>
							<stop  offset="0.38" style="stop-color:#28AD6F"/>
							<stop  offset="0.4648" style="stop-color:#29B372"/>
							<stop  offset="0.5883" style="stop-color:#24A56A"/>
							<stop  offset="0.8231" style="stop-color:#158A59"/>
							<stop  offset="0.848" style="stop-color:#128858"/>
						</linearGradient>
						<path style="fill:url(#SVGID_00000148628885404960301640000007116520684551152289_);" d="M146.3,159.3
							c-0.3,0.1-1.8,0.7-3.4,3.4c-1.4,2.3-2.4,4.9-3.3,7.5c-2.6,7.4-4.8,15-6.5,22.9c-0.4,2-0.8,4-1.2,5.9c-0.2,1-1.5,5-0.9,5.9
							c0.5,0.9,4.6,0.6,5.5,0.6c1.9-0.1,3.8-0.6,5.2-1.8c2-1.6,2.8-4.4,3.6-6.9c2.5-8.3,5-16.7,7.5-25c0.1-0.2,0.1-0.5,0.1-0.7
							c0-0.4-0.2-0.8-0.4-1.2c-1.6-3.3-2.7-7.9-4.3-11.1C147.7,158.5,148,158.8,146.3,159.3z"/>
						
							<linearGradient id="SVGID_00000083780863138085869840000014742440964003857075_" gradientUnits="userSpaceOnUse" x1="116.9717" y1="159.3671" x2="120.051" y2="205.6874" gradientTransform="matrix(1 0 0 -1 0 364)">
							<stop  offset="0" style="stop-color:#29B372"/>
							<stop  offset="1" style="stop-color:#128858"/>
						</linearGradient>
						<path style="fill:url(#SVGID_00000083780863138085869840000014742440964003857075_);" d="M97.2,157.5
							c4.8,1.8,8.6,6.3,11.2,11.1c2.8,5,4.6,10.4,6.4,15.8c2.2,6.4,4.8,15,8.9,18.5c2.2,1.8,5,2.7,7.5,2.9c2.9,0.3,5.5,0.2,8.7-0.9
							c-2.1-1.1-3.9-2.7-5.2-4.8c-1.3-2.1-2.3-4.4-3.2-6.8c-4-9.8-7.5-19.9-12.2-29.4c-1-2-2.2-4.2-4.1-5.2c-1.4-0.8-3-0.8-4.5-0.9
							C106.1,157.8,101.6,157.6,97.2,157.5z"/>
						
							<linearGradient id="SVGID_00000116194305282156488350000005670962615873815972_" gradientUnits="userSpaceOnUse" x1="189.7202" y1="158.9899" x2="186.6107" y2="205.7495" gradientTransform="matrix(1 0 0 -1 0 364)">
							<stop  offset="0" style="stop-color:#29B372"/>
							<stop  offset="1" style="stop-color:#128858"/>
						</linearGradient>
						<path style="fill:url(#SVGID_00000116194305282156488350000005670962615873815972_);" d="M209.1,157.5
							c-4.8,1.8-8.6,6.3-11.2,11.1c-2.8,5-4.6,10.4-6.4,15.8c-2.2,6.4-4.7,15-10.4,20.1c-2.1,1.9-3.9,1.5-6.4,1.8
							c-2.5,0.3-4.5-0.2-7-1c-0.5-0.1-0.6-0.8-0.2-1c1.6-1,3-2.4,4.1-4.2c1.4-2.1,2.3-4.4,3.2-6.8c4-9.8,7.5-19.9,12.2-29.4
							c1-2,2.2-4.2,4.1-5.2c1.4-0.8,3-0.8,4.5-0.9C200.1,157.8,204.6,157.6,209.1,157.5z"/>
						
							<linearGradient id="SVGID_00000151523308736343084830000013749327296040359060_" gradientUnits="userSpaceOnUse" x1="149.0315" y1="205.7211" x2="176.2346" y2="156.2992" gradientTransform="matrix(1 0 0 -1 0 364)">
							<stop  offset="0" style="stop-color:#29B372"/>
							<stop  offset="0.2114" style="stop-color:#21A067"/>
							<stop  offset="0.4679" style="stop-color:#1A925E"/>
							<stop  offset="0.7292" style="stop-color:#158A59"/>
							<stop  offset="1" style="stop-color:#128858"/>
						</linearGradient>
						<path style="fill:url(#SVGID_00000151523308736343084830000013749327296040359060_);" d="M145.7,159.7c0,0.1,0.1,0.1,0.2,0.3
							c2.7,3.5,4.8,7.4,6.5,11.5c1,2.4,1.8,4.9,2.6,7.3c2.2,6.8,4,13.8,7,20.2c0.8,1.8,1.8,3.5,3.2,4.8c1.8,1.6,4.2,2.3,6.6,2.4
							c2.4,0.1,4.3,0.3,7.1-0.6c-2.3-1.8-3.6-3.8-4.4-6.3c-2.2-6.8-4.5-13.7-6.7-20.5c-1.5-4.7-3.1-9.4-5.5-13.7
							c-1.3-2.4-3-4.7-5.4-6c-1.8-1-3.9-1.4-5.9-1.2c-1,0.1-2,0.3-3,0.6c-0.5,0.2-1,0.3-1.5,0.6c-0.2,0.1-0.5,0.2-0.7,0.3
							C145.8,159.6,145.7,159.7,145.7,159.7z"/>
					</g>
				</g>
			</g>
		</g>
	</g>
</g>
</svg>
