<?xml version="1.0" encoding="utf-8"?>
<!-- Generator: Adobe Illustrator 27.6.1, SVG Export Plug-In . SVG Version: 6.00 Build 0)  -->
<svg version="1.1" id="Слой_1" xmlns="http://www.w3.org/2000/svg" xmlns:xlink="http://www.w3.org/1999/xlink" x="0px" y="0px"
	 viewBox="0 0 277 142" style="enable-background:new 0 0 277 142;" xml:space="preserve">
<style type="text/css">
	.st0{fill:#B6FDBA;}
	.st1{clip-path:url(#SVGID_00000103986868471327981500000017554180557970957974_);}
	.st2{clip-path:url(#SVGID_00000098914460181922441190000012903988199725120150_);}
	.st3{fill:#138758;}
	.st4{fill:url(#SVGID_00000108270713898179919990000016363149310317987240_);}
	.st5{fill:url(#SVGID_00000058573320231874564740000002457200684223104174_);}
	.st6{fill:url(#SVGID_00000146487055227046791960000013568472253424392363_);}
	.st7{fill:url(#SVGID_00000132076619626383700100000007430559811008353722_);}
	.st8{fill:#5B5038;stroke:#5B5038;stroke-width:0.1746;stroke-miterlimit:10;}
</style>
<path class="st0" d="M205.6,0.6c-10.2,0-19.9,2.2-28.7,6.1c-24.7,11-52.7,10.3-77.6-0.1C57.5-10.7,0.6,14.1,0,71.3
	c0.6,57.2,57.5,82,99.3,64.7c25-10.4,52.8-10.4,77.8,0c41.8,17.4,98.7-7.5,99.3-64.7C276.3,32.3,244.6,0.6,205.6,0.6z"/>
<g>
	<g>
		<defs>
			<rect id="SVGID_1_" x="20" y="42.4" width="246.7" height="64.6"/>
		</defs>
		<clipPath id="SVGID_00000048496239215647126630000003963614636630743442_">
			<use xlink:href="#SVGID_1_"  style="overflow:visible;"/>
		</clipPath>
		<g style="clip-path:url(#SVGID_00000048496239215647126630000003963614636630743442_);">
			<g>
				<g>
					<defs>
						<rect id="SVGID_00000175282238735587697570000015579587886884524475_" x="21.3" y="42" width="244.7" height="63.2"/>
					</defs>
					<clipPath id="SVGID_00000016065848765771969950000015331552718711753403_">
						<use xlink:href="#SVGID_00000175282238735587697570000015579587886884524475_"  style="overflow:visible;"/>
					</clipPath>
					<g style="clip-path:url(#SVGID_00000016065848765771969950000015331552718711753403_);">
						<path class="st3" d="M254.8,62.5c-1-0.4-1.8-1-2.6-1.7c-0.7-0.7-1.3-1.6-1.7-2.5c-0.4-1-0.6-2-0.6-3.1s0.2-2.2,0.6-3.1
							c0.4-1,1-1.8,1.7-2.5s1.6-1.3,2.6-1.7s2-0.6,3.1-0.6c1.1,0,2.1,0.2,3.1,0.6c1,0.4,1.8,1,2.6,1.7c0.7,0.7,1.3,1.6,1.7,2.5
							c0.4,1,0.6,2,0.6,3.1s-0.2,2.1-0.6,3.1c-0.4,1-1,1.8-1.7,2.5s-1.6,1.3-2.6,1.7s-2,0.6-3.1,0.6
							C256.8,63.1,255.8,62.9,254.8,62.5z M251.9,57.7c0.3,0.8,0.8,1.5,1.4,2.1c0.6,0.6,1.3,1.1,2.1,1.4c0.8,0.3,1.6,0.5,2.5,0.5
							c0.9,0,1.7-0.2,2.5-0.5c0.8-0.3,1.5-0.8,2.1-1.4c0.6-0.6,1.1-1.3,1.4-2.1s0.5-1.6,0.5-2.5s-0.2-1.7-0.5-2.5s-0.8-1.5-1.4-2.1
							c-0.6-0.6-1.3-1.1-2.1-1.4c-0.8-0.3-1.6-0.5-2.5-0.5c-0.9,0-1.7,0.2-2.5,0.5s-1.5,0.8-2.1,1.4c-0.6,0.6-1.1,1.3-1.4,2.1
							c-0.3,0.8-0.5,1.6-0.5,2.5S251.6,56.9,251.9,57.7z M257.1,56.9v1.5c0,0.3-0.1,0.5-0.3,0.7c-0.2,0.2-0.5,0.3-0.7,0.3
							c-0.3,0-0.5-0.1-0.7-0.3s-0.3-0.5-0.3-0.7v-6.8c0-0.3,0.1-0.5,0.3-0.7s0.5-0.3,0.7-0.3h2.3c0.4,0,0.9,0.1,1.2,0.3
							c0.4,0.2,0.7,0.4,1,0.7s0.5,0.6,0.7,1c0.2,0.4,0.3,0.8,0.3,1.2c0,0.5-0.1,0.8-0.2,1.1c-0.2,0.3-0.3,0.6-0.6,0.8
							c-0.2,0.2-0.4,0.4-0.7,0.5c-0.2,0.1-0.4,0.2-0.5,0.3l1.7,1.3c0.2,0.2,0.4,0.5,0.4,0.8c0,0.2-0.1,0.5-0.2,0.7
							c-0.2,0.2-0.4,0.3-0.8,0.3c-0.2,0-0.5-0.1-0.7-0.2l-2.7-2.3L257.1,56.9L257.1,56.9z M257.1,52.5V55h1.2c0.3,0,0.6-0.1,0.9-0.4
							c0.3-0.3,0.4-0.6,0.4-0.9c0-0.3-0.1-0.6-0.4-0.9c-0.3-0.3-0.6-0.4-0.9-0.4L257.1,52.5L257.1,52.5z"/>
						<path class="st3" d="M22.3,64.1c0-3.5,1.5-6.2,4.7-8.1c2.6-1.6,5.8-2.3,9.6-2.3c2.6,0,5.2,0.5,7.6,1.6
							c3.1,1.4,4.7,3.2,4.7,5.5c0,1.1-0.4,2-1.1,2.9C47,64.5,46.1,65,45,65c-1.3,0-2.6-0.7-3.8-2.2c-1.2-1.4-2.9-2.2-5.1-2.2
							c-1.5,0-2.7,0.3-3.4,0.8c-0.7,0.5-1.1,1.2-1.1,2c0,1.4,1.6,2.5,4.8,3.4c4.9,1.4,7.9,2.3,9,2.9c3.2,1.8,4.8,4.5,4.8,8.1
							s-1.5,6.3-4.4,8.2c-2.5,1.6-5.7,2.4-9.4,2.4c-3.1,0-6.1-0.6-9.1-1.8c-3.8-1.6-5.7-3.7-5.7-6.3c0-1.1,0.4-2.1,1.1-3
							s1.7-1.3,2.8-1.3c1.7,0,3.2,0.9,4.6,2.7c1.3,1.8,3.5,2.7,6.4,2.7c1.2,0,2.1-0.2,2.9-0.6c1-0.5,1.5-1.3,1.5-2.4
							c0-1.4-1.6-2.5-4.7-3.4c-4.7-1.3-7.6-2.3-8.8-2.9C23.9,70.2,22.3,67.6,22.3,64.1z"/>
						<path class="st3" d="M130.3,73.7c0,0.1,0.1,0.4,0.1,0.7c0,0.3,0,0.6,0.1,0.9c0.2,1.6,1,2.9,2.4,4c1.4,1.1,2.9,1.6,4.6,1.6
							c1.7,0,3.4-0.8,5.3-2.4c0.9-0.8,1.8-1.2,2.7-1.2c1.2,0,2.3,0.4,3.1,1.1c0.9,0.8,1.3,1.8,1.3,3c0,2.2-1.6,4-4.8,5.3
							c-2.6,1.1-5.1,1.6-7.7,1.6c-5.2,0-9.3-1.5-12.4-4.6s-4.6-7.2-4.6-12.4c0-5.1,1.5-9.3,4.6-12.6s7.1-5,12.2-5
							c4.5,0,8.1,1.4,10.9,4.3c2.8,2.9,4.2,6.6,4.2,11.1c0,1.5-0.3,2.7-0.9,3.4c-0.6,0.7-1.6,1.1-3.1,1.1L130.3,73.7L130.3,73.7z
							 M143.6,66.8c-0.6-3.9-2.8-5.9-6.6-5.9c-1.7,0-3.2,0.6-4.4,1.7c-1.2,1.1-2,2.5-2.2,4.3L143.6,66.8L143.6,66.8z"/>
						<path class="st3" d="M163.7,73.7c0,0.1,0.1,0.4,0.1,0.7c0,0.3,0,0.6,0.1,0.9c0.2,1.6,1,2.9,2.4,4s2.9,1.6,4.6,1.6
							c1.7,0,3.4-0.8,5.3-2.4c0.9-0.8,1.8-1.2,2.7-1.2c1.2,0,2.3,0.4,3.1,1.1c0.9,0.8,1.3,1.8,1.3,3c0,2.2-1.6,4-4.8,5.3
							c-2.6,1.1-5.1,1.6-7.7,1.6c-5.2,0-9.3-1.5-12.4-4.6c-3.1-3.1-4.6-7.2-4.6-12.4c0-5.1,1.5-9.3,4.6-12.6s7.1-5,12.2-5
							c4.5,0,8.1,1.4,10.9,4.3c2.8,2.9,4.2,6.6,4.2,11.1c0,1.5-0.3,2.7-0.9,3.4c-0.6,0.7-1.6,1.1-3.1,1.1L163.7,73.7L163.7,73.7z
							 M176.9,66.8c-0.6-3.9-2.8-5.9-6.6-5.9c-1.7,0-3.2,0.6-4.4,1.7c-1.2,1.1-2,2.5-2.2,4.3L176.9,66.8L176.9,66.8z"/>
						<path class="st3" d="M190.1,47.5c0-1.5,0.4-2.7,1.2-3.7s2-1.5,3.4-1.5s2.6,0.5,3.3,1.5c0.8,1,1.2,2.2,1.2,3.7v35
							c0,1.5-0.4,2.7-1.3,3.8c-0.9,1-2,1.6-3.5,1.6c-1.6,0-2.7-0.7-3.5-2c-0.6-1-0.9-2.4-0.9-4.1V47.5H190.1z"/>
						<path class="st3" d="M209.9,42c1.3,0,2.4,0.5,3.3,1.4c0.9,0.9,1.4,2,1.4,3.3c0,1.2-0.4,2.2-1.3,3.1c-0.9,0.9-2,1.3-3.2,1.3
							c-1.5,0-2.7-0.5-3.5-1.4s-1.2-2.2-1.2-3.7c0-1,0.5-1.9,1.5-2.7C207.9,42.4,208.9,42,209.9,42z M205.4,59.1
							c0-1.3,0.4-2.4,1.3-3.4c0.9-1,2-1.4,3.3-1.4c1.2,0,2.2,0.4,3.2,1.2c0.9,0.8,1.4,1.8,1.4,3v24.4c0,1.3-0.5,2.4-1.4,3.4
							s-2,1.5-3.2,1.5c-1.4,0-2.5-0.5-3.3-1.6s-1.2-2.3-1.2-3.7V59.1H205.4z"/>
						<path class="st3" d="M224,54.3c1.1,0,2.1,0.3,3,1c0.8,0.7,1.4,1.6,1.8,2.8c1.4-1.5,2.7-2.6,4.1-3.2c1.3-0.7,3-1,4.9-1
							c3.5,0,6.3,1.2,8.4,3.6c1.9,2.2,2.9,5.2,2.9,8.8v16.1c0,1.6-0.4,2.9-1.1,3.9c-0.9,1.2-2.1,1.8-3.6,1.8c-1.7,0-3-0.8-3.8-2.3
							c-0.6-1.2-0.9-2.7-0.9-4.6V67.4c0-1.7-0.5-3-1.4-4.1c-0.9-1-2.2-1.5-4-1.5c-0.6,0-1.3,0.2-1.8,0.5c-0.6,0.3-1.1,0.7-1.7,1.2
							c-0.8,0.7-1.3,1.8-1.5,3.2c-0.3,1.4-0.4,2.9-0.4,4.4c0,0.9,0.1,2.3,0.2,4.2c0.1,1.9,0.2,3.3,0.2,4.3c0,2.4-0.2,4.2-0.6,5.4
							c-0.7,2-2,3-4,3c-1.7,0-3-0.7-3.8-2c-0.7-1.1-1-2.5-1-4.4V59.4c0-1.4,0.4-2.5,1.2-3.6C221.6,54.8,222.7,54.3,224,54.3z"/>
						
							<linearGradient id="SVGID_00000008869118959713467040000014354092633315411593_" gradientUnits="userSpaceOnUse" x1="77.4662" y1="5044.5762" x2="79.7961" y2="5009.4526" gradientTransform="matrix(1 0 0 1 0 -4956)">
							<stop  offset="0.1207" style="stop-color:#128858"/>
							<stop  offset="0.1701" style="stop-color:#19905D"/>
							<stop  offset="0.279" style="stop-color:#22A268"/>
							<stop  offset="0.38" style="stop-color:#28AD6F"/>
							<stop  offset="0.4648" style="stop-color:#29B372"/>
							<stop  offset="0.5883" style="stop-color:#24A56A"/>
							<stop  offset="0.8231" style="stop-color:#158A59"/>
							<stop  offset="0.848" style="stop-color:#128858"/>
						</linearGradient>
						<path style="fill:url(#SVGID_00000008869118959713467040000014354092633315411593_);" d="M81.6,54.2c-0.2,0.1-1.3,0.5-2.5,2.5
							c-1,1.7-1.7,3.6-2.4,5.6c-2,5.5-3.6,11.1-4.8,16.8c-0.3,1.5-0.6,2.9-0.9,4.4c-0.1,0.8-1.1,3.7-0.7,4.4c0.4,0.7,3.4,0.5,4,0.4
							c1.4-0.1,2.8-0.4,3.9-1.3c1.5-1.2,2.1-3.2,2.7-5.1c1.8-6.1,3.7-12.3,5.5-18.4c0.1-0.2,0.1-0.3,0.1-0.5c0-0.3-0.1-0.6-0.3-0.8
							c-1.2-2.4-2-5.8-3.1-8.2C82.6,53.7,82.8,53.8,81.6,54.2z"/>
						
							<linearGradient id="SVGID_00000161616624827107906330000013214359881205818768_" gradientUnits="userSpaceOnUse" x1="59.9082" y1="5043.6143" x2="62.1722" y2="5009.4819" gradientTransform="matrix(1 0 0 1 0 -4956)">
							<stop  offset="0" style="stop-color:#29B372"/>
							<stop  offset="1" style="stop-color:#128858"/>
						</linearGradient>
						<path style="fill:url(#SVGID_00000161616624827107906330000013214359881205818768_);" d="M45.3,52.9c3.6,1.4,6.3,4.7,8.3,8.2
							c2,3.7,3.4,7.7,4.7,11.6c1.6,4.7,3.6,11,6.6,13.6c1.6,1.4,3.7,2,5.5,2.2c2.1,0.2,4,0.1,6.4-0.6c-1.6-0.8-2.8-2-3.8-3.5
							c-1-1.6-1.7-3.3-2.4-5c-2.9-7.3-5.5-14.6-9-21.6c-0.7-1.5-1.6-3.1-3.1-3.8c-1-0.6-2.2-0.6-3.3-0.6
							C51.9,53.1,48.6,53,45.3,52.9z"/>
						
							<linearGradient id="SVGID_00000147181875571119765840000014551169259123720087_" gradientUnits="userSpaceOnUse" x1="113.6268" y1="5043.8936" x2="111.3412" y2="5009.438" gradientTransform="matrix(1 0 0 1 0 -4956)">
							<stop  offset="0" style="stop-color:#29B372"/>
							<stop  offset="1" style="stop-color:#128858"/>
						</linearGradient>
						<path style="fill:url(#SVGID_00000147181875571119765840000014551169259123720087_);" d="M127.9,52.9
							c-3.6,1.4-6.3,4.7-8.3,8.2c-2,3.7-3.4,7.7-4.7,11.6c-1.6,4.7-3.5,11.1-7.7,14.8c-1.6,1.4-2.9,1.1-4.7,1.3
							c-1.8,0.2-3.3-0.1-5.2-0.7c-0.3-0.1-0.4-0.6-0.1-0.7c1.2-0.8,2.2-1.8,3-3.1c1-1.5,1.7-3.3,2.4-5c2.9-7.3,5.5-14.6,9-21.6
							c0.7-1.5,1.6-3.1,3.1-3.8c1-0.6,2.2-0.6,3.3-0.6C121.3,53.1,124.6,53,127.9,52.9z"/>
						
							<linearGradient id="SVGID_00000154425250372915522730000003977050606786406274_" gradientUnits="userSpaceOnUse" x1="83.6827" y1="5009.4087" x2="103.712" y2="5045.8857" gradientTransform="matrix(1 0 0 1 0 -4956)">
							<stop  offset="0" style="stop-color:#29B372"/>
							<stop  offset="0.2114" style="stop-color:#21A067"/>
							<stop  offset="0.4679" style="stop-color:#1A925E"/>
							<stop  offset="0.7292" style="stop-color:#158A59"/>
							<stop  offset="1" style="stop-color:#128858"/>
						</linearGradient>
						<path style="fill:url(#SVGID_00000154425250372915522730000003977050606786406274_);" d="M81.2,54.5c0,0,0.1,0.1,0.1,0.2
							c2,2.6,3.5,5.5,4.8,8.5c0.7,1.8,1.4,3.6,1.9,5.4c1.6,5,2.9,10.1,5.2,14.9c0.6,1.3,1.3,2.6,2.4,3.6c1.3,1.2,3.1,1.7,4.9,1.8
							c1.8,0.1,3.2,0.2,5.3-0.5c-1.7-1.4-2.6-2.8-3.2-4.6c-1.6-5-3.3-10.1-4.9-15.1c-1.1-3.5-2.3-6.9-4.1-10.1c-1-1.7-2.2-3.4-4-4.4
							c-1.3-0.7-2.9-1-4.3-0.9c-0.8,0.1-1.5,0.2-2.2,0.4c-0.4,0.1-0.7,0.3-1.1,0.4c-0.2,0.1-0.3,0.1-0.5,0.2
							C81.2,54.4,81.1,54.5,81.2,54.5z"/>
						<path class="st8" d="M25.5,94.4c-0.8,0-1.4,0.3-1.9,0.8c-0.4,0.4-0.5,1-0.5,1.8c0,0.7,0.2,1.3,0.6,1.7c0.4,0.5,1,0.7,1.8,0.7
							c0.7,0,1.2-0.2,1.6-0.5c0.3-0.3,0.7-0.7,1-1c0.2,0,0.3,0,0.4,0.1s0.2,0.2,0.2,0.3v0.1c0,0,0,0.1-0.1,0.2
							c-0.2,0.5-0.6,0.8-1.1,1.1c-0.5,0.3-1.1,0.4-1.7,0.4c-1.2,0-2.2-0.3-2.8-0.8c-0.6-0.5-0.9-1.3-0.9-2.4c0-1,0.3-1.7,0.8-2.3
							c0.6-0.6,1.5-0.9,2.6-0.9c0.7,0,1.2,0.1,1.7,0.3c0.5,0.2,0.9,0.6,1.2,1c0.1,0.1,0.1,0.2,0.2,0.3c0,0.1,0.1,0.2,0.1,0.2
							c0,0.1-0.1,0.2-0.2,0.3c-0.1,0.1-0.2,0.1-0.4,0.1c-0.1,0-0.3-0.1-0.5-0.4s-0.4-0.6-0.6-0.7C26.6,94.5,26.1,94.4,25.5,94.4z"/>
						<path class="st8" d="M32.7,96.7c0-0.3-0.1-0.5-0.3-0.6C32.2,96,31.9,96,31.5,96c-0.5,0-0.8,0.1-1,0.5C30.3,96.8,30.2,97,30,97
							c-0.1,0-0.3,0-0.4-0.1s-0.1-0.1-0.1-0.2c0-0.4,0.2-0.7,0.7-0.9c0.4-0.2,0.9-0.3,1.4-0.3c0.6,0,1,0.1,1.4,0.3
							c0.4,0.2,0.6,0.6,0.6,1v3.1c0,0.2-0.1,0.4-0.4,0.4c-0.2,0-0.3,0-0.3-0.1c-0.1-0.1-0.1-0.2-0.1-0.4v-0.1
							c-0.3,0.3-0.5,0.5-0.8,0.5c-0.3,0.1-0.6,0.1-1.1,0.1s-0.8-0.1-1.1-0.4c-0.3-0.3-0.4-0.6-0.4-1c0-0.5,0.3-0.9,0.9-1.1
							c0.2-0.1,0.8-0.2,1.6-0.3C32.4,97.1,32.7,97,32.7,96.7z M30.3,98.7c0,0.2,0.1,0.4,0.3,0.5c0.2,0.1,0.4,0.2,0.7,0.2
							c0.5,0,0.9-0.2,1.2-0.5c0.2-0.3,0.3-0.6,0.3-1.1v-0.2c-0.1,0-0.5,0.1-1.1,0.2C30.7,98,30.3,98.3,30.3,98.7z"/>
						<path class="st8" d="M35.1,94c0-0.1,0.1-0.2,0.1-0.3c0.1-0.1,0.2-0.1,0.3-0.1c0.1,0,0.3,0,0.4,0.1S36,93.9,36,94v5.6
							c0,0.1-0.1,0.2-0.1,0.3c-0.1,0.1-0.2,0.1-0.3,0.1c-0.1,0-0.3,0-0.3-0.1c-0.1-0.1-0.1-0.2-0.1-0.3V94H35.1z"/>
						<path class="st8" d="M39.6,95.3c0.8,0,1.5,0.2,1.9,0.7c0.4,0.4,0.6,1,0.6,1.7s-0.2,1.2-0.6,1.7c-0.5,0.5-1.1,0.7-1.9,0.7
							c-0.9,0-1.5-0.2-2-0.6c-0.4-0.4-0.7-1-0.7-1.7s0.2-1.3,0.6-1.7C38,95.5,38.7,95.3,39.6,95.3z M39.5,99.4c0.6,0,1-0.2,1.3-0.5
							c0.2-0.3,0.4-0.7,0.4-1.2s-0.1-0.9-0.3-1.2c-0.3-0.4-0.7-0.5-1.3-0.5s-1,0.2-1.3,0.5c-0.2,0.3-0.4,0.7-0.4,1.2
							s0.1,0.9,0.3,1.2C38.5,99.2,38.9,99.4,39.5,99.4z"/>
						<path class="st8" d="M43.3,95.6c0-0.1,0-0.2,0.1-0.2c0.1-0.1,0.2-0.1,0.3-0.1c0.2,0,0.3,0,0.4,0.1c0.1,0.1,0.1,0.2,0.1,0.4
							v0.3c0.1-0.3,0.3-0.5,0.5-0.6c0.3-0.1,0.5-0.2,0.9-0.2c0.2,0,0.3,0,0.4,0.1c0.1,0.1,0.1,0.2,0.1,0.3c0,0.2-0.1,0.3-0.3,0.3
							c0,0-0.2,0-0.6,0.1c-0.4,0.1-0.6,0.2-0.8,0.5s-0.2,0.6-0.2,0.9v2c0,0.3-0.1,0.4-0.4,0.4c-0.1,0-0.2,0-0.3-0.1
							s-0.2-0.1-0.2-0.2V95.6L43.3,95.6z"/>
						<path class="st8" d="M47.4,93.7c0.2,0,0.3,0.1,0.4,0.1c0.1,0.1,0.2,0.2,0.2,0.4c0,0.1-0.1,0.3-0.2,0.4
							c-0.1,0.1-0.2,0.1-0.4,0.1s-0.3,0-0.4-0.1c-0.1-0.1-0.2-0.2-0.2-0.4c0-0.1,0.1-0.3,0.2-0.4S47.3,93.7,47.4,93.7z M46.9,95.7
							c0-0.1,0.1-0.2,0.1-0.3c0.1-0.1,0.2-0.1,0.3-0.1s0.2,0,0.3,0.1s0.1,0.2,0.1,0.3v3.9c0,0.1-0.1,0.2-0.1,0.3
							c-0.1,0.1-0.2,0.1-0.3,0.1s-0.2,0-0.3-0.1s-0.1-0.1-0.1-0.2V95.7z"/>
						<path class="st8" d="M49.8,97.9c0,0.4,0.1,0.8,0.4,1c0.3,0.3,0.7,0.4,1.2,0.4c0.6,0,1-0.2,1.4-0.6c0.1-0.2,0.3-0.3,0.5-0.3
							c0.1,0,0.3,0,0.4,0.1c0.1,0.1,0.2,0.2,0.2,0.3c0,0.1,0,0.1-0.1,0.2c0,0.1-0.1,0.1-0.1,0.2c-0.2,0.3-0.5,0.5-0.9,0.6
							S52,100,51.6,100c-0.8,0-1.5-0.2-1.9-0.6s-0.7-1-0.7-1.7s0.2-1.3,0.7-1.8c0.5-0.4,1.1-0.6,2-0.6c0.7,0,1.2,0.2,1.6,0.7
							c0.4,0.4,0.6,0.9,0.6,1.5c0,0.1,0,0.2,0,0.2c0,0.1-0.1,0.2-0.3,0.2h-0.1L49.8,97.9L49.8,97.9z M52.8,97.2
							c-0.1-0.4-0.2-0.7-0.4-0.9c-0.2-0.2-0.6-0.4-1-0.4s-0.8,0.1-1.1,0.3c-0.3,0.2-0.5,0.5-0.5,0.9L52.8,97.2L52.8,97.2z"/>
						<path class="st8" d="M56.8,96.7c0.1,0,0.2,0,0.3,0.1s0.1,0.2,0.1,0.3v0.1c0,0.1,0,0.2-0.1,0.2c-0.1,0.1-0.2,0.1-0.3,0.1h-1.9
							c-0.1,0-0.2,0-0.3-0.1s-0.1-0.2-0.1-0.3c0-0.1,0-0.2,0.1-0.3c0.1-0.1,0.1-0.1,0.3-0.1L56.8,96.7L56.8,96.7z"/>
						<path class="st8" d="M58.1,95.4v-0.2c0-0.6,0.1-0.9,0.3-1.2c0.2-0.3,0.7-0.4,1.3-0.4c0.2,0,0.3,0,0.4,0.1
							c0.1,0.1,0.1,0.1,0.1,0.3c0,0.2-0.2,0.3-0.6,0.3c-0.4,0-0.6,0.2-0.6,0.6v0.4h0.6c0.2,0,0.3,0,0.4,0.1c0.1,0.1,0.1,0.2,0.1,0.3
							c0,0.1-0.1,0.2-0.2,0.2C59.8,96,59.6,96,59.4,96h-0.5v3.6c0,0.1,0,0.2-0.1,0.3c-0.1,0.1-0.2,0.1-0.3,0.1s-0.3,0-0.3-0.1
							c-0.1-0.1-0.1-0.2-0.1-0.3v-3.5h-0.4c-0.2,0-0.3,0-0.4-0.1c-0.1,0-0.1-0.1-0.1-0.3c0-0.1,0-0.2,0.1-0.3
							c0.1-0.1,0.2-0.1,0.4-0.1L58.1,95.4L58.1,95.4z"/>
						<path class="st8" d="M61.2,95.6c0-0.1,0-0.2,0.1-0.2c0.1-0.1,0.2-0.1,0.3-0.1c0.2,0,0.3,0,0.4,0.1c0.1,0.1,0.1,0.2,0.1,0.4
							v0.3c0.1-0.3,0.3-0.5,0.5-0.6c0.3-0.1,0.5-0.2,0.9-0.2c0.2,0,0.3,0,0.4,0.1c0.1,0.1,0.1,0.2,0.1,0.3c0,0.2-0.1,0.3-0.3,0.3
							c0,0-0.2,0-0.6,0.1c-0.4,0.1-0.6,0.2-0.8,0.5s-0.2,0.6-0.2,0.9v2c0,0.3-0.1,0.4-0.4,0.4c-0.1,0-0.2,0-0.3-0.1
							s-0.2-0.1-0.2-0.2V95.6L61.2,95.6z"/>
						<path class="st8" d="M65.4,97.9c0,0.4,0.1,0.8,0.4,1c0.3,0.3,0.7,0.4,1.2,0.4c0.6,0,1-0.2,1.4-0.6c0.1-0.2,0.3-0.3,0.5-0.3
							c0.1,0,0.3,0,0.4,0.1s0.2,0.2,0.2,0.3c0,0.1,0,0.1-0.1,0.2c0,0.1-0.1,0.1-0.1,0.2c-0.2,0.3-0.5,0.5-0.9,0.6s-0.8,0.2-1.2,0.2
							c-0.8,0-1.5-0.2-1.9-0.6c-0.4-0.4-0.7-1-0.7-1.7s0.2-1.3,0.7-1.8c0.5-0.4,1.1-0.6,2-0.6c0.7,0,1.2,0.2,1.6,0.7
							c0.4,0.4,0.6,0.9,0.6,1.5c0,0.1,0,0.2,0,0.2c0,0.1-0.1,0.2-0.3,0.2h-0.3L65.4,97.9L65.4,97.9z M68.3,97.2
							c-0.1-0.4-0.2-0.7-0.4-0.9c-0.2-0.2-0.6-0.4-1-0.4s-0.8,0.1-1.1,0.3c-0.3,0.2-0.5,0.5-0.5,0.9L68.3,97.2L68.3,97.2z"/>
						<path class="st8" d="M71.1,97.9c0,0.4,0.1,0.8,0.4,1c0.3,0.3,0.7,0.4,1.2,0.4c0.6,0,1-0.2,1.4-0.6c0.1-0.2,0.3-0.3,0.5-0.3
							c0.1,0,0.3,0,0.4,0.1s0.2,0.2,0.2,0.3c0,0.1,0,0.1-0.1,0.2c0,0.1-0.1,0.1-0.1,0.2c-0.2,0.3-0.5,0.5-0.9,0.6s-0.8,0.2-1.2,0.2
							c-0.8,0-1.5-0.2-1.9-0.6s-0.7-1-0.7-1.7s0.2-1.3,0.7-1.8c0.5-0.4,1.1-0.6,2-0.6c0.7,0,1.2,0.2,1.6,0.7
							c0.4,0.4,0.6,0.9,0.6,1.5c0,0.1,0,0.2,0,0.2c0,0.1-0.1,0.2-0.3,0.2h-0.1L71.1,97.9L71.1,97.9z M74.1,97.2
							c-0.1-0.4-0.2-0.7-0.4-0.9c-0.2-0.2-0.6-0.4-1-0.4s-0.8,0.1-1.1,0.3c-0.3,0.2-0.5,0.5-0.5,0.9L74.1,97.2L74.1,97.2z"/>
						<path class="st8" d="M81.4,99.4c0.3,0,0.6-0.1,0.8-0.2c0.3-0.1,0.4-0.3,0.4-0.6c0-0.3-0.3-0.6-0.8-0.7
							c-0.6-0.2-1.1-0.3-1.6-0.5c-0.6-0.3-0.9-0.7-0.9-1.2c0-0.4,0.2-0.8,0.5-1.1c0.3-0.3,0.8-0.4,1.3-0.4h0.6
							c0.4,0,0.8,0.1,1.2,0.4c0.5,0.3,0.7,0.6,0.7,1c0,0.1-0.1,0.2-0.2,0.3c-0.1,0.1-0.2,0.1-0.4,0.1c-0.1,0-0.3-0.2-0.5-0.5
							c-0.3-0.4-0.7-0.5-1.2-0.5c-0.3,0-0.5,0.1-0.7,0.2s-0.3,0.3-0.3,0.5c0,0.3,0.3,0.5,0.9,0.7c1,0.3,1.5,0.5,1.6,0.5
							c0.6,0.3,0.9,0.7,0.9,1.3c0,0.5-0.2,0.9-0.7,1.2c-0.4,0.2-0.9,0.4-1.5,0.4s-1.1-0.1-1.5-0.4c-0.5-0.3-0.8-0.7-0.8-1.2
							c0-0.1,0.1-0.3,0.2-0.3c0.1-0.1,0.3-0.1,0.4-0.1c0.2,0,0.3,0.2,0.5,0.6C80.3,99.1,80.7,99.4,81.4,99.4z"/>
						<path class="st8" d="M86,98.8c0.1-0.4,0.2-0.8,0.3-1.3c0-0.1,0.2-0.6,0.4-1.3l0.3-0.8c0-0.1,0-0.1,0-0.2s0-0.1,0.1-0.2
							c0-0.1,0.1-0.2,0.2-0.2c0.1-0.1,0.2-0.1,0.3-0.1c0.1,0,0.3,0,0.4,0.1s0.2,0.1,0.2,0.3l0.9,3c0.1,0.3,0.1,0.5,0.2,0.6
							c0,0.1,0,0.2,0,0.3c0.1-0.3,0.2-0.7,0.3-1.1c0.1-0.4,0.3-0.9,0.5-1.6l0.3-0.9l0.1-0.4c0.1-0.2,0.2-0.3,0.5-0.3
							c0.4,0,0.6,0.2,0.6,0.5c0,0-0.1,0.4-0.4,1.1c-0.3,0.8-0.6,1.7-0.9,2.6l-0.2,0.6l-0.2,0.2c-0.1,0.2-0.3,0.3-0.6,0.3
							c-0.1,0-0.3,0-0.4-0.1s-0.2-0.1-0.2-0.3l-0.9-2.8c0-0.1-0.1-0.3-0.1-0.4c0-0.2-0.1-0.3-0.1-0.5c0,0.3-0.1,0.7-0.2,1
							s-0.2,0.8-0.5,1.7c-0.1,0.4-0.2,0.7-0.4,1.1c-0.1,0.2-0.3,0.3-0.6,0.3c-0.2,0-0.3,0-0.4-0.1s-0.2-0.1-0.2-0.3L83.7,95l0,0
							c0-0.1,0.1-0.2,0.2-0.3c0.1-0.1,0.3-0.1,0.4-0.1s0.2,0,0.3,0.1c0.1,0.1,0.1,0.2,0.2,0.3c0.1,0.1,0.1,0.3,0.2,0.5
							s0.1,0.4,0.2,0.6c0.2,0.6,0.3,1,0.4,1.3C85.7,97.9,85.9,98.4,86,98.8z"/>
						<path class="st8" d="M93.1,97.6c0,0.5,0.1,0.9,0.4,1.2c0.3,0.3,0.7,0.5,1.3,0.5c0.6,0,1.1-0.2,1.5-0.7
							c0.2-0.2,0.3-0.3,0.5-0.3s0.3,0,0.4,0.1s0.2,0.2,0.2,0.3c0,0.1,0,0.1-0.1,0.2c0,0.1-0.1,0.2-0.2,0.2c-0.2,0.3-0.6,0.6-1,0.7
							c-0.4,0.2-0.8,0.2-1.3,0.2c-0.9,0-1.6-0.2-2.1-0.7S92,98.2,92,97.4c0-0.9,0.3-1.5,0.8-2s1.2-0.8,2.2-0.8
							c0.7,0,1.3,0.3,1.8,0.8c0.4,0.5,0.7,1,0.7,1.7c0,0.1,0,0.2,0,0.3c0,0.1-0.2,0.2-0.4,0.3H97L93.1,97.6L93.1,97.6z M96.3,96.8
							c-0.1-0.4-0.2-0.8-0.4-1c-0.3-0.3-0.6-0.4-1.1-0.4s-0.9,0.1-1.2,0.4c-0.3,0.3-0.5,0.6-0.5,1H96.3z"/>
						<path class="st8" d="M99.3,97.6c0,0.5,0.1,0.9,0.4,1.2c0.3,0.3,0.7,0.5,1.3,0.5c0.6,0,1.1-0.2,1.5-0.7
							c0.2-0.2,0.3-0.3,0.5-0.3s0.3,0,0.4,0.1s0.2,0.2,0.2,0.3c0,0.1,0,0.1-0.1,0.2c0,0.1-0.1,0.2-0.2,0.2c-0.2,0.3-0.6,0.6-1,0.7
							c-0.4,0.2-0.8,0.2-1.3,0.2c-0.9,0-1.6-0.2-2.1-0.7s-0.7-1.1-0.7-1.9c0-0.9,0.3-1.5,0.8-2s1.2-0.8,2.2-0.8
							c0.7,0,1.3,0.3,1.8,0.8c0.4,0.5,0.7,1,0.7,1.7c0,0.1,0,0.2,0,0.3c0,0.1-0.2,0.2-0.4,0.3h-0.1L99.3,97.6L99.3,97.6z
							 M102.5,96.8c-0.1-0.4-0.2-0.8-0.4-1c-0.3-0.3-0.6-0.4-1.1-0.4s-0.9,0.1-1.2,0.4c-0.3,0.3-0.5,0.6-0.5,1H102.5z"/>
						<path class="st8" d="M104.8,94.7v-1.2c0-0.1,0.1-0.2,0.1-0.3c0.1-0.1,0.2-0.1,0.4-0.1c0.2,0,0.3,0,0.4,0.1s0.1,0.2,0.1,0.3
							v1.2h0.5c0.2,0,0.3,0,0.5,0.1c0.1,0.1,0.2,0.2,0.2,0.3c0,0.1-0.1,0.3-0.2,0.3c-0.1,0.1-0.3,0.1-0.5,0.1h-0.5v2.9
							c0,0.5,0.2,0.8,0.6,0.9c0.4,0,0.6,0.2,0.6,0.4c0,0.2-0.1,0.3-0.3,0.3c-0.1,0-0.3,0.1-0.5,0.1c-0.6,0-1-0.1-1.2-0.4
							c-0.2-0.2-0.3-0.6-0.3-1.2v-3h-0.4c-0.2,0-0.3,0-0.4-0.1s-0.1-0.2-0.1-0.3c0-0.2,0.1-0.3,0.2-0.3c0.1-0.1,0.3-0.1,0.4-0.1
							L104.8,94.7L104.8,94.7z"/>
						<path class="st8" d="M111.2,95.1c0-0.1,0.1-0.2,0.2-0.3c0.1-0.1,0.2-0.1,0.4-0.1c0.2,0,0.4,0.1,0.4,0.2
							c0.1,0.1,0.1,0.3,0.1,0.5c0.3-0.3,0.5-0.4,0.8-0.5s0.6-0.2,0.9-0.2c0.8,0,1.5,0.3,1.9,0.8s0.6,1.1,0.6,1.9s-0.2,1.4-0.6,1.9
							c-0.4,0.6-1.1,0.8-1.9,0.8c-0.3,0-0.7-0.1-1-0.2c-0.2-0.1-0.5-0.3-0.8-0.5v2.2c0,0.1-0.1,0.2-0.2,0.3
							c-0.1,0.1-0.2,0.1-0.4,0.1c-0.2,0-0.3,0-0.4-0.1s-0.1-0.2-0.1-0.3L111.2,95.1L111.2,95.1z M113.9,99.3c0.5,0,0.9-0.2,1.2-0.6
							c0.2-0.3,0.3-0.8,0.3-1.3c0-0.6-0.1-1.1-0.3-1.4c-0.3-0.4-0.7-0.6-1.3-0.6c-0.6,0-1,0.2-1.3,0.6c-0.2,0.3-0.3,0.8-0.3,1.3
							c0,0.6,0.1,1,0.4,1.4C112.9,99.1,113.3,99.3,113.9,99.3z"/>
						<path class="st8" d="M117.8,95c0-0.1,0.1-0.2,0.1-0.3c0.1-0.1,0.2-0.1,0.3-0.1c0.2,0,0.3,0.1,0.4,0.1c0.1,0.1,0.1,0.2,0.1,0.4
							v0.4c0.1-0.3,0.3-0.5,0.6-0.7c0.3-0.2,0.6-0.3,0.9-0.3c0.2,0,0.3,0,0.4,0.1s0.2,0.2,0.2,0.4c0,0.2-0.1,0.3-0.3,0.4
							c0,0-0.2,0-0.6,0.1s-0.7,0.3-0.9,0.6c-0.2,0.3-0.3,0.6-0.3,1.1v2.3c0,0.3-0.2,0.4-0.5,0.4c-0.1,0-0.3,0-0.4-0.1
							s-0.2-0.1-0.2-0.3L117.8,95L117.8,95z"/>
						<path class="st8" d="M124,94.6c0.9,0,1.6,0.3,2.1,0.8s0.7,1.1,0.7,2c0,0.8-0.2,1.4-0.7,1.9s-1.2,0.8-2,0.8
							c-0.9,0-1.7-0.2-2.1-0.7c-0.5-0.5-0.7-1.1-0.7-2c0-0.8,0.2-1.5,0.7-2C122.4,94.9,123.1,94.6,124,94.6z M124,99.3
							c0.6,0,1.1-0.2,1.4-0.6c0.3-0.3,0.4-0.8,0.4-1.4s-0.1-1.1-0.3-1.4c-0.3-0.4-0.7-0.6-1.4-0.6c-0.6,0-1.1,0.2-1.4,0.6
							c-0.3,0.3-0.4,0.8-0.4,1.4s0.1,1,0.4,1.4C122.9,99.1,123.4,99.3,124,99.3z"/>
						<path class="st8" d="M128.1,94.7v-1.2c0-0.1,0.1-0.2,0.1-0.3c0.1-0.1,0.2-0.1,0.4-0.1c0.2,0,0.3,0,0.4,0.1
							c0.1,0.1,0.1,0.2,0.1,0.3v1.2h0.5c0.2,0,0.3,0,0.5,0.1c0.1,0.1,0.2,0.2,0.2,0.3c0,0.1-0.1,0.3-0.2,0.3
							c-0.1,0.1-0.3,0.1-0.5,0.1h-0.5v2.9c0,0.5,0.2,0.8,0.6,0.9c0.4,0,0.6,0.2,0.6,0.4c0,0.2-0.1,0.3-0.3,0.3
							c-0.1,0-0.3,0.1-0.5,0.1c-0.6,0-1-0.1-1.2-0.4c-0.2-0.2-0.3-0.6-0.3-1.2v-3h-0.4c-0.2,0-0.3,0-0.4-0.1s-0.1-0.2-0.1-0.3
							c0-0.2,0.1-0.3,0.2-0.3c0.1-0.1,0.3-0.1,0.4-0.1L128.1,94.7L128.1,94.7z"/>
						<path class="st8" d="M132,97.6c0,0.5,0.1,0.9,0.4,1.2c0.3,0.3,0.7,0.5,1.3,0.5s1.1-0.2,1.5-0.7c0.2-0.2,0.3-0.3,0.5-0.3
							s0.3,0,0.4,0.1c0.1,0.1,0.2,0.2,0.2,0.3c0,0.1,0,0.1-0.1,0.2c0,0.1-0.1,0.2-0.2,0.2c-0.2,0.3-0.6,0.6-1,0.7
							c-0.4,0.2-0.8,0.2-1.3,0.2c-0.9,0-1.6-0.2-2.1-0.7s-0.7-1.1-0.7-1.9c0-0.9,0.3-1.5,0.8-2s1.2-0.8,2.2-0.8
							c0.7,0,1.3,0.3,1.8,0.8c0.4,0.5,0.7,1,0.7,1.7c0,0.1,0,0.2,0,0.3c0,0.1-0.2,0.2-0.4,0.3h-0.1L132,97.6L132,97.6z M135.2,96.8
							c-0.1-0.4-0.2-0.8-0.4-1c-0.3-0.3-0.6-0.4-1.1-0.4s-0.9,0.1-1.2,0.4s-0.5,0.6-0.5,1H135.2z"/>
						<path class="st8" d="M138.1,92.8c0.2,0,0.3,0.1,0.5,0.2c0.1,0.1,0.2,0.3,0.2,0.4c0,0.2-0.1,0.3-0.2,0.4
							c-0.1,0.1-0.3,0.2-0.5,0.2s-0.3-0.1-0.5-0.1c-0.1-0.1-0.2-0.2-0.2-0.4c0-0.2,0.1-0.3,0.2-0.4
							C137.8,92.8,137.9,92.8,138.1,92.8z M137.6,95.1c0-0.1,0.1-0.2,0.2-0.3c0.1-0.1,0.2-0.1,0.4-0.1c0.1,0,0.3,0,0.4,0.1
							c0.1,0.1,0.1,0.2,0.1,0.3v4.5c0,0.1-0.1,0.2-0.2,0.3c-0.1,0.1-0.2,0.1-0.4,0.1c-0.1,0-0.3,0-0.4-0.1c-0.1-0.1-0.2-0.2-0.2-0.3
							L137.6,95.1L137.6,95.1z"/>
						<path class="st8" d="M140,95.1c0-0.1,0.1-0.2,0.1-0.3c0.1-0.1,0.2-0.1,0.3-0.1c0.2,0,0.4,0.1,0.5,0.2c0,0.1,0.1,0.3,0.1,0.5
							c0.2-0.3,0.5-0.5,0.9-0.6c0.3-0.1,0.7-0.1,1.2-0.1s1,0.2,1.3,0.5s0.4,0.7,0.4,1.3v3.2c0,0.1-0.1,0.2-0.1,0.3
							c-0.1,0.1-0.2,0.1-0.4,0.1s-0.3,0-0.4-0.1c-0.1-0.1-0.1-0.2-0.1-0.3v-2.5c0-0.6,0-1-0.1-1.2c-0.2-0.4-0.5-0.5-1-0.5
							c-0.6,0-1,0.2-1.3,0.6c-0.2,0.3-0.3,0.8-0.3,1.3v2.3c-0.1,0.1-0.1,0.2-0.2,0.3c-0.1,0.1-0.2,0.1-0.3,0.1c-0.2,0-0.3,0-0.4-0.1
							c-0.1-0.1-0.2-0.2-0.2-0.3V95.1L140,95.1z"/>
						<path class="st8" d="M149.4,93.2c0-0.1,0.1-0.2,0.1-0.3c0.1-0.1,0.2-0.1,0.4-0.1c0.1,0,0.3,0,0.4,0.1c0.1,0.1,0.1,0.2,0.1,0.3
							v2.2c0.2-0.3,0.5-0.4,0.8-0.6c0.3-0.1,0.7-0.2,1.1-0.2c0.8,0,1.4,0.3,1.8,0.8c0.4,0.5,0.6,1.1,0.6,1.8c0,0.8-0.2,1.4-0.6,1.9
							c-0.4,0.6-1.1,0.9-1.9,0.9c-0.4,0-0.7-0.1-1-0.2s-0.6-0.3-0.8-0.5c0,0.2,0,0.4-0.1,0.5s-0.2,0.2-0.4,0.2c-0.1,0-0.3,0-0.3-0.1
							c-0.1-0.1-0.1-0.2-0.1-0.3L149.4,93.2L149.4,93.2z M152.1,99.3c0.6,0,1-0.2,1.3-0.6c0.2-0.3,0.3-0.8,0.3-1.4s-0.1-1-0.3-1.3
							c-0.3-0.4-0.7-0.6-1.3-0.6s-1,0.2-1.3,0.7c-0.2,0.4-0.3,0.8-0.3,1.4c0,0.5,0.1,1,0.4,1.3C151.1,99.1,151.5,99.3,152.1,99.3z"
							/>
						<path class="st8" d="M157.6,98.9c0.1-0.5,0.3-0.9,0.4-1.3c0.1-0.3,0.3-0.7,0.5-1.3l0.3-0.9c0-0.1,0.1-0.3,0.1-0.4
							c0.1-0.2,0.3-0.3,0.5-0.3s0.3,0,0.4,0.1c0.1,0.1,0.2,0.2,0.2,0.4c0,0-0.2,0.5-0.5,1.3s-0.6,1.6-0.9,2.4
							c-0.1,0.4-0.4,0.9-0.6,1.6c-0.2,0.5-0.4,0.8-0.6,1c-0.3,0.2-0.7,0.3-1.2,0.3c-0.3,0-0.6,0-0.7-0.1c-0.1-0.1-0.2-0.2-0.2-0.4
							c0-0.1,0-0.2,0.1-0.3c0-0.1,0.1-0.1,0.2-0.1c0.1,0,0.2,0,0.3,0s0.2,0,0.2,0c0.3,0,0.6-0.1,0.7-0.3c0.1-0.2,0.3-0.4,0.3-0.7
							c-0.2-0.4-0.4-1-0.7-1.6c-0.3-0.7-0.6-1.3-0.7-1.6c-0.3-0.6-0.5-1.2-0.7-1.6V95c0-0.1,0.1-0.2,0.2-0.3
							c0.1-0.1,0.3-0.1,0.4-0.1c0.2,0,0.4,0.1,0.5,0.3l0.1,0.4l0.4,0.9c0.3,0.7,0.5,1.1,0.5,1.3C157.3,97.9,157.5,98.4,157.6,98.9z"
							/>
						<path class="st8" d="M167.2,96.3c0-0.3-0.1-0.6-0.3-0.7s-0.5-0.2-0.9-0.2c-0.5,0-0.9,0.2-1.1,0.5c-0.2,0.3-0.4,0.5-0.6,0.5
							c-0.2,0-0.3,0-0.4-0.1c-0.1-0.1-0.2-0.1-0.2-0.3c0-0.5,0.3-0.8,0.8-1.1c0.4-0.2,0.9-0.3,1.5-0.3s1.1,0.1,1.5,0.3
							c0.5,0.3,0.7,0.6,0.7,1.2v3.5c0,0.3-0.1,0.4-0.4,0.4c-0.2,0-0.3,0-0.4-0.1c-0.1-0.1-0.1-0.2-0.1-0.4v-0.2
							c-0.3,0.3-0.6,0.5-0.9,0.6c-0.3,0.1-0.7,0.1-1.2,0.1s-0.9-0.2-1.2-0.5s-0.5-0.7-0.5-1.1c0-0.6,0.3-1,0.9-1.3
							c0.2-0.1,0.8-0.2,1.8-0.4C166.9,96.7,167.2,96.5,167.2,96.3z M164.6,98.5c0,0.3,0.1,0.5,0.3,0.6s0.4,0.2,0.7,0.2
							c0.6,0,1-0.2,1.3-0.5c0.2-0.3,0.3-0.7,0.3-1.3v-0.3c-0.1,0-0.5,0.1-1.2,0.3C165.1,97.7,164.6,98,164.6,98.5z"/>
						<path class="st8" d="M169.5,95.1c0-0.1,0-0.2,0.1-0.3c0.1-0.1,0.2-0.1,0.4-0.1s0.4,0.1,0.5,0.2s0.1,0.3,0.1,0.5
							c0.2-0.3,0.4-0.5,0.7-0.6s0.6-0.2,1-0.2c0.7,0,1.2,0.3,1.5,0.8c0.3-0.3,0.6-0.5,0.8-0.6c0.3-0.1,0.6-0.2,1-0.2
							c0.7,0,1.2,0.2,1.5,0.5s0.4,0.8,0.4,1.4v3.1c0,0.1-0.1,0.2-0.1,0.3c-0.1,0.1-0.2,0.1-0.4,0.1s-0.3,0-0.4-0.1
							c-0.1-0.1-0.1-0.2-0.1-0.3V97c0-0.5,0-0.8-0.1-1c-0.2-0.3-0.5-0.5-0.9-0.5s-0.8,0.1-1,0.4c-0.3,0.3-0.4,0.6-0.4,1v2.8
							c0,0.1,0,0.3-0.1,0.3c-0.1,0.1-0.2,0.1-0.4,0.1s-0.3,0-0.4-0.1c-0.1-0.1-0.1-0.2-0.1-0.3V97c0-0.6-0.1-1-0.3-1.1
							c-0.2-0.2-0.5-0.3-0.8-0.3c-0.5,0-0.9,0.2-1.2,0.6c-0.2,0.3-0.3,0.7-0.3,1.3v2.3c0,0.1-0.1,0.2-0.1,0.3
							c-0.1,0.1-0.2,0.1-0.4,0.1c-0.1,0-0.3,0-0.4-0.1c-0.1-0.1-0.2-0.2-0.2-0.3L169.5,95.1L169.5,95.1z"/>
						<path class="st8" d="M182.4,96.3c0-0.3-0.1-0.6-0.3-0.7s-0.5-0.2-0.9-0.2c-0.5,0-0.9,0.2-1.1,0.5c-0.2,0.3-0.4,0.5-0.6,0.5
							c-0.2,0-0.3,0-0.4-0.1c-0.1-0.1-0.2-0.1-0.2-0.3c0-0.5,0.3-0.8,0.8-1.1c0.4-0.2,0.9-0.3,1.5-0.3s1.1,0.1,1.5,0.3
							c0.5,0.3,0.7,0.6,0.7,1.2v3.5c0,0.3-0.1,0.4-0.4,0.4c-0.2,0-0.3,0-0.4-0.1c-0.1-0.1-0.1-0.2-0.1-0.4v-0.2
							c-0.3,0.3-0.6,0.5-0.9,0.6c-0.3,0.1-0.7,0.1-1.2,0.1s-0.9-0.2-1.2-0.5s-0.5-0.7-0.5-1.1c0-0.6,0.3-1,0.9-1.3
							c0.2-0.1,0.8-0.2,1.8-0.4C182.1,96.7,182.4,96.5,182.4,96.3z M179.8,98.5c0,0.3,0.1,0.5,0.3,0.6s0.4,0.2,0.7,0.2
							c0.6,0,1-0.2,1.3-0.5c0.2-0.3,0.3-0.7,0.3-1.3v-0.3c-0.1,0-0.5,0.1-1.2,0.3C180.3,97.7,179.8,98,179.8,98.5z"/>
						<path class="st8" d="M185.5,92.8c0.2,0,0.3,0.1,0.5,0.2c0.1,0.1,0.2,0.3,0.2,0.4c0,0.2-0.1,0.3-0.2,0.4
							c-0.1,0.1-0.3,0.2-0.5,0.2s-0.3-0.1-0.5-0.1c-0.1-0.1-0.2-0.2-0.2-0.4c0-0.2,0.1-0.3,0.2-0.4
							C185.2,92.8,185.4,92.8,185.5,92.8z M185,95.1c0-0.1,0.1-0.2,0.2-0.3c0.1-0.1,0.2-0.1,0.4-0.1c0.1,0,0.3,0,0.4,0.1
							c0.1,0.1,0.1,0.2,0.1,0.3v4.5c0,0.1-0.1,0.2-0.2,0.3c-0.1,0.1-0.2,0.1-0.4,0.1c-0.1,0-0.3,0-0.4-0.1c-0.1-0.1-0.2-0.2-0.2-0.3
							L185,95.1L185,95.1z"/>
						<path class="st8" d="M187.4,95.1c0-0.1,0.1-0.2,0.2-0.3c0.1-0.1,0.2-0.1,0.4-0.1s0.4,0.1,0.4,0.2c0.1,0.1,0.1,0.3,0.1,0.5
							c0.3-0.3,0.5-0.4,0.8-0.5s0.6-0.2,0.9-0.2c0.8,0,1.5,0.3,1.9,0.8s0.6,1.1,0.6,1.9s-0.2,1.4-0.6,1.9c-0.4,0.6-1.1,0.8-1.9,0.8
							c-0.3,0-0.7-0.1-1-0.2c-0.2-0.1-0.5-0.3-0.8-0.5v2.2c0,0.1-0.1,0.2-0.2,0.3c-0.1,0.1-0.2,0.1-0.4,0.1s-0.3,0-0.4-0.1
							c-0.1-0.1-0.1-0.2-0.1-0.3L187.4,95.1L187.4,95.1z M190.1,99.3c0.5,0,0.9-0.2,1.2-0.6c0.2-0.3,0.3-0.8,0.3-1.3
							c0-0.6-0.1-1.1-0.3-1.4c-0.3-0.4-0.7-0.6-1.3-0.6s-1,0.2-1.3,0.6c-0.2,0.3-0.3,0.8-0.3,1.3c0,0.6,0.1,1,0.4,1.4
							C189.1,99.1,189.5,99.3,190.1,99.3z"/>
						<path class="st8" d="M194,95c0-0.1,0.1-0.2,0.1-0.3c0.1-0.1,0.2-0.1,0.3-0.1c0.2,0,0.3,0.1,0.4,0.1c0.1,0.1,0.1,0.2,0.1,0.4
							v0.4c0.1-0.3,0.3-0.5,0.6-0.7s0.6-0.3,0.9-0.3c0.2,0,0.3,0,0.4,0.1c0.1,0.1,0.2,0.2,0.2,0.4c0,0.2-0.1,0.3-0.3,0.4
							c0,0-0.2,0-0.6,0.1c-0.4,0.1-0.7,0.3-0.9,0.6c-0.2,0.3-0.3,0.6-0.3,1.1v2.3c0,0.3-0.2,0.4-0.5,0.4c-0.1,0-0.3,0-0.4-0.1
							c-0.1-0.1-0.2-0.1-0.2-0.3L194,95L194,95z"/>
						<path class="st8" d="M200.3,94.6c0.9,0,1.6,0.3,2.1,0.8s0.7,1.1,0.7,2c0,0.8-0.2,1.4-0.7,1.9s-1.2,0.8-2,0.8
							c-0.9,0-1.7-0.2-2.1-0.7c-0.5-0.5-0.7-1.1-0.7-2c0-0.8,0.2-1.5,0.7-2C198.6,94.9,199.3,94.6,200.3,94.6z M200.2,99.3
							c0.6,0,1.1-0.2,1.4-0.6c0.3-0.3,0.4-0.8,0.4-1.4s-0.1-1.1-0.3-1.4c-0.3-0.4-0.7-0.6-1.4-0.6c-0.6,0-1.1,0.2-1.4,0.6
							c-0.3,0.3-0.4,0.8-0.4,1.4s0.1,1,0.4,1.4C199.1,99.1,199.6,99.3,200.2,99.3z"/>
						<path class="st8" d="M204.3,94.7v-1.2c0-0.1,0.1-0.2,0.1-0.3c0.1-0.1,0.2-0.1,0.4-0.1s0.3,0,0.4,0.1c0.1,0.1,0.1,0.2,0.1,0.3
							v1.2h0.5c0.2,0,0.3,0,0.5,0.1c0.1,0.1,0.2,0.2,0.2,0.3c0,0.1-0.1,0.3-0.2,0.3c-0.1,0.1-0.3,0.1-0.5,0.1h-0.5v2.9
							c0,0.5,0.2,0.8,0.6,0.9c0.4,0,0.6,0.2,0.6,0.4c0,0.2-0.1,0.3-0.3,0.3c-0.1,0-0.3,0.1-0.5,0.1c-0.6,0-1-0.1-1.2-0.4
							c-0.2-0.2-0.3-0.6-0.3-1.2v-3h-0.3c-0.2,0-0.3,0-0.4-0.1c-0.1-0.1-0.1-0.2-0.1-0.3c0-0.2,0.1-0.3,0.2-0.3
							c0.1-0.1,0.3-0.1,0.4-0.1L204.3,94.7L204.3,94.7z"/>
						<path class="st8" d="M208.2,97.6c0,0.5,0.1,0.9,0.4,1.2c0.3,0.3,0.7,0.5,1.3,0.5s1.1-0.2,1.5-0.7c0.2-0.2,0.3-0.3,0.5-0.3
							s0.3,0,0.4,0.1c0.1,0.1,0.2,0.2,0.2,0.3c0,0.1,0,0.1-0.1,0.2c0,0.1-0.1,0.2-0.2,0.2c-0.2,0.3-0.6,0.6-1,0.7
							c-0.4,0.2-0.8,0.2-1.3,0.2c-0.9,0-1.6-0.2-2.1-0.7s-0.7-1.1-0.7-1.9c0-0.9,0.3-1.5,0.8-2s1.2-0.8,2.2-0.8
							c0.7,0,1.3,0.3,1.8,0.8c0.4,0.5,0.7,1,0.7,1.7c0,0.1,0,0.2,0,0.3c0,0.1-0.2,0.2-0.4,0.3h-0.1L208.2,97.6L208.2,97.6z
							 M211.4,96.8c-0.1-0.4-0.2-0.8-0.4-1c-0.3-0.3-0.6-0.4-1.1-0.4s-0.9,0.1-1.2,0.4s-0.5,0.6-0.5,1H211.4z"/>
						<path class="st8" d="M214.3,92.8c0.2,0,0.3,0.1,0.5,0.2c0.1,0.1,0.2,0.3,0.2,0.4c0,0.2-0.1,0.3-0.2,0.4
							c-0.1,0.1-0.3,0.2-0.5,0.2s-0.3-0.1-0.5-0.1c-0.1-0.1-0.2-0.2-0.2-0.4c0-0.2,0.1-0.3,0.2-0.4C214,92.8,214.1,92.8,214.3,92.8z
							 M213.8,95.1c0-0.1,0.1-0.2,0.2-0.3c0.1-0.1,0.2-0.1,0.4-0.1c0.1,0,0.3,0,0.4,0.1c0.1,0.1,0.1,0.2,0.1,0.3v4.5
							c0,0.1-0.1,0.2-0.2,0.3c-0.1,0.1-0.2,0.1-0.4,0.1c-0.1,0-0.3,0-0.4-0.1c-0.1-0.1-0.2-0.2-0.2-0.3L213.8,95.1L213.8,95.1z"/>
						<path class="st8" d="M216.2,95.1c0-0.1,0.1-0.2,0.1-0.3s0.2-0.1,0.3-0.1c0.2,0,0.4,0.1,0.5,0.2c0,0.1,0.1,0.3,0.1,0.5
							c0.2-0.3,0.5-0.5,0.9-0.6c0.3-0.1,0.7-0.1,1.2-0.1s1,0.2,1.3,0.5s0.4,0.7,0.4,1.3v3.2c0,0.1-0.1,0.2-0.1,0.3
							c-0.1,0.1-0.2,0.1-0.4,0.1s-0.3,0-0.4-0.1c-0.1-0.1-0.1-0.2-0.1-0.3v-2.5c0-0.6,0-1-0.1-1.2c-0.2-0.4-0.5-0.5-1-0.5
							c-0.6,0-1,0.2-1.3,0.6c-0.2,0.3-0.3,0.8-0.3,1.3v2.3c-0.1,0.1-0.1,0.2-0.2,0.3c-0.1,0.1-0.2,0.1-0.3,0.1s-0.3,0-0.4-0.1
							c-0.1-0.1-0.2-0.2-0.2-0.3V95.1L216.2,95.1z"/>
						<path class="st8" d="M224.4,99.4c0.3,0,0.6-0.1,0.8-0.2c0.3-0.1,0.4-0.3,0.4-0.6c0-0.3-0.3-0.6-0.8-0.7
							c-0.6-0.2-1.1-0.3-1.6-0.5c-0.6-0.3-0.9-0.7-0.9-1.2c0-0.4,0.2-0.8,0.5-1.1c0.3-0.3,0.8-0.4,1.2-0.4h0.6
							c0.4,0,0.8,0.1,1.2,0.4c0.5,0.3,0.7,0.6,0.7,1c0,0.1-0.1,0.2-0.2,0.3c-0.1,0.1-0.2,0.1-0.4,0.1c-0.1,0-0.3-0.2-0.5-0.5
							c-0.3-0.4-0.7-0.5-1.2-0.5c-0.3,0-0.5,0.1-0.7,0.2s-0.3,0.3-0.3,0.5c0,0.3,0.3,0.5,0.9,0.7c1,0.3,1.5,0.5,1.6,0.5
							c0.6,0.3,0.9,0.7,0.9,1.3c0,0.5-0.2,0.9-0.7,1.2c-0.4,0.2-0.9,0.4-1.5,0.4s-1.1-0.1-1.5-0.4c-0.5-0.3-0.8-0.7-0.8-1.2
							c0-0.1,0.1-0.3,0.2-0.3c0.1-0.1,0.3-0.1,0.4-0.1c0.2,0,0.3,0.2,0.5,0.6C223.3,99.1,223.7,99.4,224.4,99.4z"/>
						<path class="st8" d="M228.2,98.9c0.2,0,0.4,0.1,0.5,0.1c0.1,0.1,0.2,0.2,0.2,0.4c0,0.2-0.1,0.3-0.2,0.4
							c-0.1,0.1-0.3,0.2-0.5,0.2s-0.3-0.1-0.5-0.2c-0.1-0.1-0.2-0.2-0.2-0.4c0-0.2,0.1-0.3,0.2-0.4C227.9,99,228.1,98.9,228.2,98.9z
							"/>
						<path class="st8" d="M232.4,95.4c-0.6,0-1,0.2-1.3,0.6c-0.2,0.3-0.4,0.8-0.4,1.3s0.1,1,0.3,1.3c0.3,0.4,0.7,0.7,1.2,0.7
							c0.7,0,1.2-0.2,1.4-0.7c0.3-0.5,0.5-0.7,0.6-0.7s0.3,0,0.4,0.1c0.1,0.1,0.2,0.2,0.2,0.3c0,0.1-0.1,0.3-0.2,0.5
							c-0.1,0.2-0.2,0.4-0.4,0.5c-0.2,0.3-0.5,0.4-0.9,0.5c-0.3,0.1-0.7,0.2-1.1,0.2c-0.9,0-1.6-0.3-2-0.8c-0.5-0.5-0.7-1.1-0.7-1.9
							s0.2-1.5,0.7-2s1.2-0.8,2.1-0.8c0.4,0,0.8,0.1,1.1,0.2s0.6,0.3,0.9,0.6c0.1,0.1,0.2,0.3,0.3,0.4s0.1,0.2,0.1,0.3
							c0,0.1-0.1,0.2-0.2,0.3c-0.1,0.1-0.2,0.1-0.4,0.1s-0.4-0.2-0.6-0.6C233.4,95.6,233,95.4,232.4,95.4z"/>
						<path class="st8" d="M238.3,94.6c0.9,0,1.6,0.3,2.1,0.8s0.7,1.1,0.7,2c0,0.8-0.2,1.4-0.7,1.9s-1.2,0.8-2,0.8
							c-0.9,0-1.7-0.2-2.1-0.7c-0.5-0.5-0.7-1.1-0.7-2c0-0.8,0.2-1.5,0.7-2C236.6,94.9,237.3,94.6,238.3,94.6z M238.2,99.3
							c0.6,0,1.1-0.2,1.4-0.6c0.3-0.3,0.4-0.8,0.4-1.4s-0.1-1.1-0.3-1.4c-0.3-0.4-0.7-0.6-1.4-0.6c-0.6,0-1.1,0.2-1.4,0.6
							c-0.3,0.3-0.4,0.8-0.4,1.4s0.1,1,0.4,1.4C237.1,99.1,237.6,99.3,238.2,99.3z"/>
						<path class="st8" d="M242,95.1c0-0.1,0-0.2,0.1-0.3c0.1-0.1,0.2-0.1,0.4-0.1s0.4,0.1,0.5,0.2s0.1,0.3,0.1,0.5
							c0.2-0.3,0.4-0.5,0.7-0.6s0.6-0.2,1-0.2c0.7,0,1.2,0.3,1.5,0.8c0.3-0.3,0.6-0.5,0.8-0.6c0.3-0.1,0.6-0.2,1-0.2
							c0.7,0,1.2,0.2,1.5,0.5s0.4,0.8,0.4,1.4v3.1c0,0.1-0.1,0.2-0.1,0.3c-0.1,0.1-0.2,0.1-0.4,0.1s-0.3,0-0.4-0.1
							c-0.1-0.1-0.1-0.2-0.1-0.3V97c0-0.5,0-0.8-0.1-1c-0.2-0.3-0.5-0.5-0.9-0.5s-0.8,0.1-1,0.4c-0.3,0.3-0.4,0.6-0.4,1v2.8
							c0,0.1,0,0.3-0.1,0.3c-0.1,0.1-0.2,0.1-0.4,0.1s-0.3,0-0.4-0.1c-0.1-0.1-0.1-0.2-0.1-0.3V97c0-0.6-0.1-1-0.3-1.1
							c-0.2-0.2-0.5-0.3-0.8-0.3c-0.5,0-0.9,0.2-1.2,0.6c-0.2,0.3-0.3,0.7-0.3,1.3v2.3c0,0.1-0.1,0.2-0.1,0.3
							c-0.1,0.1-0.2,0.1-0.4,0.1c-0.1,0-0.3,0-0.4-0.1c-0.1-0.1-0.2-0.2-0.2-0.3L242,95.1L242,95.1z"/>
					</g>
				</g>
			</g>
		</g>
	</g>
</g>
</svg>
