<svg width="1419" height="1419" viewBox="0 0 1419 1419" fill="none" xmlns="http://www.w3.org/2000/svg">
<g opacity="0.6">
<path fill-rule="evenodd" clip-rule="evenodd" d="M1401.85 754.59L1404.38 716.102L709.138 709.138L1399.34 793.078L1401.85 754.59Z" fill="#A6FFC8"/>
<path fill-rule="evenodd" clip-rule="evenodd" d="M16.4251 663.667L18.9393 625.179L709.137 709.137L13.8926 702.173L16.4251 663.667Z" fill="#A6FFC8"/>
<path fill-rule="evenodd" clip-rule="evenodd" d="M1366.55 932.138L1378.94 895.605L709.137 709.138L1354.17 968.672L1366.55 932.138Z" fill="#A6FFC8"/>
<path fill-rule="evenodd" clip-rule="evenodd" d="M51.7251 486.12L64.1029 449.586L709.137 709.138L39.3293 522.653L51.7251 486.12Z" fill="#A6FFC8"/>
<path fill-rule="evenodd" clip-rule="evenodd" d="M1286.55 1094.53L1307.95 1062.44L709.136 709.138L1265.13 1126.62L1286.55 1094.53Z" fill="#A6FFC8"/>
<path fill-rule="evenodd" clip-rule="evenodd" d="M131.721 323.748L153.142 291.659L709.136 709.139L110.318 355.82L131.721 323.748Z" fill="#A6FFC8"/>
<path fill-rule="evenodd" clip-rule="evenodd" d="M1167.29 1230.71L1196.26 1205.26L709.138 709.137L1138.31 1256.17L1167.29 1230.71Z" fill="#A6FFC8"/>
<path fill-rule="evenodd" clip-rule="evenodd" d="M250.998 187.563L279.968 162.091L709.136 709.138L222.01 213.017L250.998 187.563Z" fill="#A6FFC8"/>
<path fill-rule="evenodd" clip-rule="evenodd" d="M1016.88 1331.42L1051.44 1314.32L709.138 709.139L982.29 1348.52L1016.88 1331.42Z" fill="#A6FFC8"/>
<path fill-rule="evenodd" clip-rule="evenodd" d="M401.402 86.8388L435.987 69.7362L709.139 709.139L366.834 103.942L401.402 86.8388Z" fill="#A6FFC8"/>
<path fill-rule="evenodd" clip-rule="evenodd" d="M845.516 1389.83L883.347 1382.25L709.138 709.138L807.702 1397.42L845.516 1389.83Z" fill="#A6FFC8"/>
<path fill-rule="evenodd" clip-rule="evenodd" d="M572.74 28.4431L610.572 20.8616L709.137 709.139L534.927 36.0249L572.74 28.4431Z" fill="#A6FFC8"/>
<path fill-rule="evenodd" clip-rule="evenodd" d="M664.919 1401.95L703.407 1404.41L709.137 709.138L626.413 1399.49L664.919 1401.95Z" fill="#A6FFC8"/>
<path fill-rule="evenodd" clip-rule="evenodd" d="M753.355 16.3104L791.861 18.7713L709.137 709.137L714.866 13.8677L753.355 16.3104Z" fill="#A6FFC8"/>
<path fill-rule="evenodd" clip-rule="evenodd" d="M487.296 1366.97L523.848 1379.29L709.135 709.141L450.744 1354.64L487.296 1366.97Z" fill="#A6FFC8"/>
<path fill-rule="evenodd" clip-rule="evenodd" d="M930.976 51.3082L967.528 63.6331L709.137 709.137L894.424 38.9834L930.976 51.3082Z" fill="#A6FFC8"/>
<path fill-rule="evenodd" clip-rule="evenodd" d="M324.782 1287.25L356.907 1308.6L709.138 709.138L292.656 1265.88L324.782 1287.25Z" fill="#A6FFC8"/>
<path fill-rule="evenodd" clip-rule="evenodd" d="M1093.49 131.023L1125.62 152.374L709.137 709.137L1061.37 109.672L1093.49 131.023Z" fill="#A6FFC8"/>
<path fill-rule="evenodd" clip-rule="evenodd" d="M188.381 1168.22L213.888 1197.15L709.138 709.137L162.873 1139.28L188.381 1168.22Z" fill="#A6FFC8"/>
<path fill-rule="evenodd" clip-rule="evenodd" d="M1229.89 250.039L1255.4 278.992L709.137 709.137L1204.39 221.121L1229.89 250.039Z" fill="#A6FFC8"/>
<path fill-rule="evenodd" clip-rule="evenodd" d="M87.4045 1017.97L104.561 1052.52L709.138 709.141L70.2479 983.421L87.4045 1017.97Z" fill="#A6FFC8"/>
<path fill-rule="evenodd" clip-rule="evenodd" d="M1330.87 400.288L1348.03 434.84L709.137 709.137L1313.71 365.754L1330.87 400.288Z" fill="#A6FFC8"/>
<path fill-rule="evenodd" clip-rule="evenodd" d="M28.7024 846.742L36.338 884.54L709.137 709.137L21.0492 808.926L28.7024 846.742Z" fill="#A6FFC8"/>
<path fill-rule="evenodd" clip-rule="evenodd" d="M1389.57 571.532L1397.22 609.348L709.137 709.137L1381.92 533.734L1389.57 571.532Z" fill="#A6FFC8"/>
<path fill-rule="evenodd" clip-rule="evenodd" d="M28.7024 846.742L36.338 884.54L709.137 709.137L21.0492 808.926L28.7024 846.742Z" fill="#A6FFC8"/>
<path fill-rule="evenodd" clip-rule="evenodd" d="M1389.57 571.532L1397.22 609.348L709.137 709.137L1381.92 533.734L1389.57 571.532Z" fill="#A6FFC8"/>
</g>
</svg>
