<svg width="1337" height="351" viewBox="0 0 1337 351" fill="none" xmlns="http://www.w3.org/2000/svg">
<g clip-path="url(#clip0_2310_12695)">
<g clip-path="url(#clip1_2310_12695)">
<path d="M1272.23 109.154C1266.93 106.883 1262.32 103.819 1258.39 99.9029C1254.46 95.987 1251.33 91.3901 1249.11 86.1689C1246.83 80.9478 1245.7 75.3293 1245.7 69.3136C1245.7 63.2979 1246.83 57.6227 1249.11 52.4015C1251.39 47.1236 1254.46 42.5267 1258.39 38.6108C1262.32 34.6949 1266.93 31.5735 1272.23 29.3602C1277.52 27.0901 1283.16 25.9551 1289.2 25.9551C1295.12 25.9551 1300.76 27.0901 1306.05 29.3602C1311.35 31.6303 1315.96 34.6949 1319.89 38.6108C1323.82 42.5267 1326.95 47.1236 1329.17 52.4015C1331.45 57.6794 1332.59 63.2979 1332.59 69.3136C1332.59 75.3293 1331.45 80.9478 1329.17 86.1689C1326.89 91.3901 1323.82 95.9303 1319.89 99.9029C1315.96 103.819 1311.35 106.94 1306.05 109.154C1300.76 111.424 1295.18 112.559 1289.2 112.559C1283.16 112.502 1277.52 111.424 1272.23 109.154ZM1256.51 82.9341C1258.34 87.1905 1260.9 90.9361 1264.14 94.171C1267.39 97.4058 1271.15 99.9029 1275.47 101.776C1279.8 103.592 1284.36 104.5 1289.25 104.5C1294.09 104.5 1298.65 103.592 1302.92 101.776C1307.19 99.9597 1310.95 97.4058 1314.19 94.171C1317.44 90.9361 1319.94 87.1905 1321.82 82.9341C1323.65 78.6777 1324.56 74.1375 1324.56 69.3136C1324.56 64.4897 1323.65 59.8928 1321.82 55.5796C1320 51.2665 1317.44 47.5208 1314.19 44.286C1310.95 41.0511 1307.19 38.554 1302.92 36.6812C1298.65 34.8651 1294.09 33.9571 1289.25 33.9571C1284.41 33.9571 1279.8 34.8651 1275.47 36.6812C1271.15 38.4973 1267.39 41.0511 1264.14 44.286C1260.9 47.5208 1258.39 51.2665 1256.51 55.5796C1254.69 59.8928 1253.78 64.4329 1253.78 69.3136C1253.78 74.1943 1254.69 78.6777 1256.51 82.9341ZM1284.87 78.7912V87.0202C1284.87 88.5525 1284.3 89.8578 1283.16 90.9929C1282.02 92.1279 1280.71 92.6954 1279.18 92.6954C1277.58 92.6954 1276.22 92.1279 1275.13 90.9929C1274.05 89.8578 1273.54 88.5525 1273.54 87.0202V49.9612C1273.54 48.4289 1274.11 47.1236 1275.25 45.9885C1276.39 44.8535 1277.7 44.286 1279.23 44.286H1291.7C1294.09 44.286 1296.31 44.74 1298.42 45.648C1300.53 46.5561 1302.41 47.8046 1304 49.3369C1305.6 50.8692 1306.91 52.742 1307.82 54.8418C1308.73 56.9417 1309.18 59.155 1309.18 61.5386C1309.18 64.0357 1308.73 66.0787 1307.87 67.7245C1307.02 69.3704 1305.99 70.7892 1304.8 71.8107C1303.6 72.889 1302.41 73.7403 1301.27 74.3078C1300.07 74.8753 1299.1 75.3293 1298.36 75.6698L1307.42 82.9341C1308.73 84.1259 1309.35 85.4879 1309.35 87.1337C1309.35 88.439 1308.9 89.6876 1308.04 90.8226C1307.19 92.0144 1305.77 92.5819 1303.83 92.5819C1302.52 92.5819 1301.33 92.1279 1300.24 91.2766L1285.5 78.6777H1284.87V78.7912ZM1284.87 54.7851V68.5191H1291.53C1293.35 68.5191 1295.01 67.8381 1296.37 66.476C1297.8 65.114 1298.48 63.4681 1298.48 61.5386C1298.48 59.7225 1297.8 58.1335 1296.37 56.7714C1294.95 55.4094 1293.35 54.7283 1291.53 54.7283H1284.87V54.7851Z" fill="#138758"/>
<path d="M12.1476 117.551C12.1476 98.5392 20.5177 83.9539 37.372 73.8521C51.3792 65.396 68.6889 61.1396 89.1303 61.1396C103.422 61.1396 117.088 64.034 130.241 69.766C147.038 77.087 155.465 86.9618 155.465 99.3337C155.465 105.066 153.415 110.23 149.259 114.827C145.102 119.424 140.035 121.694 134.056 121.694C126.938 121.694 119.992 117.778 113.33 110.003C106.668 102.228 97.4435 98.3122 85.7139 98.3122C77.4007 98.3122 71.2512 99.6743 67.2654 102.455C63.2227 105.236 61.2298 108.755 61.2298 113.124C61.2298 120.672 69.8846 126.915 87.1374 131.682C113.842 139.003 130.07 144.281 135.821 147.516C153.302 157.164 162.07 171.749 162.07 191.215C162.07 210.511 154.156 225.266 138.269 235.595C124.661 244.335 107.636 248.648 87.1944 248.648C70.3971 248.648 53.9415 245.3 37.8275 238.66C17.1013 230.204 6.73828 218.797 6.73828 204.609C6.73828 198.65 8.73118 193.315 12.7739 188.605C16.8166 183.894 21.8274 181.567 27.806 181.567C37.0303 181.567 45.2297 186.448 52.518 196.209C59.7493 205.971 71.3081 210.851 87.1944 210.851C93.6286 210.851 98.8101 209.83 102.739 207.73C108.262 204.949 111.052 200.636 111.052 194.677C111.052 187.129 102.511 180.886 85.4862 176.119C59.9202 169.025 44.0339 163.747 37.8275 160.285C20.6316 150.808 12.1476 136.62 12.1476 117.551Z" fill="#138758"/>
<path d="M597.774 169.876C598.002 170.557 598.116 171.805 598.116 173.678C598.116 175.494 598.229 177.14 598.457 178.502C599.596 187.015 604.037 194.166 611.724 200.011C619.411 205.856 627.667 208.808 636.436 208.808C645.433 208.808 655.055 204.438 665.419 195.755C670.486 191.385 675.44 189.228 680.28 189.228C686.942 189.228 692.579 191.271 697.191 195.414C701.803 199.557 704.081 204.948 704.081 211.588C704.081 223.506 695.426 233.041 678.173 240.135C664.337 245.867 650.443 248.761 636.379 248.761C608.308 248.761 585.987 240.418 569.418 223.62C552.848 206.878 544.535 184.518 544.535 156.539C544.535 129.014 552.848 106.313 569.418 88.3798C585.987 70.5029 608.08 61.5361 635.696 61.5361C660.066 61.5361 679.824 69.3679 694.913 85.0882C710.002 100.809 717.519 120.955 717.519 145.472C717.519 153.758 715.924 159.887 712.679 163.86C709.433 167.889 703.796 169.876 695.768 169.876H597.774ZM669.632 132.363C666.614 111.024 654.657 100.354 633.703 100.354C624.479 100.354 616.564 103.362 609.902 109.321C603.24 115.28 599.197 122.999 597.831 132.363H669.632Z" fill="#138758"/>
<path d="M778.331 169.876C778.558 170.557 778.672 171.805 778.672 173.678C778.672 175.494 778.786 177.14 779.014 178.502C780.153 187.015 784.594 194.166 792.281 200.011C799.968 205.856 808.224 208.808 816.993 208.808C825.989 208.808 835.612 204.438 845.975 195.755C851.043 191.385 855.997 189.228 860.837 189.228C867.499 189.228 873.136 191.271 877.748 195.414C882.36 199.557 884.637 204.948 884.637 211.588C884.637 223.506 875.983 233.041 858.73 240.135C844.893 245.867 831 248.761 816.936 248.761C788.864 248.761 766.544 240.418 749.975 223.62C733.405 206.878 725.092 184.518 725.092 156.539C725.092 129.014 733.405 106.313 749.975 88.3798C766.544 70.5029 788.637 61.5361 816.253 61.5361C840.623 61.5361 860.381 69.3679 875.47 85.0882C890.559 100.809 898.075 120.955 898.075 145.472C898.075 153.758 896.481 159.887 893.235 163.86C889.99 167.889 884.353 169.876 876.324 169.876H778.331ZM850.189 132.363C847.171 111.024 835.214 100.354 814.26 100.354C805.035 100.354 797.121 103.362 790.459 109.321C783.797 115.28 779.754 122.999 778.388 132.363H850.189Z" fill="#138758"/>
<path d="M921.648 27.7705C921.648 19.7685 923.812 13.0717 928.197 7.7938C932.581 2.51586 938.787 -0.0947266 946.816 -0.0947266C954.617 -0.0947266 960.652 2.57262 964.923 7.7938C969.193 13.0717 971.3 19.7117 971.3 27.7705V217.379C971.3 225.438 968.909 232.248 964.24 237.866C959.514 243.485 953.25 246.322 945.449 246.322C936.908 246.322 930.588 242.747 926.488 235.653C923.243 230.148 921.648 222.714 921.648 213.293V27.7705Z" fill="#138758"/>
<path d="M1028.98 -2.19531C1035.87 -2.19531 1041.79 0.301775 1046.75 5.18245C1051.7 10.1199 1054.15 16.0221 1054.15 22.8891C1054.15 29.302 1051.76 34.9205 1046.92 39.7444C1042.08 44.5683 1036.33 46.9519 1029.66 46.9519C1021.35 46.9519 1015.09 44.4548 1010.87 39.4039C1006.6 34.353 1004.5 27.5995 1004.5 19.0867C1004.5 13.8087 1007.17 8.92808 1012.64 4.44467C1017.99 0.0180151 1023.46 -2.19531 1028.98 -2.19531ZM1004.5 90.7077C1004.5 83.6137 1006.83 77.4845 1011.56 72.3201C1016.28 67.1556 1022.2 64.6018 1029.32 64.6018C1035.76 64.6018 1041.51 66.7584 1046.57 71.1283C1051.64 75.4982 1054.15 80.8896 1054.15 87.3026V219.762C1054.15 226.629 1051.64 232.758 1046.75 238.149C1041.79 243.541 1035.98 246.265 1029.32 246.265C1021.75 246.265 1015.66 243.427 1011.21 237.639C1006.72 231.907 1004.5 225.153 1004.5 217.321V90.7077Z" fill="#138758"/>
<path d="M1105.17 64.5457C1111.32 64.5457 1116.72 66.4185 1121.28 70.2209C1125.83 74.0233 1129.02 79.0174 1130.9 85.2034C1138.3 77.2014 1145.59 71.2992 1152.88 67.6671C1160.17 63.9782 1169 62.1621 1179.36 62.1621C1198.55 62.1621 1213.64 68.5751 1224.74 81.4578C1235.1 93.6027 1240.34 109.437 1240.34 128.959V216.017C1240.34 224.757 1238.29 231.851 1234.13 237.355C1229.29 243.768 1222.75 247.003 1214.43 247.003C1205.21 247.003 1198.43 242.747 1194.05 234.291C1190.8 227.878 1189.21 219.479 1189.21 209.15V135.429C1189.21 126.235 1186.65 118.914 1181.64 113.409C1176.57 107.904 1169.45 105.123 1160.23 105.123C1156.75 105.123 1153.45 105.975 1150.21 107.677C1146.96 109.38 1144 111.65 1141.21 114.374C1137.05 118.29 1134.32 124.079 1132.9 131.74C1131.53 139.402 1130.85 147.404 1130.85 155.633C1130.85 160.684 1131.13 168.232 1131.7 178.333C1132.27 188.435 1132.55 196.097 1132.55 201.375C1132.55 214.201 1131.42 223.962 1129.08 230.602C1125.38 241.385 1118.26 246.776 1107.67 246.776C1098.45 246.776 1091.56 243.201 1086.95 236.107C1083.24 230.375 1081.42 222.486 1081.42 212.385V92.0704C1081.42 84.7494 1083.59 78.2797 1087.91 72.7747C1092.35 67.3265 1098.05 64.5457 1105.17 64.5457Z" fill="#138758"/>
<path d="M333.403 64.3181C332.264 64.6586 326.115 67.2692 319.909 77.9953C314.442 87.3594 310.457 97.6883 306.755 108.074C296.165 137.698 287.453 168.174 280.791 199.331C279.083 207.22 277.545 215.108 276.065 223.053C275.325 227.14 270.143 243.2 272.364 246.776C274.527 250.351 290.641 249.273 294.229 249.103C301.802 248.762 309.318 246.889 315.183 242.009C323.097 235.425 326.514 224.586 329.588 214.314C339.61 181.057 349.631 147.8 359.653 114.544C359.937 113.636 360.222 112.728 360.222 111.706C360.222 110.117 359.482 108.585 358.798 107.109C352.421 93.9994 348.151 75.7252 341.773 62.6723C338.926 61.1967 340.35 62.1615 333.403 64.3181Z" fill="url(#paint0_linear_2310_12695)"/>
<path d="M136.789 56.9414C156.149 64.3192 171.124 82.2528 181.715 101.265C192.818 121.128 200.106 142.807 207.451 164.259C216.22 189.911 226.64 224.246 242.925 238.037C251.637 245.415 262.911 248.706 272.989 249.785C284.605 251.033 294.911 250.409 307.779 246.38C299.182 242.01 292.349 235.767 286.996 227.311C281.644 218.855 277.772 209.604 274.071 200.354C258.242 161.025 244.064 121.014 225.103 83.0473C221.06 74.9318 216.277 66.3622 208.533 62.2193C202.953 59.2115 196.633 58.9277 190.54 58.7007C172.604 58.1332 154.668 57.5089 136.789 56.9414Z" fill="url(#paint1_linear_2310_12695)"/>
<path d="M584.736 56.9414C565.376 64.3192 550.401 82.2528 539.81 101.265C528.707 121.128 521.419 142.807 514.073 164.259C505.305 189.911 495.283 224.246 472.336 244.507C463.795 252.112 456.849 250.693 446.714 251.771C436.692 252.849 428.891 251.033 418.699 247.969C416.877 247.401 416.478 244.961 418.073 243.939C424.678 239.796 430.087 234.291 434.528 227.368C439.938 218.968 443.753 209.661 447.454 200.41C463.283 161.081 477.461 121.071 496.422 83.1041C500.465 74.9885 505.248 66.419 512.992 62.2761C518.572 59.2682 524.892 58.9845 530.985 58.7575C548.921 58.1332 566.8 57.5089 584.736 56.9414Z" fill="url(#paint2_linear_2310_12695)"/>
<path d="M331.239 65.9653C331.296 66.1924 331.581 66.5329 331.922 66.9869C342.798 81.0046 351.054 96.6114 357.773 112.956C361.702 122.547 365.118 132.365 368.307 142.24C377.076 169.367 384.193 197.176 396.321 223.055C399.624 230.092 403.382 237.129 409.247 242.294C416.421 248.593 426.101 251.488 435.667 252.055C445.233 252.623 452.92 253.077 464.194 249.558C454.855 242.237 449.902 234.462 446.599 224.36C437.717 197.119 428.777 169.821 419.894 142.581C413.802 123.852 407.595 104.954 397.916 87.7581C392.563 78.2805 385.901 69.1435 376.392 63.8088C369.275 59.7794 360.905 58.3606 352.819 58.9849C348.719 59.2686 344.62 60.1199 340.691 61.3684C338.698 61.9927 336.762 62.7305 334.883 63.5818C333.972 63.979 333.061 64.3763 332.207 64.8871C331.41 65.3411 331.125 65.6248 331.239 65.9653Z" fill="url(#paint3_linear_2310_12695)"/>
<path d="M29.743 281.908C25.2447 281.908 21.8853 283.27 19.6077 286.051C17.6717 288.435 16.7038 291.613 16.7038 295.642C16.7038 299.445 17.7287 302.566 19.7216 304.95C21.9992 307.617 25.3017 308.979 29.6291 308.979C33.2733 308.979 36.1203 308.128 38.227 306.425C40.1061 304.552 41.9851 302.68 43.8072 300.807C44.6613 300.807 45.3445 300.977 45.9139 301.318C46.4833 301.658 46.768 302.226 46.768 302.907C46.768 303.134 46.7111 303.361 46.5972 303.588C46.4833 303.815 46.3694 304.098 46.1417 304.496C44.8321 307.05 42.7822 309.093 40.0491 310.568C37.2591 312.044 34.2412 312.781 30.8818 312.781C24.1629 312.781 19.1522 311.363 15.9066 308.468C12.6041 305.574 11.0098 301.318 11.0098 295.586C11.0098 290.308 12.5471 286.108 15.565 282.93C18.8675 279.525 23.5365 277.822 29.6291 277.822C33.1594 277.822 36.1772 278.333 38.6826 279.355C41.4726 280.546 43.5794 282.362 45.0598 284.86C45.3445 285.37 45.6292 285.938 45.9139 286.449C46.1417 287.016 46.3125 287.413 46.3125 287.754C46.3125 288.492 46.0278 289.002 45.4584 289.4C44.889 289.797 44.2057 289.967 43.3516 289.967C42.5545 289.967 41.7004 289.286 40.7893 287.867C39.5936 286.108 38.5117 284.803 37.4868 284.008C35.5509 282.646 32.9886 281.908 29.743 281.908Z" fill="#5B5038" stroke="#5B5038" stroke-width="0.174584" stroke-miterlimit="10"/>
<path d="M68.3486 294.734C68.3486 293.088 67.7792 292.01 66.6974 291.386C65.6155 290.761 64.0781 290.478 62.0283 290.478C59.4091 290.478 57.6439 291.272 56.7329 292.918C55.8218 294.564 54.8539 295.358 53.8859 295.358C53.1457 295.358 52.4624 295.245 51.9499 294.961C51.4375 294.677 51.1528 294.28 51.1528 293.656C51.1528 291.499 52.4054 289.797 54.9677 288.548C57.1884 287.47 59.6368 286.902 62.3699 286.902C65.4447 286.902 67.8931 287.413 69.7721 288.378C72.0497 289.57 73.1316 291.386 73.1316 293.883V310.625C73.1316 311.93 72.3914 312.554 70.9679 312.554C69.9999 312.554 69.3735 312.327 69.0888 311.873C68.8041 311.419 68.6333 310.795 68.6333 309.944V309.149C67.1529 310.625 65.6724 311.589 64.192 312.043C62.7116 312.498 60.7187 312.725 58.2703 312.725C55.8218 312.725 53.8289 311.93 52.2916 310.398C50.7542 308.865 49.957 307.049 49.957 304.949C49.957 302.055 51.5513 300.012 54.683 298.82C55.8218 298.423 58.7827 297.799 63.5087 297.061C66.7543 296.664 68.3486 295.869 68.3486 294.734ZM55.3094 305.233C55.3094 306.482 55.8218 307.447 56.7898 308.128C57.7578 308.809 59.0105 309.149 60.4909 309.149C63.3948 309.149 65.5016 308.298 66.7543 306.595C67.8362 305.176 68.3486 303.19 68.3486 300.58V299.331C67.8362 299.501 65.9002 299.899 62.5977 300.523C57.7578 301.374 55.3094 302.963 55.3094 305.233Z" fill="#5B5038" stroke="#5B5038" stroke-width="0.174584" stroke-miterlimit="10"/>
<path d="M81.4453 280.092C81.4453 279.524 81.73 279.014 82.2425 278.616C82.7549 278.219 83.3813 278.049 84.0645 278.049C84.8617 278.049 85.488 278.219 86.0005 278.616C86.513 279.014 86.7407 279.524 86.7407 280.149V310.454C86.7407 311.022 86.456 311.532 85.9436 311.93C85.4311 312.327 84.8048 312.497 84.1215 312.497C83.3813 312.497 82.7549 312.27 82.2425 311.873C81.73 311.476 81.4453 310.965 81.4453 310.341V280.092Z" fill="#5B5038" stroke="#5B5038" stroke-width="0.174584" stroke-miterlimit="10"/>
<path d="M105.701 286.902C110.256 286.902 113.787 288.094 116.178 290.478C118.456 292.748 119.595 295.869 119.595 299.785C119.595 303.531 118.456 306.539 116.121 308.922C113.616 311.476 110.256 312.725 105.929 312.725C101.203 312.725 97.6157 311.589 95.2242 309.376C92.8328 307.106 91.5801 303.928 91.5801 299.899C91.5801 295.926 92.7189 292.861 95.0534 290.591C97.5588 288.151 101.089 286.902 105.701 286.902ZM105.416 309.206C108.491 309.206 110.769 308.298 112.249 306.482C113.559 304.836 114.242 302.679 114.242 300.012C114.242 297.118 113.673 294.904 112.534 293.429C111.11 291.499 108.833 290.591 105.587 290.591C102.513 290.591 100.292 291.499 98.7545 293.372C97.4449 294.961 96.8185 297.118 96.8185 299.842C96.8185 302.566 97.3879 304.779 98.5837 306.368C100.121 308.241 102.342 309.206 105.416 309.206Z" fill="#5B5038" stroke="#5B5038" stroke-width="0.174584" stroke-miterlimit="10"/>
<path d="M126.086 288.775C126.086 288.264 126.314 287.867 126.826 287.583C127.339 287.299 127.851 287.129 128.477 287.129C129.445 287.129 130.129 287.356 130.527 287.81C130.869 288.264 131.097 288.945 131.097 289.853V291.669C131.723 290.25 132.748 289.115 134.058 288.321C135.424 287.526 136.961 287.129 138.784 287.129C139.695 287.129 140.435 287.299 140.947 287.696C141.517 288.094 141.744 288.661 141.744 289.399C141.744 290.25 141.175 290.818 140.093 291.158C139.979 291.215 138.954 291.385 136.961 291.669C134.969 292.01 133.488 292.974 132.52 294.62C131.666 295.982 131.267 297.685 131.267 299.728V310.511C131.267 311.873 130.47 312.554 128.876 312.554C128.193 312.554 127.566 312.44 126.997 312.157C126.428 311.873 126.143 311.476 126.143 310.851V288.775H126.086Z" fill="#5B5038" stroke="#5B5038" stroke-width="0.174584" stroke-miterlimit="10"/>
<path d="M148.349 278.049C149.26 278.049 150 278.333 150.626 278.843C151.253 279.354 151.537 280.035 151.537 280.773C151.537 281.567 151.253 282.248 150.683 282.702C150.114 283.213 149.374 283.44 148.406 283.44C147.438 283.44 146.698 283.213 146.071 282.759C145.502 282.305 145.16 281.681 145.16 280.83C145.16 280.035 145.445 279.411 146.071 278.843C146.698 278.333 147.438 278.049 148.349 278.049ZM145.786 289.115C145.786 288.548 146.071 288.037 146.584 287.697C147.096 287.356 147.722 287.129 148.463 287.129C149.203 287.129 149.772 287.299 150.285 287.697C150.797 288.094 151.025 288.605 151.025 289.229V310.568C151.025 311.135 150.74 311.646 150.228 311.987C149.715 312.327 149.089 312.554 148.349 312.554C147.722 312.554 147.096 312.384 146.584 312.043C146.071 311.703 145.786 311.249 145.786 310.738V289.115Z" fill="#5B5038" stroke="#5B5038" stroke-width="0.174584" stroke-miterlimit="10"/>
<path d="M161.502 301.034C161.502 303.36 162.186 305.233 163.552 306.652C165.09 308.241 167.196 309.036 169.93 309.036C173.118 309.036 175.567 307.901 177.275 305.574C178.072 304.495 178.869 303.928 179.723 303.928C180.52 303.928 181.204 304.098 181.773 304.495C182.342 304.893 182.627 305.404 182.627 306.085C182.627 306.368 182.513 306.709 182.286 307.106C182.058 307.503 181.773 307.844 181.488 308.241C180.293 309.717 178.641 310.852 176.648 311.589C174.599 312.327 172.492 312.725 170.157 312.725C165.659 312.725 162.186 311.589 159.794 309.263C157.403 306.936 156.207 303.871 156.207 300.012C156.207 295.983 157.46 292.748 159.965 290.421C162.47 288.037 166.115 286.902 170.898 286.902C174.485 286.902 177.446 288.094 179.78 290.478C181.944 292.748 183.026 295.415 183.026 298.537C183.026 299.161 182.969 299.558 182.912 299.728C182.684 300.353 182.115 300.807 181.147 301.034H180.52H161.502ZM177.73 297.345C177.446 295.302 176.762 293.713 175.68 292.578C174.371 291.272 172.549 290.648 170.271 290.648C167.88 290.648 165.887 291.272 164.292 292.521C162.698 293.769 161.787 295.358 161.559 297.401H177.73V297.345Z" fill="#5B5038" stroke="#5B5038" stroke-width="0.174584" stroke-miterlimit="10"/>
<path d="M199.423 294.336C200.049 294.336 200.505 294.506 200.847 294.903C201.188 295.301 201.359 295.755 201.359 296.266V296.776C201.359 297.23 201.131 297.628 200.676 297.911C200.22 298.195 199.708 298.365 199.138 298.365H188.661C188.035 298.365 187.523 298.195 187.124 297.798C186.726 297.401 186.555 296.947 186.555 296.379C186.555 295.811 186.726 295.357 187.067 294.96C187.409 294.563 187.864 294.393 188.548 294.393H199.423V294.336Z" fill="#5B5038" stroke="#5B5038" stroke-width="0.174584" stroke-miterlimit="10"/>
<path d="M206.427 287.413V286.562C206.427 283.554 206.939 281.454 207.964 280.262C209.217 278.787 211.552 278.049 214.968 278.049C215.879 278.049 216.562 278.162 217.132 278.446C217.644 278.73 217.872 279.184 217.872 279.978C217.872 281.057 216.847 281.681 214.74 281.851C212.633 282.021 211.609 283.156 211.609 285.2V287.47L214.683 287.243C215.765 287.243 216.562 287.413 217.075 287.753C217.587 288.094 217.872 288.718 217.872 289.569C217.872 290.08 217.587 290.477 217.018 290.761C216.448 291.045 215.48 291.159 214.114 291.159H211.552V310.568C211.552 311.192 211.324 311.703 210.811 312.1C210.299 312.441 209.673 312.611 208.932 312.611C208.192 312.611 207.566 312.384 207.11 311.987C206.655 311.589 206.427 311.078 206.427 310.397V291.159H204.32C203.352 291.159 202.612 291.045 202.1 290.761C201.587 290.534 201.359 290.023 201.359 289.286C201.359 288.548 201.587 288.094 202.1 287.81C202.612 287.526 203.352 287.413 204.32 287.413H206.427Z" fill="#5B5038" stroke="#5B5038" stroke-width="0.174584" stroke-miterlimit="10"/>
<path d="M222.77 288.775C222.77 288.264 222.997 287.867 223.51 287.583C224.022 287.299 224.535 287.129 225.161 287.129C226.129 287.129 226.812 287.356 227.211 287.81C227.553 288.264 227.78 288.945 227.78 289.853V291.669C228.407 290.25 229.432 289.115 230.741 288.321C232.108 287.526 233.645 287.129 235.467 287.129C236.378 287.129 237.118 287.299 237.631 287.696C238.2 288.094 238.428 288.661 238.428 289.399C238.428 290.25 237.859 290.818 236.777 291.158C236.663 291.215 235.638 291.385 233.645 291.669C231.652 292.01 230.172 292.974 229.204 294.62C228.35 295.982 227.951 297.685 227.951 299.728V310.511C227.951 311.873 227.154 312.554 225.56 312.554C224.876 312.554 224.25 312.44 223.681 312.157C223.111 311.873 222.826 311.476 222.826 310.851V288.775H222.77Z" fill="#5B5038" stroke="#5B5038" stroke-width="0.174584" stroke-miterlimit="10"/>
<path d="M245.545 301.034C245.545 303.36 246.229 305.233 247.595 306.652C249.133 308.241 251.239 309.036 253.973 309.036C257.161 309.036 259.61 307.901 261.318 305.574C262.115 304.495 262.912 303.928 263.766 303.928C264.563 303.928 265.247 304.098 265.816 304.495C266.385 304.893 266.67 305.404 266.67 306.085C266.67 306.368 266.556 306.709 266.328 307.106C266.101 307.503 265.816 307.844 265.531 308.241C264.336 309.717 262.684 310.852 260.691 311.589C258.642 312.327 256.535 312.725 254.2 312.725C249.702 312.725 246.229 311.589 243.837 309.263C241.446 306.936 240.25 303.871 240.25 300.012C240.25 295.983 241.503 292.748 244.008 290.421C246.513 288.037 250.158 286.902 254.941 286.902C258.528 286.902 261.489 288.094 263.823 290.478C265.987 292.748 267.069 295.415 267.069 298.537C267.069 299.161 267.012 299.558 266.955 299.728C266.727 300.353 266.158 300.807 265.19 301.034H264.563H245.545ZM261.716 297.345C261.432 295.302 260.748 293.713 259.667 292.578C258.357 291.272 256.535 290.648 254.257 290.648C251.866 290.648 249.873 291.272 248.279 292.521C246.684 293.769 245.773 295.358 245.545 297.401H261.716V297.345Z" fill="#5B5038" stroke="#5B5038" stroke-width="0.174584" stroke-miterlimit="10"/>
<path d="M276.635 301.034C276.635 303.36 277.319 305.233 278.685 306.652C280.222 308.241 282.329 309.036 285.062 309.036C288.251 309.036 290.699 307.901 292.408 305.574C293.205 304.495 294.002 303.928 294.856 303.928C295.653 303.928 296.336 304.098 296.906 304.495C297.475 304.893 297.76 305.404 297.76 306.085C297.76 306.368 297.646 306.709 297.418 307.106C297.191 307.503 296.906 307.844 296.621 308.241C295.425 309.717 293.774 310.852 291.781 311.589C289.731 312.327 287.625 312.725 285.29 312.725C280.792 312.725 277.319 311.589 274.927 309.263C272.536 306.936 271.34 303.871 271.34 300.012C271.34 295.983 272.593 292.748 275.098 290.421C277.603 288.037 281.247 286.902 286.03 286.902C289.618 286.902 292.578 288.094 294.913 290.478C297.077 292.748 298.159 295.415 298.159 298.537C298.159 299.161 298.102 299.558 298.045 299.728C297.817 300.353 297.248 300.807 296.28 301.034H295.653H276.635ZM292.863 297.345C292.578 295.302 291.895 293.713 290.813 292.578C289.504 291.272 287.682 290.648 285.404 290.648C283.013 290.648 281.02 291.272 279.425 292.521C277.831 293.769 276.92 295.358 276.692 297.401H292.863V297.345Z" fill="#5B5038" stroke="#5B5038" stroke-width="0.174584" stroke-miterlimit="10"/>
<path d="M332.265 308.865C333.973 308.865 335.397 308.524 336.593 307.843C338.016 307.049 338.699 305.971 338.699 304.495C338.699 302.736 337.219 301.43 334.201 300.522C331.183 299.614 328.222 298.763 325.319 297.855C322.187 296.379 320.593 294.223 320.593 291.215C320.593 288.945 321.561 287.072 323.44 285.483C325.319 283.951 327.596 283.156 330.215 283.156H333.518C335.739 283.156 337.959 283.894 340.237 285.313C342.685 286.902 343.881 288.661 343.881 290.534C343.881 291.272 343.596 291.839 343.027 292.18C342.457 292.52 341.774 292.691 340.863 292.691C340.465 292.691 339.497 291.726 338.016 289.796C336.536 287.867 334.372 286.902 331.525 286.902C330.101 286.902 328.906 287.186 327.938 287.753C326.685 288.434 326.059 289.399 326.059 290.591C326.059 292.237 327.653 293.485 330.785 294.45C336.251 296.039 339.155 296.947 339.497 297.117C342.628 298.65 344.223 301.033 344.223 304.211C344.223 307.106 342.97 309.319 340.408 310.851C338.244 312.157 335.454 312.781 332.037 312.781C328.906 312.781 326.116 312.1 323.667 310.794C320.763 309.205 319.34 307.106 319.34 304.438C319.34 303.644 319.625 303.019 320.251 302.565C320.877 302.111 321.617 301.941 322.528 301.941C323.383 301.941 324.408 303.076 325.489 305.346C326.628 307.73 328.906 308.865 332.265 308.865Z" fill="#5B5038" stroke="#5B5038" stroke-width="0.174584" stroke-miterlimit="10"/>
<path d="M357.204 305.97C357.716 303.757 358.286 301.374 359.026 298.82C359.254 298.082 359.937 295.698 361.133 291.726L362.613 287.129C362.67 286.788 362.784 286.505 362.841 286.164C362.898 285.88 363.069 285.483 363.296 284.915C363.524 284.405 363.866 284.007 364.435 283.667C364.948 283.383 365.574 283.213 366.314 283.213C367.111 283.213 367.795 283.326 368.307 283.667C368.876 283.951 369.218 284.461 369.389 285.142L374.229 301.43C374.684 303.133 374.969 304.325 375.14 304.949C375.311 305.573 375.311 306.027 375.311 306.368C375.709 304.665 376.165 302.679 376.791 300.522C377.417 298.366 378.328 295.415 379.524 291.782L381.062 286.959L381.745 284.972C382.2 283.837 383.054 283.27 384.364 283.27C386.414 283.27 387.382 284.121 387.382 285.88C387.382 286.107 386.699 288.15 385.332 291.953C383.795 296.266 382.087 300.92 380.264 305.914L379.069 309.149L378.442 310.851C377.873 311.986 376.791 312.497 375.197 312.497C374.4 312.497 373.716 312.327 373.204 312.043C372.634 311.759 372.236 311.305 372.065 310.681L367.054 295.358C366.827 294.734 366.656 293.996 366.485 293.088C366.314 292.236 366.2 291.385 366.029 290.534C365.802 292.407 365.517 294.166 365.175 295.698C364.777 297.231 363.923 300.295 362.442 304.835C361.759 306.765 361.133 308.695 360.506 310.567C360.051 311.816 359.026 312.383 357.318 312.383C356.407 312.383 355.666 312.27 355.097 311.986C354.528 311.702 354.129 311.248 353.901 310.511L345.189 285.767V285.54C345.189 284.859 345.531 284.291 346.157 283.951C346.784 283.553 347.581 283.383 348.492 283.383C349.118 283.383 349.631 283.553 350.029 283.894C350.428 284.234 350.827 284.802 351.111 285.596C351.396 286.391 351.738 287.356 352.079 288.548C352.421 289.739 352.819 290.874 353.161 291.953C354.129 295.017 354.869 297.344 355.325 298.933C356.008 301.09 356.634 303.417 357.204 305.97Z" fill="#5B5038" stroke="#5B5038" stroke-width="0.174584" stroke-miterlimit="10"/>
<path d="M395.695 299.445C395.695 302.112 396.435 304.269 397.916 305.914C399.567 307.731 401.844 308.639 404.805 308.639C408.279 308.639 410.898 307.333 412.72 304.666C413.574 303.417 414.485 302.793 415.396 302.793C416.25 302.793 416.99 303.02 417.617 303.474C418.243 303.928 418.528 304.552 418.528 305.29C418.528 305.631 418.414 306.028 418.129 306.482C417.901 306.936 417.617 307.333 417.275 307.787C415.965 309.49 414.2 310.795 411.98 311.646C409.816 312.498 407.481 312.952 404.976 312.952C400.079 312.952 396.378 311.646 393.759 308.979C391.14 306.368 389.83 302.793 389.83 298.423C389.83 293.77 391.197 290.081 393.93 287.413C396.663 284.689 400.592 283.327 405.773 283.327C409.645 283.327 412.834 284.689 415.396 287.413C417.731 289.967 418.926 293.032 418.926 296.607C418.926 297.345 418.869 297.799 418.812 298.026C418.585 298.707 417.901 299.218 416.877 299.558H416.193H395.695V299.445ZM413.232 295.188C412.948 292.861 412.207 291.045 411.012 289.74C409.588 288.265 407.652 287.527 405.147 287.527C402.585 287.527 400.421 288.208 398.656 289.627C396.891 291.045 395.923 292.861 395.695 295.188H413.232Z" fill="#5B5038" stroke="#5B5038" stroke-width="0.174584" stroke-miterlimit="10"/>
<path d="M429.404 299.445C429.404 302.112 430.144 304.269 431.625 305.914C433.276 307.731 435.553 308.639 438.514 308.639C441.988 308.639 444.607 307.333 446.429 304.666C447.283 303.417 448.194 302.793 449.105 302.793C449.959 302.793 450.699 303.02 451.326 303.474C451.952 303.928 452.237 304.552 452.237 305.29C452.237 305.631 452.123 306.028 451.838 306.482C451.61 306.936 451.326 307.333 450.984 307.787C449.674 309.49 447.909 310.795 445.689 311.646C443.525 312.498 441.19 312.952 438.685 312.952C433.788 312.952 430.087 311.646 427.468 308.979C424.849 306.368 423.539 302.793 423.539 298.423C423.539 293.77 424.906 290.081 427.639 287.413C430.372 284.689 434.301 283.327 439.482 283.327C443.354 283.327 446.543 284.689 449.105 287.413C451.44 289.967 452.635 293.032 452.635 296.607C452.635 297.345 452.578 297.799 452.521 298.026C452.294 298.707 451.61 299.218 450.586 299.558H449.902H429.404V299.445ZM446.941 295.188C446.657 292.861 445.916 291.045 444.721 289.74C443.297 288.265 441.361 287.527 438.856 287.527C436.294 287.527 434.13 288.208 432.365 289.627C430.6 291.045 429.632 292.861 429.404 295.188H446.941Z" fill="#5B5038" stroke="#5B5038" stroke-width="0.174584" stroke-miterlimit="10"/>
<path d="M459.525 283.78V277.14C459.525 276.459 459.81 275.892 460.323 275.494C460.835 275.097 461.518 274.927 462.315 274.927C463.17 274.927 463.853 275.154 464.365 275.551C464.935 275.948 465.162 276.573 465.162 277.31V283.78H467.782C468.807 283.78 469.661 283.894 470.287 284.177C470.913 284.461 471.255 285.029 471.255 285.88C471.255 286.674 470.913 287.242 470.287 287.582C469.661 287.923 468.807 288.036 467.839 288.036H464.992V303.643C464.992 306.594 466.074 308.183 468.294 308.354C470.458 308.524 471.597 309.262 471.597 310.453C471.597 311.305 471.141 311.929 470.23 312.213C469.604 312.44 468.75 312.553 467.554 312.553C464.251 312.553 462.088 311.872 460.949 310.51C459.981 309.375 459.525 307.275 459.525 304.154V288.036H457.134C456.052 288.036 455.255 287.866 454.742 287.582C454.23 287.299 453.945 286.731 453.945 285.823C453.945 284.972 454.23 284.461 454.799 284.121C455.369 283.837 456.166 283.667 457.191 283.667H459.525V283.78Z" fill="#5B5038" stroke="#5B5038" stroke-width="0.174584" stroke-miterlimit="10"/>
<path d="M493.918 285.767C493.918 285.086 494.203 284.518 494.772 284.064C495.341 283.61 496.025 283.44 496.879 283.44C498.075 283.44 498.815 283.781 499.27 284.462C499.555 284.972 499.726 285.824 499.726 286.902C501.206 285.54 502.63 284.575 503.996 284.008C505.363 283.44 507.071 283.156 509.121 283.156C513.562 283.156 517.036 284.632 519.484 287.64C521.648 290.307 522.786 293.769 522.786 297.912C522.786 302.168 521.762 305.63 519.769 308.184C517.434 311.192 513.961 312.667 509.406 312.667C507.527 312.667 505.761 312.327 504.11 311.589C502.858 311.021 501.377 310.057 499.726 308.751V320.442C499.726 321.123 499.441 321.691 498.872 322.088C498.302 322.485 497.619 322.769 496.879 322.769C496.025 322.769 495.285 322.542 494.772 322.088C494.26 321.634 493.975 321.01 493.975 320.272V285.767H493.918ZM508.722 308.751C511.626 308.751 513.79 307.616 515.27 305.29C516.409 303.417 517.036 301.09 517.036 298.196C517.036 294.904 516.523 292.407 515.441 290.704C514.018 288.491 511.626 287.356 508.21 287.356C505.192 287.356 502.914 288.434 501.434 290.648C500.181 292.464 499.555 294.79 499.555 297.685C499.555 300.806 500.181 303.303 501.491 305.233C503.028 307.616 505.42 308.751 508.722 308.751Z" fill="#5B5038" stroke="#5B5038" stroke-width="0.174584" stroke-miterlimit="10"/>
<path d="M529.504 285.369C529.504 284.801 529.789 284.347 530.301 284.007C530.814 283.666 531.44 283.496 532.123 283.496C533.205 283.496 533.945 283.78 534.344 284.291C534.742 284.858 534.913 285.596 534.913 286.674V288.717C535.596 287.072 536.678 285.823 538.159 284.858C539.582 283.95 541.29 283.439 543.283 283.439C544.251 283.439 545.048 283.666 545.675 284.064C546.244 284.518 546.586 285.142 546.586 286.05C546.586 287.015 545.96 287.696 544.764 288.036C544.65 288.093 543.511 288.263 541.347 288.661C539.184 289.058 537.589 290.193 536.507 292.066C535.596 293.598 535.141 295.584 535.141 297.911V310.283C535.141 311.815 534.287 312.61 532.522 312.61C531.781 312.61 531.098 312.44 530.472 312.156C529.846 311.815 529.561 311.361 529.561 310.68V285.369H529.504Z" fill="#5B5038" stroke="#5B5038" stroke-width="0.174584" stroke-miterlimit="10"/>
<path d="M563.555 283.213C568.509 283.213 572.267 284.575 574.886 287.356C577.392 289.966 578.587 293.542 578.587 298.025C578.587 302.282 577.335 305.8 574.829 308.468C572.153 311.362 568.452 312.837 563.783 312.837C558.658 312.837 554.786 311.532 552.167 308.978C549.548 306.424 548.238 302.792 548.238 298.082C548.238 293.542 549.491 289.966 551.996 287.413C554.672 284.632 558.544 283.213 563.555 283.213ZM563.213 308.751C566.573 308.751 569.021 307.73 570.673 305.63C572.096 303.757 572.836 301.317 572.836 298.252C572.836 294.961 572.21 292.407 570.957 290.704C569.42 288.491 566.915 287.413 563.441 287.413C560.139 287.413 557.69 288.491 556.039 290.591C554.616 292.407 553.932 294.904 553.932 297.968C553.932 301.147 554.559 303.587 555.868 305.403C557.463 307.673 559.911 308.751 563.213 308.751Z" fill="#5B5038" stroke="#5B5038" stroke-width="0.174584" stroke-miterlimit="10"/>
<path d="M585.477 283.78V277.14C585.477 276.459 585.761 275.892 586.274 275.494C586.786 275.097 587.47 274.927 588.267 274.927C589.121 274.927 589.804 275.154 590.317 275.551C590.886 275.948 591.114 276.573 591.114 277.31V283.78H593.733C594.758 283.78 595.612 283.894 596.238 284.177C596.865 284.461 597.206 285.029 597.206 285.88C597.206 286.674 596.865 287.242 596.238 287.582C595.612 287.923 594.758 288.036 593.79 288.036H590.943V303.643C590.943 306.594 592.025 308.183 594.245 308.354C596.409 308.524 597.548 309.262 597.548 310.453C597.548 311.305 597.092 311.929 596.181 312.213C595.555 312.44 594.701 312.553 593.505 312.553C590.203 312.553 588.039 311.872 586.9 310.51C585.932 309.375 585.477 307.275 585.477 304.154V288.036H583.085C582.003 288.036 581.206 287.866 580.694 287.582C580.181 287.299 579.896 286.731 579.896 285.823C579.896 284.972 580.181 284.461 580.751 284.121C581.32 283.837 582.117 283.667 583.142 283.667H585.477V283.78Z" fill="#5B5038" stroke="#5B5038" stroke-width="0.174584" stroke-miterlimit="10"/>
<path d="M606.544 299.445C606.544 302.112 607.285 304.269 608.765 305.914C610.416 307.731 612.694 308.639 615.655 308.639C619.128 308.639 621.747 307.333 623.569 304.666C624.424 303.417 625.335 302.793 626.246 302.793C627.1 302.793 627.84 303.02 628.466 303.474C629.093 303.928 629.377 304.552 629.377 305.29C629.377 305.631 629.263 306.028 628.979 306.482C628.751 306.936 628.466 307.333 628.125 307.787C626.815 309.49 625.05 310.795 622.829 311.646C620.666 312.498 618.331 312.952 615.826 312.952C610.929 312.952 607.228 311.646 604.609 308.979C601.989 306.368 600.68 302.793 600.68 298.423C600.68 293.77 602.046 290.081 604.779 287.413C607.512 284.689 611.441 283.327 616.623 283.327C620.495 283.327 623.683 284.689 626.246 287.413C628.58 289.967 629.776 293.032 629.776 296.607C629.776 297.345 629.719 297.799 629.662 298.026C629.434 298.707 628.751 299.218 627.726 299.558H627.043H606.544V299.445ZM624.082 295.188C623.797 292.861 623.057 291.045 621.861 289.74C620.438 288.265 618.502 287.527 615.996 287.527C613.434 287.527 611.27 288.208 609.505 289.627C607.74 291.045 606.772 292.861 606.544 295.188H624.082Z" fill="#5B5038" stroke="#5B5038" stroke-width="0.174584" stroke-miterlimit="10"/>
<path d="M639.797 273.111C640.765 273.111 641.619 273.395 642.303 274.019C642.986 274.587 643.271 275.381 643.271 276.233C643.271 277.141 642.986 277.879 642.36 278.446C641.733 279.014 640.936 279.297 639.854 279.297C638.829 279.297 637.975 279.014 637.349 278.503C636.722 277.992 636.381 277.254 636.381 276.289C636.381 275.381 636.722 274.644 637.349 274.019C637.975 273.395 638.772 273.111 639.797 273.111ZM637.007 285.71C637.007 285.029 637.292 284.518 637.861 284.064C638.431 283.61 639.114 283.44 639.854 283.44C640.651 283.44 641.278 283.667 641.847 284.121C642.36 284.575 642.644 285.143 642.644 285.881V310.341C642.644 311.022 642.36 311.532 641.79 311.986C641.221 312.44 640.537 312.611 639.797 312.611C639.114 312.611 638.431 312.384 637.861 311.986C637.292 311.589 637.007 311.078 637.007 310.511V285.71Z" fill="#5B5038" stroke="#5B5038" stroke-width="0.174584" stroke-miterlimit="10"/>
<path d="M649.932 285.71C649.932 285.086 650.216 284.518 650.729 284.121C651.241 283.724 651.868 283.44 652.608 283.44C653.917 283.44 654.772 283.837 655.17 284.688C655.398 285.199 655.569 286.107 655.569 287.413C656.594 285.823 658.188 284.688 660.352 284.007C662.06 283.497 664.11 283.213 666.615 283.213C669.519 283.213 671.853 284.178 673.619 286.164C675.156 287.923 675.953 290.193 675.953 292.974V310.284C675.953 310.965 675.668 311.532 675.156 311.986C674.644 312.44 674.017 312.61 673.22 312.61C672.366 312.61 671.626 312.383 671.113 311.929C670.601 311.475 670.316 310.851 670.316 310.113V296.777C670.316 293.712 670.088 291.612 669.633 290.534C668.779 288.548 666.957 287.583 664.053 287.583C660.864 287.583 658.586 288.718 657.22 290.931C656.195 292.634 655.683 295.074 655.683 298.195V310.738C655.341 311.248 654.999 311.702 654.715 312.156C654.373 312.497 653.804 312.667 653.006 312.667C652.152 312.667 651.469 312.44 650.957 311.986C650.387 311.532 650.102 310.908 650.102 310.227V285.71H649.932Z" fill="#5B5038" stroke="#5B5038" stroke-width="0.174584" stroke-miterlimit="10"/>
<path d="M701.065 275.438C701.065 274.757 701.349 274.19 701.862 273.792C702.374 273.338 703.058 273.111 703.798 273.111C704.595 273.111 705.278 273.338 705.734 273.792C706.246 274.246 706.474 274.814 706.474 275.552V287.356C707.613 285.994 709.036 284.973 710.858 284.235C712.681 283.554 714.616 283.156 716.723 283.156C721.051 283.156 724.353 284.632 726.745 287.583C728.795 290.194 729.876 293.485 729.876 297.571C729.876 301.828 728.851 305.346 726.802 308.014C724.41 311.192 720.88 312.781 716.325 312.781C714.332 312.781 712.51 312.497 710.858 311.93C709.207 311.362 707.727 310.397 706.474 309.149C706.474 310.284 706.303 311.135 706.075 311.589C705.677 312.27 704.88 312.611 703.684 312.611C702.944 312.611 702.317 312.384 701.805 311.93C701.293 311.476 701.008 310.908 701.008 310.227V275.438H701.065ZM715.584 308.695C718.83 308.695 721.165 307.56 722.531 305.233C723.613 303.474 724.125 301.033 724.125 297.912C724.125 294.847 723.556 292.464 722.417 290.761C720.994 288.548 718.659 287.413 715.471 287.413C712.168 287.413 709.834 288.605 708.296 291.045C707.1 292.975 706.474 295.528 706.474 298.65C706.474 301.487 707.157 303.814 708.524 305.63C710.175 307.673 712.51 308.695 715.584 308.695Z" fill="#5B5038" stroke="#5B5038" stroke-width="0.174584" stroke-miterlimit="10"/>
<path d="M745.592 306.198C746.276 303.701 747.016 301.317 747.813 298.934C748.325 297.345 749.179 294.961 750.375 291.783L752.083 287.016C752.311 286.335 752.596 285.654 752.824 285.03C753.336 283.951 754.19 283.441 755.386 283.441C756.24 283.441 756.98 283.668 757.55 284.178C758.119 284.689 758.404 285.313 758.404 286.108C758.404 286.335 757.55 288.718 755.785 293.259C754.076 297.799 752.368 302.112 750.831 306.141C750.034 308.128 748.895 311.022 747.357 314.824C746.332 317.378 745.194 319.194 743.884 320.216C742.29 321.464 740.126 322.089 737.336 322.089C735.457 322.089 734.261 321.862 733.692 321.464C733.122 321.01 732.838 320.386 732.838 319.421C732.838 318.854 732.952 318.4 733.122 318.002C733.35 317.605 733.692 317.378 734.261 317.378C734.66 317.378 735.172 317.435 735.856 317.492C736.539 317.605 736.994 317.605 737.165 317.605C738.873 317.605 740.183 317.038 741.208 315.959C742.005 315.051 742.574 313.803 743.03 312.157C742.062 309.83 740.752 306.993 739.215 303.588C737.45 299.672 736.14 296.777 735.4 295.018C733.92 291.556 732.724 288.718 731.813 286.392L731.756 285.711C731.756 285.03 732.097 284.462 732.724 284.065C733.35 283.611 734.09 283.384 734.888 283.384C736.083 283.384 736.994 283.951 737.564 285.03L738.361 287.073L740.354 291.783C741.948 295.585 742.859 297.969 743.201 298.82C743.884 301.204 744.738 303.644 745.592 306.198Z" fill="#5B5038" stroke="#5B5038" stroke-width="0.174584" stroke-miterlimit="10"/>
<path d="M797.634 292.18C797.634 290.307 797.064 289.058 795.869 288.377C794.673 287.696 793.022 287.356 790.801 287.356C787.954 287.356 786.018 288.264 785.05 290.137C784.082 292.009 783 292.917 781.975 292.917C781.121 292.917 780.438 292.747 779.925 292.463C779.356 292.18 779.071 291.669 779.071 290.988C779.071 288.547 780.438 286.618 783.228 285.142C785.619 283.894 788.296 283.27 791.2 283.27C794.559 283.27 797.235 283.837 799.171 284.915C801.62 286.277 802.815 288.377 802.815 291.215V310.397C802.815 311.873 802.018 312.61 800.481 312.61C799.456 312.61 798.773 312.383 798.488 311.873C798.203 311.362 798.032 310.624 798.032 309.659V308.751C796.438 310.397 794.787 311.532 793.192 312.043C791.598 312.554 789.434 312.837 786.758 312.837C784.139 312.837 781.975 311.929 780.267 310.17C778.616 308.411 777.762 306.311 777.762 303.984C777.762 300.692 779.47 298.366 782.886 296.947C784.139 296.436 787.328 295.812 792.452 294.96C795.926 294.393 797.634 293.485 797.634 292.18ZM783.513 304.211C783.513 305.63 784.025 306.708 785.107 307.503C786.189 308.297 787.498 308.694 789.093 308.694C792.224 308.694 794.502 307.73 795.926 305.8C797.064 304.211 797.634 301.884 797.634 298.876V297.458C797.121 297.685 795.015 298.139 791.37 298.82C786.132 299.784 783.513 301.6 783.513 304.211Z" fill="#5B5038" stroke="#5B5038" stroke-width="0.174584" stroke-miterlimit="10"/>
<path d="M810.047 285.71C810.047 285.029 810.275 284.462 810.787 284.064C811.299 283.667 811.983 283.44 812.837 283.44C814.09 283.44 814.944 283.781 815.399 284.518C815.684 284.972 815.855 285.88 815.855 287.072C816.88 285.597 818.189 284.632 819.727 284.064C821.264 283.497 823.143 283.213 825.25 283.213C829.008 283.213 831.741 284.689 833.506 287.583C835.214 285.994 836.695 284.916 837.89 284.291C839.428 283.554 841.307 283.156 843.471 283.156C847.172 283.156 849.905 284.064 851.613 285.88C853.207 287.583 853.947 290.137 853.947 293.542V310.113C853.947 310.794 853.663 311.419 853.15 311.816C852.638 312.213 851.955 312.497 851.157 312.497C850.303 312.497 849.563 312.27 849.051 311.816C848.538 311.362 848.253 310.738 848.253 310V295.869C848.253 293.258 848.026 291.442 847.513 290.307C846.659 288.434 845.065 287.526 842.617 287.526C840.339 287.526 838.46 288.207 837.036 289.569C835.67 290.931 834.93 292.691 834.93 294.734V310C834.93 310.794 834.702 311.419 834.189 311.816C833.677 312.213 832.994 312.497 832.139 312.497C831.285 312.497 830.659 312.27 830.09 311.816C829.577 311.362 829.292 310.738 829.292 310V295.131C829.292 292.01 828.78 289.967 827.812 289.002C826.844 288.037 825.364 287.526 823.428 287.526C820.467 287.526 818.36 288.548 817.164 290.648C816.253 292.237 815.798 294.507 815.798 297.515V310.227C815.798 310.965 815.513 311.532 815.001 311.93C814.431 312.327 813.748 312.554 812.951 312.554C812.211 312.554 811.527 312.384 810.958 311.986C810.388 311.589 810.104 311.078 810.104 310.397V285.71H810.047Z" fill="#5B5038" stroke="#5B5038" stroke-width="0.174584" stroke-miterlimit="10"/>
<path d="M880.026 292.18C880.026 290.307 879.457 289.058 878.261 288.377C877.065 287.696 875.414 287.356 873.194 287.356C870.347 287.356 868.411 288.264 867.443 290.137C866.475 292.009 865.393 292.917 864.368 292.917C863.514 292.917 862.83 292.747 862.318 292.463C861.749 292.18 861.464 291.669 861.464 290.988C861.464 288.547 862.831 286.618 865.621 285.142C868.012 283.894 870.688 283.27 873.592 283.27C876.952 283.27 879.628 283.837 881.564 284.915C884.012 286.277 885.208 288.377 885.208 291.215V310.397C885.208 311.873 884.411 312.61 882.873 312.61C881.848 312.61 881.165 312.383 880.88 311.873C880.596 311.362 880.425 310.624 880.425 309.659V308.751C878.831 310.397 877.179 311.532 875.585 312.043C873.991 312.554 871.827 312.837 869.151 312.837C866.532 312.837 864.368 311.929 862.66 310.17C861.008 308.411 860.154 306.311 860.154 303.984C860.154 300.692 861.863 298.366 865.279 296.947C866.532 296.436 869.72 295.812 874.845 294.96C878.318 294.393 880.026 293.485 880.026 292.18ZM865.905 304.211C865.905 305.63 866.418 306.708 867.5 307.503C868.581 308.297 869.891 308.694 871.485 308.694C874.617 308.694 876.895 307.73 878.318 305.8C879.457 304.211 880.026 301.884 880.026 298.876V297.458C879.514 297.685 877.407 298.139 873.763 298.82C868.524 299.784 865.905 301.6 865.905 304.211Z" fill="#5B5038" stroke="#5B5038" stroke-width="0.174584" stroke-miterlimit="10"/>
<path d="M896.881 273.111C897.849 273.111 898.703 273.395 899.387 274.019C900.07 274.587 900.355 275.381 900.355 276.233C900.355 277.141 900.07 277.879 899.444 278.446C898.817 279.014 898.02 279.297 896.938 279.297C895.913 279.297 895.059 279.014 894.433 278.503C893.806 277.935 893.465 277.254 893.465 276.289C893.465 275.381 893.806 274.644 894.433 274.019C895.116 273.395 895.913 273.111 896.881 273.111ZM894.091 285.71C894.091 285.029 894.376 284.518 894.945 284.064C895.515 283.61 896.198 283.44 896.938 283.44C897.735 283.44 898.362 283.667 898.931 284.121C899.444 284.575 899.728 285.143 899.728 285.881V310.341C899.728 311.022 899.444 311.532 898.874 311.986C898.305 312.44 897.622 312.611 896.881 312.611C896.198 312.611 895.515 312.384 894.945 311.986C894.376 311.589 894.091 311.078 894.091 310.511V285.71Z" fill="#5B5038" stroke="#5B5038" stroke-width="0.174584" stroke-miterlimit="10"/>
<path d="M907.016 285.767C907.016 285.086 907.3 284.518 907.87 284.064C908.439 283.61 909.122 283.44 909.976 283.44C911.172 283.44 911.912 283.781 912.368 284.462C912.653 284.972 912.823 285.824 912.823 286.902C914.304 285.54 915.727 284.575 917.094 284.008C918.46 283.44 920.169 283.156 922.219 283.156C926.66 283.156 930.133 284.632 932.582 287.64C934.745 290.307 935.884 293.769 935.884 297.912C935.884 302.168 934.859 305.63 932.866 308.184C930.532 311.192 927.058 312.667 922.503 312.667C920.624 312.667 918.859 312.327 917.208 311.589C915.955 311.021 914.475 310.057 912.823 308.751V320.442C912.823 321.123 912.539 321.691 911.969 322.088C911.4 322.542 910.717 322.769 909.976 322.769C909.122 322.769 908.382 322.542 907.87 322.088C907.357 321.634 907.073 321.01 907.073 320.272V285.767H907.016ZM921.763 308.751C924.667 308.751 926.831 307.616 928.311 305.29C929.45 303.417 930.076 301.09 930.076 298.196C930.076 294.904 929.564 292.407 928.482 290.704C927.058 288.491 924.667 287.356 921.251 287.356C918.233 287.356 915.955 288.434 914.475 290.648C913.222 292.464 912.596 294.79 912.596 297.685C912.596 300.806 913.222 303.303 914.532 305.233C916.069 307.616 918.517 308.751 921.763 308.751Z" fill="#5B5038" stroke="#5B5038" stroke-width="0.174584" stroke-miterlimit="10"/>
<path d="M942.604 285.369C942.604 284.801 942.888 284.347 943.401 284.007C943.913 283.666 944.539 283.496 945.223 283.496C946.305 283.496 947.045 283.78 947.443 284.291C947.842 284.858 948.013 285.596 948.013 286.674V288.717C948.696 287.072 949.778 285.823 951.258 284.858C952.682 283.95 954.39 283.439 956.383 283.439C957.351 283.439 958.148 283.666 958.774 284.064C959.344 284.518 959.685 285.142 959.685 286.05C959.685 287.015 959.059 287.696 957.863 288.036C957.749 288.093 956.611 288.263 954.447 288.661C952.283 289.058 950.689 290.193 949.607 292.066C948.696 293.598 948.24 295.584 948.24 297.911V310.283C948.24 311.815 947.386 312.61 945.621 312.61C944.881 312.61 944.198 312.44 943.571 312.156C942.945 311.815 942.66 311.361 942.66 310.68V285.369H942.604Z" fill="#5B5038" stroke="#5B5038" stroke-width="0.174584" stroke-miterlimit="10"/>
<path d="M976.596 283.213C981.55 283.213 985.308 284.575 987.927 287.356C990.432 289.966 991.628 293.542 991.628 298.025C991.628 302.282 990.375 305.8 987.87 308.468C985.194 311.362 981.493 312.837 976.824 312.837C971.699 312.837 967.827 311.532 965.208 308.978C962.589 306.424 961.279 302.792 961.279 298.082C961.279 293.542 962.532 289.966 965.037 287.413C967.77 284.632 971.585 283.213 976.596 283.213ZM976.311 308.751C979.671 308.751 982.119 307.73 983.77 305.63C985.194 303.757 985.934 301.317 985.934 298.252C985.934 294.961 985.308 292.407 984.055 290.704C982.518 288.491 980.012 287.413 976.539 287.413C973.237 287.413 970.788 288.491 969.137 290.591C967.713 292.407 967.03 294.904 967.03 297.968C967.03 301.147 967.656 303.587 968.966 305.403C970.56 307.673 973.009 308.751 976.311 308.751Z" fill="#5B5038" stroke="#5B5038" stroke-width="0.174584" stroke-miterlimit="10"/>
<path d="M998.576 283.78V277.14C998.576 276.459 998.861 275.892 999.373 275.494C999.886 275.097 1000.57 274.927 1001.37 274.927C1002.22 274.927 1002.9 275.154 1003.42 275.551C1003.99 275.948 1004.21 276.573 1004.21 277.31V283.78H1006.83C1007.86 283.78 1008.71 283.894 1009.34 284.177C1009.96 284.461 1010.31 285.029 1010.31 285.88C1010.31 286.674 1009.96 287.242 1009.34 287.582C1008.71 287.923 1007.86 288.036 1006.89 288.036H1004.04V303.643C1004.04 306.594 1005.12 308.183 1007.35 308.354C1009.51 308.524 1010.65 309.262 1010.65 310.453C1010.65 311.305 1010.19 311.929 1009.28 312.213C1008.65 312.44 1007.8 312.553 1006.6 312.553C1003.3 312.553 1001.14 311.872 1000 310.51C999.032 309.375 998.576 307.275 998.576 304.154V288.036H996.185C995.103 288.036 994.306 287.866 993.793 287.582C993.281 287.299 992.996 286.731 992.996 285.823C992.996 284.972 993.281 284.461 993.85 284.121C994.42 283.837 995.217 283.667 996.242 283.667H998.576V283.78Z" fill="#5B5038" stroke="#5B5038" stroke-width="0.174584" stroke-miterlimit="10"/>
<path d="M1019.64 299.445C1019.64 302.112 1020.38 304.269 1021.86 305.914C1023.52 307.731 1025.79 308.639 1028.75 308.639C1032.23 308.639 1034.85 307.333 1036.67 304.666C1037.52 303.417 1038.43 302.793 1039.35 302.793C1040.2 302.793 1040.94 303.02 1041.57 303.474C1042.19 303.928 1042.48 304.552 1042.48 305.29C1042.48 305.631 1042.36 306.028 1042.08 306.482C1041.85 306.936 1041.57 307.333 1041.22 307.787C1039.91 309.49 1038.15 310.795 1035.93 311.646C1033.77 312.498 1031.43 312.952 1028.93 312.952C1024.03 312.952 1020.33 311.646 1017.71 308.979C1015.09 306.368 1013.78 302.793 1013.78 298.423C1013.78 293.77 1015.15 290.081 1017.88 287.413C1020.61 284.689 1024.54 283.327 1029.72 283.327C1033.59 283.327 1036.78 284.689 1039.35 287.413C1041.68 289.967 1042.88 293.032 1042.88 296.607C1042.88 297.345 1042.82 297.799 1042.76 298.026C1042.53 298.707 1041.85 299.218 1040.83 299.558H1040.14H1019.64V299.445ZM1037.18 295.188C1036.9 292.861 1036.16 291.045 1034.96 289.74C1033.54 288.265 1031.6 287.527 1029.1 287.527C1026.53 287.527 1024.37 288.208 1022.6 289.627C1020.84 291.045 1019.87 292.861 1019.64 295.188H1037.18Z" fill="#5B5038" stroke="#5B5038" stroke-width="0.174584" stroke-miterlimit="10"/>
<path d="M1052.84 273.111C1053.81 273.111 1054.66 273.395 1055.34 274.019C1056.03 274.587 1056.31 275.381 1056.31 276.233C1056.31 277.141 1056.03 277.879 1055.4 278.446C1054.77 279.014 1053.98 279.297 1052.9 279.297C1051.87 279.297 1051.02 279.014 1050.39 278.503C1049.76 277.935 1049.42 277.254 1049.42 276.289C1049.42 275.381 1049.76 274.644 1050.39 274.019C1051.07 273.395 1051.87 273.111 1052.84 273.111ZM1050.05 285.71C1050.05 285.029 1050.33 284.518 1050.9 284.064C1051.47 283.61 1052.15 283.44 1052.9 283.44C1053.69 283.44 1054.32 283.667 1054.89 284.121C1055.4 284.575 1055.69 285.143 1055.69 285.881V310.341C1055.69 311.022 1055.4 311.532 1054.83 311.986C1054.26 312.44 1053.58 312.611 1052.84 312.611C1052.15 312.611 1051.47 312.384 1050.9 311.986C1050.33 311.589 1050.05 311.078 1050.05 310.511V285.71Z" fill="#5B5038" stroke="#5B5038" stroke-width="0.174584" stroke-miterlimit="10"/>
<path d="M1063.03 285.71C1063.03 285.086 1063.32 284.518 1063.83 284.121C1064.34 283.724 1065.02 283.44 1065.71 283.44C1067.02 283.44 1067.87 283.837 1068.27 284.688C1068.5 285.199 1068.67 286.107 1068.67 287.413C1069.69 285.823 1071.29 284.688 1073.45 284.007C1075.16 283.497 1077.21 283.213 1079.71 283.213C1082.62 283.213 1084.95 284.178 1086.72 286.164C1088.26 287.923 1089.05 290.193 1089.05 292.974V310.284C1089.05 310.965 1088.77 311.532 1088.26 311.986C1087.74 312.44 1087.12 312.61 1086.32 312.61C1085.47 312.61 1084.73 312.383 1084.21 311.929C1083.7 311.475 1083.42 310.851 1083.42 310.113V296.777C1083.42 293.712 1083.19 291.612 1082.73 290.534C1081.88 288.548 1080.06 287.583 1077.15 287.583C1073.96 287.583 1071.69 288.718 1070.32 290.931C1069.29 292.634 1068.78 295.074 1068.78 298.195V310.738C1068.44 311.248 1068.1 311.702 1067.81 312.156C1067.47 312.497 1066.9 312.667 1066.11 312.667C1065.31 312.667 1064.57 312.44 1064.06 311.986C1063.49 311.532 1063.2 310.908 1063.2 310.227V285.71H1063.03Z" fill="#5B5038" stroke="#5B5038" stroke-width="0.174584" stroke-miterlimit="10"/>
<path d="M1107.27 308.865C1108.98 308.865 1110.4 308.524 1111.6 307.843C1113.02 307.049 1113.71 305.971 1113.71 304.495C1113.71 302.736 1112.23 301.43 1109.21 300.522C1106.19 299.614 1103.23 298.763 1100.33 297.855C1097.19 296.379 1095.6 294.223 1095.6 291.215C1095.6 288.945 1096.57 287.072 1098.45 285.483C1100.33 283.951 1102.6 283.156 1105.22 283.156H1108.53C1110.75 283.156 1112.97 283.894 1115.24 285.313C1117.69 286.902 1118.89 288.661 1118.89 290.534C1118.89 291.272 1118.6 291.839 1118.03 292.18C1117.47 292.52 1116.78 292.691 1115.87 292.691C1115.47 292.691 1114.5 291.726 1113.02 289.796C1111.54 287.867 1109.38 286.902 1106.53 286.902C1105.11 286.902 1103.91 287.186 1102.95 287.753C1101.69 288.434 1101.07 289.399 1101.07 290.591C1101.07 292.237 1102.66 293.485 1105.79 294.45C1111.26 296.039 1114.16 296.947 1114.5 297.117C1117.64 298.65 1119.23 301.033 1119.23 304.211C1119.23 307.106 1117.98 309.319 1115.42 310.851C1113.25 312.157 1110.46 312.781 1107.05 312.781C1103.91 312.781 1101.12 312.1 1098.68 310.794C1095.77 309.205 1094.35 307.106 1094.35 304.438C1094.35 303.644 1094.63 303.019 1095.26 302.565C1095.89 302.111 1096.63 301.941 1097.54 301.941C1098.39 301.941 1099.42 303.076 1100.5 305.346C1101.64 307.73 1103.91 308.865 1107.27 308.865Z" fill="#5B5038" stroke="#5B5038" stroke-width="0.174584" stroke-miterlimit="10"/>
<path d="M1128.29 306.367C1129.42 306.367 1130.28 306.651 1130.9 307.162C1131.53 307.729 1131.87 308.467 1131.87 309.489C1131.87 310.397 1131.59 311.134 1130.96 311.702C1130.34 312.269 1129.54 312.61 1128.46 312.61C1127.43 312.61 1126.58 312.326 1125.89 311.759C1125.21 311.191 1124.93 310.453 1124.93 309.489C1124.93 308.581 1125.21 307.843 1125.84 307.275C1126.52 306.708 1127.32 306.367 1128.29 306.367Z" fill="#5B5038" stroke="#5B5038" stroke-width="0.174584" stroke-miterlimit="10"/>
<path d="M1150.95 287.413C1147.93 287.413 1145.65 288.491 1144.06 290.704C1142.75 292.577 1142.06 294.961 1142.06 297.855C1142.06 300.692 1142.69 303.133 1143.89 305.062C1145.37 307.446 1147.59 308.695 1150.55 308.695C1154.19 308.695 1156.81 307.503 1158.29 305.062C1159.83 302.622 1160.97 301.43 1161.76 301.43C1162.56 301.43 1163.25 301.657 1163.87 302.055C1164.5 302.452 1164.78 303.019 1164.78 303.644C1164.78 304.438 1164.5 305.403 1163.87 306.481C1163.25 307.559 1162.56 308.468 1161.82 309.205C1160.57 310.567 1158.97 311.475 1157.15 312.043C1155.33 312.61 1153.28 312.894 1151 312.894C1146.28 312.894 1142.58 311.475 1139.96 308.695C1137.51 306.084 1136.31 302.622 1136.31 298.252C1136.31 293.712 1137.57 290.08 1140.01 287.469C1142.63 284.632 1146.5 283.213 1151.52 283.213C1153.85 283.213 1155.9 283.553 1157.66 284.178C1159.37 284.802 1160.91 285.937 1162.28 287.469C1162.85 288.15 1163.3 288.831 1163.64 289.399C1163.99 289.966 1164.16 290.647 1164.16 291.272C1164.16 291.953 1163.87 292.52 1163.25 292.917C1162.62 293.371 1161.94 293.598 1161.14 293.598C1160.28 293.598 1159.09 292.577 1157.66 290.477C1156.18 288.434 1153.96 287.413 1150.95 287.413Z" fill="#5B5038" stroke="#5B5038" stroke-width="0.174584" stroke-miterlimit="10"/>
<path d="M1182.55 283.213C1187.5 283.213 1191.26 284.575 1193.88 287.356C1196.38 289.966 1197.58 293.542 1197.58 298.025C1197.58 302.282 1196.33 305.8 1193.82 308.468C1191.15 311.362 1187.44 312.837 1182.78 312.837C1177.65 312.837 1173.78 311.532 1171.16 308.978C1168.54 306.424 1167.23 302.792 1167.23 298.082C1167.23 293.542 1168.48 289.966 1170.99 287.413C1173.66 284.632 1177.54 283.213 1182.55 283.213ZM1182.21 308.751C1185.57 308.751 1188.01 307.73 1189.66 305.63C1191.09 303.757 1191.83 301.317 1191.83 298.252C1191.83 294.961 1191.2 292.407 1189.95 290.704C1188.41 288.491 1185.91 287.413 1182.43 287.413C1179.13 287.413 1176.68 288.491 1175.03 290.591C1173.61 292.407 1172.92 294.904 1172.92 297.968C1172.92 301.147 1173.55 303.587 1174.86 305.403C1176.45 307.673 1178.9 308.751 1182.21 308.751Z" fill="#5B5038" stroke="#5B5038" stroke-width="0.174584" stroke-miterlimit="10"/>
<path d="M1203.1 285.71C1203.1 285.029 1203.33 284.462 1203.84 284.064C1204.35 283.667 1205.04 283.44 1205.89 283.44C1207.14 283.44 1208 283.781 1208.45 284.518C1208.74 284.972 1208.91 285.88 1208.91 287.072C1209.93 285.597 1211.24 284.632 1212.78 284.064C1214.32 283.497 1216.2 283.213 1218.3 283.213C1222.06 283.213 1224.8 284.689 1226.56 287.583C1228.27 285.994 1229.75 284.916 1230.95 284.291C1232.48 283.554 1234.36 283.156 1236.53 283.156C1240.23 283.156 1242.96 284.064 1244.67 285.88C1246.26 287.583 1247 290.137 1247 293.542V310.113C1247 310.794 1246.72 311.419 1246.2 311.816C1245.69 312.213 1245.01 312.497 1244.21 312.497C1243.36 312.497 1242.62 312.27 1242.11 311.816C1241.59 311.362 1241.31 310.738 1241.31 310V295.869C1241.31 293.258 1241.08 291.442 1240.57 290.307C1239.71 288.434 1238.12 287.526 1235.67 287.526C1233.39 287.526 1231.51 288.207 1230.09 289.569C1228.72 290.931 1227.98 292.691 1227.98 294.734V310C1227.98 310.794 1227.76 311.419 1227.24 311.816C1226.73 312.27 1226.05 312.497 1225.19 312.497C1224.34 312.497 1223.71 312.27 1223.14 311.816C1222.63 311.362 1222.35 310.738 1222.35 310V295.131C1222.35 292.01 1221.83 289.967 1220.87 289.002C1219.9 288.037 1218.42 287.526 1216.48 287.526C1213.52 287.526 1211.41 288.548 1210.22 290.648C1209.31 292.237 1208.85 294.507 1208.85 297.515V310.227C1208.85 310.965 1208.57 311.532 1208.06 311.93C1207.49 312.327 1206.8 312.554 1206.01 312.554C1205.27 312.554 1204.58 312.384 1204.01 311.986C1203.44 311.589 1203.16 311.078 1203.16 310.397V285.71H1203.1Z" fill="#5B5038" stroke="#5B5038" stroke-width="0.174584" stroke-miterlimit="10"/>
</g>
</g>
<defs>
<linearGradient id="paint0_linear_2310_12695" x1="317.886" y1="250.887" x2="330.514" y2="60.5181" gradientUnits="userSpaceOnUse">
<stop offset="0.1207" stop-color="#128858"/>
<stop offset="0.1701" stop-color="#19905D"/>
<stop offset="0.279" stop-color="#22A268"/>
<stop offset="0.38" stop-color="#28AD6F"/>
<stop offset="0.4648" stop-color="#29B372"/>
<stop offset="0.5883" stop-color="#24A56A"/>
<stop offset="0.8231" stop-color="#158A59"/>
<stop offset="0.848" stop-color="#128858"/>
</linearGradient>
<linearGradient id="paint1_linear_2310_12695" x1="224.709" y1="245.805" x2="236.975" y2="60.8838" gradientUnits="userSpaceOnUse">
<stop stop-color="#29B372"/>
<stop offset="1" stop-color="#128858"/>
</linearGradient>
<linearGradient id="paint2_linear_2310_12695" x1="498.578" y1="247.313" x2="486.193" y2="60.6022" gradientUnits="userSpaceOnUse">
<stop stop-color="#29B372"/>
<stop offset="1" stop-color="#128858"/>
</linearGradient>
<linearGradient id="paint3_linear_2310_12695" x1="343.195" y1="60.7744" x2="451.69" y2="258.363" gradientUnits="userSpaceOnUse">
<stop stop-color="#29B372"/>
<stop offset="0.2114" stop-color="#21A067"/>
<stop offset="0.4679" stop-color="#1A925E"/>
<stop offset="0.7292" stop-color="#158A59"/>
<stop offset="1" stop-color="#128858"/>
</linearGradient>
<clipPath id="clip0_2310_12695">
<rect width="1337" height="350" fill="white" transform="translate(0 0.015625)"/>
</clipPath>
<clipPath id="clip1_2310_12695">
<rect width="1325.96" height="342.271" fill="white" transform="translate(6.625 -2.19238)"/>
</clipPath>
</defs>
</svg>
