<svg width="851" height="224" viewBox="0 0 851 224" fill="none" xmlns="http://www.w3.org/2000/svg">
<g clip-path="url(#clip0_3250_17985)">
<path d="M809.445 74.5923C806.075 73.1878 803.141 71.2918 800.641 68.8691C798.142 66.4464 796.149 63.6024 794.736 60.3722C793.287 57.142 792.562 53.6659 792.562 49.9441C792.562 46.2224 793.287 42.7112 794.736 39.481C796.185 36.2156 798.142 33.3716 800.641 30.949C803.141 28.5263 806.075 26.5952 809.445 25.2258C812.814 23.8214 816.4 23.1191 820.24 23.1191C824.008 23.1191 827.595 23.8214 830.964 25.2258C834.333 26.6303 837.267 28.5263 839.767 30.949C842.267 33.3716 844.259 36.2156 845.672 39.481C847.121 42.7463 847.846 46.2224 847.846 49.9441C847.846 53.6659 847.121 57.142 845.672 60.3722C844.223 63.6024 842.267 66.4113 839.767 68.8691C837.267 71.2918 834.333 73.2229 830.964 74.5923C827.595 75.9967 824.044 76.6989 820.24 76.6989C816.4 76.6638 812.814 75.9967 809.445 74.5923ZM799.446 58.3708C800.605 61.0042 802.235 63.3215 804.3 65.3229C806.365 67.3242 808.756 68.8691 811.51 70.0278C814.263 71.1513 817.161 71.7131 820.277 71.7131C823.356 71.7131 826.254 71.1513 828.971 70.0278C831.688 68.9042 834.079 67.3242 836.144 65.3229C838.209 63.3215 839.803 61.0042 840.999 58.3708C842.158 55.7375 842.738 52.9286 842.738 49.9441C842.738 46.9597 842.158 44.1157 840.999 41.4472C839.84 38.7788 838.209 36.4614 836.144 34.4601C834.079 32.4587 831.688 30.9138 828.971 29.7552C826.254 28.6316 823.356 28.0698 820.277 28.0698C817.197 28.0698 814.263 28.6316 811.51 29.7552C808.756 30.8787 806.365 32.4587 804.3 34.4601C802.235 36.4614 800.641 38.7788 799.446 41.4472C798.286 44.1157 797.707 46.9246 797.707 49.9441C797.707 52.9637 798.286 55.7375 799.446 58.3708ZM817.487 55.8077V60.8989C817.487 61.8469 817.125 62.6544 816.4 63.3566C815.676 64.0589 814.843 64.41 813.864 64.41C812.85 64.41 811.981 64.0589 811.292 63.3566C810.604 62.6544 810.278 61.8469 810.278 60.8989V37.9712C810.278 37.0232 810.64 36.2156 811.365 35.5134C812.089 34.8112 812.922 34.4601 813.901 34.4601H821.834C823.356 34.4601 824.769 34.741 826.109 35.3027C827.45 35.8645 828.645 36.637 829.66 37.585C830.674 38.533 831.507 39.6917 832.087 40.9908C832.667 42.2899 832.956 43.6592 832.956 45.1339C832.956 46.6788 832.667 47.9428 832.123 48.961C831.58 49.9793 830.928 50.857 830.167 51.489C829.406 52.1562 828.645 52.6828 827.921 53.0339C827.16 53.385 826.544 53.6659 826.073 53.8766L831.833 58.3708C832.667 59.1082 833.065 59.9509 833.065 60.9691C833.065 61.7766 832.775 62.5491 832.232 63.2513C831.688 63.9886 830.783 64.3398 829.551 64.3398C828.718 64.3398 827.957 64.0589 827.269 63.5322L817.886 55.7375H817.487V55.8077ZM817.487 40.9557V49.4526H821.726C822.885 49.4526 823.936 49.0313 824.805 48.1886C825.711 47.3459 826.146 46.3277 826.146 45.1339C826.146 44.0103 825.711 43.0272 824.805 42.1846C823.899 41.3419 822.885 40.9205 821.726 40.9205H817.487V40.9557Z" fill="#138758"/>
<path d="M7.72288 79.7883C7.72288 68.026 13.0483 59.0024 23.7717 52.7526C32.6837 47.521 43.697 44.8877 56.7027 44.8877C65.7958 44.8877 74.4905 46.6784 82.8591 50.2246C93.5462 54.754 98.9079 60.8633 98.9079 68.5176C98.9079 72.0638 97.6037 75.2589 94.9591 78.1029C92.3145 80.947 89.0902 82.3514 85.2863 82.3514C80.7579 82.3514 76.3381 79.9287 72.0994 75.1185C67.8608 70.3082 61.9919 67.8856 54.529 67.8856C49.2398 67.8856 45.3272 68.7282 42.7913 70.4487C40.2191 72.1691 38.9511 74.346 38.9511 77.0496C38.9511 81.7194 44.4577 85.5816 55.4347 88.531C72.4255 93.0603 82.7504 96.3257 86.4094 98.327C97.5313 104.296 103.11 113.32 103.11 125.363C103.11 137.301 98.0747 146.429 87.9672 152.82C79.3088 158.227 68.4767 160.895 55.4709 160.895C44.7838 160.895 34.314 158.824 24.0616 154.716C10.8747 149.484 4.28125 142.427 4.28125 133.649C4.28125 129.962 5.54922 126.662 8.12138 123.748C10.6935 120.833 13.8816 119.394 17.6855 119.394C23.5544 119.394 28.7712 122.413 33.4083 128.452C38.0092 134.492 45.3634 137.511 55.4709 137.511C59.5647 137.511 62.8614 136.879 65.3611 135.58C68.8752 133.86 70.6503 131.191 70.6503 127.504C70.6503 122.835 65.2162 118.972 54.3841 116.023C38.1179 111.634 28.0104 108.369 24.0616 106.227C13.1208 100.363 7.72288 91.5857 7.72288 79.7883Z" fill="#138758"/>
<path d="M380.326 112.161C380.471 112.583 380.543 113.355 380.543 114.514C380.543 115.637 380.616 116.655 380.761 117.498C381.485 122.765 384.311 127.189 389.202 130.805C394.093 134.422 399.346 136.248 404.925 136.248C410.649 136.248 416.771 133.544 423.364 128.172C426.589 125.468 429.741 124.134 432.82 124.134C437.059 124.134 440.645 125.398 443.58 127.961C446.514 130.524 447.963 133.86 447.963 137.968C447.963 145.341 442.456 151.24 431.479 155.629C422.676 159.175 413.837 160.966 404.888 160.966C387.028 160.966 372.827 155.804 362.285 145.412C351.742 135.054 346.453 121.22 346.453 103.91C346.453 86.8811 351.742 72.8366 362.285 61.7414C372.827 50.6814 386.883 45.1338 404.454 45.1338C419.959 45.1338 432.53 49.9791 442.13 59.705C451.731 69.4308 456.513 81.8953 456.513 97.0633C456.513 102.19 455.498 105.982 453.433 108.439C451.368 110.932 447.782 112.161 442.674 112.161H380.326ZM426.045 88.9526C424.125 75.7508 416.517 69.1499 403.186 69.1499C397.317 69.1499 392.281 71.0108 388.042 74.6975C383.804 78.3842 381.232 83.1593 380.362 88.9526H426.045Z" fill="#138758"/>
<path d="M495.201 112.161C495.346 112.583 495.418 113.355 495.418 114.514C495.418 115.637 495.491 116.655 495.636 117.498C496.36 122.765 499.186 127.189 504.077 130.805C508.967 134.422 514.221 136.248 519.8 136.248C525.524 136.248 531.646 133.544 538.239 128.172C541.464 125.468 544.616 124.134 547.695 124.134C551.934 124.134 555.52 125.398 558.455 127.961C561.389 130.524 562.838 133.86 562.838 137.968C562.838 145.341 557.331 151.24 546.354 155.629C537.551 159.175 528.712 160.966 519.763 160.966C501.903 160.966 487.702 155.804 477.16 145.412C466.617 135.054 461.328 121.22 461.328 103.91C461.328 86.8811 466.617 72.8366 477.16 61.7414C487.702 50.6814 501.758 45.1338 519.329 45.1338C534.834 45.1338 547.405 49.9791 557.005 59.705C566.606 69.4308 571.388 81.8953 571.388 97.0633C571.388 102.19 570.373 105.982 568.308 108.439C566.243 110.932 562.657 112.161 557.549 112.161H495.201ZM540.92 88.9526C539 75.7508 531.392 69.1499 518.061 69.1499C512.192 69.1499 507.156 71.0108 502.917 74.6975C498.679 78.3842 496.107 83.1593 495.237 88.9526H540.92Z" fill="#138758"/>
<path d="M586.391 24.2435C586.391 19.2928 587.767 15.1497 590.557 11.8844C593.346 8.61902 597.295 7.00391 602.403 7.00391C607.366 7.00391 611.207 8.65414 613.924 11.8844C616.641 15.1497 617.981 19.2577 617.981 24.2435V141.55C617.981 146.536 616.46 150.749 613.489 154.225C610.482 157.701 606.497 159.457 601.534 159.457C596.1 159.457 592.078 157.245 589.47 152.856C587.405 149.45 586.391 144.851 586.391 139.022V24.2435Z" fill="#138758"/>
<path d="M654.679 5.7041C659.063 5.7041 662.831 7.249 665.982 10.2686C669.134 13.3232 670.692 16.9748 670.692 21.2233C670.692 25.1909 669.171 28.6669 666.091 31.6513C663.012 34.6358 659.353 36.1105 655.114 36.1105C649.825 36.1105 645.84 34.5656 643.159 31.4407C640.442 28.3158 639.102 24.1375 639.102 18.8708C639.102 15.6055 640.804 12.5859 644.282 9.81212C647.687 7.07344 651.165 5.7041 654.679 5.7041ZM639.102 63.1812C639.102 58.7923 640.587 55.0003 643.594 51.8052C646.601 48.6101 650.368 47.0301 654.897 47.0301C658.991 47.0301 662.65 48.3643 665.874 51.0679C669.098 53.7714 670.692 57.107 670.692 61.0746V143.024C670.692 147.273 669.098 151.065 665.982 154.4C662.831 157.736 659.135 159.421 654.897 159.421C650.079 159.421 646.202 157.666 643.376 154.084C640.514 150.538 639.102 146.36 639.102 141.514V63.1812Z" fill="#138758"/>
<path d="M703.154 46.9952C707.066 46.9952 710.508 48.1539 713.406 50.5063C716.304 52.8588 718.333 55.9486 719.529 59.7757C724.238 54.825 728.875 51.1734 733.513 48.9263C738.15 46.6441 743.765 45.5205 750.358 45.5205C762.567 45.5205 772.167 49.4881 779.232 57.4583C785.825 64.9721 789.158 74.7682 789.158 86.8465V140.707C789.158 146.114 787.854 150.503 785.209 153.909C782.13 157.877 777.964 159.878 772.675 159.878C766.806 159.878 762.495 157.245 759.705 152.013C757.64 148.045 756.626 142.849 756.626 136.459V90.8491C756.626 85.1611 754.996 80.6318 751.808 77.226C748.583 73.8202 744.055 72.0997 738.186 72.0997C735.976 72.0997 733.875 72.6264 731.81 73.6797C729.745 74.7331 727.861 76.1375 726.086 77.8229C723.441 80.2455 721.702 83.8269 720.797 88.5669C719.927 93.3069 719.493 98.2576 719.493 103.349C719.493 106.474 719.674 111.143 720.036 117.393C720.398 123.643 720.579 128.383 720.579 131.648C720.579 139.584 719.855 145.623 718.369 149.731C716.015 156.402 711.486 159.737 704.748 159.737C698.879 159.737 694.495 157.525 691.561 153.137C689.206 149.59 688.047 144.71 688.047 138.46V64.0241C688.047 59.4948 689.424 55.4921 692.177 52.0863C695.003 48.7156 698.625 46.9952 703.154 46.9952Z" fill="#138758"/>
<path d="M212.115 46.854C211.391 47.0646 207.478 48.6797 203.529 55.3158C200.051 61.1091 197.515 67.4994 195.161 73.9247C188.422 92.2528 182.879 111.108 178.641 130.384C177.554 135.264 176.576 140.145 175.634 145.06C175.163 147.588 171.866 157.525 173.279 159.737C174.656 161.949 184.908 161.282 187.191 161.176C192.009 160.966 196.791 159.807 200.522 156.787C205.558 152.714 207.732 146.008 209.688 139.653C216.064 119.078 222.44 98.5026 228.816 77.9274C228.997 77.3656 229.178 76.8039 229.178 76.1719C229.178 75.1887 228.707 74.2407 228.273 73.3279C224.215 65.2172 221.498 53.9113 217.441 45.8357C215.629 44.9228 216.535 45.5197 212.115 46.854Z" fill="url(#paint0_linear_3250_17985)"/>
<path d="M87.0239 42.29C99.3413 46.8545 108.869 57.9497 115.608 69.7119C122.672 82.0009 127.309 95.4134 131.982 108.685C137.562 124.556 144.191 145.798 154.552 154.33C160.095 158.895 167.268 160.931 173.68 161.598C181.071 162.371 187.628 161.984 195.816 159.491C190.345 156.788 185.998 152.926 182.593 147.694C179.187 142.462 176.724 136.739 174.369 131.016C164.298 106.684 155.277 81.9307 143.213 58.4412C140.641 53.4203 137.598 48.1185 132.671 45.5554C129.12 43.6945 125.099 43.5189 121.223 43.3785C109.811 43.0274 98.3994 42.6412 87.0239 42.29Z" fill="url(#paint1_linear_3250_17985)"/>
<path d="M372.024 42.29C359.707 46.8545 350.179 57.9497 343.44 69.7119C336.376 82.0009 331.739 95.4134 327.065 108.685C321.486 124.556 315.11 145.798 300.511 158.333C295.076 163.038 290.657 162.16 284.208 162.827C277.832 163.494 272.869 162.371 266.384 160.475C265.225 160.123 264.971 158.614 265.986 157.982C270.188 155.419 273.63 152.013 276.455 147.729C279.897 142.533 282.324 136.774 284.679 131.051C294.75 106.719 303.771 81.9658 315.835 58.4763C318.407 53.4554 321.45 48.1536 326.377 45.5905C329.927 43.7296 333.949 43.554 337.825 43.4136C349.237 43.0274 360.612 42.6412 372.024 42.29Z" fill="url(#paint2_linear_3250_17985)"/>
<path d="M210.742 47.8728C210.778 48.0132 210.959 48.2239 211.177 48.5048C218.096 57.1773 223.349 66.8329 227.624 76.9449C230.124 82.8787 232.297 88.953 234.326 95.0623C239.905 111.845 244.434 129.05 252.15 145.061C254.251 149.415 256.642 153.768 260.374 156.963C264.938 160.861 271.097 162.651 277.183 163.003C283.27 163.354 288.16 163.635 295.334 161.458C289.392 156.928 286.24 152.118 284.139 145.868C278.488 129.015 272.8 112.126 267.148 95.273C263.272 83.6863 259.323 71.9942 253.164 61.3555C249.759 55.4919 245.52 49.839 239.47 46.5386C234.942 44.0457 229.617 43.1679 224.472 43.5541C221.864 43.7296 219.255 44.2563 216.756 45.0288C215.488 45.415 214.256 45.8714 213.06 46.3981C212.481 46.6439 211.901 46.8897 211.358 47.2057C210.851 47.4866 210.669 47.6621 210.742 47.8728Z" fill="url(#paint3_linear_3250_17985)"/>
<path d="M18.9189 181.472C16.0569 181.472 13.9195 182.315 12.4704 184.035C11.2386 185.51 10.6228 187.476 10.6228 189.969C10.6228 192.322 11.2749 194.253 12.5428 195.728C13.9919 197.378 16.0931 198.22 18.8464 198.22C21.165 198.22 22.9764 197.694 24.3168 196.64C25.5123 195.482 26.7079 194.323 27.8671 193.164C28.4106 193.164 28.8453 193.27 29.2076 193.48C29.5698 193.691 29.751 194.042 29.751 194.464C29.751 194.604 29.7147 194.744 29.6423 194.885C29.5698 195.025 29.4974 195.201 29.3525 195.447C28.5192 197.027 27.215 198.291 25.4761 199.204C23.701 200.116 21.7809 200.573 19.6435 200.573C15.3686 200.573 12.1806 199.695 10.1156 197.904C8.01437 196.114 7 193.48 7 189.934C7 186.669 7.97815 184.071 9.89821 182.104C11.9994 179.998 14.9701 178.944 18.8464 178.944C21.0926 178.944 23.0126 179.26 24.6066 179.892C26.3818 180.63 27.7222 181.753 28.6641 183.298C28.8453 183.614 29.0264 183.965 29.2076 184.281C29.3525 184.632 29.4612 184.878 29.4612 185.089C29.4612 185.545 29.28 185.861 28.9177 186.107C28.5555 186.353 28.1207 186.458 27.5773 186.458C27.0701 186.458 26.5267 186.037 25.9471 185.159C25.1863 184.071 24.498 183.263 23.8459 182.771C22.6141 181.929 20.9839 181.472 18.9189 181.472Z" fill="#5B5038" stroke="#5B5038" stroke-width="0.111078" stroke-miterlimit="10"/>
<path d="M43.4828 189.407C43.4828 188.389 43.1205 187.722 42.4322 187.335C41.7439 186.949 40.7657 186.774 39.4615 186.774C37.795 186.774 36.672 187.265 36.0923 188.283C35.5127 189.302 34.8968 189.793 34.281 189.793C33.81 189.793 33.3753 189.723 33.0492 189.547C32.7232 189.372 32.542 189.126 32.542 188.74C32.542 187.406 33.339 186.352 34.9693 185.58C36.3822 184.913 37.94 184.562 39.6789 184.562C41.6352 184.562 43.193 184.878 44.3885 185.474C45.8376 186.212 46.5259 187.335 46.5259 188.88V199.238C46.5259 200.046 46.055 200.432 45.1493 200.432C44.5334 200.432 44.1349 200.291 43.9537 200.01C43.7726 199.73 43.6639 199.343 43.6639 198.817V198.325C42.722 199.238 41.7801 199.835 40.8382 200.116C39.8962 200.397 38.6283 200.537 37.0705 200.537C35.5127 200.537 34.2447 200.046 33.2666 199.098C32.2884 198.15 31.7812 197.026 31.7812 195.727C31.7812 193.936 32.7956 192.672 34.7881 191.935C35.5127 191.689 37.3965 191.303 40.4034 190.846C42.4684 190.601 43.4828 190.109 43.4828 189.407ZM35.1867 195.902C35.1867 196.675 35.5127 197.272 36.1286 197.693C36.7444 198.114 37.5415 198.325 38.4834 198.325C40.331 198.325 41.6714 197.798 42.4684 196.745C43.1567 195.867 43.4828 194.638 43.4828 193.023V192.251C43.1567 192.356 41.925 192.602 39.8238 192.988C36.7444 193.515 35.1867 194.498 35.1867 195.902Z" fill="#5B5038" stroke="#5B5038" stroke-width="0.111078" stroke-miterlimit="10"/>
<path d="M51.8125 180.348C51.8125 179.997 51.9936 179.681 52.3197 179.435C52.6457 179.189 53.0442 179.084 53.479 179.084C53.9862 179.084 54.3847 179.189 54.7107 179.435C55.0368 179.681 55.1817 179.997 55.1817 180.383V199.133C55.1817 199.484 55.0005 199.8 54.6745 200.045C54.3484 200.291 53.9499 200.397 53.5152 200.397C53.0442 200.397 52.6457 200.256 52.3197 200.01C51.9936 199.765 51.8125 199.449 51.8125 199.062V180.348Z" fill="#5B5038" stroke="#5B5038" stroke-width="0.111078" stroke-miterlimit="10"/>
<path d="M67.2501 184.562C70.1483 184.562 72.3944 185.299 73.916 186.774C75.3651 188.178 76.0896 190.109 76.0896 192.532C76.0896 194.849 75.3651 196.71 73.8798 198.185C72.2857 199.765 70.1483 200.537 67.395 200.537C64.3881 200.537 62.1058 199.835 60.5842 198.466C59.0626 197.061 58.2656 195.095 58.2656 192.602C58.2656 190.144 58.9902 188.248 60.4755 186.844C62.0695 185.334 64.3156 184.562 67.2501 184.562ZM67.069 198.36C69.0252 198.36 70.4743 197.798 71.4163 196.675C72.2495 195.657 72.6842 194.322 72.6842 192.672C72.6842 190.882 72.322 189.512 71.5974 188.599C70.6917 187.406 69.2426 186.844 67.1776 186.844C65.2213 186.844 63.8085 187.406 62.8303 188.564C61.9971 189.547 61.5986 190.882 61.5986 192.567C61.5986 194.252 61.9608 195.622 62.7216 196.605C63.6998 197.763 65.1127 198.36 67.069 198.36Z" fill="#5B5038" stroke="#5B5038" stroke-width="0.111078" stroke-miterlimit="10"/>
<path d="M80.2188 185.72C80.2188 185.404 80.3637 185.159 80.6897 184.983C81.0158 184.807 81.3418 184.702 81.7403 184.702C82.3562 184.702 82.7909 184.843 83.0445 185.123C83.2619 185.404 83.4068 185.826 83.4068 186.387V187.511C83.8053 186.633 84.4574 185.931 85.2906 185.439C86.1601 184.948 87.1382 184.702 88.2975 184.702C88.8772 184.702 89.3481 184.807 89.6742 185.053C90.0365 185.299 90.1814 185.65 90.1814 186.107C90.1814 186.633 89.8191 186.984 89.1308 187.195C89.0583 187.23 88.4062 187.335 87.1382 187.511C85.8703 187.722 84.9284 188.319 84.3125 189.337C83.7691 190.18 83.5155 191.233 83.5155 192.497V199.168C83.5155 200.011 83.0083 200.432 81.9939 200.432C81.5592 200.432 81.1607 200.362 80.7984 200.186C80.4361 200.011 80.255 199.765 80.255 199.379V185.72H80.2188Z" fill="#5B5038" stroke="#5B5038" stroke-width="0.111078" stroke-miterlimit="10"/>
<path d="M94.3803 179.084C94.96 179.084 95.4309 179.26 95.8294 179.576C96.2279 179.892 96.4091 180.313 96.4091 180.769C96.4091 181.261 96.2279 181.682 95.8656 181.963C95.5034 182.279 95.0324 182.42 94.4165 182.42C93.8007 182.42 93.3297 182.279 92.9312 181.998C92.5689 181.717 92.3516 181.331 92.3516 180.804C92.3516 180.313 92.5327 179.927 92.9312 179.576C93.3297 179.26 93.8007 179.084 94.3803 179.084ZM92.7501 185.931C92.7501 185.58 92.9312 185.264 93.2573 185.053C93.5833 184.842 93.9818 184.702 94.4528 184.702C94.9237 184.702 95.286 184.807 95.6121 185.053C95.9381 185.299 96.083 185.615 96.083 186.001V199.203C96.083 199.554 95.9019 199.87 95.5758 200.081C95.2498 200.291 94.8513 200.432 94.3803 200.432C93.9818 200.432 93.5833 200.326 93.2573 200.116C92.9312 199.905 92.7501 199.624 92.7501 199.308V185.931Z" fill="#5B5038" stroke="#5B5038" stroke-width="0.111078" stroke-miterlimit="10"/>
<path d="M102.752 193.304C102.752 194.744 103.187 195.902 104.056 196.78C105.034 197.763 106.375 198.255 108.114 198.255C110.142 198.255 111.7 197.553 112.787 196.113C113.294 195.446 113.801 195.095 114.345 195.095C114.852 195.095 115.287 195.2 115.649 195.446C116.011 195.692 116.192 196.008 116.192 196.429C116.192 196.605 116.12 196.815 115.975 197.061C115.83 197.307 115.649 197.518 115.468 197.763C114.707 198.676 113.657 199.378 112.389 199.835C111.084 200.291 109.744 200.537 108.259 200.537C105.397 200.537 103.187 199.835 101.665 198.395C100.144 196.956 99.3828 195.06 99.3828 192.672C99.3828 190.179 100.18 188.178 101.774 186.738C103.368 185.264 105.686 184.562 108.73 184.562C111.012 184.562 112.896 185.299 114.381 186.774C115.758 188.178 116.446 189.828 116.446 191.759C116.446 192.146 116.41 192.391 116.374 192.497C116.229 192.883 115.866 193.164 115.251 193.304H114.852H102.752ZM113.077 191.022C112.896 189.758 112.461 188.775 111.773 188.073C110.939 187.265 109.78 186.879 108.331 186.879C106.809 186.879 105.542 187.265 104.527 188.038C103.513 188.81 102.933 189.793 102.788 191.057H113.077V191.022Z" fill="#5B5038" stroke="#5B5038" stroke-width="0.111078" stroke-miterlimit="10"/>
<path d="M126.875 189.161C127.273 189.161 127.563 189.266 127.781 189.512C127.998 189.758 128.107 190.039 128.107 190.355V190.671C128.107 190.952 127.962 191.198 127.672 191.373C127.382 191.549 127.056 191.654 126.694 191.654H120.028C119.629 191.654 119.303 191.549 119.05 191.303C118.796 191.057 118.688 190.776 118.688 190.425C118.688 190.074 118.796 189.793 119.014 189.547C119.231 189.302 119.521 189.196 119.955 189.196H126.875V189.161Z" fill="#5B5038" stroke="#5B5038" stroke-width="0.111078" stroke-miterlimit="10"/>
<path d="M131.334 184.877V184.351C131.334 182.49 131.66 181.191 132.312 180.453C133.109 179.54 134.594 179.084 136.768 179.084C137.347 179.084 137.782 179.154 138.144 179.33C138.47 179.505 138.615 179.786 138.615 180.278C138.615 180.945 137.963 181.331 136.623 181.436C135.282 181.542 134.63 182.244 134.63 183.508V184.912L136.587 184.772C137.275 184.772 137.782 184.877 138.108 185.088C138.434 185.299 138.615 185.685 138.615 186.212C138.615 186.528 138.434 186.773 138.072 186.949C137.71 187.124 137.094 187.195 136.224 187.195H134.594V199.203C134.594 199.589 134.449 199.905 134.123 200.151C133.797 200.361 133.399 200.467 132.928 200.467C132.457 200.467 132.058 200.326 131.768 200.081C131.479 199.835 131.334 199.519 131.334 199.097V187.195H129.993C129.377 187.195 128.906 187.124 128.58 186.949C128.254 186.808 128.109 186.492 128.109 186.036C128.109 185.58 128.254 185.299 128.58 185.123C128.906 184.948 129.377 184.877 129.993 184.877H131.334Z" fill="#5B5038" stroke="#5B5038" stroke-width="0.111078" stroke-miterlimit="10"/>
<path d="M141.734 185.72C141.734 185.404 141.879 185.159 142.205 184.983C142.531 184.807 142.857 184.702 143.256 184.702C143.872 184.702 144.307 184.843 144.56 185.123C144.778 185.404 144.922 185.826 144.922 186.387V187.511C145.321 186.633 145.973 185.931 146.806 185.439C147.676 184.948 148.654 184.702 149.813 184.702C150.393 184.702 150.864 184.807 151.19 185.053C151.552 185.299 151.697 185.65 151.697 186.107C151.697 186.633 151.335 186.984 150.646 187.195C150.574 187.23 149.922 187.335 148.654 187.511C147.386 187.722 146.444 188.319 145.828 189.337C145.285 190.18 145.031 191.233 145.031 192.497V199.168C145.031 200.011 144.524 200.432 143.51 200.432C143.075 200.432 142.676 200.362 142.314 200.186C141.952 200.011 141.771 199.765 141.771 199.379V185.72H141.734Z" fill="#5B5038" stroke="#5B5038" stroke-width="0.111078" stroke-miterlimit="10"/>
<path d="M156.221 193.304C156.221 194.744 156.655 195.902 157.525 196.78C158.503 197.763 159.844 198.255 161.582 198.255C163.611 198.255 165.169 197.553 166.256 196.113C166.763 195.446 167.27 195.095 167.814 195.095C168.321 195.095 168.756 195.2 169.118 195.446C169.48 195.692 169.661 196.008 169.661 196.429C169.661 196.605 169.589 196.815 169.444 197.061C169.299 197.307 169.118 197.518 168.937 197.763C168.176 198.676 167.125 199.378 165.857 199.835C164.553 200.291 163.213 200.537 161.727 200.537C158.865 200.537 156.655 199.835 155.134 198.395C153.612 196.956 152.852 195.06 152.852 192.672C152.852 190.179 153.649 188.178 155.243 186.738C156.837 185.264 159.155 184.562 162.198 184.562C164.481 184.562 166.364 185.299 167.85 186.774C169.226 188.178 169.915 189.828 169.915 191.759C169.915 192.146 169.879 192.391 169.842 192.497C169.697 192.883 169.335 193.164 168.719 193.304H168.321H156.221ZM166.509 191.022C166.328 189.758 165.894 188.775 165.205 188.073C164.372 187.265 163.213 186.879 161.764 186.879C160.242 186.879 158.974 187.265 157.96 188.038C156.945 188.81 156.366 189.793 156.221 191.057H166.509V191.022Z" fill="#5B5038" stroke="#5B5038" stroke-width="0.111078" stroke-miterlimit="10"/>
<path d="M176.002 193.304C176.002 194.744 176.437 195.902 177.306 196.78C178.284 197.763 179.625 198.255 181.364 198.255C183.392 198.255 184.95 197.553 186.037 196.113C186.544 195.446 187.051 195.095 187.595 195.095C188.102 195.095 188.537 195.2 188.899 195.446C189.261 195.692 189.442 196.008 189.442 196.429C189.442 196.605 189.37 196.815 189.225 197.061C189.08 197.307 188.899 197.518 188.718 197.763C187.957 198.676 186.907 199.378 185.639 199.835C184.334 200.291 182.994 200.537 181.509 200.537C178.647 200.537 176.437 199.835 174.915 198.395C173.394 196.956 172.633 195.06 172.633 192.672C172.633 190.179 173.43 188.178 175.024 186.738C176.618 185.264 178.936 184.562 181.98 184.562C184.262 184.562 186.146 185.299 187.631 186.774C189.008 188.178 189.696 189.828 189.696 191.759C189.696 192.146 189.66 192.391 189.624 192.497C189.479 192.883 189.116 193.164 188.501 193.304H188.102H176.002ZM186.327 191.022C186.146 189.758 185.711 188.775 185.023 188.073C184.189 187.265 183.03 186.879 181.581 186.879C180.059 186.879 178.792 187.265 177.777 188.038C176.763 188.81 176.183 189.793 176.038 191.057H186.327V191.022Z" fill="#5B5038" stroke="#5B5038" stroke-width="0.111078" stroke-miterlimit="10"/>
<path d="M211.396 198.15C212.482 198.15 213.388 197.939 214.149 197.518C215.055 197.026 215.489 196.359 215.489 195.446C215.489 194.358 214.547 193.55 212.627 192.988C210.707 192.426 208.823 191.9 206.976 191.338C204.983 190.425 203.969 189.091 203.969 187.23C203.969 185.825 204.585 184.667 205.78 183.684C206.976 182.736 208.425 182.244 210.091 182.244H212.193C213.605 182.244 215.018 182.701 216.467 183.578C218.025 184.561 218.786 185.65 218.786 186.809C218.786 187.265 218.605 187.616 218.243 187.827C217.88 188.038 217.446 188.143 216.866 188.143C216.612 188.143 215.996 187.546 215.055 186.352C214.113 185.158 212.736 184.561 210.925 184.561C210.019 184.561 209.258 184.737 208.642 185.088C207.845 185.509 207.447 186.106 207.447 186.844C207.447 187.862 208.461 188.634 210.454 189.231C213.932 190.214 215.779 190.776 215.996 190.882C217.989 191.83 219.003 193.304 219.003 195.27C219.003 197.061 218.206 198.43 216.576 199.378C215.199 200.186 213.424 200.572 211.251 200.572C209.258 200.572 207.483 200.151 205.925 199.343C204.078 198.36 203.172 197.061 203.172 195.411C203.172 194.919 203.353 194.533 203.752 194.252C204.15 193.971 204.621 193.866 205.201 193.866C205.744 193.866 206.396 194.568 207.084 195.973C207.809 197.447 209.258 198.15 211.396 198.15Z" fill="#5B5038" stroke="#5B5038" stroke-width="0.111078" stroke-miterlimit="10"/>
<path d="M227.261 196.359C227.587 194.99 227.95 193.515 228.421 191.935C228.565 191.478 229 190.004 229.761 187.546L230.703 184.702C230.739 184.491 230.812 184.316 230.848 184.105C230.884 183.93 230.993 183.684 231.138 183.333C231.282 183.017 231.5 182.771 231.862 182.56C232.188 182.385 232.587 182.279 233.058 182.279C233.565 182.279 234 182.35 234.326 182.56C234.688 182.736 234.905 183.052 235.014 183.473L238.093 193.55C238.383 194.603 238.564 195.341 238.673 195.727C238.782 196.113 238.782 196.394 238.782 196.605C239.035 195.551 239.325 194.322 239.724 192.988C240.122 191.654 240.702 189.828 241.462 187.581L242.441 184.597L242.875 183.368C243.165 182.666 243.709 182.314 244.542 182.314C245.846 182.314 246.462 182.841 246.462 183.93C246.462 184.07 246.027 185.334 245.158 187.686C244.18 190.355 243.093 193.234 241.933 196.324L241.173 198.325L240.774 199.378C240.412 200.081 239.724 200.397 238.709 200.397C238.202 200.397 237.767 200.291 237.441 200.116C237.079 199.94 236.825 199.659 236.717 199.273L233.529 189.793C233.384 189.407 233.275 188.95 233.166 188.389C233.058 187.862 232.985 187.335 232.877 186.809C232.732 187.967 232.55 189.056 232.333 190.004C232.08 190.952 231.536 192.848 230.594 195.657C230.159 196.85 229.761 198.044 229.362 199.203C229.073 199.975 228.421 200.326 227.334 200.326C226.754 200.326 226.283 200.256 225.921 200.081C225.559 199.905 225.305 199.624 225.16 199.168L219.617 183.859V183.719C219.617 183.298 219.835 182.946 220.233 182.736C220.632 182.49 221.139 182.385 221.718 182.385C222.117 182.385 222.443 182.49 222.697 182.701C222.95 182.911 223.204 183.262 223.385 183.754C223.566 184.246 223.783 184.842 224.001 185.58C224.218 186.317 224.472 187.019 224.689 187.686C225.305 189.582 225.776 191.022 226.066 192.005C226.5 193.339 226.899 194.779 227.261 196.359Z" fill="#5B5038" stroke="#5B5038" stroke-width="0.111078" stroke-miterlimit="10"/>
<path d="M251.755 192.32C251.755 193.97 252.226 195.305 253.168 196.323C254.218 197.446 255.667 198.008 257.551 198.008C259.761 198.008 261.428 197.201 262.587 195.55C263.13 194.778 263.71 194.392 264.29 194.392C264.833 194.392 265.304 194.532 265.703 194.813C266.101 195.094 266.282 195.48 266.282 195.937C266.282 196.147 266.21 196.393 266.029 196.674C265.884 196.955 265.703 197.201 265.485 197.482C264.652 198.535 263.529 199.342 262.116 199.869C260.739 200.396 259.254 200.677 257.66 200.677C254.544 200.677 252.19 199.869 250.523 198.219C248.857 196.604 248.023 194.392 248.023 191.688C248.023 188.809 248.893 186.527 250.632 184.877C252.371 183.191 254.87 182.349 258.167 182.349C260.631 182.349 262.659 183.191 264.29 184.877C265.775 186.457 266.536 188.353 266.536 190.565C266.536 191.021 266.5 191.302 266.463 191.442C266.318 191.864 265.884 192.18 265.232 192.39H264.797H251.755V192.32ZM262.913 189.687C262.732 188.247 262.261 187.124 261.5 186.316C260.594 185.403 259.363 184.947 257.769 184.947C256.138 184.947 254.762 185.368 253.639 186.246C252.516 187.124 251.9 188.247 251.755 189.687H262.913Z" fill="#5B5038" stroke="#5B5038" stroke-width="0.111078" stroke-miterlimit="10"/>
<path d="M273.2 192.32C273.2 193.97 273.671 195.305 274.613 196.323C275.664 197.446 277.113 198.008 278.997 198.008C281.207 198.008 282.873 197.201 284.032 195.55C284.576 194.778 285.155 194.392 285.735 194.392C286.278 194.392 286.749 194.532 287.148 194.813C287.546 195.094 287.728 195.48 287.728 195.937C287.728 196.147 287.655 196.393 287.474 196.674C287.329 196.955 287.148 197.201 286.93 197.482C286.097 198.535 284.974 199.342 283.561 199.869C282.185 200.396 280.699 200.677 279.105 200.677C275.99 200.677 273.635 199.869 271.968 198.219C270.302 196.604 269.469 194.392 269.469 191.688C269.469 188.809 270.338 186.527 272.077 184.877C273.816 183.191 276.316 182.349 279.612 182.349C282.076 182.349 284.105 183.191 285.735 184.877C287.22 186.457 287.981 188.353 287.981 190.565C287.981 191.021 287.945 191.302 287.909 191.442C287.764 191.864 287.329 192.18 286.677 192.39H286.242H273.2V192.32ZM284.358 189.687C284.177 188.247 283.706 187.124 282.945 186.316C282.04 185.403 280.808 184.947 279.214 184.947C277.584 184.947 276.207 185.368 275.084 186.246C273.961 187.124 273.345 188.247 273.2 189.687H284.358Z" fill="#5B5038" stroke="#5B5038" stroke-width="0.111078" stroke-miterlimit="10"/>
<path d="M292.363 182.631V178.523C292.363 178.101 292.544 177.75 292.87 177.504C293.196 177.259 293.631 177.153 294.138 177.153C294.681 177.153 295.116 177.294 295.442 177.54C295.804 177.785 295.949 178.172 295.949 178.628V182.631H297.616C298.268 182.631 298.811 182.701 299.21 182.876C299.608 183.052 299.826 183.403 299.826 183.93C299.826 184.421 299.608 184.772 299.21 184.983C298.811 185.194 298.268 185.264 297.652 185.264H295.841V194.92C295.841 196.745 296.529 197.729 297.942 197.834C299.319 197.939 300.043 198.396 300.043 199.133C300.043 199.66 299.753 200.046 299.174 200.221C298.775 200.362 298.232 200.432 297.471 200.432C295.37 200.432 293.993 200.011 293.269 199.168C292.653 198.466 292.363 197.167 292.363 195.236V185.264H290.841C290.153 185.264 289.646 185.159 289.32 184.983C288.994 184.808 288.812 184.456 288.812 183.895C288.812 183.368 288.994 183.052 289.356 182.841C289.718 182.666 290.225 182.56 290.877 182.56H292.363V182.631Z" fill="#5B5038" stroke="#5B5038" stroke-width="0.111078" stroke-miterlimit="10"/>
<path d="M314.25 183.859C314.25 183.438 314.431 183.087 314.793 182.806C315.156 182.525 315.59 182.42 316.134 182.42C316.895 182.42 317.366 182.63 317.655 183.052C317.837 183.368 317.945 183.894 317.945 184.561C318.887 183.719 319.793 183.122 320.662 182.771C321.532 182.42 322.619 182.244 323.923 182.244C326.749 182.244 328.958 183.157 330.516 185.018C331.893 186.668 332.617 188.81 332.617 191.373C332.617 194.006 331.965 196.148 330.697 197.728C329.212 199.589 327.002 200.502 324.104 200.502C322.908 200.502 321.785 200.291 320.735 199.835C319.938 199.484 318.996 198.887 317.945 198.079V205.312C317.945 205.734 317.764 206.085 317.402 206.33C317.04 206.576 316.605 206.752 316.134 206.752C315.59 206.752 315.119 206.611 314.793 206.33C314.467 206.05 314.286 205.663 314.286 205.207V183.859H314.25ZM323.669 198.079C325.517 198.079 326.893 197.377 327.835 195.938C328.56 194.779 328.958 193.339 328.958 191.549C328.958 189.512 328.632 187.967 327.944 186.914C327.038 185.545 325.517 184.842 323.343 184.842C321.423 184.842 319.974 185.509 319.032 186.879C318.235 188.002 317.837 189.442 317.837 191.233C317.837 193.164 318.235 194.709 319.068 195.902C320.046 197.377 321.568 198.079 323.669 198.079Z" fill="#5B5038" stroke="#5B5038" stroke-width="0.111078" stroke-miterlimit="10"/>
<path d="M336.891 183.614C336.891 183.263 337.072 182.982 337.398 182.771C337.724 182.56 338.122 182.455 338.557 182.455C339.245 182.455 339.716 182.631 339.97 182.947C340.224 183.298 340.332 183.754 340.332 184.421V185.685C340.767 184.667 341.455 183.895 342.397 183.298C343.303 182.736 344.39 182.42 345.658 182.42C346.274 182.42 346.781 182.56 347.179 182.806C347.542 183.087 347.759 183.473 347.759 184.035C347.759 184.632 347.36 185.053 346.6 185.264C346.527 185.299 345.803 185.404 344.426 185.65C343.049 185.896 342.035 186.598 341.347 187.757C340.767 188.705 340.477 189.934 340.477 191.373V199.028C340.477 199.976 339.934 200.467 338.811 200.467C338.34 200.467 337.905 200.362 337.506 200.186C337.108 199.976 336.927 199.695 336.927 199.273V183.614H336.891Z" fill="#5B5038" stroke="#5B5038" stroke-width="0.111078" stroke-miterlimit="10"/>
<path d="M358.55 182.279C361.702 182.279 364.093 183.122 365.759 184.842C367.353 186.458 368.114 188.67 368.114 191.443C368.114 194.077 367.317 196.254 365.723 197.904C364.02 199.694 361.665 200.607 358.695 200.607C355.434 200.607 352.971 199.8 351.304 198.22C349.638 196.64 348.805 194.393 348.805 191.478C348.805 188.67 349.602 186.458 351.196 184.878C352.898 183.157 355.362 182.279 358.55 182.279ZM358.333 198.079C360.47 198.079 362.028 197.447 363.078 196.148C363.984 194.99 364.455 193.48 364.455 191.584C364.455 189.547 364.057 187.967 363.26 186.914C362.281 185.545 360.687 184.878 358.477 184.878C356.376 184.878 354.818 185.545 353.768 186.844C352.862 187.967 352.427 189.512 352.427 191.408C352.427 193.374 352.826 194.884 353.659 196.008C354.674 197.412 356.231 198.079 358.333 198.079Z" fill="#5B5038" stroke="#5B5038" stroke-width="0.111078" stroke-miterlimit="10"/>
<path d="M372.503 182.631V178.523C372.503 178.101 372.685 177.75 373.011 177.504C373.337 177.259 373.771 177.153 374.279 177.153C374.822 177.153 375.257 177.294 375.583 177.54C375.945 177.785 376.09 178.172 376.09 178.628V182.631H377.756C378.409 182.631 378.952 182.701 379.35 182.876C379.749 183.052 379.966 183.403 379.966 183.93C379.966 184.421 379.749 184.772 379.35 184.983C378.952 185.194 378.409 185.264 377.793 185.264H375.981V194.92C375.981 196.745 376.67 197.729 378.082 197.834C379.459 197.939 380.184 198.396 380.184 199.133C380.184 199.66 379.894 200.046 379.314 200.221C378.916 200.362 378.372 200.432 377.612 200.432C375.51 200.432 374.134 200.011 373.409 199.168C372.793 198.466 372.503 197.167 372.503 195.236V185.264H370.982C370.294 185.264 369.786 185.159 369.46 184.983C369.134 184.808 368.953 184.456 368.953 183.895C368.953 183.368 369.134 183.052 369.497 182.841C369.859 182.666 370.366 182.56 371.018 182.56H372.503V182.631Z" fill="#5B5038" stroke="#5B5038" stroke-width="0.111078" stroke-miterlimit="10"/>
<path d="M385.903 192.32C385.903 193.97 386.374 195.305 387.316 196.323C388.367 197.446 389.816 198.008 391.7 198.008C393.91 198.008 395.576 197.201 396.735 195.55C397.279 194.778 397.858 194.392 398.438 194.392C398.982 194.392 399.452 194.532 399.851 194.813C400.249 195.094 400.431 195.48 400.431 195.937C400.431 196.147 400.358 196.393 400.177 196.674C400.032 196.955 399.851 197.201 399.634 197.482C398.8 198.535 397.677 199.342 396.264 199.869C394.888 200.396 393.402 200.677 391.808 200.677C388.693 200.677 386.338 199.869 384.672 198.219C383.005 196.604 382.172 194.392 382.172 191.688C382.172 188.809 383.041 186.527 384.78 184.877C386.519 183.191 389.019 182.349 392.316 182.349C394.779 182.349 396.808 183.191 398.438 184.877C399.923 186.457 400.684 188.353 400.684 190.565C400.684 191.021 400.648 191.302 400.612 191.442C400.467 191.864 400.032 192.18 399.38 192.39H398.945H385.903V192.32ZM397.061 189.687C396.88 188.247 396.409 187.124 395.649 186.316C394.743 185.403 393.511 184.947 391.917 184.947C390.287 184.947 388.91 185.368 387.787 186.246C386.664 187.124 386.048 188.247 385.903 189.687H397.061Z" fill="#5B5038" stroke="#5B5038" stroke-width="0.111078" stroke-miterlimit="10"/>
<path d="M407.064 176.029C407.68 176.029 408.224 176.205 408.658 176.591C409.093 176.942 409.274 177.434 409.274 177.96C409.274 178.522 409.093 178.979 408.695 179.33C408.296 179.681 407.789 179.856 407.101 179.856C406.448 179.856 405.905 179.681 405.506 179.365C405.108 179.049 404.891 178.592 404.891 177.996C404.891 177.434 405.108 176.977 405.506 176.591C405.905 176.205 406.412 176.029 407.064 176.029ZM405.289 183.824C405.289 183.403 405.47 183.087 405.833 182.806C406.195 182.525 406.63 182.42 407.101 182.42C407.608 182.42 408.006 182.56 408.368 182.841C408.695 183.122 408.876 183.473 408.876 183.929V199.062C408.876 199.484 408.695 199.8 408.332 200.081C407.97 200.361 407.535 200.467 407.064 200.467C406.63 200.467 406.195 200.326 405.833 200.081C405.47 199.835 405.289 199.519 405.289 199.168V183.824Z" fill="#5B5038" stroke="#5B5038" stroke-width="0.111078" stroke-miterlimit="10"/>
<path d="M413.508 183.824C413.508 183.438 413.689 183.087 414.015 182.841C414.341 182.595 414.74 182.42 415.21 182.42C416.044 182.42 416.587 182.666 416.841 183.192C416.986 183.508 417.094 184.07 417.094 184.878C417.746 183.894 418.761 183.192 420.137 182.771C421.224 182.455 422.529 182.279 424.123 182.279C425.97 182.279 427.455 182.876 428.579 184.105C429.557 185.194 430.064 186.598 430.064 188.318V199.027C430.064 199.449 429.883 199.8 429.557 200.081C429.231 200.362 428.832 200.467 428.325 200.467C427.782 200.467 427.311 200.326 426.985 200.046C426.658 199.765 426.477 199.378 426.477 198.922V190.671C426.477 188.775 426.332 187.476 426.043 186.809C425.499 185.58 424.34 184.983 422.492 184.983C420.464 184.983 419.014 185.685 418.145 187.054C417.493 188.108 417.167 189.618 417.167 191.549V199.308C416.949 199.624 416.732 199.905 416.551 200.186C416.334 200.397 415.971 200.502 415.464 200.502C414.921 200.502 414.486 200.362 414.16 200.081C413.798 199.8 413.616 199.414 413.616 198.992V183.824H413.508Z" fill="#5B5038" stroke="#5B5038" stroke-width="0.111078" stroke-miterlimit="10"/>
<path d="M446.044 177.469C446.044 177.048 446.225 176.696 446.551 176.451C446.877 176.17 447.312 176.029 447.783 176.029C448.29 176.029 448.725 176.17 449.015 176.451C449.341 176.732 449.486 177.083 449.486 177.539V184.842C450.21 184 451.116 183.368 452.275 182.911C453.434 182.49 454.666 182.244 456.007 182.244C458.76 182.244 460.861 183.157 462.383 184.983C463.687 186.598 464.375 188.634 464.375 191.162C464.375 193.796 463.723 195.973 462.419 197.623C460.897 199.589 458.651 200.572 455.753 200.572C454.485 200.572 453.326 200.397 452.275 200.045C451.225 199.694 450.283 199.097 449.486 198.325C449.486 199.027 449.377 199.554 449.232 199.835C448.978 200.256 448.471 200.467 447.711 200.467C447.24 200.467 446.841 200.326 446.515 200.045C446.189 199.765 446.008 199.413 446.008 198.992V177.469H446.044ZM455.282 198.044C457.347 198.044 458.832 197.342 459.702 195.902C460.39 194.814 460.716 193.304 460.716 191.373C460.716 189.477 460.354 188.002 459.629 186.949C458.724 185.58 457.238 184.877 455.21 184.877C453.108 184.877 451.623 185.615 450.645 187.124C449.884 188.318 449.486 189.898 449.486 191.829C449.486 193.585 449.92 195.025 450.79 196.148C451.84 197.412 453.326 198.044 455.282 198.044Z" fill="#5B5038" stroke="#5B5038" stroke-width="0.111078" stroke-miterlimit="10"/>
<path d="M474.374 196.499C474.808 194.955 475.279 193.48 475.787 192.005C476.113 191.022 476.656 189.547 477.417 187.581L478.504 184.632C478.648 184.211 478.83 183.789 478.975 183.403C479.301 182.736 479.844 182.42 480.605 182.42C481.148 182.42 481.619 182.56 481.981 182.876C482.344 183.192 482.525 183.579 482.525 184.07C482.525 184.211 481.981 185.685 480.858 188.494C479.772 191.303 478.685 193.971 477.707 196.464C477.199 197.693 476.475 199.484 475.497 201.836C474.845 203.416 474.12 204.54 473.287 205.172C472.272 205.944 470.896 206.331 469.121 206.331C467.925 206.331 467.164 206.19 466.802 205.944C466.44 205.664 466.259 205.277 466.259 204.68C466.259 204.329 466.331 204.048 466.44 203.803C466.585 203.557 466.802 203.416 467.164 203.416C467.418 203.416 467.744 203.452 468.179 203.487C468.613 203.557 468.903 203.557 469.012 203.557C470.099 203.557 470.932 203.206 471.584 202.539C472.091 201.977 472.454 201.204 472.743 200.186C472.128 198.747 471.294 196.991 470.316 194.884C469.193 192.462 468.36 190.671 467.889 189.583C466.947 187.441 466.186 185.685 465.607 184.246L465.57 183.824C465.57 183.403 465.788 183.052 466.186 182.806C466.585 182.525 467.056 182.385 467.563 182.385C468.324 182.385 468.903 182.736 469.266 183.403L469.773 184.667L471.041 187.581C472.055 189.934 472.635 191.408 472.852 191.935C473.287 193.41 473.83 194.919 474.374 196.499Z" fill="#5B5038" stroke="#5B5038" stroke-width="0.111078" stroke-miterlimit="10"/>
<path d="M507.487 187.827C507.487 186.668 507.125 185.896 506.364 185.474C505.603 185.053 504.553 184.842 503.14 184.842C501.329 184.842 500.097 185.404 499.481 186.563C498.865 187.722 498.177 188.283 497.525 188.283C496.981 188.283 496.546 188.178 496.22 188.002C495.858 187.827 495.677 187.511 495.677 187.09C495.677 185.58 496.546 184.386 498.322 183.473C499.843 182.701 501.546 182.314 503.393 182.314C505.531 182.314 507.234 182.666 508.465 183.333C510.023 184.175 510.784 185.474 510.784 187.23V199.098C510.784 200.011 510.277 200.467 509.299 200.467C508.647 200.467 508.212 200.327 508.031 200.011C507.85 199.695 507.741 199.238 507.741 198.641V198.079C506.726 199.098 505.676 199.8 504.661 200.116C503.647 200.432 502.27 200.607 500.568 200.607C498.901 200.607 497.525 200.046 496.438 198.957C495.387 197.869 494.844 196.57 494.844 195.13C494.844 193.094 495.931 191.654 498.104 190.776C498.901 190.46 500.93 190.074 504.19 189.547C506.4 189.196 507.487 188.634 507.487 187.827ZM498.503 195.271C498.503 196.148 498.829 196.815 499.517 197.307C500.205 197.799 501.039 198.044 502.053 198.044C504.046 198.044 505.495 197.447 506.4 196.254C507.125 195.271 507.487 193.831 507.487 191.97V191.092C507.161 191.233 505.821 191.514 503.502 191.935C500.169 192.532 498.503 193.655 498.503 195.271Z" fill="#5B5038" stroke="#5B5038" stroke-width="0.111078" stroke-miterlimit="10"/>
<path d="M515.383 183.824C515.383 183.403 515.528 183.052 515.854 182.806C516.18 182.56 516.615 182.42 517.158 182.42C517.955 182.42 518.498 182.63 518.788 183.087C518.969 183.368 519.078 183.929 519.078 184.667C519.73 183.754 520.563 183.157 521.542 182.806C522.52 182.455 523.715 182.279 525.056 182.279C527.447 182.279 529.186 183.192 530.309 184.983C531.395 184 532.337 183.333 533.098 182.946C534.076 182.49 535.272 182.244 536.648 182.244C539.003 182.244 540.742 182.806 541.829 183.929C542.843 184.983 543.314 186.563 543.314 188.67V198.922C543.314 199.343 543.133 199.73 542.807 199.975C542.481 200.221 542.046 200.397 541.539 200.397C540.996 200.397 540.525 200.256 540.199 199.975C539.873 199.694 539.692 199.308 539.692 198.852V190.109C539.692 188.494 539.547 187.37 539.221 186.668C538.677 185.509 537.663 184.948 536.105 184.948C534.656 184.948 533.46 185.369 532.555 186.212C531.685 187.054 531.214 188.143 531.214 189.407V198.852C531.214 199.343 531.069 199.73 530.743 199.975C530.417 200.221 529.983 200.397 529.439 200.397C528.896 200.397 528.497 200.256 528.135 199.975C527.809 199.694 527.628 199.308 527.628 198.852V189.653C527.628 187.721 527.302 186.458 526.686 185.861C526.07 185.264 525.128 184.948 523.896 184.948C522.012 184.948 520.672 185.58 519.911 186.879C519.332 187.862 519.042 189.266 519.042 191.127V198.992C519.042 199.449 518.861 199.8 518.535 200.046C518.172 200.291 517.738 200.432 517.23 200.432C516.759 200.432 516.325 200.326 515.962 200.081C515.6 199.835 515.419 199.519 515.419 199.098V183.824H515.383Z" fill="#5B5038" stroke="#5B5038" stroke-width="0.111078" stroke-miterlimit="10"/>
<path d="M559.909 187.827C559.909 186.668 559.547 185.896 558.786 185.474C558.025 185.053 556.975 184.842 555.562 184.842C553.75 184.842 552.519 185.404 551.903 186.563C551.287 187.722 550.599 188.283 549.946 188.283C549.403 188.283 548.968 188.178 548.642 188.002C548.28 187.827 548.099 187.511 548.099 187.09C548.099 185.58 548.968 184.386 550.744 183.473C552.265 182.701 553.968 182.314 555.815 182.314C557.953 182.314 559.656 182.666 560.887 183.333C562.445 184.175 563.206 185.474 563.206 187.23V199.098C563.206 200.011 562.699 200.467 561.721 200.467C561.068 200.467 560.634 200.327 560.453 200.011C560.271 199.695 560.163 199.238 560.163 198.641V198.079C559.148 199.098 558.098 199.8 557.083 200.116C556.069 200.432 554.692 200.607 552.99 200.607C551.323 200.607 549.946 200.046 548.86 198.957C547.809 197.869 547.266 196.57 547.266 195.13C547.266 193.094 548.352 191.654 550.526 190.776C551.323 190.46 553.352 190.074 556.612 189.547C558.822 189.196 559.909 188.634 559.909 187.827ZM550.925 195.271C550.925 196.148 551.251 196.815 551.939 197.307C552.627 197.799 553.461 198.044 554.475 198.044C556.467 198.044 557.917 197.447 558.822 196.254C559.547 195.271 559.909 193.831 559.909 191.97V191.092C559.583 191.233 558.243 191.514 555.924 191.935C552.591 192.532 550.925 193.655 550.925 195.271Z" fill="#5B5038" stroke="#5B5038" stroke-width="0.111078" stroke-miterlimit="10"/>
<path d="M570.635 176.029C571.25 176.029 571.794 176.205 572.229 176.591C572.663 176.942 572.844 177.434 572.844 177.96C572.844 178.522 572.663 178.979 572.265 179.33C571.866 179.681 571.359 179.856 570.671 179.856C570.019 179.856 569.475 179.681 569.077 179.365C568.678 179.014 568.461 178.592 568.461 177.996C568.461 177.434 568.678 176.977 569.077 176.591C569.512 176.205 570.019 176.029 570.635 176.029ZM568.859 183.824C568.859 183.403 569.041 183.087 569.403 182.806C569.765 182.525 570.2 182.42 570.671 182.42C571.178 182.42 571.577 182.56 571.939 182.841C572.265 183.122 572.446 183.473 572.446 183.929V199.062C572.446 199.484 572.265 199.8 571.903 200.081C571.54 200.361 571.106 200.467 570.635 200.467C570.2 200.467 569.765 200.326 569.403 200.081C569.041 199.835 568.859 199.519 568.859 199.168V183.824Z" fill="#5B5038" stroke="#5B5038" stroke-width="0.111078" stroke-miterlimit="10"/>
<path d="M577.078 183.859C577.078 183.438 577.259 183.087 577.622 182.806C577.984 182.525 578.419 182.42 578.962 182.42C579.723 182.42 580.194 182.63 580.484 183.052C580.665 183.368 580.773 183.894 580.773 184.561C581.715 183.719 582.621 183.122 583.49 182.771C584.36 182.42 585.447 182.244 586.751 182.244C589.577 182.244 591.787 183.157 593.344 185.018C594.721 186.668 595.446 188.81 595.446 191.373C595.446 194.006 594.793 196.148 593.525 197.728C592.04 199.589 589.83 200.502 586.932 200.502C585.737 200.502 584.613 200.291 583.563 199.835C582.766 199.484 581.824 198.887 580.773 198.079V205.312C580.773 205.734 580.592 206.085 580.23 206.33C579.868 206.611 579.433 206.752 578.962 206.752C578.419 206.752 577.948 206.611 577.622 206.33C577.295 206.05 577.114 205.663 577.114 205.207V183.859H577.078ZM586.461 198.079C588.309 198.079 589.685 197.377 590.627 195.938C591.352 194.779 591.75 193.339 591.75 191.549C591.75 189.512 591.424 187.967 590.736 186.914C589.83 185.545 588.309 184.842 586.135 184.842C584.215 184.842 582.766 185.509 581.824 186.879C581.027 188.002 580.628 189.442 580.628 191.233C580.628 193.164 581.027 194.709 581.86 195.902C582.838 197.377 584.396 198.079 586.461 198.079Z" fill="#5B5038" stroke="#5B5038" stroke-width="0.111078" stroke-miterlimit="10"/>
<path d="M599.719 183.614C599.719 183.263 599.9 182.982 600.226 182.771C600.552 182.56 600.95 182.455 601.385 182.455C602.074 182.455 602.544 182.631 602.798 182.947C603.052 183.298 603.16 183.754 603.16 184.421V185.685C603.595 184.667 604.283 183.895 605.225 183.298C606.131 182.736 607.218 182.42 608.486 182.42C609.102 182.42 609.609 182.56 610.007 182.806C610.37 183.087 610.587 183.473 610.587 184.035C610.587 184.632 610.188 185.053 609.428 185.264C609.355 185.299 608.631 185.404 607.254 185.65C605.877 185.896 604.863 186.598 604.175 187.757C603.595 188.705 603.305 189.934 603.305 191.373V199.028C603.305 199.976 602.762 200.467 601.639 200.467C601.168 200.467 600.733 200.362 600.335 200.186C599.936 199.976 599.755 199.695 599.755 199.273V183.614H599.719Z" fill="#5B5038" stroke="#5B5038" stroke-width="0.111078" stroke-miterlimit="10"/>
<path d="M621.347 182.279C624.499 182.279 626.89 183.122 628.556 184.842C630.15 186.458 630.911 188.67 630.911 191.443C630.911 194.077 630.114 196.254 628.52 197.904C626.817 199.694 624.462 200.607 621.492 200.607C618.231 200.607 615.768 199.8 614.101 198.22C612.435 196.64 611.602 194.393 611.602 191.478C611.602 188.67 612.399 186.458 613.993 184.878C615.732 183.157 618.159 182.279 621.347 182.279ZM621.166 198.079C623.303 198.079 624.861 197.447 625.911 196.148C626.817 194.99 627.288 193.48 627.288 191.584C627.288 189.547 626.89 187.967 626.093 186.914C625.114 185.545 623.52 184.878 621.311 184.878C619.209 184.878 617.652 185.545 616.601 186.844C615.695 187.967 615.261 189.512 615.261 191.408C615.261 193.374 615.659 194.884 616.492 196.008C617.507 197.412 619.064 198.079 621.166 198.079Z" fill="#5B5038" stroke="#5B5038" stroke-width="0.111078" stroke-miterlimit="10"/>
<path d="M635.332 182.631V178.523C635.332 178.101 635.513 177.75 635.839 177.504C636.165 177.259 636.6 177.153 637.107 177.153C637.65 177.153 638.085 177.294 638.411 177.54C638.773 177.785 638.918 178.172 638.918 178.628V182.631H640.585C641.237 182.631 641.78 182.701 642.179 182.876C642.577 183.052 642.795 183.403 642.795 183.93C642.795 184.421 642.577 184.772 642.179 184.983C641.78 185.194 641.237 185.264 640.621 185.264H638.809V194.92C638.809 196.745 639.498 197.729 640.911 197.834C642.287 197.939 643.012 198.396 643.012 199.133C643.012 199.66 642.722 200.046 642.142 200.221C641.744 200.362 641.2 200.432 640.44 200.432C638.338 200.432 636.962 200.011 636.237 199.168C635.621 198.466 635.332 197.167 635.332 195.236V185.264H633.81C633.122 185.264 632.614 185.159 632.288 184.983C631.962 184.808 631.781 184.456 631.781 183.895C631.781 183.368 631.962 183.052 632.325 182.841C632.687 182.666 633.194 182.56 633.846 182.56H635.332V182.631Z" fill="#5B5038" stroke="#5B5038" stroke-width="0.111078" stroke-miterlimit="10"/>
<path d="M648.739 192.32C648.739 193.97 649.21 195.305 650.152 196.323C651.203 197.446 652.652 198.008 654.536 198.008C656.746 198.008 658.412 197.201 659.571 195.55C660.115 194.778 660.694 194.392 661.274 194.392C661.817 194.392 662.288 194.532 662.687 194.813C663.085 195.094 663.267 195.48 663.267 195.937C663.267 196.147 663.194 196.393 663.013 196.674C662.868 196.955 662.687 197.201 662.47 197.482C661.636 198.535 660.513 199.342 659.1 199.869C657.724 200.396 656.238 200.677 654.644 200.677C651.529 200.677 649.174 199.869 647.508 198.219C645.841 196.604 645.008 194.392 645.008 191.688C645.008 188.809 645.877 186.527 647.616 184.877C649.355 183.191 651.855 182.349 655.152 182.349C657.615 182.349 659.644 183.191 661.274 184.877C662.759 186.457 663.52 188.353 663.52 190.565C663.52 191.021 663.484 191.302 663.448 191.442C663.303 191.864 662.868 192.18 662.216 192.39H661.781H648.739V192.32ZM659.897 189.687C659.716 188.247 659.245 187.124 658.485 186.316C657.579 185.403 656.347 184.947 654.753 184.947C653.123 184.947 651.746 185.368 650.623 186.246C649.5 187.124 648.884 188.247 648.739 189.687H659.897Z" fill="#5B5038" stroke="#5B5038" stroke-width="0.111078" stroke-miterlimit="10"/>
<path d="M669.853 176.029C670.469 176.029 671.013 176.205 671.447 176.591C671.882 176.942 672.063 177.434 672.063 177.96C672.063 178.522 671.882 178.979 671.484 179.33C671.085 179.681 670.578 179.856 669.89 179.856C669.237 179.856 668.694 179.681 668.296 179.365C667.897 179.014 667.68 178.592 667.68 177.996C667.68 177.434 667.897 176.977 668.296 176.591C668.73 176.205 669.238 176.029 669.853 176.029ZM668.078 183.824C668.078 183.403 668.259 183.087 668.622 182.806C668.984 182.525 669.419 182.42 669.89 182.42C670.397 182.42 670.795 182.56 671.158 182.841C671.484 183.122 671.665 183.473 671.665 183.929V199.062C671.665 199.484 671.484 199.8 671.121 200.081C670.759 200.361 670.324 200.467 669.853 200.467C669.419 200.467 668.984 200.326 668.622 200.081C668.259 199.835 668.078 199.519 668.078 199.168V183.824Z" fill="#5B5038" stroke="#5B5038" stroke-width="0.111078" stroke-miterlimit="10"/>
<path d="M676.344 183.824C676.344 183.438 676.525 183.087 676.851 182.841C677.177 182.595 677.612 182.42 678.046 182.42C678.88 182.42 679.423 182.666 679.677 183.192C679.822 183.508 679.93 184.07 679.93 184.878C680.582 183.894 681.597 183.192 682.973 182.771C684.06 182.455 685.364 182.279 686.958 182.279C688.806 182.279 690.291 182.876 691.414 184.105C692.393 185.194 692.9 186.598 692.9 188.318V199.027C692.9 199.449 692.719 199.8 692.393 200.081C692.067 200.362 691.668 200.467 691.161 200.467C690.617 200.467 690.146 200.326 689.82 200.046C689.494 199.765 689.313 199.378 689.313 198.922V190.671C689.313 188.775 689.168 187.476 688.879 186.809C688.335 185.58 687.176 184.983 685.328 184.983C683.299 184.983 681.85 185.685 680.981 187.054C680.329 188.108 680.003 189.618 680.003 191.549V199.308C679.785 199.624 679.568 199.905 679.387 200.186C679.169 200.397 678.807 200.502 678.3 200.502C677.793 200.502 677.322 200.362 676.996 200.081C676.634 199.8 676.452 199.414 676.452 198.992V183.824H676.344Z" fill="#5B5038" stroke="#5B5038" stroke-width="0.111078" stroke-miterlimit="10"/>
<path d="M704.489 198.15C705.576 198.15 706.482 197.939 707.243 197.518C708.148 197.026 708.583 196.359 708.583 195.446C708.583 194.358 707.641 193.55 705.721 192.988C703.801 192.426 701.917 191.9 700.07 191.338C698.077 190.425 697.063 189.091 697.063 187.23C697.063 185.825 697.679 184.667 698.874 183.684C700.07 182.736 701.519 182.244 703.185 182.244H705.286C706.699 182.244 708.112 182.701 709.561 183.578C711.119 184.561 711.88 185.65 711.88 186.809C711.88 187.265 711.699 187.616 711.336 187.827C710.974 188.038 710.539 188.143 709.96 188.143C709.706 188.143 709.09 187.546 708.148 186.352C707.206 185.158 705.83 184.561 704.018 184.561C703.113 184.561 702.352 184.737 701.736 185.088C700.939 185.509 700.541 186.106 700.541 186.844C700.541 187.862 701.555 188.634 703.547 189.231C707.025 190.214 708.873 190.776 709.09 190.882C711.083 191.83 712.097 193.304 712.097 195.27C712.097 197.061 711.3 198.43 709.67 199.378C708.293 200.186 706.518 200.572 704.344 200.572C702.352 200.572 700.577 200.151 699.019 199.343C697.171 198.36 696.266 197.061 696.266 195.411C696.266 194.919 696.447 194.533 696.845 194.252C697.244 193.971 697.715 193.866 698.294 193.866C698.838 193.866 699.49 194.568 700.178 195.973C700.903 197.447 702.352 198.15 704.489 198.15Z" fill="#5B5038" stroke="#5B5038" stroke-width="0.111078" stroke-miterlimit="10"/>
<path d="M717.856 196.604C718.581 196.604 719.124 196.78 719.523 197.096C719.921 197.447 720.139 197.904 720.139 198.536C720.139 199.097 719.957 199.554 719.559 199.905C719.16 200.256 718.653 200.467 717.965 200.467C717.313 200.467 716.769 200.291 716.335 199.94C715.9 199.589 715.719 199.132 715.719 198.536C715.719 197.974 715.9 197.517 716.298 197.166C716.733 196.815 717.24 196.604 717.856 196.604Z" fill="#5B5038" stroke="#5B5038" stroke-width="0.111078" stroke-miterlimit="10"/>
<path d="M732.279 184.878C730.359 184.878 728.91 185.545 727.896 186.914C727.062 188.073 726.628 189.547 726.628 191.338C726.628 193.094 727.026 194.603 727.787 195.797C728.729 197.272 730.142 198.044 732.026 198.044C734.344 198.044 736.011 197.307 736.953 195.797C737.931 194.287 738.655 193.55 739.163 193.55C739.67 193.55 740.104 193.69 740.503 193.936C740.901 194.182 741.083 194.533 741.083 194.919C741.083 195.411 740.901 196.008 740.503 196.675C740.104 197.342 739.67 197.904 739.199 198.36C738.402 199.203 737.387 199.765 736.228 200.116C735.069 200.467 733.765 200.642 732.315 200.642C729.309 200.642 726.954 199.765 725.287 198.044C723.73 196.429 722.969 194.287 722.969 191.584C722.969 188.775 723.766 186.528 725.324 184.913C726.99 183.157 729.454 182.279 732.642 182.279C734.127 182.279 735.431 182.49 736.554 182.876C737.641 183.262 738.619 183.965 739.489 184.913C739.851 185.334 740.141 185.755 740.358 186.106C740.575 186.458 740.684 186.879 740.684 187.265C740.684 187.686 740.503 188.038 740.104 188.283C739.706 188.564 739.271 188.705 738.764 188.705C738.221 188.705 737.46 188.073 736.554 186.774C735.612 185.51 734.199 184.878 732.279 184.878Z" fill="#5B5038" stroke="#5B5038" stroke-width="0.111078" stroke-miterlimit="10"/>
<path d="M752.386 182.279C755.538 182.279 757.929 183.122 759.595 184.842C761.189 186.458 761.95 188.67 761.95 191.443C761.95 194.077 761.153 196.254 759.559 197.904C757.856 199.694 755.501 200.607 752.531 200.607C749.27 200.607 746.807 199.8 745.14 198.22C743.474 196.64 742.641 194.393 742.641 191.478C742.641 188.67 743.438 186.458 745.032 184.878C746.734 183.157 749.198 182.279 752.386 182.279ZM752.169 198.079C754.306 198.079 755.864 197.447 756.914 196.148C757.82 194.99 758.291 193.48 758.291 191.584C758.291 189.547 757.892 187.967 757.095 186.914C756.117 185.545 754.523 184.878 752.313 184.878C750.212 184.878 748.654 185.545 747.604 186.844C746.698 187.967 746.263 189.512 746.263 191.408C746.263 193.374 746.662 194.884 747.495 196.008C748.509 197.412 750.067 198.079 752.169 198.079Z" fill="#5B5038" stroke="#5B5038" stroke-width="0.111078" stroke-miterlimit="10"/>
<path d="M765.461 183.824C765.461 183.403 765.606 183.052 765.932 182.806C766.258 182.56 766.693 182.42 767.236 182.42C768.033 182.42 768.577 182.63 768.866 183.087C769.047 183.368 769.156 183.929 769.156 184.667C769.808 183.754 770.641 183.157 771.62 182.806C772.598 182.455 773.793 182.279 775.134 182.279C777.525 182.279 779.264 183.192 780.387 184.983C781.474 184 782.415 183.333 783.176 182.946C784.154 182.49 785.35 182.244 786.727 182.244C789.081 182.244 790.82 182.806 791.907 183.929C792.921 184.983 793.392 186.563 793.392 188.67V198.922C793.392 199.343 793.211 199.73 792.885 199.975C792.559 200.221 792.124 200.397 791.617 200.397C791.074 200.397 790.603 200.256 790.277 199.975C789.951 199.694 789.77 199.308 789.77 198.852V190.109C789.77 188.494 789.625 187.37 789.299 186.668C788.755 185.509 787.741 184.948 786.183 184.948C784.734 184.948 783.538 185.369 782.633 186.212C781.763 187.054 781.292 188.143 781.292 189.407V198.852C781.292 199.343 781.147 199.73 780.821 199.975C780.495 200.256 780.061 200.397 779.517 200.397C778.974 200.397 778.575 200.256 778.213 199.975C777.887 199.694 777.706 199.308 777.706 198.852V189.653C777.706 187.721 777.38 186.458 776.764 185.861C776.148 185.264 775.206 184.948 773.974 184.948C772.091 184.948 770.75 185.58 769.989 186.879C769.41 187.862 769.12 189.266 769.12 191.127V198.992C769.12 199.449 768.939 199.8 768.613 200.046C768.25 200.291 767.816 200.432 767.309 200.432C766.838 200.432 766.403 200.326 766.041 200.081C765.678 199.835 765.497 199.519 765.497 199.098V183.824H765.461Z" fill="#5B5038" stroke="#5B5038" stroke-width="0.111078" stroke-miterlimit="10"/>
</g>
<defs>
<linearGradient id="paint0_linear_3250_17985" x1="202.243" y1="162.28" x2="209.841" y2="44.4749" gradientUnits="userSpaceOnUse">
<stop offset="0.1207" stop-color="#128858"/>
<stop offset="0.1701" stop-color="#19905D"/>
<stop offset="0.279" stop-color="#22A268"/>
<stop offset="0.38" stop-color="#28AD6F"/>
<stop offset="0.4648" stop-color="#29B372"/>
<stop offset="0.5883" stop-color="#24A56A"/>
<stop offset="0.8231" stop-color="#158A59"/>
<stop offset="0.848" stop-color="#128858"/>
</linearGradient>
<linearGradient id="paint1_linear_3250_17985" x1="142.962" y1="159.136" x2="150.343" y2="44.7018" gradientUnits="userSpaceOnUse">
<stop stop-color="#29B372"/>
<stop offset="1" stop-color="#128858"/>
</linearGradient>
<linearGradient id="paint2_linear_3250_17985" x1="317.206" y1="160.069" x2="309.754" y2="44.5274" gradientUnits="userSpaceOnUse">
<stop stop-color="#29B372"/>
<stop offset="1" stop-color="#128858"/>
</linearGradient>
<linearGradient id="paint3_linear_3250_17985" x1="218.349" y1="44.6612" x2="284.453" y2="168.467" gradientUnits="userSpaceOnUse">
<stop stop-color="#29B372"/>
<stop offset="0.2114" stop-color="#21A067"/>
<stop offset="0.4679" stop-color="#1A925E"/>
<stop offset="0.7292" stop-color="#158A59"/>
<stop offset="1" stop-color="#128858"/>
</linearGradient>
<clipPath id="clip0_3250_17985">
<rect width="843.634" height="211.756" fill="white" transform="translate(4.21094 5.70312)"/>
</clipPath>
</defs>
</svg>
